%TF.GenerationSoftware,KiCad,Pcbnew,7.0.10*%
%TF.CreationDate,2024-03-24T23:27:10+02:00*%
%TF.ProjectId,Sensing_Subsystem_Group_8,53656e73-696e-4675-9f53-756273797374,rev?*%
%TF.SameCoordinates,Original*%
%TF.FileFunction,Copper,L1,Top*%
%TF.FilePolarity,Positive*%
%FSLAX46Y46*%
G04 Gerber Fmt 4.6, Leading zero omitted, Abs format (unit mm)*
G04 Created by KiCad (PCBNEW 7.0.10) date 2024-03-24 23:27:10*
%MOMM*%
%LPD*%
G01*
G04 APERTURE LIST*
G04 Aperture macros list*
%AMRoundRect*
0 Rectangle with rounded corners*
0 $1 Rounding radius*
0 $2 $3 $4 $5 $6 $7 $8 $9 X,Y pos of 4 corners*
0 Add a 4 corners polygon primitive as box body*
4,1,4,$2,$3,$4,$5,$6,$7,$8,$9,$2,$3,0*
0 Add four circle primitives for the rounded corners*
1,1,$1+$1,$2,$3*
1,1,$1+$1,$4,$5*
1,1,$1+$1,$6,$7*
1,1,$1+$1,$8,$9*
0 Add four rect primitives between the rounded corners*
20,1,$1+$1,$2,$3,$4,$5,0*
20,1,$1+$1,$4,$5,$6,$7,0*
20,1,$1+$1,$6,$7,$8,$9,0*
20,1,$1+$1,$8,$9,$2,$3,0*%
G04 Aperture macros list end*
%TA.AperFunction,ComponentPad*%
%ADD10C,1.651003*%
%TD*%
%TA.AperFunction,SMDPad,CuDef*%
%ADD11R,1.410008X1.350013*%
%TD*%
%TA.AperFunction,ComponentPad*%
%ADD12C,1.400000*%
%TD*%
%TA.AperFunction,SMDPad,CuDef*%
%ADD13RoundRect,0.100000X-0.130000X-0.100000X0.130000X-0.100000X0.130000X0.100000X-0.130000X0.100000X0*%
%TD*%
%TA.AperFunction,ComponentPad*%
%ADD14R,1.050000X1.500000*%
%TD*%
%TA.AperFunction,ComponentPad*%
%ADD15O,1.050000X1.500000*%
%TD*%
%TA.AperFunction,SMDPad,CuDef*%
%ADD16R,1.000000X1.500000*%
%TD*%
%TA.AperFunction,ComponentPad*%
%ADD17R,1.800000X1.800000*%
%TD*%
%TA.AperFunction,ComponentPad*%
%ADD18C,1.800000*%
%TD*%
%TA.AperFunction,SMDPad,CuDef*%
%ADD19RoundRect,0.100000X0.130000X0.100000X-0.130000X0.100000X-0.130000X-0.100000X0.130000X-0.100000X0*%
%TD*%
%TA.AperFunction,ComponentPad*%
%ADD20R,1.700000X1.700000*%
%TD*%
%TA.AperFunction,ComponentPad*%
%ADD21O,1.700000X1.700000*%
%TD*%
%TA.AperFunction,Conductor*%
%ADD22C,0.400000*%
%TD*%
%TA.AperFunction,Conductor*%
%ADD23C,0.600000*%
%TD*%
%TA.AperFunction,Conductor*%
%ADD24C,0.250000*%
%TD*%
G04 APERTURE END LIST*
%TA.AperFunction,EtchedComponent*%
%TO.C,JP21*%
G36*
X202800000Y-106480000D02*
G01*
X202300000Y-106480000D01*
X202300000Y-106080000D01*
X202800000Y-106080000D01*
X202800000Y-106480000D01*
G37*
%TD.AperFunction*%
%TA.AperFunction,EtchedComponent*%
G36*
X202800000Y-107280000D02*
G01*
X202300000Y-107280000D01*
X202300000Y-106880000D01*
X202800000Y-106880000D01*
X202800000Y-107280000D01*
G37*
%TD.AperFunction*%
%TA.AperFunction,EtchedComponent*%
%TO.C,JP20*%
G36*
X193940000Y-106480000D02*
G01*
X193440000Y-106480000D01*
X193440000Y-106080000D01*
X193940000Y-106080000D01*
X193940000Y-106480000D01*
G37*
%TD.AperFunction*%
%TA.AperFunction,EtchedComponent*%
G36*
X193940000Y-107280000D02*
G01*
X193440000Y-107280000D01*
X193440000Y-106880000D01*
X193940000Y-106880000D01*
X193940000Y-107280000D01*
G37*
%TD.AperFunction*%
%TA.AperFunction,EtchedComponent*%
%TO.C,JP19*%
G36*
X202800000Y-121720000D02*
G01*
X202300000Y-121720000D01*
X202300000Y-121320000D01*
X202800000Y-121320000D01*
X202800000Y-121720000D01*
G37*
%TD.AperFunction*%
%TA.AperFunction,EtchedComponent*%
G36*
X202800000Y-122520000D02*
G01*
X202300000Y-122520000D01*
X202300000Y-122120000D01*
X202800000Y-122120000D01*
X202800000Y-122520000D01*
G37*
%TD.AperFunction*%
%TA.AperFunction,EtchedComponent*%
%TO.C,JP18*%
G36*
X195180000Y-121720000D02*
G01*
X194680000Y-121720000D01*
X194680000Y-121320000D01*
X195180000Y-121320000D01*
X195180000Y-121720000D01*
G37*
%TD.AperFunction*%
%TA.AperFunction,EtchedComponent*%
G36*
X195180000Y-122520000D02*
G01*
X194680000Y-122520000D01*
X194680000Y-122120000D01*
X195180000Y-122120000D01*
X195180000Y-122520000D01*
G37*
%TD.AperFunction*%
%TA.AperFunction,EtchedComponent*%
%TO.C,JP17*%
G36*
X136760000Y-98860000D02*
G01*
X136260000Y-98860000D01*
X136260000Y-98460000D01*
X136760000Y-98460000D01*
X136760000Y-98860000D01*
G37*
%TD.AperFunction*%
%TA.AperFunction,EtchedComponent*%
G36*
X136760000Y-99660000D02*
G01*
X136260000Y-99660000D01*
X136260000Y-99260000D01*
X136760000Y-99260000D01*
X136760000Y-99660000D01*
G37*
%TD.AperFunction*%
%TA.AperFunction,EtchedComponent*%
%TO.C,JP16*%
G36*
X129140000Y-98860000D02*
G01*
X128640000Y-98860000D01*
X128640000Y-98460000D01*
X129140000Y-98460000D01*
X129140000Y-98860000D01*
G37*
%TD.AperFunction*%
%TA.AperFunction,EtchedComponent*%
G36*
X129140000Y-99660000D02*
G01*
X128640000Y-99660000D01*
X128640000Y-99260000D01*
X129140000Y-99260000D01*
X129140000Y-99660000D01*
G37*
%TD.AperFunction*%
%TA.AperFunction,EtchedComponent*%
%TO.C,JP14*%
G36*
X152000000Y-98860000D02*
G01*
X151500000Y-98860000D01*
X151500000Y-98460000D01*
X152000000Y-98460000D01*
X152000000Y-98860000D01*
G37*
%TD.AperFunction*%
%TA.AperFunction,EtchedComponent*%
G36*
X152000000Y-99660000D02*
G01*
X151500000Y-99660000D01*
X151500000Y-99260000D01*
X152000000Y-99260000D01*
X152000000Y-99660000D01*
G37*
%TD.AperFunction*%
%TA.AperFunction,EtchedComponent*%
%TO.C,JP13*%
G36*
X144380000Y-98860000D02*
G01*
X143880000Y-98860000D01*
X143880000Y-98460000D01*
X144380000Y-98460000D01*
X144380000Y-98860000D01*
G37*
%TD.AperFunction*%
%TA.AperFunction,EtchedComponent*%
G36*
X144380000Y-99660000D02*
G01*
X143880000Y-99660000D01*
X143880000Y-99260000D01*
X144380000Y-99260000D01*
X144380000Y-99660000D01*
G37*
%TD.AperFunction*%
%TA.AperFunction,EtchedComponent*%
%TO.C,JP12*%
G36*
X179940000Y-106480000D02*
G01*
X179440000Y-106480000D01*
X179440000Y-106080000D01*
X179940000Y-106080000D01*
X179940000Y-106480000D01*
G37*
%TD.AperFunction*%
%TA.AperFunction,EtchedComponent*%
G36*
X179940000Y-107280000D02*
G01*
X179440000Y-107280000D01*
X179440000Y-106880000D01*
X179940000Y-106880000D01*
X179940000Y-107280000D01*
G37*
%TD.AperFunction*%
%TA.AperFunction,EtchedComponent*%
%TO.C,JP11*%
G36*
X172320000Y-106480000D02*
G01*
X171820000Y-106480000D01*
X171820000Y-106080000D01*
X172320000Y-106080000D01*
X172320000Y-106480000D01*
G37*
%TD.AperFunction*%
%TA.AperFunction,EtchedComponent*%
G36*
X172320000Y-107280000D02*
G01*
X171820000Y-107280000D01*
X171820000Y-106880000D01*
X172320000Y-106880000D01*
X172320000Y-107280000D01*
G37*
%TD.AperFunction*%
%TA.AperFunction,EtchedComponent*%
%TO.C,JP10*%
G36*
X179940000Y-121720000D02*
G01*
X179440000Y-121720000D01*
X179440000Y-121320000D01*
X179940000Y-121320000D01*
X179940000Y-121720000D01*
G37*
%TD.AperFunction*%
%TA.AperFunction,EtchedComponent*%
G36*
X179940000Y-122520000D02*
G01*
X179440000Y-122520000D01*
X179440000Y-122120000D01*
X179940000Y-122120000D01*
X179940000Y-122520000D01*
G37*
%TD.AperFunction*%
%TA.AperFunction,EtchedComponent*%
%TO.C,JP9*%
G36*
X171080000Y-121720000D02*
G01*
X170580000Y-121720000D01*
X170580000Y-121320000D01*
X171080000Y-121320000D01*
X171080000Y-121720000D01*
G37*
%TD.AperFunction*%
%TA.AperFunction,EtchedComponent*%
G36*
X171080000Y-122520000D02*
G01*
X170580000Y-122520000D01*
X170580000Y-122120000D01*
X171080000Y-122120000D01*
X171080000Y-122520000D01*
G37*
%TD.AperFunction*%
%TA.AperFunction,EtchedComponent*%
%TO.C,JP8*%
G36*
X118315000Y-106480000D02*
G01*
X117815000Y-106480000D01*
X117815000Y-106080000D01*
X118315000Y-106080000D01*
X118315000Y-106480000D01*
G37*
%TD.AperFunction*%
%TA.AperFunction,EtchedComponent*%
G36*
X118315000Y-107280000D02*
G01*
X117815000Y-107280000D01*
X117815000Y-106880000D01*
X118315000Y-106880000D01*
X118315000Y-107280000D01*
G37*
%TD.AperFunction*%
%TA.AperFunction,EtchedComponent*%
%TO.C,JP7*%
G36*
X111910000Y-106480000D02*
G01*
X111410000Y-106480000D01*
X111410000Y-106080000D01*
X111910000Y-106080000D01*
X111910000Y-106480000D01*
G37*
%TD.AperFunction*%
%TA.AperFunction,EtchedComponent*%
G36*
X111910000Y-107280000D02*
G01*
X111410000Y-107280000D01*
X111410000Y-106880000D01*
X111910000Y-106880000D01*
X111910000Y-107280000D01*
G37*
%TD.AperFunction*%
%TA.AperFunction,EtchedComponent*%
%TO.C,JP6*%
G36*
X119530000Y-121720000D02*
G01*
X119030000Y-121720000D01*
X119030000Y-121320000D01*
X119530000Y-121320000D01*
X119530000Y-121720000D01*
G37*
%TD.AperFunction*%
%TA.AperFunction,EtchedComponent*%
G36*
X119530000Y-122520000D02*
G01*
X119030000Y-122520000D01*
X119030000Y-122120000D01*
X119530000Y-122120000D01*
X119530000Y-122520000D01*
G37*
%TD.AperFunction*%
%TA.AperFunction,EtchedComponent*%
%TO.C,JP5*%
G36*
X110670000Y-122520000D02*
G01*
X110170000Y-122520000D01*
X110170000Y-122120000D01*
X110670000Y-122120000D01*
X110670000Y-122520000D01*
G37*
%TD.AperFunction*%
%TA.AperFunction,EtchedComponent*%
G36*
X110670000Y-121720000D02*
G01*
X110170000Y-121720000D01*
X110170000Y-121320000D01*
X110670000Y-121320000D01*
X110670000Y-121720000D01*
G37*
%TD.AperFunction*%
%TA.AperFunction,EtchedComponent*%
%TO.C,JP4*%
G36*
X89740000Y-106480000D02*
G01*
X89240000Y-106480000D01*
X89240000Y-106080000D01*
X89740000Y-106080000D01*
X89740000Y-106480000D01*
G37*
%TD.AperFunction*%
%TA.AperFunction,EtchedComponent*%
G36*
X89740000Y-107280000D02*
G01*
X89240000Y-107280000D01*
X89240000Y-106880000D01*
X89740000Y-106880000D01*
X89740000Y-107280000D01*
G37*
%TD.AperFunction*%
%TA.AperFunction,EtchedComponent*%
%TO.C,JP3*%
G36*
X84660000Y-106480000D02*
G01*
X84160000Y-106480000D01*
X84160000Y-106080000D01*
X84660000Y-106080000D01*
X84660000Y-106480000D01*
G37*
%TD.AperFunction*%
%TA.AperFunction,EtchedComponent*%
G36*
X84660000Y-107280000D02*
G01*
X84160000Y-107280000D01*
X84160000Y-106880000D01*
X84660000Y-106880000D01*
X84660000Y-107280000D01*
G37*
%TD.AperFunction*%
%TA.AperFunction,EtchedComponent*%
%TO.C,JP2*%
G36*
X89740000Y-121720000D02*
G01*
X89240000Y-121720000D01*
X89240000Y-121320000D01*
X89740000Y-121320000D01*
X89740000Y-121720000D01*
G37*
%TD.AperFunction*%
%TA.AperFunction,EtchedComponent*%
G36*
X89740000Y-122520000D02*
G01*
X89240000Y-122520000D01*
X89240000Y-122120000D01*
X89740000Y-122120000D01*
X89740000Y-122520000D01*
G37*
%TD.AperFunction*%
%TA.AperFunction,EtchedComponent*%
%TO.C,JP1*%
G36*
X84660000Y-121720000D02*
G01*
X84160000Y-121720000D01*
X84160000Y-121320000D01*
X84660000Y-121320000D01*
X84660000Y-121720000D01*
G37*
%TD.AperFunction*%
%TA.AperFunction,EtchedComponent*%
G36*
X84660000Y-122520000D02*
G01*
X84160000Y-122520000D01*
X84160000Y-122120000D01*
X84660000Y-122120000D01*
X84660000Y-122520000D01*
G37*
%TD.AperFunction*%
%TD*%
D10*
%TO.P,LED1,2,C*%
%TO.N,BATT*%
X151130003Y-78740000D03*
%TO.P,LED1,1,E*%
%TO.N,PA3*%
X148589997Y-78740000D03*
%TD*%
D11*
%TO.P,C1,2,2*%
%TO.N,PA3*%
X150400000Y-88900000D03*
%TO.P,C1,1,1*%
%TO.N,GND*%
X152400000Y-88900000D03*
%TD*%
D12*
%TO.P,TP10,1,1*%
%TO.N,PA3*%
X154940000Y-78740000D03*
%TO.P,TP10,2*%
%TO.N,N/C*%
X157480000Y-78740000D03*
%TD*%
%TO.P,TP9,1,1*%
%TO.N,Net-(Q5-C)*%
X200660000Y-86360000D03*
%TO.P,TP9,2*%
%TO.N,N/C*%
X203200000Y-86360000D03*
%TD*%
%TO.P,TP8,1,1*%
%TO.N,Net-(JP20-B)*%
X198120000Y-101600000D03*
%TO.P,TP8,2*%
%TO.N,N/C*%
X200660000Y-101600000D03*
%TD*%
D13*
%TO.P,R28,1*%
%TO.N,Net-(D2-K)*%
X195580000Y-83820000D03*
%TO.P,R28,2*%
%TO.N,Net-(Q5-C)*%
X196220000Y-83820000D03*
%TD*%
%TO.P,R27,1*%
%TO.N,Net-(R25-Pad2)*%
X200660000Y-111760000D03*
%TO.P,R27,2*%
%TO.N,Net-(JP21-B)*%
X201300000Y-111760000D03*
%TD*%
%TO.P,R26,1*%
%TO.N,Net-(R24-Pad2)*%
X195580000Y-111760000D03*
%TO.P,R26,2*%
%TO.N,Net-(JP20-A)*%
X196220000Y-111760000D03*
%TD*%
%TO.P,R25,1*%
%TO.N,Net-(JP19-A)*%
X200660000Y-116840000D03*
%TO.P,R25,2*%
%TO.N,Net-(R25-Pad2)*%
X201300000Y-116840000D03*
%TD*%
%TO.P,R24,1*%
%TO.N,Net-(JP18-B)*%
X195605000Y-116840000D03*
%TO.P,R24,2*%
%TO.N,Net-(R24-Pad2)*%
X196245000Y-116840000D03*
%TD*%
D14*
%TO.P,Q5,1,E*%
%TO.N,GND*%
X198120000Y-96520000D03*
D15*
%TO.P,Q5,2,B*%
%TO.N,Net-(JP20-B)*%
X199390000Y-96520000D03*
%TO.P,Q5,3,C*%
%TO.N,Net-(Q5-C)*%
X200660000Y-96520000D03*
%TD*%
D16*
%TO.P,JP21,1,A*%
%TO.N,Net-(JP20-B)*%
X201900000Y-106680000D03*
%TO.P,JP21,2,B*%
%TO.N,Net-(JP21-B)*%
X203200000Y-106680000D03*
%TD*%
%TO.P,JP20,1,A*%
%TO.N,Net-(JP20-A)*%
X193040000Y-106680000D03*
%TO.P,JP20,2,B*%
%TO.N,Net-(JP20-B)*%
X194340000Y-106680000D03*
%TD*%
%TO.P,JP19,1,A*%
%TO.N,Net-(JP19-A)*%
X201900000Y-121920000D03*
%TO.P,JP19,2,B*%
%TO.N,3V3*%
X203200000Y-121920000D03*
%TD*%
%TO.P,JP18,1,A*%
%TO.N,3V3*%
X194280000Y-121920000D03*
%TO.P,JP18,2,B*%
%TO.N,Net-(JP18-B)*%
X195580000Y-121920000D03*
%TD*%
D17*
%TO.P,D2,1,K*%
%TO.N,Net-(D2-K)*%
X190500000Y-81280000D03*
D18*
%TO.P,D2,2,A*%
%TO.N,BATT*%
X187960000Y-81280000D03*
%TD*%
D12*
%TO.P,TP7,1,1*%
%TO.N,PA3*%
X138400000Y-86360000D03*
%TO.P,TP7,2*%
%TO.N,N/C*%
X140940000Y-86360000D03*
%TD*%
%TO.P,TP6,1,1*%
%TO.N,Net-(Q3-C)*%
X177800000Y-88900000D03*
%TO.P,TP6,2*%
%TO.N,N/C*%
X180340000Y-88900000D03*
%TD*%
%TO.P,TP5,1,1*%
%TO.N,Net-(Q1-C)*%
X114850000Y-88900000D03*
%TO.P,TP5,2*%
%TO.N,N/C*%
X117390000Y-88900000D03*
%TD*%
%TO.P,TP4,1,1*%
%TO.N,Net-(Q2-C)*%
X86300000Y-88900000D03*
%TO.P,TP4,2*%
%TO.N,N/C*%
X88840000Y-88900000D03*
%TD*%
%TO.P,TP3,1,1*%
%TO.N,Net-(JP11-B)*%
X175260000Y-101600000D03*
%TO.P,TP3,2*%
%TO.N,N/C*%
X177800000Y-101600000D03*
%TD*%
%TO.P,TP2,1,1*%
%TO.N,Net-(JP7-B)*%
X112310000Y-101600000D03*
%TO.P,TP2,2*%
%TO.N,N/C*%
X114850000Y-101600000D03*
%TD*%
%TO.P,TP1,1,1*%
%TO.N,Net-(JP3-B)*%
X83760000Y-101600000D03*
%TO.P,TP1,2*%
%TO.N,N/C*%
X86300000Y-101600000D03*
%TD*%
D13*
%TO.P,R22,1*%
%TO.N,Net-(JP14-A)*%
X151125000Y-106680000D03*
%TO.P,R22,2*%
%TO.N,GND*%
X151765000Y-106680000D03*
%TD*%
%TO.P,R21,1*%
%TO.N,Net-(JP13-A)*%
X143505000Y-106680000D03*
%TO.P,R21,2*%
%TO.N,GND*%
X144145000Y-106680000D03*
%TD*%
%TO.P,R20,1*%
%TO.N,Net-(JP16-A)*%
X130805000Y-106680000D03*
%TO.P,R20,2*%
%TO.N,GND*%
X131445000Y-106680000D03*
%TD*%
%TO.P,R19,1*%
%TO.N,Net-(JP17-A)*%
X135885000Y-106680000D03*
%TO.P,R19,2*%
%TO.N,GND*%
X136525000Y-106680000D03*
%TD*%
%TO.P,R17,1*%
%TO.N,Net-(D4-K)*%
X170180000Y-83820000D03*
%TO.P,R17,2*%
%TO.N,Net-(Q3-C)*%
X170820000Y-83820000D03*
%TD*%
%TO.P,R16,1*%
%TO.N,Net-(R14-Pad2)*%
X177800000Y-111760000D03*
%TO.P,R16,2*%
%TO.N,Net-(JP12-B)*%
X178440000Y-111760000D03*
%TD*%
%TO.P,R15,1*%
%TO.N,Net-(R13-Pad2)*%
X172720000Y-111760000D03*
%TO.P,R15,2*%
%TO.N,Net-(JP11-A)*%
X173360000Y-111760000D03*
%TD*%
%TO.P,R14,1*%
%TO.N,Net-(JP10-A)*%
X177800000Y-116840000D03*
%TO.P,R14,2*%
%TO.N,Net-(R14-Pad2)*%
X178440000Y-116840000D03*
%TD*%
%TO.P,R13,1*%
%TO.N,Net-(JP9-B)*%
X172720000Y-116840000D03*
%TO.P,R13,2*%
%TO.N,Net-(R13-Pad2)*%
X173360000Y-116840000D03*
%TD*%
%TO.P,R11,1*%
%TO.N,Net-(D3-K)*%
X114325000Y-83820000D03*
%TO.P,R11,2*%
%TO.N,Net-(Q1-C)*%
X114965000Y-83820000D03*
%TD*%
%TO.P,R10,1*%
%TO.N,Net-(R10-Pad1)*%
X116750000Y-111760000D03*
%TO.P,R10,2*%
%TO.N,Net-(JP8-B)*%
X117390000Y-111760000D03*
%TD*%
%TO.P,R9,1*%
%TO.N,Net-(R7-Pad2)*%
X112335000Y-111760000D03*
%TO.P,R9,2*%
%TO.N,Net-(JP7-A)*%
X112975000Y-111760000D03*
%TD*%
%TO.P,R8,1*%
%TO.N,Net-(JP6-A)*%
X117415000Y-116840000D03*
%TO.P,R8,2*%
%TO.N,Net-(R10-Pad1)*%
X118055000Y-116840000D03*
%TD*%
%TO.P,R7,1*%
%TO.N,Net-(JP5-B)*%
X111695000Y-116840000D03*
%TO.P,R7,2*%
%TO.N,Net-(R7-Pad2)*%
X112335000Y-116840000D03*
%TD*%
D19*
%TO.P,R6,1*%
%TO.N,Net-(R5-Pad2)*%
X89505000Y-111760000D03*
%TO.P,R6,2*%
%TO.N,Net-(JP4-B)*%
X88865000Y-111760000D03*
%TD*%
D13*
%TO.P,R5,1*%
%TO.N,Net-(JP2-A)*%
X88865000Y-116840000D03*
%TO.P,R5,2*%
%TO.N,Net-(R5-Pad2)*%
X89505000Y-116840000D03*
%TD*%
%TO.P,R4,1*%
%TO.N,Net-(R3-Pad2)*%
X83785000Y-111760000D03*
%TO.P,R4,2*%
%TO.N,Net-(JP3-A)*%
X84425000Y-111760000D03*
%TD*%
D19*
%TO.P,R3,1*%
%TO.N,Net-(JP1-B)*%
X84425000Y-116840000D03*
%TO.P,R3,2*%
%TO.N,Net-(R3-Pad2)*%
X83785000Y-116840000D03*
%TD*%
D13*
%TO.P,R1,1*%
%TO.N,Net-(D1-K)*%
X88235000Y-83820000D03*
%TO.P,R1,2*%
%TO.N,Net-(Q2-C)*%
X88875000Y-83820000D03*
%TD*%
D14*
%TO.P,Q3,1,E*%
%TO.N,GND*%
X175260000Y-96520000D03*
D15*
%TO.P,Q3,2,B*%
%TO.N,Net-(JP11-B)*%
X176530000Y-96520000D03*
%TO.P,Q3,3,C*%
%TO.N,Net-(Q3-C)*%
X177800000Y-96520000D03*
%TD*%
D14*
%TO.P,Q2,1,E*%
%TO.N,GND*%
X83760000Y-96520000D03*
D15*
%TO.P,Q2,2,B*%
%TO.N,Net-(JP3-B)*%
X85030000Y-96520000D03*
%TO.P,Q2,3,C*%
%TO.N,Net-(Q2-C)*%
X86300000Y-96520000D03*
%TD*%
D14*
%TO.P,Q1,1,E*%
%TO.N,GND*%
X112310000Y-96520000D03*
D15*
%TO.P,Q1,2,B*%
%TO.N,Net-(JP7-B)*%
X113580000Y-96520000D03*
%TO.P,Q1,3,C*%
%TO.N,Net-(Q1-C)*%
X114850000Y-96520000D03*
%TD*%
D16*
%TO.P,JP17,1,A*%
%TO.N,Net-(JP17-A)*%
X135860000Y-99060000D03*
%TO.P,JP17,2,B*%
%TO.N,PA3*%
X137160000Y-99060000D03*
%TD*%
%TO.P,JP16,1,A*%
%TO.N,Net-(JP16-A)*%
X128240000Y-99060000D03*
%TO.P,JP16,2,B*%
%TO.N,PA3*%
X129540000Y-99060000D03*
%TD*%
%TO.P,JP14,1,A*%
%TO.N,Net-(JP14-A)*%
X151100000Y-99060000D03*
%TO.P,JP14,2,B*%
%TO.N,PA3*%
X152400000Y-99060000D03*
%TD*%
%TO.P,JP13,1,A*%
%TO.N,Net-(JP13-A)*%
X143480000Y-99060000D03*
%TO.P,JP13,2,B*%
%TO.N,PA3*%
X144780000Y-99060000D03*
%TD*%
%TO.P,JP12,1,A*%
%TO.N,Net-(JP11-B)*%
X179040000Y-106680000D03*
%TO.P,JP12,2,B*%
%TO.N,Net-(JP12-B)*%
X180340000Y-106680000D03*
%TD*%
%TO.P,JP11,1,A*%
%TO.N,Net-(JP11-A)*%
X171420000Y-106680000D03*
%TO.P,JP11,2,B*%
%TO.N,Net-(JP11-B)*%
X172720000Y-106680000D03*
%TD*%
%TO.P,JP10,1,A*%
%TO.N,Net-(JP10-A)*%
X179040000Y-121920000D03*
%TO.P,JP10,2,B*%
%TO.N,3V3*%
X180340000Y-121920000D03*
%TD*%
%TO.P,JP9,1,A*%
%TO.N,3V3*%
X170180000Y-121920000D03*
%TO.P,JP9,2,B*%
%TO.N,Net-(JP9-B)*%
X171480000Y-121920000D03*
%TD*%
%TO.P,JP8,1,A*%
%TO.N,Net-(JP7-B)*%
X117415000Y-106680000D03*
%TO.P,JP8,2,B*%
%TO.N,Net-(JP8-B)*%
X118715000Y-106680000D03*
%TD*%
%TO.P,JP7,1,A*%
%TO.N,Net-(JP7-A)*%
X111010000Y-106680000D03*
%TO.P,JP7,2,B*%
%TO.N,Net-(JP7-B)*%
X112310000Y-106680000D03*
%TD*%
%TO.P,JP6,1,A*%
%TO.N,Net-(JP6-A)*%
X118630000Y-121920000D03*
%TO.P,JP6,2,B*%
%TO.N,3V3*%
X119930000Y-121920000D03*
%TD*%
%TO.P,JP5,2,B*%
%TO.N,Net-(JP5-B)*%
X111070000Y-121920000D03*
%TO.P,JP5,1,A*%
%TO.N,3V3*%
X109770000Y-121920000D03*
%TD*%
%TO.P,JP4,1,A*%
%TO.N,Net-(JP3-B)*%
X88840000Y-106680000D03*
%TO.P,JP4,2,B*%
%TO.N,Net-(JP4-B)*%
X90140000Y-106680000D03*
%TD*%
%TO.P,JP3,1,A*%
%TO.N,Net-(JP3-A)*%
X83760000Y-106680000D03*
%TO.P,JP3,2,B*%
%TO.N,Net-(JP3-B)*%
X85060000Y-106680000D03*
%TD*%
%TO.P,JP2,1,A*%
%TO.N,Net-(JP2-A)*%
X88840000Y-121920000D03*
%TO.P,JP2,2,B*%
%TO.N,3V3*%
X90140000Y-121920000D03*
%TD*%
%TO.P,JP1,1,A*%
%TO.N,3V3*%
X83760000Y-121920000D03*
%TO.P,JP1,2,B*%
%TO.N,Net-(JP1-B)*%
X85060000Y-121920000D03*
%TD*%
D20*
%TO.P,J1,1,Pin_1*%
%TO.N,RESV3*%
X162560000Y-132080000D03*
D21*
%TO.P,J1,2,Pin_2*%
%TO.N,3V3*%
X162560000Y-129540000D03*
%TO.P,J1,3,Pin_3*%
%TO.N,GND*%
X160020000Y-132080000D03*
%TO.P,J1,4,Pin_4*%
%TO.N,BATT*%
X160020000Y-129540000D03*
%TO.P,J1,5,Pin_5*%
%TO.N,PA3*%
X157480000Y-132080000D03*
%TO.P,J1,6,Pin_6*%
%TO.N,RESV2*%
X157480000Y-129540000D03*
%TO.P,J1,7,Pin_7*%
%TO.N,PA4*%
X154940000Y-132080000D03*
%TO.P,J1,8,Pin_8*%
%TO.N,PE15*%
X154940000Y-129540000D03*
%TO.P,J1,9,Pin_9*%
%TO.N,GND*%
X152400000Y-132080000D03*
%TO.P,J1,10,Pin_10*%
%TO.N,PE14*%
X152400000Y-129540000D03*
%TO.P,J1,11,Pin_11*%
%TO.N,PA5*%
X149860000Y-132080000D03*
%TO.P,J1,12,Pin_12*%
%TO.N,PE13*%
X149860000Y-129540000D03*
%TO.P,J1,13,Pin_13*%
%TO.N,PA6*%
X147320000Y-132080000D03*
%TO.P,J1,14,Pin_14*%
%TO.N,PE12*%
X147320000Y-129540000D03*
%TO.P,J1,15,Pin_15*%
%TO.N,GND*%
X144780000Y-132080000D03*
%TO.P,J1,16,Pin_16*%
%TO.N,PE11*%
X144780000Y-129540000D03*
%TO.P,J1,17,Pin_17*%
%TO.N,PA7*%
X142240000Y-132080000D03*
%TO.P,J1,18,Pin_18*%
%TO.N,PE10*%
X142240000Y-129540000D03*
%TO.P,J1,19,Pin_19*%
%TO.N,PC4*%
X139700000Y-132080000D03*
%TO.P,J1,20,Pin_20*%
%TO.N,PE9*%
X139700000Y-129540000D03*
%TO.P,J1,21,Pin_21*%
%TO.N,GND*%
X137160000Y-132080000D03*
%TO.P,J1,22,Pin_22*%
%TO.N,PE8*%
X137160000Y-129540000D03*
%TO.P,J1,23,Pin_23*%
%TO.N,PC5*%
X134620000Y-132080000D03*
%TO.P,J1,24,Pin_24*%
%TO.N,RESV1*%
X134620000Y-129540000D03*
%TO.P,J1,25,Pin_25*%
%TO.N,AB0*%
X132080000Y-132080000D03*
%TO.P,J1,26,Pin_26*%
%TO.N,BATT*%
X132080000Y-129540000D03*
%TO.P,J1,27,Pin_27*%
%TO.N,GND*%
X129540000Y-132080000D03*
%TO.P,J1,28,Pin_28*%
%TO.N,3V3*%
X129540000Y-129540000D03*
%TD*%
D17*
%TO.P,D4,1,K*%
%TO.N,Net-(D4-K)*%
X177800000Y-81280000D03*
D18*
%TO.P,D4,2,A*%
%TO.N,BATT*%
X175260000Y-81280000D03*
%TD*%
D17*
%TO.P,D3,1,K*%
%TO.N,Net-(D3-K)*%
X127000000Y-81280000D03*
D18*
%TO.P,D3,2,A*%
%TO.N,BATT*%
X124460000Y-81280000D03*
%TD*%
D17*
%TO.P,D1,1,K*%
%TO.N,Net-(D1-K)*%
X111760000Y-81280000D03*
D18*
%TO.P,D1,2,A*%
%TO.N,BATT*%
X109220000Y-81280000D03*
%TD*%
D22*
%TO.N,Net-(D2-K)*%
X193040000Y-81280000D02*
X195580000Y-83820000D01*
X190500000Y-81280000D02*
X193040000Y-81280000D01*
D23*
%TO.N,PA3*%
X144779994Y-78740000D02*
X148589997Y-78740000D01*
X143509997Y-80009997D02*
X144779994Y-78740000D01*
D22*
%TO.N,Net-(D1-K)*%
X110460000Y-79980000D02*
X111760000Y-81280000D01*
X91775122Y-79980000D02*
X110460000Y-79980000D01*
X88235000Y-83820000D02*
X88235000Y-83520122D01*
X88235000Y-83520122D02*
X91775122Y-79980000D01*
%TO.N,Net-(Q2-C)*%
X88875000Y-84119878D02*
X88875000Y-83820000D01*
X86609878Y-86385000D02*
X88875000Y-84119878D01*
X86300000Y-86385000D02*
X86609878Y-86385000D01*
%TO.N,Net-(D3-K)*%
X114325000Y-83520122D02*
X114325000Y-83820000D01*
X114625122Y-83220000D02*
X114325000Y-83520122D01*
X125060000Y-83220000D02*
X114625122Y-83220000D01*
%TO.N,Net-(Q1-C)*%
X114965000Y-88785000D02*
X114965000Y-83820000D01*
X114850000Y-88900000D02*
X114965000Y-88785000D01*
%TO.N,Net-(D3-K)*%
X125060000Y-83220000D02*
X127000000Y-81280000D01*
%TO.N,Net-(D4-K)*%
X176500000Y-79980000D02*
X177800000Y-81280000D01*
X173720122Y-79980000D02*
X176500000Y-79980000D01*
X170180000Y-83520122D02*
X173720122Y-79980000D01*
X170180000Y-83820000D02*
X170180000Y-83520122D01*
D23*
%TO.N,PA3*%
X143509997Y-86330003D02*
X143509997Y-80009997D01*
X143480000Y-86360000D02*
X143509997Y-86330003D01*
D22*
%TO.N,Net-(Q5-C)*%
X200660000Y-86360000D02*
X200660000Y-96520000D01*
%TO.N,Net-(Q3-C)*%
X177800000Y-96520000D02*
X177800000Y-88900000D01*
%TO.N,Net-(Q1-C)*%
X114850000Y-96520000D02*
X114850000Y-88900000D01*
%TO.N,Net-(Q2-C)*%
X86300000Y-88900000D02*
X86300000Y-96520000D01*
D23*
%TO.N,GND*%
X154100000Y-87200000D02*
X152400000Y-88900000D01*
X154100000Y-86360000D02*
X154100000Y-87200000D01*
%TO.N,PA3*%
X150400000Y-87060000D02*
X150400000Y-88900000D01*
X151100000Y-86360000D02*
X150400000Y-87060000D01*
X152400000Y-78740000D02*
X154940000Y-78740000D01*
X149860000Y-76200000D02*
X152400000Y-78740000D01*
X138400000Y-82580000D02*
X142240000Y-78740000D01*
X142240000Y-78740000D02*
X142240000Y-76200000D01*
X138400000Y-86360000D02*
X138400000Y-82580000D01*
%TO.N,GND*%
X161020000Y-93280000D02*
X161020000Y-122480000D01*
X161020000Y-122480000D02*
X159040000Y-124460000D01*
X154100000Y-86360000D02*
X161020000Y-93280000D01*
X159040000Y-124460000D02*
X159040000Y-128752233D01*
%TO.N,PA3*%
X137160000Y-96520000D02*
X142240000Y-91440000D01*
D22*
X137160000Y-99060000D02*
X137160000Y-96520000D01*
D23*
X142240000Y-91440000D02*
X144780000Y-91440000D01*
X138060000Y-91440000D02*
X142240000Y-91440000D01*
X144780000Y-99060000D02*
X144780000Y-91440000D01*
X144780000Y-91440000D02*
X152400000Y-91440000D01*
X152400000Y-99060000D02*
X152400000Y-91440000D01*
X151100000Y-77440000D02*
X151100000Y-86360000D01*
X149860000Y-76200000D02*
X151100000Y-77440000D01*
X142240000Y-76200000D02*
X149860000Y-76200000D01*
X139500000Y-87460000D02*
X138400000Y-86360000D01*
X142380000Y-87460000D02*
X139500000Y-87460000D01*
X143480000Y-86360000D02*
X142380000Y-87460000D01*
X143480000Y-90140000D02*
X143480000Y-86360000D01*
X144780000Y-91440000D02*
X143480000Y-90140000D01*
X130440000Y-99060000D02*
X138060000Y-91440000D01*
X129540000Y-99060000D02*
X130440000Y-99060000D01*
%TO.N,Net-(JP16-A)*%
X128240000Y-104115000D02*
X128240000Y-99060000D01*
X130805000Y-106680000D02*
X128240000Y-104115000D01*
D22*
%TO.N,Net-(JP17-A)*%
X135885000Y-99085000D02*
X135860000Y-99060000D01*
D23*
X135885000Y-106680000D02*
X135885000Y-99085000D01*
D22*
%TO.N,Net-(JP13-A)*%
X143505000Y-99085000D02*
X143480000Y-99060000D01*
D23*
X143505000Y-106680000D02*
X143505000Y-99085000D01*
D22*
%TO.N,Net-(JP14-A)*%
X151125000Y-99085000D02*
X151100000Y-99060000D01*
D23*
X151125000Y-106680000D02*
X151125000Y-99085000D01*
%TO.N,GND*%
X158770000Y-130830000D02*
X160020000Y-132080000D01*
X158770000Y-129022233D02*
X158770000Y-130830000D01*
D22*
X159040000Y-128752233D02*
X158770000Y-129022233D01*
D23*
X151150000Y-130830000D02*
X152400000Y-132080000D01*
X151150000Y-129022233D02*
X151150000Y-130830000D01*
X151765000Y-128407233D02*
X151150000Y-129022233D01*
X151765000Y-106680000D02*
X151765000Y-128407233D01*
X144145000Y-128407233D02*
X143530000Y-129022233D01*
X144145000Y-106680000D02*
X144145000Y-128407233D01*
X143530000Y-129022233D02*
X143530000Y-130830000D01*
X143530000Y-130830000D02*
X144780000Y-132080000D01*
X135910000Y-129022233D02*
X135910000Y-130830000D01*
X136525000Y-128407233D02*
X135910000Y-129022233D01*
X135910000Y-130830000D02*
X137160000Y-132080000D01*
X136525000Y-106680000D02*
X136525000Y-128407233D01*
X130830000Y-130790000D02*
X129540000Y-132080000D01*
X130830000Y-129022233D02*
X130830000Y-130790000D01*
X131445000Y-128407233D02*
X130830000Y-129022233D01*
X131445000Y-106680000D02*
X131445000Y-128407233D01*
D22*
%TO.N,Net-(Q5-C)*%
X198120000Y-83820000D02*
X196220000Y-83820000D01*
X200660000Y-86360000D02*
X198120000Y-83820000D01*
%TO.N,Net-(JP20-B)*%
X199390000Y-100330000D02*
X199390000Y-96520000D01*
X198120000Y-101600000D02*
X199390000Y-100330000D01*
X201900000Y-105380000D02*
X198120000Y-101600000D01*
X201900000Y-106680000D02*
X201900000Y-105380000D01*
X194340000Y-105380000D02*
X198120000Y-101600000D01*
X194340000Y-106680000D02*
X194340000Y-105380000D01*
%TO.N,Net-(JP21-B)*%
X203200000Y-109860000D02*
X203200000Y-106680000D01*
X201300000Y-111760000D02*
X203200000Y-109860000D01*
%TO.N,Net-(JP20-A)*%
X196220000Y-111460122D02*
X193040000Y-108280122D01*
X193040000Y-108280122D02*
X193040000Y-106680000D01*
X196220000Y-111760000D02*
X196220000Y-111460122D01*
%TO.N,Net-(R25-Pad2)*%
X200660000Y-112059878D02*
X200660000Y-111760000D01*
X201300000Y-112699878D02*
X200660000Y-112059878D01*
X201300000Y-116840000D02*
X201300000Y-112699878D01*
%TO.N,Net-(R24-Pad2)*%
X196245000Y-112724878D02*
X195580000Y-112059878D01*
X195580000Y-112059878D02*
X195580000Y-111760000D01*
X196245000Y-116840000D02*
X196245000Y-112724878D01*
%TO.N,Net-(JP19-A)*%
X200660000Y-120680000D02*
X200660000Y-116840000D01*
X201900000Y-121920000D02*
X200660000Y-120680000D01*
%TO.N,Net-(JP18-B)*%
X195580000Y-116865000D02*
X195605000Y-116840000D01*
X195580000Y-121920000D02*
X195580000Y-116865000D01*
%TO.N,Net-(Q3-C)*%
X172720000Y-83820000D02*
X170820000Y-83820000D01*
X177800000Y-88900000D02*
X172720000Y-83820000D01*
X175260000Y-86360000D02*
X177800000Y-88900000D01*
%TO.N,Net-(JP11-B)*%
X176530000Y-100330000D02*
X176530000Y-96520000D01*
X175260000Y-101600000D02*
X176530000Y-100330000D01*
X179040000Y-105380000D02*
X175260000Y-101600000D01*
X179040000Y-106680000D02*
X179040000Y-105380000D01*
X172720000Y-104140000D02*
X175260000Y-101600000D01*
X172720000Y-106680000D02*
X172720000Y-104140000D01*
%TO.N,Net-(JP12-B)*%
X180340000Y-109220000D02*
X180340000Y-106680000D01*
X178440000Y-111120000D02*
X180340000Y-109220000D01*
X178440000Y-111760000D02*
X178440000Y-111120000D01*
%TO.N,Net-(JP11-A)*%
X171420000Y-109520122D02*
X171420000Y-106680000D01*
X173360000Y-111460122D02*
X171420000Y-109520122D01*
X173360000Y-111760000D02*
X173360000Y-111460122D01*
%TO.N,Net-(R14-Pad2)*%
X178440000Y-112699878D02*
X177800000Y-112059878D01*
X178440000Y-116840000D02*
X178440000Y-112699878D01*
X177800000Y-112059878D02*
X177800000Y-111760000D01*
%TO.N,Net-(JP10-A)*%
X179040000Y-121920000D02*
X177800000Y-120680000D01*
X177800000Y-120680000D02*
X177800000Y-116840000D01*
%TO.N,Net-(R13-Pad2)*%
X172720000Y-112059878D02*
X172720000Y-111760000D01*
X173360000Y-112699878D02*
X172720000Y-112059878D01*
X173360000Y-116840000D02*
X173360000Y-112699878D01*
%TO.N,Net-(JP9-B)*%
X171480000Y-118080000D02*
X172720000Y-116840000D01*
X171480000Y-121920000D02*
X171480000Y-118080000D01*
%TO.N,Net-(JP7-B)*%
X113580000Y-100330000D02*
X113580000Y-96520000D01*
X112310000Y-101600000D02*
X113580000Y-100330000D01*
%TO.N,Net-(JP3-B)*%
X88840000Y-106680000D02*
X83760000Y-101600000D01*
%TO.N,Net-(JP7-B)*%
X117390000Y-106680000D02*
X112310000Y-101600000D01*
X117415000Y-106680000D02*
X117390000Y-106680000D01*
X112310000Y-106680000D02*
X112310000Y-101600000D01*
%TO.N,Net-(JP8-B)*%
X118715000Y-110435000D02*
X118715000Y-106680000D01*
X117390000Y-111760000D02*
X118715000Y-110435000D01*
%TO.N,Net-(JP7-A)*%
X111010000Y-108470000D02*
X111010000Y-106680000D01*
X112975000Y-110435000D02*
X111010000Y-108470000D01*
X112975000Y-111760000D02*
X112975000Y-110435000D01*
%TO.N,Net-(R10-Pad1)*%
X116760000Y-114220000D02*
X116760000Y-111760000D01*
X118055000Y-115515000D02*
X116760000Y-114220000D01*
X118055000Y-116840000D02*
X118055000Y-115515000D01*
%TO.N,Net-(R7-Pad2)*%
X112335000Y-116840000D02*
X112335000Y-111760000D01*
%TO.N,Net-(JP6-A)*%
X117415000Y-120705000D02*
X117415000Y-116840000D01*
X118630000Y-121920000D02*
X117415000Y-120705000D01*
%TO.N,Net-(JP5-B)*%
X111070000Y-117465000D02*
X111695000Y-116840000D01*
X111070000Y-121920000D02*
X111070000Y-117465000D01*
%TO.N,Net-(Q2-C)*%
X86300000Y-88900000D02*
X86300000Y-86385000D01*
%TO.N,GND*%
X78740000Y-132080000D02*
X129540000Y-132080000D01*
X78740000Y-101540000D02*
X78740000Y-132080000D01*
X83760000Y-96520000D02*
X78740000Y-101540000D01*
%TO.N,Net-(JP3-B)*%
X85030000Y-100330000D02*
X85030000Y-96520000D01*
X83760000Y-101600000D02*
X85030000Y-100330000D01*
%TO.N,*%
X86300000Y-101600000D02*
X86360000Y-101600000D01*
%TO.N,Net-(JP3-B)*%
X85060000Y-102900000D02*
X83760000Y-101600000D01*
X85060000Y-106680000D02*
X85060000Y-102900000D01*
%TO.N,Net-(JP4-B)*%
X88865000Y-109910000D02*
X90140000Y-108635000D01*
X88865000Y-111760000D02*
X88865000Y-109910000D01*
X90140000Y-108635000D02*
X90140000Y-106680000D01*
%TO.N,Net-(JP3-A)*%
X83760000Y-107430000D02*
X83760000Y-106680000D01*
X84425000Y-108095000D02*
X83760000Y-107430000D01*
X84425000Y-111760000D02*
X84425000Y-108095000D01*
%TO.N,Net-(R5-Pad2)*%
X89505000Y-116840000D02*
X89505000Y-111760000D01*
%TO.N,Net-(R3-Pad2)*%
X83785000Y-116840000D02*
X83785000Y-111760000D01*
%TO.N,Net-(JP2-A)*%
X88840000Y-116865000D02*
X88865000Y-116840000D01*
X88840000Y-121920000D02*
X88840000Y-116865000D01*
%TO.N,Net-(JP1-B)*%
X85060000Y-117475000D02*
X84425000Y-116840000D01*
X85060000Y-121920000D02*
X85060000Y-117475000D01*
%TO.N,3V3*%
X83760000Y-129480000D02*
X83760000Y-121920000D01*
D24*
X83820000Y-129540000D02*
X83760000Y-129480000D01*
D22*
X129540000Y-129540000D02*
X83820000Y-129540000D01*
X90140000Y-128240000D02*
X90140000Y-121920000D01*
X91440000Y-129540000D02*
X90140000Y-128240000D01*
X129540000Y-129540000D02*
X91440000Y-129540000D01*
X109770000Y-127550000D02*
X109770000Y-121920000D01*
X111760000Y-129540000D02*
X109770000Y-127550000D01*
X129540000Y-129540000D02*
X111760000Y-129540000D01*
X119930000Y-127550000D02*
X119930000Y-121920000D01*
X121920000Y-129540000D02*
X119930000Y-127550000D01*
D24*
X129540000Y-129540000D02*
X121920000Y-129540000D01*
D22*
X162560000Y-129540000D02*
X200660000Y-129540000D01*
X200660000Y-129540000D02*
X203200000Y-127000000D01*
X203200000Y-127000000D02*
X203200000Y-121920000D01*
X194280000Y-128300000D02*
X194280000Y-121920000D01*
X193040000Y-129540000D02*
X194280000Y-128300000D01*
X162560000Y-129540000D02*
X193040000Y-129540000D01*
X180340000Y-129540000D02*
X180340000Y-121920000D01*
X162560000Y-129540000D02*
X180340000Y-129540000D01*
X162560000Y-121920000D02*
X170180000Y-121920000D01*
X162560000Y-129540000D02*
X162560000Y-121920000D01*
%TD*%
%TA.AperFunction,Conductor*%
%TO.N,GND*%
G36*
X130894855Y-130206546D02*
G01*
X130911575Y-130225842D01*
X131041501Y-130411396D01*
X131041506Y-130411402D01*
X131208597Y-130578493D01*
X131208603Y-130578498D01*
X131394158Y-130708425D01*
X131437783Y-130763002D01*
X131444977Y-130832500D01*
X131413454Y-130894855D01*
X131394158Y-130911575D01*
X131208597Y-131041505D01*
X131041508Y-131208594D01*
X130911269Y-131394595D01*
X130856692Y-131438219D01*
X130787193Y-131445412D01*
X130724839Y-131413890D01*
X130708119Y-131394594D01*
X130578113Y-131208926D01*
X130578108Y-131208920D01*
X130411078Y-131041890D01*
X130225405Y-130911879D01*
X130181780Y-130857302D01*
X130174588Y-130787804D01*
X130206110Y-130725449D01*
X130225406Y-130708730D01*
X130225842Y-130708425D01*
X130411401Y-130578495D01*
X130578495Y-130411401D01*
X130708425Y-130225842D01*
X130763002Y-130182217D01*
X130832500Y-130175023D01*
X130894855Y-130206546D01*
G37*
%TD.AperFunction*%
%TA.AperFunction,Conductor*%
G36*
X135974855Y-130206546D02*
G01*
X135991575Y-130225842D01*
X136038863Y-130293377D01*
X136121505Y-130411401D01*
X136288599Y-130578495D01*
X136455439Y-130695318D01*
X136474594Y-130708730D01*
X136518219Y-130763307D01*
X136525413Y-130832805D01*
X136493890Y-130895160D01*
X136474595Y-130911880D01*
X136288922Y-131041890D01*
X136288920Y-131041891D01*
X136121891Y-131208920D01*
X136121890Y-131208922D01*
X135991880Y-131394595D01*
X135937303Y-131438219D01*
X135867804Y-131445412D01*
X135805450Y-131413890D01*
X135788730Y-131394594D01*
X135658494Y-131208597D01*
X135491402Y-131041506D01*
X135491396Y-131041501D01*
X135305842Y-130911575D01*
X135262217Y-130856998D01*
X135255023Y-130787500D01*
X135286546Y-130725145D01*
X135305842Y-130708425D01*
X135418054Y-130629853D01*
X135491401Y-130578495D01*
X135658495Y-130411401D01*
X135788425Y-130225842D01*
X135843002Y-130182217D01*
X135912500Y-130175023D01*
X135974855Y-130206546D01*
G37*
%TD.AperFunction*%
%TA.AperFunction,Conductor*%
G36*
X143594855Y-130206546D02*
G01*
X143611575Y-130225842D01*
X143658863Y-130293377D01*
X143741505Y-130411401D01*
X143908599Y-130578495D01*
X144075439Y-130695318D01*
X144094594Y-130708730D01*
X144138219Y-130763307D01*
X144145413Y-130832805D01*
X144113890Y-130895160D01*
X144094595Y-130911880D01*
X143908922Y-131041890D01*
X143908920Y-131041891D01*
X143741891Y-131208920D01*
X143741890Y-131208922D01*
X143611880Y-131394595D01*
X143557303Y-131438219D01*
X143487804Y-131445412D01*
X143425450Y-131413890D01*
X143408730Y-131394594D01*
X143278494Y-131208597D01*
X143111402Y-131041506D01*
X143111396Y-131041501D01*
X142925842Y-130911575D01*
X142882217Y-130856998D01*
X142875023Y-130787500D01*
X142906546Y-130725145D01*
X142925842Y-130708425D01*
X143038054Y-130629853D01*
X143111401Y-130578495D01*
X143278495Y-130411401D01*
X143408425Y-130225842D01*
X143463002Y-130182217D01*
X143532500Y-130175023D01*
X143594855Y-130206546D01*
G37*
%TD.AperFunction*%
%TA.AperFunction,Conductor*%
G36*
X151214855Y-130206546D02*
G01*
X151231575Y-130225842D01*
X151278863Y-130293377D01*
X151361505Y-130411401D01*
X151528599Y-130578495D01*
X151695439Y-130695318D01*
X151714594Y-130708730D01*
X151758219Y-130763307D01*
X151765413Y-130832805D01*
X151733890Y-130895160D01*
X151714595Y-130911880D01*
X151528922Y-131041890D01*
X151528920Y-131041891D01*
X151361891Y-131208920D01*
X151361890Y-131208922D01*
X151231880Y-131394595D01*
X151177303Y-131438219D01*
X151107804Y-131445412D01*
X151045450Y-131413890D01*
X151028730Y-131394594D01*
X150898494Y-131208597D01*
X150731402Y-131041506D01*
X150731396Y-131041501D01*
X150545842Y-130911575D01*
X150502217Y-130856998D01*
X150495023Y-130787500D01*
X150526546Y-130725145D01*
X150545842Y-130708425D01*
X150658054Y-130629853D01*
X150731401Y-130578495D01*
X150898495Y-130411401D01*
X151028425Y-130225842D01*
X151083002Y-130182217D01*
X151152500Y-130175023D01*
X151214855Y-130206546D01*
G37*
%TD.AperFunction*%
%TA.AperFunction,Conductor*%
G36*
X158834855Y-130206546D02*
G01*
X158851575Y-130225842D01*
X158898863Y-130293377D01*
X158981505Y-130411401D01*
X159148599Y-130578495D01*
X159315439Y-130695318D01*
X159334594Y-130708730D01*
X159378219Y-130763307D01*
X159385413Y-130832805D01*
X159353890Y-130895160D01*
X159334595Y-130911880D01*
X159148922Y-131041890D01*
X159148920Y-131041891D01*
X158981891Y-131208920D01*
X158981890Y-131208922D01*
X158851880Y-131394595D01*
X158797303Y-131438219D01*
X158727804Y-131445412D01*
X158665450Y-131413890D01*
X158648730Y-131394594D01*
X158518494Y-131208597D01*
X158351402Y-131041506D01*
X158351396Y-131041501D01*
X158165842Y-130911575D01*
X158122217Y-130856998D01*
X158115023Y-130787500D01*
X158146546Y-130725145D01*
X158165842Y-130708425D01*
X158278054Y-130629853D01*
X158351401Y-130578495D01*
X158518495Y-130411401D01*
X158648425Y-130225842D01*
X158703002Y-130182217D01*
X158772500Y-130175023D01*
X158834855Y-130206546D01*
G37*
%TD.AperFunction*%
%TA.AperFunction,Conductor*%
G36*
X208222539Y-73680185D02*
G01*
X208268294Y-73732989D01*
X208279500Y-73784500D01*
X208279500Y-137035500D01*
X208259815Y-137102539D01*
X208207011Y-137148294D01*
X208155500Y-137159500D01*
X76324500Y-137159500D01*
X76257461Y-137139815D01*
X76211706Y-137087011D01*
X76200500Y-137035500D01*
X76200500Y-101600000D01*
X82554357Y-101600000D01*
X82574884Y-101821535D01*
X82574885Y-101821537D01*
X82635769Y-102035523D01*
X82635775Y-102035538D01*
X82734938Y-102234683D01*
X82734943Y-102234691D01*
X82869020Y-102412238D01*
X83033437Y-102562123D01*
X83033439Y-102562125D01*
X83222595Y-102679245D01*
X83222596Y-102679245D01*
X83222599Y-102679247D01*
X83430060Y-102759618D01*
X83648757Y-102800500D01*
X83648759Y-102800500D01*
X83871241Y-102800500D01*
X83871243Y-102800500D01*
X83890067Y-102796981D01*
X83959581Y-102804012D01*
X84000532Y-102831189D01*
X84323181Y-103153838D01*
X84356666Y-103215161D01*
X84359500Y-103241519D01*
X84359500Y-105305500D01*
X84339815Y-105372539D01*
X84287011Y-105418294D01*
X84235500Y-105429500D01*
X83212129Y-105429500D01*
X83212123Y-105429501D01*
X83152516Y-105435908D01*
X83017671Y-105486202D01*
X83017664Y-105486206D01*
X82902455Y-105572452D01*
X82902452Y-105572455D01*
X82816206Y-105687664D01*
X82816202Y-105687671D01*
X82765908Y-105822517D01*
X82759501Y-105882116D01*
X82759501Y-105882123D01*
X82759500Y-105882135D01*
X82759500Y-107477870D01*
X82759501Y-107477876D01*
X82765908Y-107537483D01*
X82816202Y-107672328D01*
X82816206Y-107672335D01*
X82902452Y-107787544D01*
X82902455Y-107787547D01*
X83017664Y-107873793D01*
X83017671Y-107873797D01*
X83152516Y-107924091D01*
X83212116Y-107930499D01*
X83212118Y-107930499D01*
X83212127Y-107930500D01*
X83218470Y-107930499D01*
X83285509Y-107950177D01*
X83306161Y-107966818D01*
X83688181Y-108348838D01*
X83721666Y-108410161D01*
X83724500Y-108436519D01*
X83724500Y-110936424D01*
X83704815Y-111003463D01*
X83652011Y-111049218D01*
X83616684Y-111059363D01*
X83498246Y-111074954D01*
X83498237Y-111074956D01*
X83352160Y-111135463D01*
X83226718Y-111231718D01*
X83130463Y-111357160D01*
X83069956Y-111503237D01*
X83069955Y-111503239D01*
X83054500Y-111620638D01*
X83054500Y-111899363D01*
X83069953Y-112016753D01*
X83069957Y-112016765D01*
X83075060Y-112029084D01*
X83084500Y-112076538D01*
X83084500Y-116523461D01*
X83075062Y-116570911D01*
X83069956Y-116583238D01*
X83054500Y-116700638D01*
X83054500Y-116979363D01*
X83069953Y-117096753D01*
X83069956Y-117096762D01*
X83130464Y-117242841D01*
X83226718Y-117368282D01*
X83352159Y-117464536D01*
X83498238Y-117525044D01*
X83615639Y-117540500D01*
X83685501Y-117540499D01*
X83685508Y-117540500D01*
X83699944Y-117540500D01*
X83880046Y-117540500D01*
X83880058Y-117540499D01*
X83954362Y-117540499D01*
X84053221Y-117527485D01*
X84122256Y-117538251D01*
X84157083Y-117562740D01*
X84323182Y-117728838D01*
X84356666Y-117790160D01*
X84359500Y-117816518D01*
X84359500Y-120545500D01*
X84339815Y-120612539D01*
X84287011Y-120658294D01*
X84235500Y-120669500D01*
X83212129Y-120669500D01*
X83212123Y-120669501D01*
X83152516Y-120675908D01*
X83017671Y-120726202D01*
X83017664Y-120726206D01*
X82902455Y-120812452D01*
X82902452Y-120812455D01*
X82816206Y-120927664D01*
X82816202Y-120927671D01*
X82765908Y-121062517D01*
X82760008Y-121117403D01*
X82759501Y-121122123D01*
X82759500Y-121122135D01*
X82759500Y-122717870D01*
X82759501Y-122717876D01*
X82765908Y-122777483D01*
X82816202Y-122912328D01*
X82816206Y-122912335D01*
X82885358Y-123004709D01*
X82902454Y-123027546D01*
X83009811Y-123107914D01*
X83051682Y-123163847D01*
X83059500Y-123207180D01*
X83059500Y-129522374D01*
X83074859Y-129648868D01*
X83074860Y-129648874D01*
X83135182Y-129807931D01*
X83197475Y-129898177D01*
X83231817Y-129947929D01*
X83289962Y-129999440D01*
X83300550Y-130010028D01*
X83352071Y-130068183D01*
X83492068Y-130164817D01*
X83492069Y-130164817D01*
X83492070Y-130164818D01*
X83518979Y-130175023D01*
X83620949Y-130213695D01*
X83651128Y-130225140D01*
X83720094Y-130233514D01*
X83777626Y-130240500D01*
X83777628Y-130240500D01*
X91365073Y-130240500D01*
X91387424Y-130242531D01*
X91397394Y-130244358D01*
X91457433Y-130240725D01*
X91464921Y-130240500D01*
X111685073Y-130240500D01*
X111707424Y-130242531D01*
X111717394Y-130244358D01*
X111777433Y-130240725D01*
X111784921Y-130240500D01*
X121845073Y-130240500D01*
X121867424Y-130242531D01*
X121877394Y-130244358D01*
X121937433Y-130240725D01*
X121944921Y-130240500D01*
X128317289Y-130240500D01*
X128384328Y-130260185D01*
X128418864Y-130293377D01*
X128501505Y-130411402D01*
X128623429Y-130533325D01*
X128668599Y-130578495D01*
X128835439Y-130695318D01*
X128854594Y-130708730D01*
X128898219Y-130763307D01*
X128905413Y-130832805D01*
X128873890Y-130895160D01*
X128854595Y-130911880D01*
X128668922Y-131041890D01*
X128668920Y-131041891D01*
X128501891Y-131208920D01*
X128501886Y-131208926D01*
X128366400Y-131402420D01*
X128366399Y-131402422D01*
X128266570Y-131616507D01*
X128266567Y-131616513D01*
X128209364Y-131829999D01*
X128209364Y-131830000D01*
X129106314Y-131830000D01*
X129080507Y-131870156D01*
X129040000Y-132008111D01*
X129040000Y-132151889D01*
X129080507Y-132289844D01*
X129106314Y-132330000D01*
X128209364Y-132330000D01*
X128266567Y-132543486D01*
X128266570Y-132543492D01*
X128366399Y-132757578D01*
X128501894Y-132951082D01*
X128668917Y-133118105D01*
X128862421Y-133253600D01*
X129076507Y-133353429D01*
X129076516Y-133353433D01*
X129290000Y-133410634D01*
X129290000Y-132515501D01*
X129397685Y-132564680D01*
X129504237Y-132580000D01*
X129575763Y-132580000D01*
X129682315Y-132564680D01*
X129790000Y-132515501D01*
X129790000Y-133410633D01*
X130003483Y-133353433D01*
X130003492Y-133353429D01*
X130217578Y-133253600D01*
X130411082Y-133118105D01*
X130578105Y-132951082D01*
X130708119Y-132765405D01*
X130762696Y-132721781D01*
X130832195Y-132714588D01*
X130894549Y-132746110D01*
X130911269Y-132765405D01*
X131041505Y-132951401D01*
X131208599Y-133118495D01*
X131305384Y-133186265D01*
X131402165Y-133254032D01*
X131402167Y-133254033D01*
X131402170Y-133254035D01*
X131616337Y-133353903D01*
X131844592Y-133415063D01*
X132021034Y-133430500D01*
X132079999Y-133435659D01*
X132080000Y-133435659D01*
X132080001Y-133435659D01*
X132138966Y-133430500D01*
X132315408Y-133415063D01*
X132543663Y-133353903D01*
X132757830Y-133254035D01*
X132951401Y-133118495D01*
X133118495Y-132951401D01*
X133248425Y-132765842D01*
X133303002Y-132722217D01*
X133372500Y-132715023D01*
X133434855Y-132746546D01*
X133451575Y-132765842D01*
X133581281Y-132951082D01*
X133581505Y-132951401D01*
X133748599Y-133118495D01*
X133845384Y-133186265D01*
X133942165Y-133254032D01*
X133942167Y-133254033D01*
X133942170Y-133254035D01*
X134156337Y-133353903D01*
X134384592Y-133415063D01*
X134561034Y-133430500D01*
X134619999Y-133435659D01*
X134620000Y-133435659D01*
X134620001Y-133435659D01*
X134678966Y-133430500D01*
X134855408Y-133415063D01*
X135083663Y-133353903D01*
X135297830Y-133254035D01*
X135491401Y-133118495D01*
X135658495Y-132951401D01*
X135788730Y-132765405D01*
X135843307Y-132721781D01*
X135912805Y-132714587D01*
X135975160Y-132746110D01*
X135991879Y-132765405D01*
X136121890Y-132951078D01*
X136288917Y-133118105D01*
X136482421Y-133253600D01*
X136696507Y-133353429D01*
X136696516Y-133353433D01*
X136910000Y-133410634D01*
X136910000Y-132515501D01*
X137017685Y-132564680D01*
X137124237Y-132580000D01*
X137195763Y-132580000D01*
X137302315Y-132564680D01*
X137410000Y-132515501D01*
X137410000Y-133410633D01*
X137623483Y-133353433D01*
X137623492Y-133353429D01*
X137837578Y-133253600D01*
X138031082Y-133118105D01*
X138198105Y-132951082D01*
X138328119Y-132765405D01*
X138382696Y-132721781D01*
X138452195Y-132714588D01*
X138514549Y-132746110D01*
X138531269Y-132765405D01*
X138661505Y-132951401D01*
X138828599Y-133118495D01*
X138925384Y-133186265D01*
X139022165Y-133254032D01*
X139022167Y-133254033D01*
X139022170Y-133254035D01*
X139236337Y-133353903D01*
X139464592Y-133415063D01*
X139641034Y-133430500D01*
X139699999Y-133435659D01*
X139700000Y-133435659D01*
X139700001Y-133435659D01*
X139758966Y-133430500D01*
X139935408Y-133415063D01*
X140163663Y-133353903D01*
X140377830Y-133254035D01*
X140571401Y-133118495D01*
X140738495Y-132951401D01*
X140868425Y-132765842D01*
X140923002Y-132722217D01*
X140992500Y-132715023D01*
X141054855Y-132746546D01*
X141071575Y-132765842D01*
X141201281Y-132951082D01*
X141201505Y-132951401D01*
X141368599Y-133118495D01*
X141465384Y-133186265D01*
X141562165Y-133254032D01*
X141562167Y-133254033D01*
X141562170Y-133254035D01*
X141776337Y-133353903D01*
X142004592Y-133415063D01*
X142181034Y-133430500D01*
X142239999Y-133435659D01*
X142240000Y-133435659D01*
X142240001Y-133435659D01*
X142298966Y-133430500D01*
X142475408Y-133415063D01*
X142703663Y-133353903D01*
X142917830Y-133254035D01*
X143111401Y-133118495D01*
X143278495Y-132951401D01*
X143408730Y-132765405D01*
X143463307Y-132721781D01*
X143532805Y-132714587D01*
X143595160Y-132746110D01*
X143611879Y-132765405D01*
X143741890Y-132951078D01*
X143908917Y-133118105D01*
X144102421Y-133253600D01*
X144316507Y-133353429D01*
X144316516Y-133353433D01*
X144530000Y-133410634D01*
X144530000Y-132515501D01*
X144637685Y-132564680D01*
X144744237Y-132580000D01*
X144815763Y-132580000D01*
X144922315Y-132564680D01*
X145030000Y-132515501D01*
X145030000Y-133410633D01*
X145243483Y-133353433D01*
X145243492Y-133353429D01*
X145457578Y-133253600D01*
X145651082Y-133118105D01*
X145818105Y-132951082D01*
X145948119Y-132765405D01*
X146002696Y-132721781D01*
X146072195Y-132714588D01*
X146134549Y-132746110D01*
X146151269Y-132765405D01*
X146281505Y-132951401D01*
X146448599Y-133118495D01*
X146545384Y-133186265D01*
X146642165Y-133254032D01*
X146642167Y-133254033D01*
X146642170Y-133254035D01*
X146856337Y-133353903D01*
X147084592Y-133415063D01*
X147261034Y-133430500D01*
X147319999Y-133435659D01*
X147320000Y-133435659D01*
X147320001Y-133435659D01*
X147378966Y-133430500D01*
X147555408Y-133415063D01*
X147783663Y-133353903D01*
X147997830Y-133254035D01*
X148191401Y-133118495D01*
X148358495Y-132951401D01*
X148488425Y-132765842D01*
X148543002Y-132722217D01*
X148612500Y-132715023D01*
X148674855Y-132746546D01*
X148691575Y-132765842D01*
X148821281Y-132951082D01*
X148821505Y-132951401D01*
X148988599Y-133118495D01*
X149085384Y-133186265D01*
X149182165Y-133254032D01*
X149182167Y-133254033D01*
X149182170Y-133254035D01*
X149396337Y-133353903D01*
X149624592Y-133415063D01*
X149801034Y-133430500D01*
X149859999Y-133435659D01*
X149860000Y-133435659D01*
X149860001Y-133435659D01*
X149918966Y-133430500D01*
X150095408Y-133415063D01*
X150323663Y-133353903D01*
X150537830Y-133254035D01*
X150731401Y-133118495D01*
X150898495Y-132951401D01*
X151028730Y-132765405D01*
X151083307Y-132721781D01*
X151152805Y-132714587D01*
X151215160Y-132746110D01*
X151231879Y-132765405D01*
X151361890Y-132951078D01*
X151528917Y-133118105D01*
X151722421Y-133253600D01*
X151936507Y-133353429D01*
X151936516Y-133353433D01*
X152150000Y-133410634D01*
X152150000Y-132515501D01*
X152257685Y-132564680D01*
X152364237Y-132580000D01*
X152435763Y-132580000D01*
X152542315Y-132564680D01*
X152650000Y-132515501D01*
X152650000Y-133410633D01*
X152863483Y-133353433D01*
X152863492Y-133353429D01*
X153077578Y-133253600D01*
X153271082Y-133118105D01*
X153438105Y-132951082D01*
X153568119Y-132765405D01*
X153622696Y-132721781D01*
X153692195Y-132714588D01*
X153754549Y-132746110D01*
X153771269Y-132765405D01*
X153901505Y-132951401D01*
X154068599Y-133118495D01*
X154165384Y-133186265D01*
X154262165Y-133254032D01*
X154262167Y-133254033D01*
X154262170Y-133254035D01*
X154476337Y-133353903D01*
X154704592Y-133415063D01*
X154881034Y-133430500D01*
X154939999Y-133435659D01*
X154940000Y-133435659D01*
X154940001Y-133435659D01*
X154998966Y-133430500D01*
X155175408Y-133415063D01*
X155403663Y-133353903D01*
X155617830Y-133254035D01*
X155811401Y-133118495D01*
X155978495Y-132951401D01*
X156108425Y-132765842D01*
X156163002Y-132722217D01*
X156232500Y-132715023D01*
X156294855Y-132746546D01*
X156311575Y-132765842D01*
X156441281Y-132951082D01*
X156441505Y-132951401D01*
X156608599Y-133118495D01*
X156705384Y-133186265D01*
X156802165Y-133254032D01*
X156802167Y-133254033D01*
X156802170Y-133254035D01*
X157016337Y-133353903D01*
X157244592Y-133415063D01*
X157421034Y-133430500D01*
X157479999Y-133435659D01*
X157480000Y-133435659D01*
X157480001Y-133435659D01*
X157538966Y-133430500D01*
X157715408Y-133415063D01*
X157943663Y-133353903D01*
X158157830Y-133254035D01*
X158351401Y-133118495D01*
X158518495Y-132951401D01*
X158648730Y-132765405D01*
X158703307Y-132721781D01*
X158772805Y-132714587D01*
X158835160Y-132746110D01*
X158851879Y-132765405D01*
X158981890Y-132951078D01*
X159148917Y-133118105D01*
X159342421Y-133253600D01*
X159556507Y-133353429D01*
X159556516Y-133353433D01*
X159770000Y-133410634D01*
X159770000Y-132515501D01*
X159877685Y-132564680D01*
X159984237Y-132580000D01*
X160055763Y-132580000D01*
X160162315Y-132564680D01*
X160270000Y-132515501D01*
X160270000Y-133410633D01*
X160483483Y-133353433D01*
X160483492Y-133353429D01*
X160697578Y-133253600D01*
X160891078Y-133118108D01*
X161013133Y-132996053D01*
X161074456Y-132962568D01*
X161144148Y-132967552D01*
X161200082Y-133009423D01*
X161216997Y-133040401D01*
X161266202Y-133172328D01*
X161266206Y-133172335D01*
X161352452Y-133287544D01*
X161352455Y-133287547D01*
X161467664Y-133373793D01*
X161467671Y-133373797D01*
X161602517Y-133424091D01*
X161602516Y-133424091D01*
X161609444Y-133424835D01*
X161662127Y-133430500D01*
X163457872Y-133430499D01*
X163517483Y-133424091D01*
X163652331Y-133373796D01*
X163767546Y-133287546D01*
X163853796Y-133172331D01*
X163904091Y-133037483D01*
X163910500Y-132977873D01*
X163910499Y-131182128D01*
X163904091Y-131122517D01*
X163903002Y-131119598D01*
X163853797Y-130987671D01*
X163853793Y-130987664D01*
X163767547Y-130872455D01*
X163767544Y-130872452D01*
X163652335Y-130786206D01*
X163652328Y-130786202D01*
X163520917Y-130737189D01*
X163464983Y-130695318D01*
X163440566Y-130629853D01*
X163455418Y-130561580D01*
X163476563Y-130533332D01*
X163598495Y-130411401D01*
X163681136Y-130293376D01*
X163735713Y-130249752D01*
X163782711Y-130240500D01*
X180254944Y-130240500D01*
X180425056Y-130240500D01*
X193015079Y-130240500D01*
X193022566Y-130240725D01*
X193082606Y-130244358D01*
X193092576Y-130242531D01*
X193114927Y-130240500D01*
X200635079Y-130240500D01*
X200642566Y-130240725D01*
X200702606Y-130244358D01*
X200761782Y-130233513D01*
X200769185Y-130232387D01*
X200772921Y-130231933D01*
X200828872Y-130225140D01*
X200838335Y-130221550D01*
X200859961Y-130215522D01*
X200860893Y-130215351D01*
X200869932Y-130213695D01*
X200924808Y-130188996D01*
X200931678Y-130186150D01*
X200987930Y-130164818D01*
X200996266Y-130159062D01*
X201015821Y-130148034D01*
X201025057Y-130143878D01*
X201072413Y-130106775D01*
X201078404Y-130102366D01*
X201127929Y-130068183D01*
X201167822Y-130023151D01*
X201172924Y-130017731D01*
X203677731Y-127512924D01*
X203683151Y-127507822D01*
X203728183Y-127467929D01*
X203762358Y-127418416D01*
X203766779Y-127412407D01*
X203803877Y-127365057D01*
X203808029Y-127355828D01*
X203819062Y-127336268D01*
X203819419Y-127335750D01*
X203824818Y-127327930D01*
X203846154Y-127271668D01*
X203849014Y-127264766D01*
X203873693Y-127209934D01*
X203873692Y-127209934D01*
X203873694Y-127209932D01*
X203875520Y-127199965D01*
X203881548Y-127178340D01*
X203885140Y-127168872D01*
X203892389Y-127109169D01*
X203893516Y-127101762D01*
X203904357Y-127042606D01*
X203900726Y-126982577D01*
X203900500Y-126975090D01*
X203900500Y-123207180D01*
X203920185Y-123140141D01*
X203950187Y-123107914D01*
X204057546Y-123027546D01*
X204143796Y-122912331D01*
X204194091Y-122777483D01*
X204200500Y-122717873D01*
X204200499Y-121122128D01*
X204194091Y-121062517D01*
X204193455Y-121060813D01*
X204143797Y-120927671D01*
X204143793Y-120927664D01*
X204057547Y-120812455D01*
X204057544Y-120812452D01*
X203942335Y-120726206D01*
X203942328Y-120726202D01*
X203807482Y-120675908D01*
X203807483Y-120675908D01*
X203747883Y-120669501D01*
X203747881Y-120669500D01*
X203747873Y-120669500D01*
X203747864Y-120669500D01*
X202652129Y-120669500D01*
X202652123Y-120669501D01*
X202592520Y-120675908D01*
X202584974Y-120677692D01*
X202584628Y-120676230D01*
X202523622Y-120680584D01*
X202508600Y-120676172D01*
X202507482Y-120675908D01*
X202447883Y-120669501D01*
X202447881Y-120669500D01*
X202447873Y-120669500D01*
X202447865Y-120669500D01*
X201691519Y-120669500D01*
X201624480Y-120649815D01*
X201603838Y-120633181D01*
X201396819Y-120426162D01*
X201363334Y-120364839D01*
X201360500Y-120338481D01*
X201360500Y-117663575D01*
X201380185Y-117596536D01*
X201432989Y-117550781D01*
X201468317Y-117540636D01*
X201469358Y-117540499D01*
X201469360Y-117540499D01*
X201586762Y-117525044D01*
X201732841Y-117464536D01*
X201858282Y-117368282D01*
X201954536Y-117242841D01*
X202015044Y-117096762D01*
X202030500Y-116979361D01*
X202030499Y-116700640D01*
X202030499Y-116700638D01*
X202030499Y-116700636D01*
X202015045Y-116583241D01*
X202015044Y-116583238D01*
X202009939Y-116570913D01*
X202000500Y-116523460D01*
X202000500Y-112724798D01*
X202000726Y-112717310D01*
X202004358Y-112657272D01*
X201993514Y-112598099D01*
X201992387Y-112590693D01*
X201991363Y-112582259D01*
X201985140Y-112531006D01*
X201981548Y-112521534D01*
X201975521Y-112499912D01*
X201973695Y-112489949D01*
X201973693Y-112489941D01*
X201949009Y-112435099D01*
X201946154Y-112428209D01*
X201924818Y-112371948D01*
X201919062Y-112363609D01*
X201908035Y-112344058D01*
X201904235Y-112335615D01*
X201894671Y-112266403D01*
X201918933Y-112209238D01*
X201954536Y-112162841D01*
X201992277Y-112071723D01*
X202019152Y-112031503D01*
X203677731Y-110372924D01*
X203683151Y-110367822D01*
X203728183Y-110327929D01*
X203762362Y-110278411D01*
X203766789Y-110272396D01*
X203771700Y-110266128D01*
X203803878Y-110225056D01*
X203808037Y-110215813D01*
X203819061Y-110196268D01*
X203824818Y-110187930D01*
X203846145Y-110131694D01*
X203849013Y-110124770D01*
X203873693Y-110069936D01*
X203873693Y-110069934D01*
X203873695Y-110069931D01*
X203875522Y-110059959D01*
X203881546Y-110038347D01*
X203885140Y-110028872D01*
X203892387Y-109969184D01*
X203893514Y-109961777D01*
X203904358Y-109902606D01*
X203900726Y-109842565D01*
X203900500Y-109835078D01*
X203900500Y-107967180D01*
X203920185Y-107900141D01*
X203950187Y-107867914D01*
X204057546Y-107787546D01*
X204143796Y-107672331D01*
X204194091Y-107537483D01*
X204200500Y-107477873D01*
X204200499Y-105882128D01*
X204194091Y-105822517D01*
X204143796Y-105687669D01*
X204143795Y-105687668D01*
X204143793Y-105687664D01*
X204057547Y-105572455D01*
X204057544Y-105572452D01*
X203942335Y-105486206D01*
X203942328Y-105486202D01*
X203807482Y-105435908D01*
X203807483Y-105435908D01*
X203747883Y-105429501D01*
X203747881Y-105429500D01*
X203747873Y-105429500D01*
X203747865Y-105429500D01*
X202724577Y-105429500D01*
X202657538Y-105409815D01*
X202611783Y-105357011D01*
X202602608Y-105327851D01*
X202593516Y-105278235D01*
X202592389Y-105270830D01*
X202585140Y-105211129D01*
X202585139Y-105211125D01*
X202581546Y-105201651D01*
X202575519Y-105180029D01*
X202573694Y-105170070D01*
X202573694Y-105170068D01*
X202549012Y-105115228D01*
X202546151Y-105108322D01*
X202524818Y-105052070D01*
X202519059Y-105043727D01*
X202508030Y-105024172D01*
X202503877Y-105014943D01*
X202503874Y-105014938D01*
X202466788Y-104967601D01*
X202462349Y-104961569D01*
X202457827Y-104955018D01*
X202428183Y-104912071D01*
X202383153Y-104872178D01*
X202377715Y-104867058D01*
X200522838Y-103012181D01*
X200489353Y-102950858D01*
X200494337Y-102881166D01*
X200536209Y-102825233D01*
X200601673Y-102800816D01*
X200610519Y-102800500D01*
X200771241Y-102800500D01*
X200771243Y-102800500D01*
X200989940Y-102759618D01*
X201197401Y-102679247D01*
X201386562Y-102562124D01*
X201550981Y-102412236D01*
X201685058Y-102234689D01*
X201784229Y-102035528D01*
X201845115Y-101821536D01*
X201865643Y-101600000D01*
X201845115Y-101378464D01*
X201784229Y-101164472D01*
X201784224Y-101164461D01*
X201685061Y-100965316D01*
X201685056Y-100965308D01*
X201550979Y-100787761D01*
X201386562Y-100637876D01*
X201386560Y-100637874D01*
X201197404Y-100520754D01*
X201197398Y-100520752D01*
X200989940Y-100440382D01*
X200771243Y-100399500D01*
X200548757Y-100399500D01*
X200330060Y-100440382D01*
X200330057Y-100440383D01*
X200330053Y-100440384D01*
X200262074Y-100466719D01*
X200192451Y-100472580D01*
X200130711Y-100439870D01*
X200096457Y-100378973D01*
X200093508Y-100358577D01*
X200090726Y-100312575D01*
X200090500Y-100305090D01*
X200090500Y-97810049D01*
X200110185Y-97743010D01*
X200162989Y-97697255D01*
X200232147Y-97687311D01*
X200261950Y-97695487D01*
X200265652Y-97697020D01*
X200265655Y-97697020D01*
X200265659Y-97697023D01*
X200458967Y-97755662D01*
X200660000Y-97775462D01*
X200861033Y-97755662D01*
X201054341Y-97697023D01*
X201232494Y-97601798D01*
X201388647Y-97473647D01*
X201516798Y-97317494D01*
X201612023Y-97139341D01*
X201670662Y-96946033D01*
X201685500Y-96795380D01*
X201685500Y-96244620D01*
X201670662Y-96093967D01*
X201612023Y-95900659D01*
X201612021Y-95900656D01*
X201612021Y-95900654D01*
X201516801Y-95722511D01*
X201516797Y-95722504D01*
X201388647Y-95566353D01*
X201361334Y-95502043D01*
X201360500Y-95487688D01*
X201360500Y-87400634D01*
X201380185Y-87333595D01*
X201400962Y-87308997D01*
X201550979Y-87172238D01*
X201685056Y-86994691D01*
X201685058Y-86994689D01*
X201784229Y-86795528D01*
X201810734Y-86702371D01*
X201848013Y-86643278D01*
X201911323Y-86613721D01*
X201980562Y-86623083D01*
X202033749Y-86668393D01*
X202049266Y-86702372D01*
X202075769Y-86795523D01*
X202075775Y-86795538D01*
X202174938Y-86994683D01*
X202174943Y-86994691D01*
X202309020Y-87172238D01*
X202473437Y-87322123D01*
X202473439Y-87322125D01*
X202662595Y-87439245D01*
X202662596Y-87439245D01*
X202662599Y-87439247D01*
X202870060Y-87519618D01*
X203088757Y-87560500D01*
X203088759Y-87560500D01*
X203311241Y-87560500D01*
X203311243Y-87560500D01*
X203529940Y-87519618D01*
X203737401Y-87439247D01*
X203926562Y-87322124D01*
X204090981Y-87172236D01*
X204225058Y-86994689D01*
X204324229Y-86795528D01*
X204385115Y-86581536D01*
X204405643Y-86360000D01*
X204385115Y-86138464D01*
X204324229Y-85924472D01*
X204324224Y-85924461D01*
X204225061Y-85725316D01*
X204225056Y-85725308D01*
X204090979Y-85547761D01*
X203926562Y-85397876D01*
X203926560Y-85397874D01*
X203737404Y-85280754D01*
X203737398Y-85280752D01*
X203529940Y-85200382D01*
X203311243Y-85159500D01*
X203088757Y-85159500D01*
X202870060Y-85200382D01*
X202738864Y-85251207D01*
X202662601Y-85280752D01*
X202662595Y-85280754D01*
X202473439Y-85397874D01*
X202473437Y-85397876D01*
X202309020Y-85547761D01*
X202174943Y-85725308D01*
X202174938Y-85725316D01*
X202075775Y-85924461D01*
X202075769Y-85924476D01*
X202049266Y-86017627D01*
X202011987Y-86076721D01*
X201948677Y-86106278D01*
X201879438Y-86096916D01*
X201826251Y-86051606D01*
X201810734Y-86017627D01*
X201784230Y-85924476D01*
X201784229Y-85924472D01*
X201784224Y-85924461D01*
X201685061Y-85725316D01*
X201685056Y-85725308D01*
X201550979Y-85547761D01*
X201386562Y-85397876D01*
X201386560Y-85397874D01*
X201197404Y-85280754D01*
X201197398Y-85280752D01*
X200989940Y-85200382D01*
X200771243Y-85159500D01*
X200548757Y-85159500D01*
X200548754Y-85159500D01*
X200529926Y-85163019D01*
X200460412Y-85155984D01*
X200419467Y-85128810D01*
X198632940Y-83342283D01*
X198627805Y-83336828D01*
X198587929Y-83291816D01*
X198587924Y-83291812D01*
X198538438Y-83257655D01*
X198532403Y-83253215D01*
X198485060Y-83216124D01*
X198485055Y-83216120D01*
X198475813Y-83211961D01*
X198456266Y-83200936D01*
X198447931Y-83195183D01*
X198447932Y-83195183D01*
X198447930Y-83195182D01*
X198391694Y-83173854D01*
X198384790Y-83170994D01*
X198329932Y-83146305D01*
X198329930Y-83146304D01*
X198319946Y-83144474D01*
X198298343Y-83138451D01*
X198288874Y-83134860D01*
X198288871Y-83134859D01*
X198229171Y-83127610D01*
X198221770Y-83126483D01*
X198162609Y-83115642D01*
X198162603Y-83115642D01*
X198102567Y-83119274D01*
X198095079Y-83119500D01*
X196050644Y-83119500D01*
X195951777Y-83132515D01*
X195882742Y-83121747D01*
X195847913Y-83097256D01*
X193552940Y-80802283D01*
X193547805Y-80796828D01*
X193507929Y-80751816D01*
X193507924Y-80751812D01*
X193458438Y-80717655D01*
X193452403Y-80713215D01*
X193405060Y-80676124D01*
X193405055Y-80676120D01*
X193395813Y-80671961D01*
X193376266Y-80660936D01*
X193367931Y-80655183D01*
X193367932Y-80655183D01*
X193367930Y-80655182D01*
X193311694Y-80633854D01*
X193304790Y-80630994D01*
X193249932Y-80606305D01*
X193249930Y-80606304D01*
X193239946Y-80604474D01*
X193218343Y-80598451D01*
X193208874Y-80594860D01*
X193208871Y-80594859D01*
X193149171Y-80587610D01*
X193141770Y-80586483D01*
X193082609Y-80575642D01*
X193082603Y-80575642D01*
X193022567Y-80579274D01*
X193015079Y-80579500D01*
X192024499Y-80579500D01*
X191957460Y-80559815D01*
X191911705Y-80507011D01*
X191900499Y-80455500D01*
X191900499Y-80332129D01*
X191900498Y-80332123D01*
X191896492Y-80294858D01*
X191894091Y-80272517D01*
X191884233Y-80246087D01*
X191843797Y-80137671D01*
X191843793Y-80137664D01*
X191757547Y-80022455D01*
X191757544Y-80022452D01*
X191642335Y-79936206D01*
X191642328Y-79936202D01*
X191507482Y-79885908D01*
X191507483Y-79885908D01*
X191447883Y-79879501D01*
X191447881Y-79879500D01*
X191447873Y-79879500D01*
X191447864Y-79879500D01*
X189552129Y-79879500D01*
X189552123Y-79879501D01*
X189492516Y-79885908D01*
X189357671Y-79936202D01*
X189357664Y-79936206D01*
X189242455Y-80022452D01*
X189242452Y-80022455D01*
X189156206Y-80137664D01*
X189156203Y-80137670D01*
X189127544Y-80214508D01*
X189085672Y-80270441D01*
X189020208Y-80294858D01*
X188951935Y-80280006D01*
X188920135Y-80255158D01*
X188911784Y-80246087D01*
X188911778Y-80246082D01*
X188911777Y-80246081D01*
X188728634Y-80103535D01*
X188728628Y-80103531D01*
X188524504Y-79993064D01*
X188524495Y-79993061D01*
X188304984Y-79917702D01*
X188114450Y-79885908D01*
X188076049Y-79879500D01*
X187843951Y-79879500D01*
X187805550Y-79885908D01*
X187615015Y-79917702D01*
X187395504Y-79993061D01*
X187395495Y-79993064D01*
X187191371Y-80103531D01*
X187191365Y-80103535D01*
X187008222Y-80246081D01*
X187008219Y-80246084D01*
X187008216Y-80246086D01*
X187008216Y-80246087D01*
X186963319Y-80294858D01*
X186851016Y-80416852D01*
X186724075Y-80611151D01*
X186630842Y-80823699D01*
X186573866Y-81048691D01*
X186573864Y-81048702D01*
X186554700Y-81279993D01*
X186554700Y-81280006D01*
X186573864Y-81511297D01*
X186573866Y-81511308D01*
X186630842Y-81736300D01*
X186724075Y-81948848D01*
X186851016Y-82143147D01*
X186851019Y-82143151D01*
X186851021Y-82143153D01*
X187008216Y-82313913D01*
X187008219Y-82313915D01*
X187008222Y-82313918D01*
X187191365Y-82456464D01*
X187191371Y-82456468D01*
X187191374Y-82456470D01*
X187395497Y-82566936D01*
X187477772Y-82595181D01*
X187615015Y-82642297D01*
X187615017Y-82642297D01*
X187615019Y-82642298D01*
X187843951Y-82680500D01*
X187843952Y-82680500D01*
X188076048Y-82680500D01*
X188076049Y-82680500D01*
X188304981Y-82642298D01*
X188524503Y-82566936D01*
X188728626Y-82456470D01*
X188911784Y-82313913D01*
X188920130Y-82304846D01*
X188980010Y-82268854D01*
X189049849Y-82270949D01*
X189107468Y-82310469D01*
X189127544Y-82345491D01*
X189156203Y-82422330D01*
X189156206Y-82422335D01*
X189242452Y-82537544D01*
X189242455Y-82537547D01*
X189357664Y-82623793D01*
X189357671Y-82623797D01*
X189492517Y-82674091D01*
X189492516Y-82674091D01*
X189499444Y-82674835D01*
X189552127Y-82680500D01*
X191447872Y-82680499D01*
X191507483Y-82674091D01*
X191642331Y-82623796D01*
X191757546Y-82537546D01*
X191843796Y-82422331D01*
X191894091Y-82287483D01*
X191900500Y-82227873D01*
X191900500Y-82104500D01*
X191920185Y-82037461D01*
X191972989Y-81991706D01*
X192024500Y-81980500D01*
X192698481Y-81980500D01*
X192765520Y-82000185D01*
X192786162Y-82016819D01*
X194860843Y-84091500D01*
X194887723Y-84131728D01*
X194925462Y-84222838D01*
X194925464Y-84222841D01*
X195012695Y-84336524D01*
X195021718Y-84348282D01*
X195147159Y-84444536D01*
X195293238Y-84505044D01*
X195410639Y-84520500D01*
X195505075Y-84520499D01*
X195527429Y-84522530D01*
X195537394Y-84524357D01*
X195597431Y-84520724D01*
X195604919Y-84520499D01*
X195749363Y-84520499D01*
X195866755Y-84505045D01*
X195866755Y-84505044D01*
X195866762Y-84505044D01*
X195866767Y-84505041D01*
X195867900Y-84504739D01*
X195869085Y-84504738D01*
X195874821Y-84503984D01*
X195874920Y-84504738D01*
X195925080Y-84504737D01*
X195925180Y-84503983D01*
X195930907Y-84504737D01*
X195932091Y-84504737D01*
X195933234Y-84505043D01*
X195933236Y-84505043D01*
X195933238Y-84505044D01*
X196050639Y-84520500D01*
X196170015Y-84520499D01*
X196170031Y-84520500D01*
X196177628Y-84520500D01*
X197778481Y-84520500D01*
X197845520Y-84540185D01*
X197866162Y-84556819D01*
X199431427Y-86122084D01*
X199464912Y-86183407D01*
X199467217Y-86221205D01*
X199454357Y-86359998D01*
X199454357Y-86360000D01*
X199474884Y-86581535D01*
X199474885Y-86581537D01*
X199535769Y-86795523D01*
X199535775Y-86795538D01*
X199634938Y-86994683D01*
X199634943Y-86994691D01*
X199769020Y-87172238D01*
X199919038Y-87308997D01*
X199955320Y-87368708D01*
X199959500Y-87400634D01*
X199959500Y-95229950D01*
X199939815Y-95296989D01*
X199887011Y-95342744D01*
X199817853Y-95352688D01*
X199788061Y-95344517D01*
X199784348Y-95342979D01*
X199591031Y-95284337D01*
X199390000Y-95264538D01*
X199188968Y-95284337D01*
X199051371Y-95326076D01*
X198995659Y-95342977D01*
X198995657Y-95342977D01*
X198993982Y-95343486D01*
X198924115Y-95344109D01*
X198895414Y-95329902D01*
X198894872Y-95330897D01*
X198887086Y-95326645D01*
X198752379Y-95276403D01*
X198752372Y-95276401D01*
X198692844Y-95270000D01*
X198370000Y-95270000D01*
X198370000Y-96182684D01*
X198369403Y-96194837D01*
X198365370Y-96235779D01*
X198300948Y-96185637D01*
X198182576Y-96145000D01*
X198088927Y-96145000D01*
X197996554Y-96160414D01*
X197886486Y-96219981D01*
X197870000Y-96237889D01*
X197870000Y-95270000D01*
X197547155Y-95270000D01*
X197487627Y-95276401D01*
X197487620Y-95276403D01*
X197352913Y-95326645D01*
X197352906Y-95326649D01*
X197237812Y-95412809D01*
X197237809Y-95412812D01*
X197151649Y-95527906D01*
X197151645Y-95527913D01*
X197101403Y-95662620D01*
X197101401Y-95662627D01*
X197095000Y-95722155D01*
X197095000Y-96270000D01*
X197840440Y-96270000D01*
X197801722Y-96312059D01*
X197751449Y-96426670D01*
X197741114Y-96551395D01*
X197771837Y-96672719D01*
X197835394Y-96770000D01*
X197095000Y-96770000D01*
X197095000Y-97317844D01*
X197101401Y-97377372D01*
X197101403Y-97377379D01*
X197151645Y-97512086D01*
X197151649Y-97512093D01*
X197237809Y-97627187D01*
X197237812Y-97627190D01*
X197352906Y-97713350D01*
X197352913Y-97713354D01*
X197487620Y-97763596D01*
X197487627Y-97763598D01*
X197547155Y-97769999D01*
X197547172Y-97770000D01*
X197870000Y-97770000D01*
X197870000Y-96800617D01*
X197939052Y-96854363D01*
X198057424Y-96895000D01*
X198151073Y-96895000D01*
X198243446Y-96879586D01*
X198353514Y-96820019D01*
X198365630Y-96806856D01*
X198369403Y-96845160D01*
X198370000Y-96857314D01*
X198370000Y-97770000D01*
X198565500Y-97770000D01*
X198632539Y-97789685D01*
X198678294Y-97842489D01*
X198689500Y-97894000D01*
X198689500Y-99988480D01*
X198669815Y-100055519D01*
X198653181Y-100076161D01*
X198360531Y-100368810D01*
X198299208Y-100402295D01*
X198250070Y-100403019D01*
X198242968Y-100401691D01*
X198231243Y-100399500D01*
X198008757Y-100399500D01*
X197790060Y-100440382D01*
X197722077Y-100466719D01*
X197582601Y-100520752D01*
X197582595Y-100520754D01*
X197393439Y-100637874D01*
X197393437Y-100637876D01*
X197229020Y-100787761D01*
X197094943Y-100965308D01*
X197094938Y-100965316D01*
X196995775Y-101164461D01*
X196995769Y-101164476D01*
X196934885Y-101378462D01*
X196934884Y-101378464D01*
X196914357Y-101599999D01*
X196914357Y-101600001D01*
X196927217Y-101738793D01*
X196913802Y-101807362D01*
X196891427Y-101837914D01*
X193862290Y-104867051D01*
X193856838Y-104872183D01*
X193811819Y-104912068D01*
X193777649Y-104961569D01*
X193773213Y-104967597D01*
X193736124Y-105014938D01*
X193736119Y-105014948D01*
X193731960Y-105024188D01*
X193720942Y-105043723D01*
X193715187Y-105052061D01*
X193715179Y-105052076D01*
X193693853Y-105108305D01*
X193690989Y-105115220D01*
X193666305Y-105170068D01*
X193664477Y-105180042D01*
X193658453Y-105201653D01*
X193654860Y-105211127D01*
X193654860Y-105211128D01*
X193647610Y-105270827D01*
X193646483Y-105278228D01*
X193637390Y-105327850D01*
X193605944Y-105390244D01*
X193545758Y-105425732D01*
X193515421Y-105429500D01*
X192492129Y-105429500D01*
X192492123Y-105429501D01*
X192432516Y-105435908D01*
X192297671Y-105486202D01*
X192297664Y-105486206D01*
X192182455Y-105572452D01*
X192182452Y-105572455D01*
X192096206Y-105687664D01*
X192096202Y-105687671D01*
X192045908Y-105822517D01*
X192039501Y-105882116D01*
X192039501Y-105882123D01*
X192039500Y-105882135D01*
X192039500Y-107477870D01*
X192039501Y-107477876D01*
X192045908Y-107537483D01*
X192096202Y-107672328D01*
X192096206Y-107672335D01*
X192165358Y-107764709D01*
X192182454Y-107787546D01*
X192289811Y-107867914D01*
X192331682Y-107923847D01*
X192339500Y-107967180D01*
X192339500Y-108255200D01*
X192339274Y-108262688D01*
X192335642Y-108322725D01*
X192335642Y-108322727D01*
X192346483Y-108381892D01*
X192347610Y-108389293D01*
X192354859Y-108448993D01*
X192354860Y-108448996D01*
X192358451Y-108458465D01*
X192364474Y-108480068D01*
X192366304Y-108490052D01*
X192390991Y-108544904D01*
X192393854Y-108551816D01*
X192415182Y-108608052D01*
X192415183Y-108608053D01*
X192420936Y-108616388D01*
X192431961Y-108635935D01*
X192436120Y-108645177D01*
X192436124Y-108645182D01*
X192473215Y-108692525D01*
X192477655Y-108698560D01*
X192511812Y-108748046D01*
X192511816Y-108748051D01*
X192556828Y-108787927D01*
X192562283Y-108793062D01*
X194935801Y-111166580D01*
X194969286Y-111227903D01*
X194964302Y-111297595D01*
X194946498Y-111329744D01*
X194925465Y-111357156D01*
X194864956Y-111503237D01*
X194864955Y-111503239D01*
X194849500Y-111620638D01*
X194849500Y-111899363D01*
X194864953Y-112016753D01*
X194864957Y-112016765D01*
X194867865Y-112023785D01*
X194877079Y-112078726D01*
X194875642Y-112102481D01*
X194875642Y-112102483D01*
X194886483Y-112161648D01*
X194887610Y-112169049D01*
X194894859Y-112228749D01*
X194894860Y-112228752D01*
X194898451Y-112238221D01*
X194904474Y-112259824D01*
X194906304Y-112269808D01*
X194906305Y-112269810D01*
X194924180Y-112309528D01*
X194930991Y-112324660D01*
X194933854Y-112331572D01*
X194955182Y-112387808D01*
X194955183Y-112387809D01*
X194960936Y-112396144D01*
X194971961Y-112415691D01*
X194976120Y-112424933D01*
X194976124Y-112424938D01*
X195013215Y-112472281D01*
X195017655Y-112478316D01*
X195051812Y-112527802D01*
X195051816Y-112527807D01*
X195096828Y-112567683D01*
X195102283Y-112572818D01*
X195508181Y-112978716D01*
X195541666Y-113040039D01*
X195544500Y-113066397D01*
X195544500Y-116016424D01*
X195524815Y-116083463D01*
X195472011Y-116129218D01*
X195436684Y-116139363D01*
X195318246Y-116154954D01*
X195318237Y-116154956D01*
X195172160Y-116215463D01*
X195046718Y-116311718D01*
X194950463Y-116437160D01*
X194889956Y-116583237D01*
X194889955Y-116583239D01*
X194874500Y-116700638D01*
X194874500Y-116979360D01*
X194878439Y-117009273D01*
X194879500Y-117025458D01*
X194879500Y-120545500D01*
X194859815Y-120612539D01*
X194807011Y-120658294D01*
X194755500Y-120669500D01*
X193732129Y-120669500D01*
X193732123Y-120669501D01*
X193672516Y-120675908D01*
X193537671Y-120726202D01*
X193537664Y-120726206D01*
X193422455Y-120812452D01*
X193422452Y-120812455D01*
X193336206Y-120927664D01*
X193336202Y-120927671D01*
X193285908Y-121062517D01*
X193280008Y-121117403D01*
X193279501Y-121122123D01*
X193279500Y-121122135D01*
X193279500Y-122717870D01*
X193279501Y-122717876D01*
X193285908Y-122777483D01*
X193336202Y-122912328D01*
X193336206Y-122912335D01*
X193405358Y-123004709D01*
X193422454Y-123027546D01*
X193529811Y-123107914D01*
X193571682Y-123163847D01*
X193579500Y-123207180D01*
X193579500Y-127958481D01*
X193559815Y-128025520D01*
X193543181Y-128046162D01*
X192786162Y-128803181D01*
X192724839Y-128836666D01*
X192698481Y-128839500D01*
X181164500Y-128839500D01*
X181097461Y-128819815D01*
X181051706Y-128767011D01*
X181040500Y-128715500D01*
X181040500Y-123207180D01*
X181060185Y-123140141D01*
X181090187Y-123107914D01*
X181197546Y-123027546D01*
X181283796Y-122912331D01*
X181334091Y-122777483D01*
X181340500Y-122717873D01*
X181340499Y-121122128D01*
X181334091Y-121062517D01*
X181333455Y-121060813D01*
X181283797Y-120927671D01*
X181283793Y-120927664D01*
X181197547Y-120812455D01*
X181197544Y-120812452D01*
X181082335Y-120726206D01*
X181082328Y-120726202D01*
X180947482Y-120675908D01*
X180947483Y-120675908D01*
X180887883Y-120669501D01*
X180887881Y-120669500D01*
X180887873Y-120669500D01*
X180887864Y-120669500D01*
X179792129Y-120669500D01*
X179792123Y-120669501D01*
X179732520Y-120675908D01*
X179724974Y-120677692D01*
X179724628Y-120676230D01*
X179663622Y-120680584D01*
X179648600Y-120676172D01*
X179647482Y-120675908D01*
X179587883Y-120669501D01*
X179587881Y-120669500D01*
X179587873Y-120669500D01*
X179587865Y-120669500D01*
X178831519Y-120669500D01*
X178764480Y-120649815D01*
X178743838Y-120633181D01*
X178536819Y-120426162D01*
X178503334Y-120364839D01*
X178500500Y-120338481D01*
X178500500Y-117663575D01*
X178520185Y-117596536D01*
X178572989Y-117550781D01*
X178608317Y-117540636D01*
X178609358Y-117540499D01*
X178609360Y-117540499D01*
X178726762Y-117525044D01*
X178872841Y-117464536D01*
X178998282Y-117368282D01*
X179094536Y-117242841D01*
X179155044Y-117096762D01*
X179170500Y-116979361D01*
X179170499Y-116700640D01*
X179170499Y-116700638D01*
X179170499Y-116700636D01*
X179155045Y-116583241D01*
X179155044Y-116583238D01*
X179149939Y-116570913D01*
X179140500Y-116523460D01*
X179140500Y-112724798D01*
X179140726Y-112717310D01*
X179144358Y-112657272D01*
X179133514Y-112598099D01*
X179132387Y-112590693D01*
X179131363Y-112582259D01*
X179125140Y-112531006D01*
X179121548Y-112521534D01*
X179115521Y-112499912D01*
X179113695Y-112489949D01*
X179113693Y-112489941D01*
X179089009Y-112435099D01*
X179086154Y-112428209D01*
X179064818Y-112371948D01*
X179059062Y-112363609D01*
X179048035Y-112344058D01*
X179044235Y-112335615D01*
X179034671Y-112266403D01*
X179058933Y-112209238D01*
X179094536Y-112162841D01*
X179155044Y-112016762D01*
X179170500Y-111899361D01*
X179170499Y-111620640D01*
X179170499Y-111620638D01*
X179170499Y-111620636D01*
X179155045Y-111503241D01*
X179152941Y-111495388D01*
X179154297Y-111495024D01*
X179147759Y-111434215D01*
X179179032Y-111371735D01*
X179182080Y-111368576D01*
X180817731Y-109732924D01*
X180823151Y-109727822D01*
X180868183Y-109687929D01*
X180902362Y-109638411D01*
X180906789Y-109632396D01*
X180912126Y-109625584D01*
X180943878Y-109585056D01*
X180948037Y-109575813D01*
X180959061Y-109556268D01*
X180964818Y-109547930D01*
X180977935Y-109513340D01*
X180986145Y-109491694D01*
X180989013Y-109484770D01*
X181013693Y-109429936D01*
X181013693Y-109429934D01*
X181013695Y-109429931D01*
X181015522Y-109419959D01*
X181021546Y-109398347D01*
X181025140Y-109388872D01*
X181032387Y-109329184D01*
X181033514Y-109321777D01*
X181044358Y-109262606D01*
X181040726Y-109202565D01*
X181040500Y-109195078D01*
X181040500Y-107967180D01*
X181060185Y-107900141D01*
X181090187Y-107867914D01*
X181197546Y-107787546D01*
X181283796Y-107672331D01*
X181334091Y-107537483D01*
X181340500Y-107477873D01*
X181340499Y-105882128D01*
X181334091Y-105822517D01*
X181283796Y-105687669D01*
X181283795Y-105687668D01*
X181283793Y-105687664D01*
X181197547Y-105572455D01*
X181197544Y-105572452D01*
X181082335Y-105486206D01*
X181082328Y-105486202D01*
X180947482Y-105435908D01*
X180947483Y-105435908D01*
X180887883Y-105429501D01*
X180887881Y-105429500D01*
X180887873Y-105429500D01*
X180887865Y-105429500D01*
X179864577Y-105429500D01*
X179797538Y-105409815D01*
X179751783Y-105357011D01*
X179742608Y-105327851D01*
X179733516Y-105278235D01*
X179732389Y-105270830D01*
X179725140Y-105211129D01*
X179725139Y-105211125D01*
X179721546Y-105201651D01*
X179715519Y-105180029D01*
X179713694Y-105170070D01*
X179713694Y-105170068D01*
X179689012Y-105115228D01*
X179686151Y-105108322D01*
X179664818Y-105052070D01*
X179659059Y-105043727D01*
X179648030Y-105024172D01*
X179643877Y-105014943D01*
X179643874Y-105014938D01*
X179606788Y-104967601D01*
X179602349Y-104961569D01*
X179597827Y-104955018D01*
X179568183Y-104912071D01*
X179523153Y-104872178D01*
X179517715Y-104867058D01*
X177662838Y-103012181D01*
X177629353Y-102950858D01*
X177634337Y-102881166D01*
X177676209Y-102825233D01*
X177741673Y-102800816D01*
X177750519Y-102800500D01*
X177911241Y-102800500D01*
X177911243Y-102800500D01*
X178129940Y-102759618D01*
X178337401Y-102679247D01*
X178526562Y-102562124D01*
X178690981Y-102412236D01*
X178825058Y-102234689D01*
X178924229Y-102035528D01*
X178985115Y-101821536D01*
X179005643Y-101600000D01*
X178985115Y-101378464D01*
X178924229Y-101164472D01*
X178924224Y-101164461D01*
X178825061Y-100965316D01*
X178825056Y-100965308D01*
X178690979Y-100787761D01*
X178526562Y-100637876D01*
X178526560Y-100637874D01*
X178337404Y-100520754D01*
X178337398Y-100520752D01*
X178129940Y-100440382D01*
X177911243Y-100399500D01*
X177688757Y-100399500D01*
X177470060Y-100440382D01*
X177470057Y-100440383D01*
X177470053Y-100440384D01*
X177402074Y-100466719D01*
X177332451Y-100472580D01*
X177270711Y-100439870D01*
X177236457Y-100378973D01*
X177233508Y-100358577D01*
X177230726Y-100312575D01*
X177230500Y-100305090D01*
X177230500Y-97810049D01*
X177250185Y-97743010D01*
X177302989Y-97697255D01*
X177372147Y-97687311D01*
X177401950Y-97695487D01*
X177405652Y-97697020D01*
X177405655Y-97697020D01*
X177405659Y-97697023D01*
X177598967Y-97755662D01*
X177800000Y-97775462D01*
X178001033Y-97755662D01*
X178194341Y-97697023D01*
X178372494Y-97601798D01*
X178528647Y-97473647D01*
X178656798Y-97317494D01*
X178752023Y-97139341D01*
X178810662Y-96946033D01*
X178825500Y-96795380D01*
X178825500Y-96244620D01*
X178810662Y-96093967D01*
X178752023Y-95900659D01*
X178752021Y-95900656D01*
X178752021Y-95900654D01*
X178656801Y-95722511D01*
X178656797Y-95722504D01*
X178528647Y-95566353D01*
X178501334Y-95502043D01*
X178500500Y-95487688D01*
X178500500Y-89940634D01*
X178520185Y-89873595D01*
X178540962Y-89848997D01*
X178690979Y-89712238D01*
X178713523Y-89682386D01*
X178825058Y-89534689D01*
X178924229Y-89335528D01*
X178950734Y-89242371D01*
X178988013Y-89183278D01*
X179051323Y-89153721D01*
X179120562Y-89163083D01*
X179173749Y-89208393D01*
X179189266Y-89242372D01*
X179215769Y-89335523D01*
X179215775Y-89335538D01*
X179314938Y-89534683D01*
X179314943Y-89534691D01*
X179449020Y-89712238D01*
X179613437Y-89862123D01*
X179613439Y-89862125D01*
X179802595Y-89979245D01*
X179802596Y-89979245D01*
X179802599Y-89979247D01*
X180010060Y-90059618D01*
X180228757Y-90100500D01*
X180228759Y-90100500D01*
X180451241Y-90100500D01*
X180451243Y-90100500D01*
X180669940Y-90059618D01*
X180877401Y-89979247D01*
X181066562Y-89862124D01*
X181230981Y-89712236D01*
X181365058Y-89534689D01*
X181464229Y-89335528D01*
X181525115Y-89121536D01*
X181545643Y-88900000D01*
X181525115Y-88678464D01*
X181464229Y-88464472D01*
X181417474Y-88370575D01*
X181365061Y-88265316D01*
X181365056Y-88265308D01*
X181230979Y-88087761D01*
X181066562Y-87937876D01*
X181066560Y-87937874D01*
X180877404Y-87820754D01*
X180877398Y-87820752D01*
X180669940Y-87740382D01*
X180451243Y-87699500D01*
X180228757Y-87699500D01*
X180010060Y-87740382D01*
X179904132Y-87781419D01*
X179802601Y-87820752D01*
X179802595Y-87820754D01*
X179613439Y-87937874D01*
X179613437Y-87937876D01*
X179449020Y-88087761D01*
X179314943Y-88265308D01*
X179314938Y-88265316D01*
X179215775Y-88464461D01*
X179215769Y-88464476D01*
X179189266Y-88557627D01*
X179151987Y-88616721D01*
X179088677Y-88646278D01*
X179019438Y-88636916D01*
X178966251Y-88591606D01*
X178950734Y-88557627D01*
X178924230Y-88464476D01*
X178924229Y-88464472D01*
X178877474Y-88370575D01*
X178825061Y-88265316D01*
X178825056Y-88265308D01*
X178690979Y-88087761D01*
X178526562Y-87937876D01*
X178526560Y-87937874D01*
X178337404Y-87820754D01*
X178337398Y-87820752D01*
X178129940Y-87740382D01*
X177911243Y-87699500D01*
X177688757Y-87699500D01*
X177688754Y-87699500D01*
X177669926Y-87703019D01*
X177600412Y-87695984D01*
X177559467Y-87668810D01*
X173232940Y-83342283D01*
X173227805Y-83336828D01*
X173187929Y-83291816D01*
X173187924Y-83291812D01*
X173138438Y-83257655D01*
X173132403Y-83253215D01*
X173085060Y-83216124D01*
X173085055Y-83216120D01*
X173075813Y-83211961D01*
X173056266Y-83200936D01*
X173047931Y-83195183D01*
X173047932Y-83195183D01*
X173047930Y-83195182D01*
X172991694Y-83173854D01*
X172984790Y-83170994D01*
X172929932Y-83146305D01*
X172929930Y-83146304D01*
X172919946Y-83144474D01*
X172898343Y-83138451D01*
X172888874Y-83134860D01*
X172888871Y-83134859D01*
X172829171Y-83127610D01*
X172821770Y-83126483D01*
X172762609Y-83115642D01*
X172762603Y-83115642D01*
X172702567Y-83119274D01*
X172695079Y-83119500D01*
X171870641Y-83119500D01*
X171803602Y-83099815D01*
X171757847Y-83047011D01*
X171747903Y-82977853D01*
X171776928Y-82914297D01*
X171782960Y-82907819D01*
X173655616Y-81035161D01*
X173716939Y-81001676D01*
X173786630Y-81006660D01*
X173842564Y-81048532D01*
X173866981Y-81113996D01*
X173866874Y-81133081D01*
X173854700Y-81280004D01*
X173854700Y-81280006D01*
X173873864Y-81511297D01*
X173873866Y-81511308D01*
X173930842Y-81736300D01*
X174024075Y-81948848D01*
X174151016Y-82143147D01*
X174151019Y-82143151D01*
X174151021Y-82143153D01*
X174308216Y-82313913D01*
X174308219Y-82313915D01*
X174308222Y-82313918D01*
X174491365Y-82456464D01*
X174491371Y-82456468D01*
X174491374Y-82456470D01*
X174695497Y-82566936D01*
X174777772Y-82595181D01*
X174915015Y-82642297D01*
X174915017Y-82642297D01*
X174915019Y-82642298D01*
X175143951Y-82680500D01*
X175143952Y-82680500D01*
X175376048Y-82680500D01*
X175376049Y-82680500D01*
X175604981Y-82642298D01*
X175824503Y-82566936D01*
X176028626Y-82456470D01*
X176211784Y-82313913D01*
X176220130Y-82304846D01*
X176280010Y-82268854D01*
X176349849Y-82270949D01*
X176407468Y-82310469D01*
X176427544Y-82345491D01*
X176456203Y-82422330D01*
X176456206Y-82422335D01*
X176542452Y-82537544D01*
X176542455Y-82537547D01*
X176657664Y-82623793D01*
X176657671Y-82623797D01*
X176792517Y-82674091D01*
X176792516Y-82674091D01*
X176799444Y-82674835D01*
X176852127Y-82680500D01*
X178747872Y-82680499D01*
X178807483Y-82674091D01*
X178942331Y-82623796D01*
X179057546Y-82537546D01*
X179143796Y-82422331D01*
X179194091Y-82287483D01*
X179200500Y-82227873D01*
X179200499Y-80332128D01*
X179194091Y-80272517D01*
X179184233Y-80246087D01*
X179143797Y-80137671D01*
X179143793Y-80137664D01*
X179057547Y-80022455D01*
X179057544Y-80022452D01*
X178942335Y-79936206D01*
X178942328Y-79936202D01*
X178807482Y-79885908D01*
X178807483Y-79885908D01*
X178747883Y-79879501D01*
X178747881Y-79879500D01*
X178747873Y-79879500D01*
X178747865Y-79879500D01*
X177441519Y-79879500D01*
X177374480Y-79859815D01*
X177353838Y-79843181D01*
X177012940Y-79502283D01*
X177007805Y-79496828D01*
X176967929Y-79451816D01*
X176967924Y-79451812D01*
X176918438Y-79417655D01*
X176912403Y-79413215D01*
X176865060Y-79376124D01*
X176865055Y-79376120D01*
X176855813Y-79371961D01*
X176836266Y-79360936D01*
X176827931Y-79355183D01*
X176827932Y-79355183D01*
X176827930Y-79355182D01*
X176771694Y-79333854D01*
X176764790Y-79330994D01*
X176709932Y-79306305D01*
X176709930Y-79306304D01*
X176699946Y-79304474D01*
X176678343Y-79298451D01*
X176668874Y-79294860D01*
X176668871Y-79294859D01*
X176609171Y-79287610D01*
X176601770Y-79286483D01*
X176542609Y-79275642D01*
X176542603Y-79275642D01*
X176482567Y-79279274D01*
X176475079Y-79279500D01*
X173745043Y-79279500D01*
X173737555Y-79279274D01*
X173677518Y-79275642D01*
X173677510Y-79275642D01*
X173618349Y-79286483D01*
X173610949Y-79287610D01*
X173551250Y-79294860D01*
X173551243Y-79294861D01*
X173541769Y-79298454D01*
X173520171Y-79304475D01*
X173510191Y-79306304D01*
X173455349Y-79330987D01*
X173448431Y-79333852D01*
X173392194Y-79355181D01*
X173392185Y-79355185D01*
X173383843Y-79360943D01*
X173364311Y-79371960D01*
X173355068Y-79376120D01*
X173307731Y-79413206D01*
X173301701Y-79417643D01*
X173252194Y-79451816D01*
X173252186Y-79451823D01*
X173212298Y-79496846D01*
X173207166Y-79502298D01*
X169702290Y-83007173D01*
X169696838Y-83012305D01*
X169651819Y-83052190D01*
X169617649Y-83101691D01*
X169613213Y-83107719D01*
X169576124Y-83155060D01*
X169576119Y-83155070D01*
X169571960Y-83164310D01*
X169560942Y-83183845D01*
X169555187Y-83192183D01*
X169555179Y-83192198D01*
X169533853Y-83248427D01*
X169530989Y-83255342D01*
X169506305Y-83310190D01*
X169504477Y-83320164D01*
X169498453Y-83341775D01*
X169494860Y-83351249D01*
X169494860Y-83351250D01*
X169487610Y-83410949D01*
X169486483Y-83418349D01*
X169475642Y-83477511D01*
X169475642Y-83477517D01*
X169477079Y-83501272D01*
X169467868Y-83556206D01*
X169465656Y-83561547D01*
X169464955Y-83563240D01*
X169449500Y-83680638D01*
X169449500Y-83959363D01*
X169464953Y-84076753D01*
X169464956Y-84076762D01*
X169524966Y-84221640D01*
X169525464Y-84222841D01*
X169621718Y-84348282D01*
X169747159Y-84444536D01*
X169893238Y-84505044D01*
X170010639Y-84520500D01*
X170080501Y-84520499D01*
X170080508Y-84520500D01*
X170094944Y-84520500D01*
X170275046Y-84520500D01*
X170275058Y-84520499D01*
X170349363Y-84520499D01*
X170466755Y-84505045D01*
X170466755Y-84505044D01*
X170466762Y-84505044D01*
X170466767Y-84505041D01*
X170467900Y-84504739D01*
X170469085Y-84504738D01*
X170474821Y-84503984D01*
X170474920Y-84504738D01*
X170525080Y-84504737D01*
X170525180Y-84503983D01*
X170530907Y-84504737D01*
X170532091Y-84504737D01*
X170533234Y-84505043D01*
X170533236Y-84505043D01*
X170533238Y-84505044D01*
X170650639Y-84520500D01*
X170770015Y-84520499D01*
X170770031Y-84520500D01*
X170777628Y-84520500D01*
X172378481Y-84520500D01*
X172445520Y-84540185D01*
X172466162Y-84556819D01*
X176571427Y-88662084D01*
X176604912Y-88723407D01*
X176607217Y-88761205D01*
X176594357Y-88899998D01*
X176594357Y-88900000D01*
X176614884Y-89121535D01*
X176614885Y-89121537D01*
X176675769Y-89335523D01*
X176675775Y-89335538D01*
X176774938Y-89534683D01*
X176774943Y-89534691D01*
X176909020Y-89712238D01*
X177059038Y-89848997D01*
X177095320Y-89908708D01*
X177099500Y-89940634D01*
X177099500Y-95229950D01*
X177079815Y-95296989D01*
X177027011Y-95342744D01*
X176957853Y-95352688D01*
X176928061Y-95344517D01*
X176924348Y-95342979D01*
X176731031Y-95284337D01*
X176530000Y-95264538D01*
X176328968Y-95284337D01*
X176191371Y-95326076D01*
X176135659Y-95342977D01*
X176135657Y-95342977D01*
X176133982Y-95343486D01*
X176064115Y-95344109D01*
X176035414Y-95329902D01*
X176034872Y-95330897D01*
X176027086Y-95326645D01*
X175892379Y-95276403D01*
X175892372Y-95276401D01*
X175832844Y-95270000D01*
X175510000Y-95270000D01*
X175510000Y-96182684D01*
X175509403Y-96194837D01*
X175505370Y-96235779D01*
X175440948Y-96185637D01*
X175322576Y-96145000D01*
X175228927Y-96145000D01*
X175136554Y-96160414D01*
X175026486Y-96219981D01*
X175010000Y-96237889D01*
X175010000Y-95270000D01*
X174687155Y-95270000D01*
X174627627Y-95276401D01*
X174627620Y-95276403D01*
X174492913Y-95326645D01*
X174492906Y-95326649D01*
X174377812Y-95412809D01*
X174377809Y-95412812D01*
X174291649Y-95527906D01*
X174291645Y-95527913D01*
X174241403Y-95662620D01*
X174241401Y-95662627D01*
X174235000Y-95722155D01*
X174235000Y-96270000D01*
X174980440Y-96270000D01*
X174941722Y-96312059D01*
X174891449Y-96426670D01*
X174881114Y-96551395D01*
X174911837Y-96672719D01*
X174975394Y-96770000D01*
X174235000Y-96770000D01*
X174235000Y-97317844D01*
X174241401Y-97377372D01*
X174241403Y-97377379D01*
X174291645Y-97512086D01*
X174291649Y-97512093D01*
X174377809Y-97627187D01*
X174377812Y-97627190D01*
X174492906Y-97713350D01*
X174492913Y-97713354D01*
X174627620Y-97763596D01*
X174627627Y-97763598D01*
X174687155Y-97769999D01*
X174687172Y-97770000D01*
X175010000Y-97770000D01*
X175010000Y-96800617D01*
X175079052Y-96854363D01*
X175197424Y-96895000D01*
X175291073Y-96895000D01*
X175383446Y-96879586D01*
X175493514Y-96820019D01*
X175505630Y-96806856D01*
X175509403Y-96845160D01*
X175510000Y-96857314D01*
X175510000Y-97770000D01*
X175705500Y-97770000D01*
X175772539Y-97789685D01*
X175818294Y-97842489D01*
X175829500Y-97894000D01*
X175829500Y-99988480D01*
X175809815Y-100055519D01*
X175793181Y-100076161D01*
X175500531Y-100368810D01*
X175439208Y-100402295D01*
X175390070Y-100403019D01*
X175382968Y-100401691D01*
X175371243Y-100399500D01*
X175148757Y-100399500D01*
X174930060Y-100440382D01*
X174862077Y-100466719D01*
X174722601Y-100520752D01*
X174722595Y-100520754D01*
X174533439Y-100637874D01*
X174533437Y-100637876D01*
X174369020Y-100787761D01*
X174234943Y-100965308D01*
X174234938Y-100965316D01*
X174135775Y-101164461D01*
X174135769Y-101164476D01*
X174074885Y-101378462D01*
X174074884Y-101378464D01*
X174054357Y-101599999D01*
X174054357Y-101600001D01*
X174067217Y-101738793D01*
X174053802Y-101807362D01*
X174031427Y-101837914D01*
X172242290Y-103627051D01*
X172236838Y-103632183D01*
X172191819Y-103672068D01*
X172157649Y-103721569D01*
X172153213Y-103727597D01*
X172116124Y-103774938D01*
X172116119Y-103774948D01*
X172111960Y-103784188D01*
X172100942Y-103803723D01*
X172095187Y-103812061D01*
X172095179Y-103812076D01*
X172073853Y-103868305D01*
X172070989Y-103875220D01*
X172046305Y-103930068D01*
X172044477Y-103940042D01*
X172038453Y-103961653D01*
X172034860Y-103971127D01*
X172034860Y-103971128D01*
X172027610Y-104030827D01*
X172026483Y-104038227D01*
X172015642Y-104097389D01*
X172015642Y-104097395D01*
X172019274Y-104157432D01*
X172019500Y-104164920D01*
X172019500Y-105305500D01*
X171999815Y-105372539D01*
X171947011Y-105418294D01*
X171895500Y-105429500D01*
X170872129Y-105429500D01*
X170872123Y-105429501D01*
X170812516Y-105435908D01*
X170677671Y-105486202D01*
X170677664Y-105486206D01*
X170562455Y-105572452D01*
X170562452Y-105572455D01*
X170476206Y-105687664D01*
X170476202Y-105687671D01*
X170425908Y-105822517D01*
X170419501Y-105882116D01*
X170419501Y-105882123D01*
X170419500Y-105882135D01*
X170419500Y-107477870D01*
X170419501Y-107477876D01*
X170425908Y-107537483D01*
X170476202Y-107672328D01*
X170476206Y-107672335D01*
X170545358Y-107764709D01*
X170562454Y-107787546D01*
X170669811Y-107867914D01*
X170711682Y-107923847D01*
X170719500Y-107967180D01*
X170719500Y-109495200D01*
X170719274Y-109502688D01*
X170715642Y-109562725D01*
X170715642Y-109562727D01*
X170726483Y-109621892D01*
X170727610Y-109629293D01*
X170734859Y-109688993D01*
X170734860Y-109688996D01*
X170738451Y-109698465D01*
X170744474Y-109720068D01*
X170746304Y-109730052D01*
X170770991Y-109784904D01*
X170773854Y-109791816D01*
X170795182Y-109848052D01*
X170795183Y-109848053D01*
X170800936Y-109856388D01*
X170811961Y-109875935D01*
X170816120Y-109885177D01*
X170816124Y-109885182D01*
X170853215Y-109932525D01*
X170857655Y-109938560D01*
X170891812Y-109988046D01*
X170891816Y-109988051D01*
X170936828Y-110027927D01*
X170942283Y-110033062D01*
X172075801Y-111166580D01*
X172109286Y-111227903D01*
X172104302Y-111297595D01*
X172086498Y-111329744D01*
X172065465Y-111357156D01*
X172004956Y-111503237D01*
X172004955Y-111503239D01*
X171989500Y-111620638D01*
X171989500Y-111899363D01*
X172004953Y-112016753D01*
X172004957Y-112016765D01*
X172007865Y-112023785D01*
X172017079Y-112078726D01*
X172015642Y-112102481D01*
X172015642Y-112102483D01*
X172026483Y-112161648D01*
X172027610Y-112169049D01*
X172034859Y-112228749D01*
X172034860Y-112228752D01*
X172038451Y-112238221D01*
X172044474Y-112259824D01*
X172046304Y-112269808D01*
X172046305Y-112269810D01*
X172064180Y-112309528D01*
X172070991Y-112324660D01*
X172073854Y-112331572D01*
X172095182Y-112387808D01*
X172095183Y-112387809D01*
X172100936Y-112396144D01*
X172111961Y-112415691D01*
X172116120Y-112424933D01*
X172116124Y-112424938D01*
X172153215Y-112472281D01*
X172157655Y-112478316D01*
X172191812Y-112527802D01*
X172191816Y-112527807D01*
X172236828Y-112567683D01*
X172242283Y-112572818D01*
X172623181Y-112953716D01*
X172656666Y-113015039D01*
X172659500Y-113041397D01*
X172659500Y-116016424D01*
X172639815Y-116083463D01*
X172587011Y-116129218D01*
X172551684Y-116139363D01*
X172433246Y-116154954D01*
X172433237Y-116154956D01*
X172287160Y-116215463D01*
X172161716Y-116311719D01*
X172065464Y-116437158D01*
X172065463Y-116437159D01*
X172027723Y-116528271D01*
X172000843Y-116568498D01*
X171002290Y-117567051D01*
X170996838Y-117572183D01*
X170951819Y-117612068D01*
X170917649Y-117661569D01*
X170913213Y-117667597D01*
X170876124Y-117714938D01*
X170876119Y-117714948D01*
X170871960Y-117724188D01*
X170860942Y-117743723D01*
X170855187Y-117752061D01*
X170855179Y-117752076D01*
X170833853Y-117808305D01*
X170830989Y-117815220D01*
X170806305Y-117870068D01*
X170804477Y-117880042D01*
X170798453Y-117901653D01*
X170794860Y-117911127D01*
X170794860Y-117911128D01*
X170787610Y-117970827D01*
X170786483Y-117978227D01*
X170775642Y-118037389D01*
X170775642Y-118037395D01*
X170779274Y-118097432D01*
X170779500Y-118104920D01*
X170779500Y-120545500D01*
X170759815Y-120612539D01*
X170707011Y-120658294D01*
X170655500Y-120669500D01*
X169632129Y-120669500D01*
X169632123Y-120669501D01*
X169572516Y-120675908D01*
X169437671Y-120726202D01*
X169437664Y-120726206D01*
X169322455Y-120812452D01*
X169322452Y-120812455D01*
X169236206Y-120927664D01*
X169236202Y-120927671D01*
X169185910Y-121062513D01*
X169185909Y-121062517D01*
X169180937Y-121108757D01*
X169154201Y-121173306D01*
X169096809Y-121213154D01*
X169057649Y-121219500D01*
X162645056Y-121219500D01*
X162474944Y-121219500D01*
X162451962Y-121225164D01*
X162440780Y-121227920D01*
X162426058Y-121230618D01*
X162391126Y-121234860D01*
X162358226Y-121247336D01*
X162343941Y-121251788D01*
X162309774Y-121260210D01*
X162309771Y-121260211D01*
X162278611Y-121276564D01*
X162264966Y-121282704D01*
X162232072Y-121295180D01*
X162232069Y-121295181D01*
X162203109Y-121315171D01*
X162190301Y-121322914D01*
X162159149Y-121339264D01*
X162132808Y-121362599D01*
X162121029Y-121371827D01*
X162092072Y-121391815D01*
X162092071Y-121391816D01*
X162068737Y-121418154D01*
X162058154Y-121428737D01*
X162031816Y-121452071D01*
X162031815Y-121452072D01*
X162011827Y-121481029D01*
X162002599Y-121492808D01*
X161979264Y-121519149D01*
X161962914Y-121550301D01*
X161955171Y-121563109D01*
X161935181Y-121592069D01*
X161935180Y-121592072D01*
X161922704Y-121624966D01*
X161916564Y-121638611D01*
X161900211Y-121669771D01*
X161900210Y-121669774D01*
X161891788Y-121703941D01*
X161887336Y-121718226D01*
X161874860Y-121751126D01*
X161870618Y-121786058D01*
X161867920Y-121800780D01*
X161859500Y-121834945D01*
X161859500Y-128317288D01*
X161839815Y-128384327D01*
X161806624Y-128418863D01*
X161688594Y-128501508D01*
X161521505Y-128668597D01*
X161391575Y-128854158D01*
X161336998Y-128897783D01*
X161267500Y-128904977D01*
X161205145Y-128873454D01*
X161188425Y-128854158D01*
X161058494Y-128668597D01*
X160891402Y-128501506D01*
X160891395Y-128501501D01*
X160889204Y-128499967D01*
X160817747Y-128449932D01*
X160697834Y-128365967D01*
X160697830Y-128365965D01*
X160653861Y-128345462D01*
X160483663Y-128266097D01*
X160483659Y-128266096D01*
X160483655Y-128266094D01*
X160255413Y-128204938D01*
X160255403Y-128204936D01*
X160020001Y-128184341D01*
X160019999Y-128184341D01*
X159784596Y-128204936D01*
X159784586Y-128204938D01*
X159556344Y-128266094D01*
X159556335Y-128266098D01*
X159342171Y-128365964D01*
X159342169Y-128365965D01*
X159148597Y-128501505D01*
X158981505Y-128668597D01*
X158851575Y-128854158D01*
X158796998Y-128897783D01*
X158727500Y-128904977D01*
X158665145Y-128873454D01*
X158648425Y-128854158D01*
X158518494Y-128668597D01*
X158351402Y-128501506D01*
X158351395Y-128501501D01*
X158349204Y-128499967D01*
X158277747Y-128449932D01*
X158157834Y-128365967D01*
X158157830Y-128365965D01*
X158113861Y-128345462D01*
X157943663Y-128266097D01*
X157943659Y-128266096D01*
X157943655Y-128266094D01*
X157715413Y-128204938D01*
X157715403Y-128204936D01*
X157480001Y-128184341D01*
X157479999Y-128184341D01*
X157244596Y-128204936D01*
X157244586Y-128204938D01*
X157016344Y-128266094D01*
X157016335Y-128266098D01*
X156802171Y-128365964D01*
X156802169Y-128365965D01*
X156608597Y-128501505D01*
X156441505Y-128668597D01*
X156311575Y-128854158D01*
X156256998Y-128897783D01*
X156187500Y-128904977D01*
X156125145Y-128873454D01*
X156108425Y-128854158D01*
X155978494Y-128668597D01*
X155811402Y-128501506D01*
X155811395Y-128501501D01*
X155809204Y-128499967D01*
X155737747Y-128449932D01*
X155617834Y-128365967D01*
X155617830Y-128365965D01*
X155573861Y-128345462D01*
X155403663Y-128266097D01*
X155403659Y-128266096D01*
X155403655Y-128266094D01*
X155175413Y-128204938D01*
X155175403Y-128204936D01*
X154940001Y-128184341D01*
X154939999Y-128184341D01*
X154704596Y-128204936D01*
X154704586Y-128204938D01*
X154476344Y-128266094D01*
X154476335Y-128266098D01*
X154262171Y-128365964D01*
X154262169Y-128365965D01*
X154068597Y-128501505D01*
X153901505Y-128668597D01*
X153771575Y-128854158D01*
X153716998Y-128897783D01*
X153647500Y-128904977D01*
X153585145Y-128873454D01*
X153568425Y-128854158D01*
X153438494Y-128668597D01*
X153271402Y-128501506D01*
X153271395Y-128501501D01*
X153269204Y-128499967D01*
X153197747Y-128449932D01*
X153077834Y-128365967D01*
X153077830Y-128365965D01*
X153033861Y-128345462D01*
X152863663Y-128266097D01*
X152863659Y-128266096D01*
X152863655Y-128266094D01*
X152635413Y-128204938D01*
X152635403Y-128204936D01*
X152400001Y-128184341D01*
X152399999Y-128184341D01*
X152164596Y-128204936D01*
X152164586Y-128204938D01*
X151936344Y-128266094D01*
X151936335Y-128266098D01*
X151722171Y-128365964D01*
X151722169Y-128365965D01*
X151528597Y-128501505D01*
X151361505Y-128668597D01*
X151231575Y-128854158D01*
X151176998Y-128897783D01*
X151107500Y-128904977D01*
X151045145Y-128873454D01*
X151028425Y-128854158D01*
X150898494Y-128668597D01*
X150731402Y-128501506D01*
X150731395Y-128501501D01*
X150729204Y-128499967D01*
X150657747Y-128449932D01*
X150537834Y-128365967D01*
X150537830Y-128365965D01*
X150493861Y-128345462D01*
X150323663Y-128266097D01*
X150323659Y-128266096D01*
X150323655Y-128266094D01*
X150095413Y-128204938D01*
X150095403Y-128204936D01*
X149860001Y-128184341D01*
X149859999Y-128184341D01*
X149624596Y-128204936D01*
X149624586Y-128204938D01*
X149396344Y-128266094D01*
X149396335Y-128266098D01*
X149182171Y-128365964D01*
X149182169Y-128365965D01*
X148988597Y-128501505D01*
X148821505Y-128668597D01*
X148691575Y-128854158D01*
X148636998Y-128897783D01*
X148567500Y-128904977D01*
X148505145Y-128873454D01*
X148488425Y-128854158D01*
X148358494Y-128668597D01*
X148191402Y-128501506D01*
X148191395Y-128501501D01*
X148189204Y-128499967D01*
X148117747Y-128449932D01*
X147997834Y-128365967D01*
X147997830Y-128365965D01*
X147953861Y-128345462D01*
X147783663Y-128266097D01*
X147783659Y-128266096D01*
X147783655Y-128266094D01*
X147555413Y-128204938D01*
X147555403Y-128204936D01*
X147320001Y-128184341D01*
X147319999Y-128184341D01*
X147084596Y-128204936D01*
X147084586Y-128204938D01*
X146856344Y-128266094D01*
X146856335Y-128266098D01*
X146642171Y-128365964D01*
X146642169Y-128365965D01*
X146448597Y-128501505D01*
X146281505Y-128668597D01*
X146151575Y-128854158D01*
X146096998Y-128897783D01*
X146027500Y-128904977D01*
X145965145Y-128873454D01*
X145948425Y-128854158D01*
X145818494Y-128668597D01*
X145651402Y-128501506D01*
X145651395Y-128501501D01*
X145649204Y-128499967D01*
X145577747Y-128449932D01*
X145457834Y-128365967D01*
X145457830Y-128365965D01*
X145413861Y-128345462D01*
X145243663Y-128266097D01*
X145243659Y-128266096D01*
X145243655Y-128266094D01*
X145015413Y-128204938D01*
X145015403Y-128204936D01*
X144780001Y-128184341D01*
X144779999Y-128184341D01*
X144544596Y-128204936D01*
X144544586Y-128204938D01*
X144316344Y-128266094D01*
X144316335Y-128266098D01*
X144102171Y-128365964D01*
X144102169Y-128365965D01*
X143908597Y-128501505D01*
X143741505Y-128668597D01*
X143611575Y-128854158D01*
X143556998Y-128897783D01*
X143487500Y-128904977D01*
X143425145Y-128873454D01*
X143408425Y-128854158D01*
X143278494Y-128668597D01*
X143111402Y-128501506D01*
X143111395Y-128501501D01*
X143109204Y-128499967D01*
X143037747Y-128449932D01*
X142917834Y-128365967D01*
X142917830Y-128365965D01*
X142873861Y-128345462D01*
X142703663Y-128266097D01*
X142703659Y-128266096D01*
X142703655Y-128266094D01*
X142475413Y-128204938D01*
X142475403Y-128204936D01*
X142240001Y-128184341D01*
X142239999Y-128184341D01*
X142004596Y-128204936D01*
X142004586Y-128204938D01*
X141776344Y-128266094D01*
X141776335Y-128266098D01*
X141562171Y-128365964D01*
X141562169Y-128365965D01*
X141368597Y-128501505D01*
X141201505Y-128668597D01*
X141071575Y-128854158D01*
X141016998Y-128897783D01*
X140947500Y-128904977D01*
X140885145Y-128873454D01*
X140868425Y-128854158D01*
X140738494Y-128668597D01*
X140571402Y-128501506D01*
X140571395Y-128501501D01*
X140569204Y-128499967D01*
X140497747Y-128449932D01*
X140377834Y-128365967D01*
X140377830Y-128365965D01*
X140333861Y-128345462D01*
X140163663Y-128266097D01*
X140163659Y-128266096D01*
X140163655Y-128266094D01*
X139935413Y-128204938D01*
X139935403Y-128204936D01*
X139700001Y-128184341D01*
X139699999Y-128184341D01*
X139464596Y-128204936D01*
X139464586Y-128204938D01*
X139236344Y-128266094D01*
X139236335Y-128266098D01*
X139022171Y-128365964D01*
X139022169Y-128365965D01*
X138828597Y-128501505D01*
X138661505Y-128668597D01*
X138531575Y-128854158D01*
X138476998Y-128897783D01*
X138407500Y-128904977D01*
X138345145Y-128873454D01*
X138328425Y-128854158D01*
X138198494Y-128668597D01*
X138031402Y-128501506D01*
X138031395Y-128501501D01*
X138029204Y-128499967D01*
X137957747Y-128449932D01*
X137837834Y-128365967D01*
X137837830Y-128365965D01*
X137793861Y-128345462D01*
X137623663Y-128266097D01*
X137623659Y-128266096D01*
X137623655Y-128266094D01*
X137395413Y-128204938D01*
X137395403Y-128204936D01*
X137160001Y-128184341D01*
X137159999Y-128184341D01*
X136924596Y-128204936D01*
X136924586Y-128204938D01*
X136696344Y-128266094D01*
X136696335Y-128266098D01*
X136482171Y-128365964D01*
X136482169Y-128365965D01*
X136288597Y-128501505D01*
X136121505Y-128668597D01*
X135991575Y-128854158D01*
X135936998Y-128897783D01*
X135867500Y-128904977D01*
X135805145Y-128873454D01*
X135788425Y-128854158D01*
X135658494Y-128668597D01*
X135491402Y-128501506D01*
X135491395Y-128501501D01*
X135489204Y-128499967D01*
X135417747Y-128449932D01*
X135297834Y-128365967D01*
X135297830Y-128365965D01*
X135253861Y-128345462D01*
X135083663Y-128266097D01*
X135083659Y-128266096D01*
X135083655Y-128266094D01*
X134855413Y-128204938D01*
X134855403Y-128204936D01*
X134620001Y-128184341D01*
X134619999Y-128184341D01*
X134384596Y-128204936D01*
X134384586Y-128204938D01*
X134156344Y-128266094D01*
X134156335Y-128266098D01*
X133942171Y-128365964D01*
X133942169Y-128365965D01*
X133748597Y-128501505D01*
X133581505Y-128668597D01*
X133451575Y-128854158D01*
X133396998Y-128897783D01*
X133327500Y-128904977D01*
X133265145Y-128873454D01*
X133248425Y-128854158D01*
X133118494Y-128668597D01*
X132951402Y-128501506D01*
X132951395Y-128501501D01*
X132949204Y-128499967D01*
X132877747Y-128449932D01*
X132757834Y-128365967D01*
X132757830Y-128365965D01*
X132713861Y-128345462D01*
X132543663Y-128266097D01*
X132543659Y-128266096D01*
X132543655Y-128266094D01*
X132315413Y-128204938D01*
X132315403Y-128204936D01*
X132080001Y-128184341D01*
X132079999Y-128184341D01*
X131844596Y-128204936D01*
X131844586Y-128204938D01*
X131616344Y-128266094D01*
X131616335Y-128266098D01*
X131402171Y-128365964D01*
X131402169Y-128365965D01*
X131208597Y-128501505D01*
X131041505Y-128668597D01*
X130911575Y-128854158D01*
X130856998Y-128897783D01*
X130787500Y-128904977D01*
X130725145Y-128873454D01*
X130708425Y-128854158D01*
X130578494Y-128668597D01*
X130411402Y-128501506D01*
X130411395Y-128501501D01*
X130409204Y-128499967D01*
X130337747Y-128449932D01*
X130217834Y-128365967D01*
X130217830Y-128365965D01*
X130173861Y-128345462D01*
X130003663Y-128266097D01*
X130003659Y-128266096D01*
X130003655Y-128266094D01*
X129775413Y-128204938D01*
X129775403Y-128204936D01*
X129540001Y-128184341D01*
X129539999Y-128184341D01*
X129304596Y-128204936D01*
X129304586Y-128204938D01*
X129076344Y-128266094D01*
X129076335Y-128266098D01*
X128862171Y-128365964D01*
X128862169Y-128365965D01*
X128668597Y-128501505D01*
X128501506Y-128668596D01*
X128444304Y-128750291D01*
X128421724Y-128782539D01*
X128418864Y-128786623D01*
X128364287Y-128830248D01*
X128317289Y-128839500D01*
X122261519Y-128839500D01*
X122194480Y-128819815D01*
X122173838Y-128803181D01*
X120666819Y-127296162D01*
X120633334Y-127234839D01*
X120630500Y-127208481D01*
X120630500Y-123207180D01*
X120650185Y-123140141D01*
X120680187Y-123107914D01*
X120787546Y-123027546D01*
X120873796Y-122912331D01*
X120924091Y-122777483D01*
X120930500Y-122717873D01*
X120930499Y-121122128D01*
X120924091Y-121062517D01*
X120923455Y-121060813D01*
X120873797Y-120927671D01*
X120873793Y-120927664D01*
X120787547Y-120812455D01*
X120787544Y-120812452D01*
X120672335Y-120726206D01*
X120672328Y-120726202D01*
X120537482Y-120675908D01*
X120537483Y-120675908D01*
X120477883Y-120669501D01*
X120477881Y-120669500D01*
X120477873Y-120669500D01*
X120477864Y-120669500D01*
X119382129Y-120669500D01*
X119382123Y-120669501D01*
X119322520Y-120675908D01*
X119314974Y-120677692D01*
X119314628Y-120676230D01*
X119253622Y-120680584D01*
X119238600Y-120676172D01*
X119237482Y-120675908D01*
X119177883Y-120669501D01*
X119177881Y-120669500D01*
X119177873Y-120669500D01*
X119177865Y-120669500D01*
X118421519Y-120669500D01*
X118354480Y-120649815D01*
X118333838Y-120633181D01*
X118151819Y-120451162D01*
X118118334Y-120389839D01*
X118115500Y-120363481D01*
X118115500Y-117663575D01*
X118135185Y-117596536D01*
X118187989Y-117550781D01*
X118223317Y-117540636D01*
X118224358Y-117540499D01*
X118224360Y-117540499D01*
X118341762Y-117525044D01*
X118487841Y-117464536D01*
X118613282Y-117368282D01*
X118709536Y-117242841D01*
X118770044Y-117096762D01*
X118785500Y-116979361D01*
X118785499Y-116700640D01*
X118785499Y-116700638D01*
X118785499Y-116700636D01*
X118770045Y-116583241D01*
X118770044Y-116583238D01*
X118764939Y-116570913D01*
X118755500Y-116523460D01*
X118755500Y-115539920D01*
X118755726Y-115532432D01*
X118759358Y-115472394D01*
X118748514Y-115413221D01*
X118747387Y-115405815D01*
X118747128Y-115403689D01*
X118740140Y-115346128D01*
X118736548Y-115336656D01*
X118730521Y-115315034D01*
X118728695Y-115305071D01*
X118728693Y-115305063D01*
X118704009Y-115250221D01*
X118701154Y-115243331D01*
X118679818Y-115187070D01*
X118674062Y-115178731D01*
X118663034Y-115159177D01*
X118658881Y-115149949D01*
X118658878Y-115149945D01*
X118658878Y-115149944D01*
X118621788Y-115102603D01*
X118617352Y-115096574D01*
X118583183Y-115047071D01*
X118538145Y-115007171D01*
X118532707Y-115002051D01*
X117496819Y-113966162D01*
X117463334Y-113904839D01*
X117460500Y-113878481D01*
X117460500Y-112582259D01*
X117480185Y-112515220D01*
X117532989Y-112469465D01*
X117568317Y-112459320D01*
X117614996Y-112453175D01*
X117676762Y-112445044D01*
X117822841Y-112384536D01*
X117948282Y-112288282D01*
X118044536Y-112162841D01*
X118082277Y-112071723D01*
X118109152Y-112031503D01*
X119192731Y-110947924D01*
X119198151Y-110942822D01*
X119243183Y-110902929D01*
X119277366Y-110853404D01*
X119281775Y-110847413D01*
X119318878Y-110800057D01*
X119323034Y-110790821D01*
X119334062Y-110771266D01*
X119339818Y-110762930D01*
X119361150Y-110706678D01*
X119364010Y-110699776D01*
X119388693Y-110644936D01*
X119388693Y-110644934D01*
X119388695Y-110644931D01*
X119390522Y-110634959D01*
X119396546Y-110613347D01*
X119400140Y-110603872D01*
X119407387Y-110544184D01*
X119408514Y-110536777D01*
X119419358Y-110477606D01*
X119415726Y-110417565D01*
X119415500Y-110410078D01*
X119415500Y-107967180D01*
X119435185Y-107900141D01*
X119465187Y-107867914D01*
X119572546Y-107787546D01*
X119658796Y-107672331D01*
X119709091Y-107537483D01*
X119715500Y-107477873D01*
X119715499Y-105882128D01*
X119709091Y-105822517D01*
X119658796Y-105687669D01*
X119658795Y-105687668D01*
X119658793Y-105687664D01*
X119572547Y-105572455D01*
X119572544Y-105572452D01*
X119457335Y-105486206D01*
X119457328Y-105486202D01*
X119322482Y-105435908D01*
X119322483Y-105435908D01*
X119262883Y-105429501D01*
X119262881Y-105429500D01*
X119262873Y-105429500D01*
X119262864Y-105429500D01*
X118167129Y-105429500D01*
X118167123Y-105429501D01*
X118107520Y-105435908D01*
X118099974Y-105437692D01*
X118099628Y-105436230D01*
X118038622Y-105440584D01*
X118023600Y-105436172D01*
X118022482Y-105435908D01*
X117962883Y-105429501D01*
X117962881Y-105429500D01*
X117962873Y-105429500D01*
X117962865Y-105429500D01*
X117181519Y-105429500D01*
X117114480Y-105409815D01*
X117093838Y-105393181D01*
X114712838Y-103012181D01*
X114679353Y-102950858D01*
X114684337Y-102881166D01*
X114726209Y-102825233D01*
X114791673Y-102800816D01*
X114800519Y-102800500D01*
X114961241Y-102800500D01*
X114961243Y-102800500D01*
X115179940Y-102759618D01*
X115387401Y-102679247D01*
X115576562Y-102562124D01*
X115740981Y-102412236D01*
X115875058Y-102234689D01*
X115974229Y-102035528D01*
X116035115Y-101821536D01*
X116055643Y-101600000D01*
X116035115Y-101378464D01*
X115974229Y-101164472D01*
X115974224Y-101164461D01*
X115875061Y-100965316D01*
X115875056Y-100965308D01*
X115740979Y-100787761D01*
X115576562Y-100637876D01*
X115576560Y-100637874D01*
X115387404Y-100520754D01*
X115387398Y-100520752D01*
X115179940Y-100440382D01*
X114961243Y-100399500D01*
X114738757Y-100399500D01*
X114520060Y-100440382D01*
X114520057Y-100440383D01*
X114520053Y-100440384D01*
X114452074Y-100466719D01*
X114382451Y-100472580D01*
X114320711Y-100439870D01*
X114286457Y-100378973D01*
X114283508Y-100358577D01*
X114280726Y-100312575D01*
X114280500Y-100305090D01*
X114280500Y-99857870D01*
X127239500Y-99857870D01*
X127239501Y-99857876D01*
X127245908Y-99917483D01*
X127296202Y-100052328D01*
X127296203Y-100052329D01*
X127296204Y-100052331D01*
X127382452Y-100167543D01*
X127382454Y-100167546D01*
X127389808Y-100173051D01*
X127431681Y-100228983D01*
X127439500Y-100272320D01*
X127439500Y-104205191D01*
X127439501Y-104205200D01*
X127448017Y-104242518D01*
X127450345Y-104256217D01*
X127454633Y-104294260D01*
X127467271Y-104330380D01*
X127471119Y-104343735D01*
X127479639Y-104381061D01*
X127496250Y-104415554D01*
X127501570Y-104428397D01*
X127514212Y-104464525D01*
X127534572Y-104496927D01*
X127541296Y-104509093D01*
X127557910Y-104543589D01*
X127581771Y-104573510D01*
X127589817Y-104584849D01*
X127610184Y-104617262D01*
X127642174Y-104649252D01*
X130270748Y-107277826D01*
X130361790Y-107350430D01*
X130376417Y-107362094D01*
X130538939Y-107440360D01*
X130538937Y-107440360D01*
X130714799Y-107480499D01*
X130714804Y-107480499D01*
X130714806Y-107480500D01*
X130714808Y-107480500D01*
X130895192Y-107480500D01*
X130895194Y-107480500D01*
X130895196Y-107480499D01*
X130895200Y-107480499D01*
X131071058Y-107440361D01*
X131071059Y-107440360D01*
X131071061Y-107440360D01*
X131180103Y-107387848D01*
X131243313Y-107377439D01*
X131259531Y-107363217D01*
X131264685Y-107345666D01*
X131291684Y-107315760D01*
X131374621Y-107249621D01*
X131424053Y-107187634D01*
X131481241Y-107147494D01*
X131551052Y-107144644D01*
X131611322Y-107179989D01*
X131642916Y-107242308D01*
X131645000Y-107264947D01*
X131645000Y-107375959D01*
X131645001Y-107375960D01*
X131731627Y-107364557D01*
X131731633Y-107364555D01*
X131877585Y-107304100D01*
X132002924Y-107207924D01*
X132099100Y-107082586D01*
X132159555Y-106936631D01*
X132167012Y-106880000D01*
X131729500Y-106880000D01*
X131662461Y-106860315D01*
X131616706Y-106807511D01*
X131605500Y-106756000D01*
X131605500Y-106604000D01*
X131625185Y-106536961D01*
X131677989Y-106491206D01*
X131729500Y-106480000D01*
X132167010Y-106480000D01*
X132167011Y-106479998D01*
X132159557Y-106423372D01*
X132159555Y-106423366D01*
X132099100Y-106277414D01*
X132002924Y-106152075D01*
X131877586Y-106055899D01*
X131731631Y-105995444D01*
X131645000Y-105984038D01*
X131645000Y-106095052D01*
X131625315Y-106162091D01*
X131572511Y-106207846D01*
X131503353Y-106217790D01*
X131439797Y-106188765D01*
X131424054Y-106172366D01*
X131402827Y-106145749D01*
X131281319Y-106024241D01*
X131272566Y-106008212D01*
X131216507Y-105959054D01*
X131210581Y-105953503D01*
X129076819Y-103819741D01*
X129043334Y-103758418D01*
X129040500Y-103732060D01*
X129040500Y-100434499D01*
X129060185Y-100367460D01*
X129112989Y-100321705D01*
X129164500Y-100310499D01*
X130087871Y-100310499D01*
X130087872Y-100310499D01*
X130147483Y-100304091D01*
X130282331Y-100253796D01*
X130397546Y-100167546D01*
X130483796Y-100052331D01*
X130532191Y-99922576D01*
X130574062Y-99866643D01*
X130613010Y-99848617D01*
X130612679Y-99847669D01*
X130619253Y-99845368D01*
X130619255Y-99845368D01*
X130655392Y-99832722D01*
X130668726Y-99828881D01*
X130706061Y-99820360D01*
X130740561Y-99803745D01*
X130753398Y-99798429D01*
X130789519Y-99785790D01*
X130789518Y-99785790D01*
X130789522Y-99785789D01*
X130821939Y-99765419D01*
X130834103Y-99758697D01*
X130868587Y-99742091D01*
X130898515Y-99718222D01*
X130909847Y-99710182D01*
X130942262Y-99689816D01*
X131069816Y-99562262D01*
X138355259Y-92276819D01*
X138416582Y-92243334D01*
X138442940Y-92240500D01*
X140008060Y-92240500D01*
X140075099Y-92260185D01*
X140120854Y-92312989D01*
X140130798Y-92382147D01*
X140101773Y-92445703D01*
X140095741Y-92452181D01*
X136562173Y-95985748D01*
X136477907Y-96091415D01*
X136399639Y-96253939D01*
X136359500Y-96429799D01*
X136359500Y-96610200D01*
X136399637Y-96786052D01*
X136399639Y-96786060D01*
X136447220Y-96884860D01*
X136459500Y-96938662D01*
X136459500Y-97685500D01*
X136439815Y-97752539D01*
X136387011Y-97798294D01*
X136335500Y-97809500D01*
X135312129Y-97809500D01*
X135312123Y-97809501D01*
X135252516Y-97815908D01*
X135117671Y-97866202D01*
X135117664Y-97866206D01*
X135002455Y-97952452D01*
X135002452Y-97952455D01*
X134916206Y-98067664D01*
X134916202Y-98067671D01*
X134865908Y-98202517D01*
X134859501Y-98262116D01*
X134859501Y-98262123D01*
X134859500Y-98262135D01*
X134859500Y-99857870D01*
X134859501Y-99857876D01*
X134865908Y-99917483D01*
X134916202Y-100052328D01*
X134916203Y-100052329D01*
X134916204Y-100052331D01*
X135002452Y-100167543D01*
X135002451Y-100167543D01*
X135002452Y-100167544D01*
X135002454Y-100167546D01*
X135034812Y-100191769D01*
X135076681Y-100247700D01*
X135084500Y-100291034D01*
X135084500Y-106724960D01*
X135099630Y-106859249D01*
X135099631Y-106859254D01*
X135159211Y-107029523D01*
X135238216Y-107155258D01*
X135255184Y-107182262D01*
X135382738Y-107309816D01*
X135386962Y-107312470D01*
X135506926Y-107387849D01*
X135535478Y-107405789D01*
X135634279Y-107440361D01*
X135705745Y-107465368D01*
X135705750Y-107465369D01*
X135884996Y-107485565D01*
X135885000Y-107485565D01*
X135885004Y-107485565D01*
X136064249Y-107465369D01*
X136064252Y-107465368D01*
X136064255Y-107465368D01*
X136234522Y-107405789D01*
X136251597Y-107395059D01*
X136318832Y-107376058D01*
X136324436Y-107376454D01*
X136341415Y-107361563D01*
X136344685Y-107350430D01*
X136383032Y-107312473D01*
X136387262Y-107309816D01*
X136513320Y-107183757D01*
X136574641Y-107150274D01*
X136644333Y-107155258D01*
X136700267Y-107197129D01*
X136724684Y-107262593D01*
X136725000Y-107271440D01*
X136725000Y-107375959D01*
X136725001Y-107375960D01*
X136811627Y-107364557D01*
X136811633Y-107364555D01*
X136957585Y-107304100D01*
X137082924Y-107207924D01*
X137179100Y-107082586D01*
X137239555Y-106936631D01*
X137247012Y-106880000D01*
X136806787Y-106880000D01*
X136739748Y-106860315D01*
X136693993Y-106807511D01*
X136683566Y-106742118D01*
X136685500Y-106724950D01*
X136685500Y-106604000D01*
X136705185Y-106536961D01*
X136757989Y-106491206D01*
X136809500Y-106480000D01*
X137247010Y-106480000D01*
X137247011Y-106479998D01*
X137239557Y-106423372D01*
X137239555Y-106423366D01*
X137179100Y-106277414D01*
X137082924Y-106152075D01*
X136957586Y-106055899D01*
X136811634Y-105995445D01*
X136811631Y-105995444D01*
X136793311Y-105993032D01*
X136729415Y-105964763D01*
X136690946Y-105906438D01*
X136685500Y-105870093D01*
X136685500Y-100434499D01*
X136705185Y-100367460D01*
X136757989Y-100321705D01*
X136809500Y-100310499D01*
X137707871Y-100310499D01*
X137707872Y-100310499D01*
X137767483Y-100304091D01*
X137902331Y-100253796D01*
X138017546Y-100167546D01*
X138103796Y-100052331D01*
X138154091Y-99917483D01*
X138160500Y-99857873D01*
X138160499Y-98262128D01*
X138154091Y-98202517D01*
X138103796Y-98067669D01*
X138103795Y-98067668D01*
X138103793Y-98067664D01*
X138017547Y-97952455D01*
X138010185Y-97946944D01*
X137960500Y-97909749D01*
X137910188Y-97872085D01*
X137868318Y-97816151D01*
X137860500Y-97772819D01*
X137860500Y-97002940D01*
X137880185Y-96935901D01*
X137896819Y-96915259D01*
X142535259Y-92276819D01*
X142596582Y-92243334D01*
X142622940Y-92240500D01*
X143855500Y-92240500D01*
X143922539Y-92260185D01*
X143968294Y-92312989D01*
X143979500Y-92364500D01*
X143979500Y-97685500D01*
X143959815Y-97752539D01*
X143907011Y-97798294D01*
X143855500Y-97809500D01*
X142932129Y-97809500D01*
X142932123Y-97809501D01*
X142872516Y-97815908D01*
X142737671Y-97866202D01*
X142737664Y-97866206D01*
X142622455Y-97952452D01*
X142622452Y-97952455D01*
X142536206Y-98067664D01*
X142536202Y-98067671D01*
X142485908Y-98202517D01*
X142479501Y-98262116D01*
X142479501Y-98262123D01*
X142479500Y-98262135D01*
X142479500Y-99857870D01*
X142479501Y-99857876D01*
X142485908Y-99917483D01*
X142536202Y-100052328D01*
X142536203Y-100052329D01*
X142536204Y-100052331D01*
X142622452Y-100167543D01*
X142622451Y-100167543D01*
X142622452Y-100167544D01*
X142622454Y-100167546D01*
X142654812Y-100191769D01*
X142696681Y-100247700D01*
X142704500Y-100291034D01*
X142704500Y-106724960D01*
X142719630Y-106859249D01*
X142719631Y-106859254D01*
X142779211Y-107029523D01*
X142858216Y-107155258D01*
X142875184Y-107182262D01*
X143002738Y-107309816D01*
X143006962Y-107312470D01*
X143126926Y-107387849D01*
X143155478Y-107405789D01*
X143254279Y-107440361D01*
X143325745Y-107465368D01*
X143325750Y-107465369D01*
X143504996Y-107485565D01*
X143505000Y-107485565D01*
X143505004Y-107485565D01*
X143684249Y-107465369D01*
X143684252Y-107465368D01*
X143684255Y-107465368D01*
X143854522Y-107405789D01*
X143871597Y-107395059D01*
X143938832Y-107376058D01*
X143944436Y-107376454D01*
X143961415Y-107361563D01*
X143964685Y-107350430D01*
X144003032Y-107312473D01*
X144007262Y-107309816D01*
X144133320Y-107183757D01*
X144194641Y-107150274D01*
X144264333Y-107155258D01*
X144320267Y-107197129D01*
X144344684Y-107262593D01*
X144345000Y-107271440D01*
X144345000Y-107375959D01*
X144345001Y-107375960D01*
X144431627Y-107364557D01*
X144431633Y-107364555D01*
X144577585Y-107304100D01*
X144702924Y-107207924D01*
X144799100Y-107082586D01*
X144859555Y-106936631D01*
X144867012Y-106880000D01*
X144426787Y-106880000D01*
X144359748Y-106860315D01*
X144313993Y-106807511D01*
X144303566Y-106742118D01*
X144305500Y-106724950D01*
X144305500Y-106604000D01*
X144325185Y-106536961D01*
X144377989Y-106491206D01*
X144429500Y-106480000D01*
X144867010Y-106480000D01*
X144867011Y-106479998D01*
X144859557Y-106423372D01*
X144859555Y-106423366D01*
X144799100Y-106277414D01*
X144702924Y-106152075D01*
X144577586Y-106055899D01*
X144431634Y-105995445D01*
X144431631Y-105995444D01*
X144413311Y-105993032D01*
X144349415Y-105964763D01*
X144310946Y-105906438D01*
X144305500Y-105870093D01*
X144305500Y-100434499D01*
X144325185Y-100367460D01*
X144377989Y-100321705D01*
X144429500Y-100310499D01*
X145327871Y-100310499D01*
X145327872Y-100310499D01*
X145387483Y-100304091D01*
X145522331Y-100253796D01*
X145637546Y-100167546D01*
X145723796Y-100052331D01*
X145774091Y-99917483D01*
X145780500Y-99857873D01*
X145780499Y-98262128D01*
X145774091Y-98202517D01*
X145723796Y-98067669D01*
X145723795Y-98067668D01*
X145723793Y-98067664D01*
X145637548Y-97952457D01*
X145637546Y-97952454D01*
X145637542Y-97952451D01*
X145637540Y-97952449D01*
X145630187Y-97946944D01*
X145588317Y-97891009D01*
X145580500Y-97847679D01*
X145580500Y-92364500D01*
X145600185Y-92297461D01*
X145652989Y-92251706D01*
X145704500Y-92240500D01*
X151475500Y-92240500D01*
X151542539Y-92260185D01*
X151588294Y-92312989D01*
X151599500Y-92364500D01*
X151599500Y-97685500D01*
X151579815Y-97752539D01*
X151527011Y-97798294D01*
X151475500Y-97809500D01*
X150552129Y-97809500D01*
X150552123Y-97809501D01*
X150492516Y-97815908D01*
X150357671Y-97866202D01*
X150357664Y-97866206D01*
X150242455Y-97952452D01*
X150242452Y-97952455D01*
X150156206Y-98067664D01*
X150156202Y-98067671D01*
X150105908Y-98202517D01*
X150099501Y-98262116D01*
X150099501Y-98262123D01*
X150099500Y-98262135D01*
X150099500Y-99857870D01*
X150099501Y-99857876D01*
X150105908Y-99917483D01*
X150156202Y-100052328D01*
X150156203Y-100052329D01*
X150156204Y-100052331D01*
X150242452Y-100167543D01*
X150242451Y-100167543D01*
X150242452Y-100167544D01*
X150242454Y-100167546D01*
X150274812Y-100191769D01*
X150316681Y-100247700D01*
X150324500Y-100291034D01*
X150324500Y-106724960D01*
X150339630Y-106859249D01*
X150339631Y-106859254D01*
X150399211Y-107029523D01*
X150478216Y-107155258D01*
X150495184Y-107182262D01*
X150622738Y-107309816D01*
X150626962Y-107312470D01*
X150746926Y-107387849D01*
X150775478Y-107405789D01*
X150874279Y-107440361D01*
X150945745Y-107465368D01*
X150945750Y-107465369D01*
X151124996Y-107485565D01*
X151125000Y-107485565D01*
X151125004Y-107485565D01*
X151304249Y-107465369D01*
X151304252Y-107465368D01*
X151304255Y-107465368D01*
X151474522Y-107405789D01*
X151491597Y-107395059D01*
X151558832Y-107376058D01*
X151564436Y-107376454D01*
X151581415Y-107361563D01*
X151584685Y-107350430D01*
X151623032Y-107312473D01*
X151627262Y-107309816D01*
X151753320Y-107183757D01*
X151814641Y-107150274D01*
X151884333Y-107155258D01*
X151940267Y-107197129D01*
X151964684Y-107262593D01*
X151965000Y-107271440D01*
X151965000Y-107375959D01*
X151965001Y-107375960D01*
X152051627Y-107364557D01*
X152051633Y-107364555D01*
X152197585Y-107304100D01*
X152322924Y-107207924D01*
X152419100Y-107082586D01*
X152479555Y-106936631D01*
X152487012Y-106880000D01*
X152046787Y-106880000D01*
X151979748Y-106860315D01*
X151933993Y-106807511D01*
X151923566Y-106742118D01*
X151925500Y-106724950D01*
X151925500Y-106604000D01*
X151945185Y-106536961D01*
X151997989Y-106491206D01*
X152049500Y-106480000D01*
X152487010Y-106480000D01*
X152487011Y-106479998D01*
X152479557Y-106423372D01*
X152479555Y-106423366D01*
X152419100Y-106277414D01*
X152322924Y-106152075D01*
X152197586Y-106055899D01*
X152051634Y-105995445D01*
X152051631Y-105995444D01*
X152033311Y-105993032D01*
X151969415Y-105964763D01*
X151930946Y-105906438D01*
X151925500Y-105870093D01*
X151925500Y-100434499D01*
X151945185Y-100367460D01*
X151997989Y-100321705D01*
X152049500Y-100310499D01*
X152947871Y-100310499D01*
X152947872Y-100310499D01*
X153007483Y-100304091D01*
X153142331Y-100253796D01*
X153257546Y-100167546D01*
X153343796Y-100052331D01*
X153394091Y-99917483D01*
X153400500Y-99857873D01*
X153400499Y-98262128D01*
X153394091Y-98202517D01*
X153343796Y-98067669D01*
X153343795Y-98067668D01*
X153343793Y-98067664D01*
X153257548Y-97952457D01*
X153257546Y-97952454D01*
X153257542Y-97952451D01*
X153257540Y-97952449D01*
X153250187Y-97946944D01*
X153208317Y-97891009D01*
X153200500Y-97847679D01*
X153200500Y-91491914D01*
X153201280Y-91478029D01*
X153205565Y-91440001D01*
X153205565Y-91439996D01*
X153185369Y-91260750D01*
X153185368Y-91260745D01*
X153125788Y-91090476D01*
X153029815Y-90937737D01*
X152902262Y-90810184D01*
X152749523Y-90714211D01*
X152579254Y-90654631D01*
X152579249Y-90654630D01*
X152444954Y-90639500D01*
X152429969Y-90637811D01*
X152400002Y-90634435D01*
X152399998Y-90634435D01*
X152361969Y-90638720D01*
X152348085Y-90639500D01*
X145162940Y-90639500D01*
X145095901Y-90619815D01*
X145075259Y-90603181D01*
X144316819Y-89844741D01*
X144283334Y-89783418D01*
X144280500Y-89757060D01*
X144280500Y-86572806D01*
X144287458Y-86531853D01*
X144295365Y-86509258D01*
X144299651Y-86471214D01*
X144301979Y-86457515D01*
X144303651Y-86450191D01*
X144310497Y-86420197D01*
X144310497Y-86239809D01*
X144310497Y-80392937D01*
X144330182Y-80325898D01*
X144346816Y-80305256D01*
X145075253Y-79576819D01*
X145136576Y-79543334D01*
X145162934Y-79540500D01*
X147467214Y-79540500D01*
X147534253Y-79560185D01*
X147566819Y-79591483D01*
X147566862Y-79591448D01*
X147567195Y-79591845D01*
X147568789Y-79593377D01*
X147570342Y-79595595D01*
X147734401Y-79759654D01*
X147734404Y-79759656D01*
X147924464Y-79892737D01*
X148134746Y-79990793D01*
X148134752Y-79990794D01*
X148134753Y-79990795D01*
X148188693Y-80005248D01*
X148358860Y-80050844D01*
X148543769Y-80067021D01*
X148589996Y-80071066D01*
X148589997Y-80071066D01*
X148589998Y-80071066D01*
X148628519Y-80067695D01*
X148821134Y-80050844D01*
X149045248Y-79990793D01*
X149255530Y-79892737D01*
X149445590Y-79759656D01*
X149609653Y-79595593D01*
X149742734Y-79405533D01*
X149747618Y-79395058D01*
X149793789Y-79342620D01*
X149860982Y-79323467D01*
X149927863Y-79343682D01*
X149972381Y-79395058D01*
X149977266Y-79405533D01*
X150110348Y-79595595D01*
X150263181Y-79748428D01*
X150296666Y-79809751D01*
X150299500Y-79836109D01*
X150299500Y-85977060D01*
X150279815Y-86044099D01*
X150263181Y-86064741D01*
X149770186Y-86557735D01*
X149770183Y-86557739D01*
X149749816Y-86590152D01*
X149741772Y-86601488D01*
X149717910Y-86631410D01*
X149701300Y-86665900D01*
X149694577Y-86678064D01*
X149674212Y-86710476D01*
X149674208Y-86710483D01*
X149661565Y-86746613D01*
X149656247Y-86759452D01*
X149639639Y-86793939D01*
X149631118Y-86831269D01*
X149627271Y-86844622D01*
X149614632Y-86880743D01*
X149610345Y-86918781D01*
X149608018Y-86932478D01*
X149601205Y-86962334D01*
X149599719Y-86968849D01*
X149599500Y-86969807D01*
X149599500Y-87640335D01*
X149579815Y-87707374D01*
X149527011Y-87753129D01*
X149518834Y-87756517D01*
X149452665Y-87781196D01*
X149452660Y-87781199D01*
X149337451Y-87867445D01*
X149337448Y-87867448D01*
X149251202Y-87982657D01*
X149251198Y-87982664D01*
X149200904Y-88117510D01*
X149194497Y-88177109D01*
X149194496Y-88177128D01*
X149194496Y-89622877D01*
X149194497Y-89622883D01*
X149200904Y-89682490D01*
X149251198Y-89817335D01*
X149251202Y-89817342D01*
X149337448Y-89932551D01*
X149337451Y-89932554D01*
X149452660Y-90018800D01*
X149452667Y-90018804D01*
X149587513Y-90069098D01*
X149587512Y-90069098D01*
X149594440Y-90069842D01*
X149647123Y-90075507D01*
X151152876Y-90075506D01*
X151212487Y-90069098D01*
X151347335Y-90018803D01*
X151347337Y-90018801D01*
X151355644Y-90015703D01*
X151356798Y-90018798D01*
X151409327Y-90007352D01*
X151443777Y-90017460D01*
X151444598Y-90015260D01*
X151587619Y-90068604D01*
X151587623Y-90068605D01*
X151647151Y-90075006D01*
X151647168Y-90075007D01*
X152150000Y-90075007D01*
X152150000Y-89150000D01*
X152650000Y-89150000D01*
X152650000Y-90075007D01*
X153152832Y-90075007D01*
X153152848Y-90075006D01*
X153212376Y-90068605D01*
X153212383Y-90068603D01*
X153347090Y-90018361D01*
X153347097Y-90018357D01*
X153462191Y-89932197D01*
X153462194Y-89932194D01*
X153548354Y-89817100D01*
X153548358Y-89817093D01*
X153598600Y-89682386D01*
X153598602Y-89682379D01*
X153605003Y-89622851D01*
X153605004Y-89622834D01*
X153605004Y-89150000D01*
X152650000Y-89150000D01*
X152150000Y-89150000D01*
X152150000Y-87724993D01*
X152650000Y-87724993D01*
X152650000Y-88650000D01*
X153605004Y-88650000D01*
X153605004Y-88177165D01*
X153605003Y-88177148D01*
X153598602Y-88117620D01*
X153598600Y-88117613D01*
X153548358Y-87982906D01*
X153548354Y-87982899D01*
X153462194Y-87867805D01*
X153462191Y-87867802D01*
X153347097Y-87781642D01*
X153347090Y-87781638D01*
X153212383Y-87731396D01*
X153212376Y-87731394D01*
X153152848Y-87724993D01*
X152650000Y-87724993D01*
X152150000Y-87724993D01*
X151647151Y-87724993D01*
X151587623Y-87731394D01*
X151587616Y-87731396D01*
X151444597Y-87784739D01*
X151443359Y-87781419D01*
X151391554Y-87792634D01*
X151356391Y-87782292D01*
X151355644Y-87784296D01*
X151281166Y-87756517D01*
X151225233Y-87714645D01*
X151200816Y-87649181D01*
X151200500Y-87640335D01*
X151200500Y-87442940D01*
X151220185Y-87375901D01*
X151236819Y-87355259D01*
X151729815Y-86862263D01*
X151729816Y-86862262D01*
X151750182Y-86829847D01*
X151758222Y-86818515D01*
X151782091Y-86788587D01*
X151798704Y-86754088D01*
X151805413Y-86741948D01*
X151825789Y-86709522D01*
X151838430Y-86673395D01*
X151843752Y-86660545D01*
X151860359Y-86626061D01*
X151868877Y-86588737D01*
X151872722Y-86575393D01*
X151885368Y-86539255D01*
X151889655Y-86501201D01*
X151891982Y-86487511D01*
X151897280Y-86464303D01*
X151900500Y-86450195D01*
X151900500Y-86269806D01*
X151900500Y-79883790D01*
X151920185Y-79816751D01*
X151953375Y-79782216D01*
X151985596Y-79759656D01*
X152048644Y-79696608D01*
X152149653Y-79595600D01*
X152149653Y-79595599D01*
X152149659Y-79595593D01*
X152157142Y-79584904D01*
X152211716Y-79541281D01*
X152281215Y-79534086D01*
X152286313Y-79535138D01*
X152309799Y-79540499D01*
X152309805Y-79540500D01*
X152355046Y-79540500D01*
X153988108Y-79540500D01*
X154055147Y-79560185D01*
X154071638Y-79572856D01*
X154213438Y-79702124D01*
X154213440Y-79702125D01*
X154213441Y-79702126D01*
X154402595Y-79819245D01*
X154402596Y-79819245D01*
X154402599Y-79819247D01*
X154610060Y-79899618D01*
X154828757Y-79940500D01*
X154828759Y-79940500D01*
X155051241Y-79940500D01*
X155051243Y-79940500D01*
X155269940Y-79899618D01*
X155477401Y-79819247D01*
X155666562Y-79702124D01*
X155808354Y-79572863D01*
X155830979Y-79552238D01*
X155835412Y-79546369D01*
X155965058Y-79374689D01*
X156064229Y-79175528D01*
X156090734Y-79082371D01*
X156128013Y-79023278D01*
X156191323Y-78993721D01*
X156260562Y-79003083D01*
X156313749Y-79048393D01*
X156329266Y-79082372D01*
X156355769Y-79175523D01*
X156355775Y-79175538D01*
X156454938Y-79374683D01*
X156454943Y-79374691D01*
X156589020Y-79552238D01*
X156753437Y-79702123D01*
X156753439Y-79702125D01*
X156942595Y-79819245D01*
X156942596Y-79819245D01*
X156942599Y-79819247D01*
X157150060Y-79899618D01*
X157368757Y-79940500D01*
X157368759Y-79940500D01*
X157591241Y-79940500D01*
X157591243Y-79940500D01*
X157809940Y-79899618D01*
X158017401Y-79819247D01*
X158206562Y-79702124D01*
X158348354Y-79572863D01*
X158370979Y-79552238D01*
X158375412Y-79546369D01*
X158505058Y-79374689D01*
X158604229Y-79175528D01*
X158665115Y-78961536D01*
X158685643Y-78740000D01*
X158665115Y-78518464D01*
X158604229Y-78304472D01*
X158604224Y-78304461D01*
X158505061Y-78105316D01*
X158505056Y-78105308D01*
X158370979Y-77927761D01*
X158206562Y-77777876D01*
X158206560Y-77777874D01*
X158017404Y-77660754D01*
X158017398Y-77660752D01*
X157809940Y-77580382D01*
X157591243Y-77539500D01*
X157368757Y-77539500D01*
X157150060Y-77580382D01*
X157018864Y-77631207D01*
X156942601Y-77660752D01*
X156942595Y-77660754D01*
X156753439Y-77777874D01*
X156753437Y-77777876D01*
X156589020Y-77927761D01*
X156454943Y-78105308D01*
X156454938Y-78105316D01*
X156355775Y-78304461D01*
X156355769Y-78304476D01*
X156329266Y-78397627D01*
X156291987Y-78456721D01*
X156228677Y-78486278D01*
X156159438Y-78476916D01*
X156106251Y-78431606D01*
X156090734Y-78397627D01*
X156064230Y-78304476D01*
X156064229Y-78304472D01*
X156064224Y-78304461D01*
X155965061Y-78105316D01*
X155965056Y-78105308D01*
X155830979Y-77927761D01*
X155666562Y-77777876D01*
X155666560Y-77777874D01*
X155477404Y-77660754D01*
X155477398Y-77660752D01*
X155269940Y-77580382D01*
X155051243Y-77539500D01*
X154828757Y-77539500D01*
X154610060Y-77580382D01*
X154478864Y-77631207D01*
X154402601Y-77660752D01*
X154402595Y-77660754D01*
X154213441Y-77777873D01*
X154213438Y-77777876D01*
X154071644Y-77907138D01*
X154008843Y-77937754D01*
X153988108Y-77939500D01*
X152782940Y-77939500D01*
X152715901Y-77919815D01*
X152695259Y-77903181D01*
X150362262Y-75570184D01*
X150362259Y-75570182D01*
X150329849Y-75549817D01*
X150318510Y-75541771D01*
X150288589Y-75517910D01*
X150254093Y-75501296D01*
X150241927Y-75494572D01*
X150209524Y-75474212D01*
X150209525Y-75474212D01*
X150202652Y-75471807D01*
X150173393Y-75461568D01*
X150160554Y-75456250D01*
X150126061Y-75439639D01*
X150088735Y-75431119D01*
X150075380Y-75427271D01*
X150039260Y-75414633D01*
X150039256Y-75414632D01*
X150039255Y-75414632D01*
X150021139Y-75412590D01*
X150001217Y-75410345D01*
X149987518Y-75408017D01*
X149950200Y-75399501D01*
X149950196Y-75399500D01*
X149950194Y-75399500D01*
X149950191Y-75399500D01*
X142291915Y-75399500D01*
X142278031Y-75398720D01*
X142240002Y-75394435D01*
X142239998Y-75394435D01*
X142210030Y-75397811D01*
X142195046Y-75399500D01*
X142060750Y-75414630D01*
X142060745Y-75414631D01*
X141890476Y-75474211D01*
X141737737Y-75570184D01*
X141610184Y-75697737D01*
X141514211Y-75850476D01*
X141454631Y-76020745D01*
X141454630Y-76020750D01*
X141434435Y-76199996D01*
X141434435Y-76200001D01*
X141438720Y-76238029D01*
X141439500Y-76251914D01*
X141439500Y-78357060D01*
X141419815Y-78424099D01*
X141403181Y-78444741D01*
X137770186Y-82077735D01*
X137770183Y-82077739D01*
X137749816Y-82110152D01*
X137741772Y-82121488D01*
X137717910Y-82151410D01*
X137701300Y-82185900D01*
X137694577Y-82198064D01*
X137674212Y-82230476D01*
X137674208Y-82230483D01*
X137661565Y-82266613D01*
X137656247Y-82279452D01*
X137639639Y-82313939D01*
X137631118Y-82351269D01*
X137627271Y-82364622D01*
X137614632Y-82400743D01*
X137610345Y-82438781D01*
X137608018Y-82452478D01*
X137599500Y-82489807D01*
X137599500Y-85410527D01*
X137579815Y-85477566D01*
X137559039Y-85502163D01*
X137509025Y-85547756D01*
X137509021Y-85547761D01*
X137374943Y-85725308D01*
X137374938Y-85725316D01*
X137275775Y-85924461D01*
X137275769Y-85924476D01*
X137214885Y-86138462D01*
X137214884Y-86138464D01*
X137194357Y-86359999D01*
X137194357Y-86360000D01*
X137214884Y-86581535D01*
X137214885Y-86581537D01*
X137275769Y-86795523D01*
X137275775Y-86795538D01*
X137374938Y-86994683D01*
X137374943Y-86994691D01*
X137509020Y-87172238D01*
X137673437Y-87322123D01*
X137673439Y-87322125D01*
X137862595Y-87439245D01*
X137862596Y-87439245D01*
X137862599Y-87439247D01*
X138070060Y-87519618D01*
X138288757Y-87560500D01*
X138417060Y-87560500D01*
X138484099Y-87580185D01*
X138504741Y-87596819D01*
X138997739Y-88089817D01*
X139007519Y-88095962D01*
X139030147Y-88110180D01*
X139041477Y-88118218D01*
X139071413Y-88142092D01*
X139105915Y-88158707D01*
X139118067Y-88165423D01*
X139141213Y-88179967D01*
X139150474Y-88185787D01*
X139150475Y-88185787D01*
X139150478Y-88185789D01*
X139186597Y-88198427D01*
X139199443Y-88203747D01*
X139233939Y-88220360D01*
X139271255Y-88228877D01*
X139284613Y-88232725D01*
X139320741Y-88245367D01*
X139320742Y-88245367D01*
X139320745Y-88245368D01*
X139358790Y-88249654D01*
X139372479Y-88251980D01*
X139409806Y-88260500D01*
X139409808Y-88260500D01*
X142470194Y-88260500D01*
X142507517Y-88251981D01*
X142521220Y-88249653D01*
X142541617Y-88247355D01*
X142610438Y-88259409D01*
X142661817Y-88306758D01*
X142679500Y-88370575D01*
X142679500Y-90230191D01*
X142679501Y-90230200D01*
X142688017Y-90267518D01*
X142690345Y-90281217D01*
X142694633Y-90319260D01*
X142707271Y-90355380D01*
X142711119Y-90368735D01*
X142719639Y-90406061D01*
X142736250Y-90440554D01*
X142741569Y-90453396D01*
X142748969Y-90474542D01*
X142752533Y-90544321D01*
X142717806Y-90604949D01*
X142655814Y-90637178D01*
X142631929Y-90639500D01*
X142330194Y-90639500D01*
X142284954Y-90639500D01*
X138150194Y-90639500D01*
X137969805Y-90639500D01*
X137969803Y-90639500D01*
X137969797Y-90639501D01*
X137932489Y-90648016D01*
X137918786Y-90650345D01*
X137880743Y-90654632D01*
X137844610Y-90667275D01*
X137831256Y-90671122D01*
X137793940Y-90679640D01*
X137759458Y-90696245D01*
X137746620Y-90701563D01*
X137724546Y-90709287D01*
X137710478Y-90714211D01*
X137710476Y-90714212D01*
X137710474Y-90714213D01*
X137678061Y-90734578D01*
X137665900Y-90741299D01*
X137631413Y-90757908D01*
X137631411Y-90757910D01*
X137601488Y-90781772D01*
X137590152Y-90789816D01*
X137557739Y-90810183D01*
X137557735Y-90810186D01*
X137525748Y-90842174D01*
X130483771Y-97884149D01*
X130422448Y-97917634D01*
X130352756Y-97912650D01*
X130321779Y-97895734D01*
X130282335Y-97866206D01*
X130282328Y-97866202D01*
X130147482Y-97815908D01*
X130147483Y-97815908D01*
X130087883Y-97809501D01*
X130087881Y-97809500D01*
X130087873Y-97809500D01*
X130087864Y-97809500D01*
X128992129Y-97809500D01*
X128992123Y-97809501D01*
X128932520Y-97815908D01*
X128924974Y-97817692D01*
X128924628Y-97816230D01*
X128863622Y-97820584D01*
X128848600Y-97816172D01*
X128847482Y-97815908D01*
X128787883Y-97809501D01*
X128787881Y-97809500D01*
X128787873Y-97809500D01*
X128787864Y-97809500D01*
X127692129Y-97809500D01*
X127692123Y-97809501D01*
X127632516Y-97815908D01*
X127497671Y-97866202D01*
X127497664Y-97866206D01*
X127382455Y-97952452D01*
X127382452Y-97952455D01*
X127296206Y-98067664D01*
X127296202Y-98067671D01*
X127245908Y-98202517D01*
X127239501Y-98262116D01*
X127239501Y-98262123D01*
X127239500Y-98262135D01*
X127239500Y-99857870D01*
X114280500Y-99857870D01*
X114280500Y-97810049D01*
X114300185Y-97743010D01*
X114352989Y-97697255D01*
X114422147Y-97687311D01*
X114451950Y-97695487D01*
X114455652Y-97697020D01*
X114455655Y-97697020D01*
X114455659Y-97697023D01*
X114648967Y-97755662D01*
X114850000Y-97775462D01*
X115051033Y-97755662D01*
X115244341Y-97697023D01*
X115422494Y-97601798D01*
X115578647Y-97473647D01*
X115706798Y-97317494D01*
X115802023Y-97139341D01*
X115860662Y-96946033D01*
X115875500Y-96795380D01*
X115875500Y-96244620D01*
X115860662Y-96093967D01*
X115802023Y-95900659D01*
X115802021Y-95900656D01*
X115802021Y-95900654D01*
X115706801Y-95722511D01*
X115706797Y-95722504D01*
X115578647Y-95566353D01*
X115551334Y-95502043D01*
X115550500Y-95487688D01*
X115550500Y-89940634D01*
X115570185Y-89873595D01*
X115590962Y-89848997D01*
X115740979Y-89712238D01*
X115763523Y-89682386D01*
X115875058Y-89534689D01*
X115974229Y-89335528D01*
X116000734Y-89242371D01*
X116038013Y-89183278D01*
X116101323Y-89153721D01*
X116170562Y-89163083D01*
X116223749Y-89208393D01*
X116239266Y-89242372D01*
X116265769Y-89335523D01*
X116265775Y-89335538D01*
X116364938Y-89534683D01*
X116364943Y-89534691D01*
X116499020Y-89712238D01*
X116663437Y-89862123D01*
X116663439Y-89862125D01*
X116852595Y-89979245D01*
X116852596Y-89979245D01*
X116852599Y-89979247D01*
X117060060Y-90059618D01*
X117278757Y-90100500D01*
X117278759Y-90100500D01*
X117501241Y-90100500D01*
X117501243Y-90100500D01*
X117719940Y-90059618D01*
X117927401Y-89979247D01*
X118116562Y-89862124D01*
X118280981Y-89712236D01*
X118415058Y-89534689D01*
X118514229Y-89335528D01*
X118575115Y-89121536D01*
X118595643Y-88900000D01*
X118575115Y-88678464D01*
X118514229Y-88464472D01*
X118467474Y-88370575D01*
X118415061Y-88265316D01*
X118415056Y-88265308D01*
X118280979Y-88087761D01*
X118116562Y-87937876D01*
X118116560Y-87937874D01*
X117927404Y-87820754D01*
X117927398Y-87820752D01*
X117719940Y-87740382D01*
X117501243Y-87699500D01*
X117278757Y-87699500D01*
X117060060Y-87740382D01*
X116954132Y-87781419D01*
X116852601Y-87820752D01*
X116852595Y-87820754D01*
X116663439Y-87937874D01*
X116663437Y-87937876D01*
X116499020Y-88087761D01*
X116364943Y-88265308D01*
X116364938Y-88265316D01*
X116265775Y-88464461D01*
X116265769Y-88464476D01*
X116239266Y-88557627D01*
X116201987Y-88616721D01*
X116138677Y-88646278D01*
X116069438Y-88636916D01*
X116016251Y-88591606D01*
X116000734Y-88557627D01*
X115974230Y-88464476D01*
X115974229Y-88464472D01*
X115927474Y-88370575D01*
X115875061Y-88265316D01*
X115875056Y-88265308D01*
X115740984Y-88087768D01*
X115740981Y-88087764D01*
X115722879Y-88071261D01*
X115705960Y-88055837D01*
X115669680Y-87996125D01*
X115665500Y-87964202D01*
X115665500Y-84136538D01*
X115674940Y-84089084D01*
X115677134Y-84083787D01*
X115680044Y-84076762D01*
X115686422Y-84028314D01*
X115714688Y-83964418D01*
X115773013Y-83925947D01*
X115809361Y-83920500D01*
X125035079Y-83920500D01*
X125042566Y-83920725D01*
X125102606Y-83924358D01*
X125161782Y-83913513D01*
X125169185Y-83912387D01*
X125172921Y-83911933D01*
X125228872Y-83905140D01*
X125238335Y-83901550D01*
X125259961Y-83895522D01*
X125260893Y-83895351D01*
X125269932Y-83893695D01*
X125324808Y-83868996D01*
X125331678Y-83866150D01*
X125387930Y-83844818D01*
X125396266Y-83839062D01*
X125415821Y-83828034D01*
X125425057Y-83823878D01*
X125472413Y-83786775D01*
X125478404Y-83782366D01*
X125527929Y-83748183D01*
X125567822Y-83703151D01*
X125572924Y-83697731D01*
X126553838Y-82716818D01*
X126615161Y-82683333D01*
X126641519Y-82680499D01*
X127947871Y-82680499D01*
X127947872Y-82680499D01*
X128007483Y-82674091D01*
X128142331Y-82623796D01*
X128257546Y-82537546D01*
X128343796Y-82422331D01*
X128394091Y-82287483D01*
X128400500Y-82227873D01*
X128400499Y-80332128D01*
X128394091Y-80272517D01*
X128384233Y-80246087D01*
X128343797Y-80137671D01*
X128343793Y-80137664D01*
X128257547Y-80022455D01*
X128257544Y-80022452D01*
X128142335Y-79936206D01*
X128142328Y-79936202D01*
X128007482Y-79885908D01*
X128007483Y-79885908D01*
X127947883Y-79879501D01*
X127947881Y-79879500D01*
X127947873Y-79879500D01*
X127947864Y-79879500D01*
X126052129Y-79879500D01*
X126052123Y-79879501D01*
X125992516Y-79885908D01*
X125857671Y-79936202D01*
X125857664Y-79936206D01*
X125742455Y-80022452D01*
X125742452Y-80022455D01*
X125656206Y-80137664D01*
X125656203Y-80137670D01*
X125627544Y-80214508D01*
X125585672Y-80270441D01*
X125520208Y-80294858D01*
X125451935Y-80280006D01*
X125420135Y-80255158D01*
X125411784Y-80246087D01*
X125411778Y-80246082D01*
X125411777Y-80246081D01*
X125228634Y-80103535D01*
X125228628Y-80103531D01*
X125024504Y-79993064D01*
X125024495Y-79993061D01*
X124804984Y-79917702D01*
X124614450Y-79885908D01*
X124576049Y-79879500D01*
X124343951Y-79879500D01*
X124305550Y-79885908D01*
X124115015Y-79917702D01*
X123895504Y-79993061D01*
X123895495Y-79993064D01*
X123691371Y-80103531D01*
X123691365Y-80103535D01*
X123508222Y-80246081D01*
X123508219Y-80246084D01*
X123508216Y-80246086D01*
X123508216Y-80246087D01*
X123463319Y-80294858D01*
X123351016Y-80416852D01*
X123224075Y-80611151D01*
X123130842Y-80823699D01*
X123073866Y-81048691D01*
X123073864Y-81048702D01*
X123054700Y-81279993D01*
X123054700Y-81280006D01*
X123073864Y-81511297D01*
X123073866Y-81511308D01*
X123130842Y-81736300D01*
X123224075Y-81948848D01*
X123351016Y-82143147D01*
X123351019Y-82143151D01*
X123351021Y-82143153D01*
X123506011Y-82311518D01*
X123536933Y-82374172D01*
X123529073Y-82443598D01*
X123484925Y-82497753D01*
X123418508Y-82519444D01*
X123414781Y-82519500D01*
X114650043Y-82519500D01*
X114642555Y-82519274D01*
X114582518Y-82515642D01*
X114582510Y-82515642D01*
X114523349Y-82526483D01*
X114515949Y-82527610D01*
X114456250Y-82534860D01*
X114456243Y-82534861D01*
X114446769Y-82538454D01*
X114425171Y-82544475D01*
X114415191Y-82546304D01*
X114360349Y-82570987D01*
X114353431Y-82573852D01*
X114297194Y-82595181D01*
X114297185Y-82595185D01*
X114288843Y-82600943D01*
X114269311Y-82611960D01*
X114260068Y-82616120D01*
X114212731Y-82653206D01*
X114206701Y-82657643D01*
X114157194Y-82691816D01*
X114157191Y-82691818D01*
X114117300Y-82736845D01*
X114112167Y-82742297D01*
X113847282Y-83007181D01*
X113841830Y-83012314D01*
X113796817Y-83052193D01*
X113762649Y-83101691D01*
X113758213Y-83107719D01*
X113721124Y-83155060D01*
X113721119Y-83155070D01*
X113716960Y-83164310D01*
X113705942Y-83183845D01*
X113700187Y-83192183D01*
X113700179Y-83192198D01*
X113678853Y-83248427D01*
X113675989Y-83255342D01*
X113651305Y-83310190D01*
X113649477Y-83320164D01*
X113643453Y-83341775D01*
X113639860Y-83351249D01*
X113639860Y-83351250D01*
X113632610Y-83410949D01*
X113631483Y-83418349D01*
X113620642Y-83477511D01*
X113620642Y-83477517D01*
X113622079Y-83501272D01*
X113612868Y-83556206D01*
X113610656Y-83561547D01*
X113609955Y-83563240D01*
X113594500Y-83680638D01*
X113594500Y-83959363D01*
X113609953Y-84076753D01*
X113609956Y-84076762D01*
X113669966Y-84221640D01*
X113670464Y-84222841D01*
X113766718Y-84348282D01*
X113892159Y-84444536D01*
X114038238Y-84505044D01*
X114155639Y-84520500D01*
X114155644Y-84520499D01*
X114156685Y-84520637D01*
X114220581Y-84548903D01*
X114259053Y-84607227D01*
X114264500Y-84643576D01*
X114264500Y-87781466D01*
X114244815Y-87848505D01*
X114205778Y-87886893D01*
X114123436Y-87937877D01*
X113959020Y-88087761D01*
X113824943Y-88265308D01*
X113824938Y-88265316D01*
X113725775Y-88464461D01*
X113725769Y-88464476D01*
X113664885Y-88678462D01*
X113664884Y-88678464D01*
X113644357Y-88899999D01*
X113644357Y-88900000D01*
X113664884Y-89121535D01*
X113664885Y-89121537D01*
X113725769Y-89335523D01*
X113725775Y-89335538D01*
X113824938Y-89534683D01*
X113824943Y-89534691D01*
X113959020Y-89712238D01*
X114109038Y-89848997D01*
X114145320Y-89908708D01*
X114149500Y-89940634D01*
X114149500Y-95229950D01*
X114129815Y-95296989D01*
X114077011Y-95342744D01*
X114007853Y-95352688D01*
X113978061Y-95344517D01*
X113974348Y-95342979D01*
X113781031Y-95284337D01*
X113580000Y-95264538D01*
X113378968Y-95284337D01*
X113241371Y-95326076D01*
X113185659Y-95342977D01*
X113185657Y-95342977D01*
X113183982Y-95343486D01*
X113114115Y-95344109D01*
X113085414Y-95329902D01*
X113084872Y-95330897D01*
X113077086Y-95326645D01*
X112942379Y-95276403D01*
X112942372Y-95276401D01*
X112882844Y-95270000D01*
X112560000Y-95270000D01*
X112560000Y-96182684D01*
X112559403Y-96194837D01*
X112555370Y-96235779D01*
X112490948Y-96185637D01*
X112372576Y-96145000D01*
X112278927Y-96145000D01*
X112186554Y-96160414D01*
X112076486Y-96219981D01*
X112060000Y-96237889D01*
X112060000Y-95270000D01*
X111737155Y-95270000D01*
X111677627Y-95276401D01*
X111677620Y-95276403D01*
X111542913Y-95326645D01*
X111542906Y-95326649D01*
X111427812Y-95412809D01*
X111427809Y-95412812D01*
X111341649Y-95527906D01*
X111341645Y-95527913D01*
X111291403Y-95662620D01*
X111291401Y-95662627D01*
X111285000Y-95722155D01*
X111285000Y-96270000D01*
X112030440Y-96270000D01*
X111991722Y-96312059D01*
X111941449Y-96426670D01*
X111931114Y-96551395D01*
X111961837Y-96672719D01*
X112025394Y-96770000D01*
X111285000Y-96770000D01*
X111285000Y-97317844D01*
X111291401Y-97377372D01*
X111291403Y-97377379D01*
X111341645Y-97512086D01*
X111341649Y-97512093D01*
X111427809Y-97627187D01*
X111427812Y-97627190D01*
X111542906Y-97713350D01*
X111542913Y-97713354D01*
X111677620Y-97763596D01*
X111677627Y-97763598D01*
X111737155Y-97769999D01*
X111737172Y-97770000D01*
X112060000Y-97770000D01*
X112060000Y-96800617D01*
X112129052Y-96854363D01*
X112247424Y-96895000D01*
X112341073Y-96895000D01*
X112433446Y-96879586D01*
X112543514Y-96820019D01*
X112555630Y-96806856D01*
X112559403Y-96845160D01*
X112560000Y-96857314D01*
X112560000Y-97770000D01*
X112755500Y-97770000D01*
X112822539Y-97789685D01*
X112868294Y-97842489D01*
X112879500Y-97894000D01*
X112879500Y-99988480D01*
X112859815Y-100055519D01*
X112843181Y-100076161D01*
X112550531Y-100368810D01*
X112489208Y-100402295D01*
X112440070Y-100403019D01*
X112432968Y-100401691D01*
X112421243Y-100399500D01*
X112198757Y-100399500D01*
X111980060Y-100440382D01*
X111912077Y-100466719D01*
X111772601Y-100520752D01*
X111772595Y-100520754D01*
X111583439Y-100637874D01*
X111583437Y-100637876D01*
X111419020Y-100787761D01*
X111284943Y-100965308D01*
X111284938Y-100965316D01*
X111185775Y-101164461D01*
X111185769Y-101164476D01*
X111124885Y-101378462D01*
X111124884Y-101378464D01*
X111104357Y-101599999D01*
X111104357Y-101600000D01*
X111124884Y-101821535D01*
X111124885Y-101821537D01*
X111185769Y-102035523D01*
X111185775Y-102035538D01*
X111284938Y-102234683D01*
X111284943Y-102234691D01*
X111419020Y-102412238D01*
X111569038Y-102548997D01*
X111605320Y-102608708D01*
X111609500Y-102640634D01*
X111609500Y-105305500D01*
X111589815Y-105372539D01*
X111537011Y-105418294D01*
X111485500Y-105429500D01*
X110462129Y-105429500D01*
X110462123Y-105429501D01*
X110402516Y-105435908D01*
X110267671Y-105486202D01*
X110267664Y-105486206D01*
X110152455Y-105572452D01*
X110152452Y-105572455D01*
X110066206Y-105687664D01*
X110066202Y-105687671D01*
X110015908Y-105822517D01*
X110009501Y-105882116D01*
X110009501Y-105882123D01*
X110009500Y-105882135D01*
X110009500Y-107477870D01*
X110009501Y-107477876D01*
X110015908Y-107537483D01*
X110066202Y-107672328D01*
X110066206Y-107672335D01*
X110135358Y-107764709D01*
X110152454Y-107787546D01*
X110259811Y-107867914D01*
X110301682Y-107923847D01*
X110309500Y-107967180D01*
X110309500Y-108445078D01*
X110309274Y-108452566D01*
X110305642Y-108512603D01*
X110305642Y-108512605D01*
X110316483Y-108571770D01*
X110317610Y-108579171D01*
X110324859Y-108638871D01*
X110324860Y-108638874D01*
X110328451Y-108648343D01*
X110334474Y-108669946D01*
X110336304Y-108679930D01*
X110360991Y-108734782D01*
X110363854Y-108741694D01*
X110385182Y-108797930D01*
X110385183Y-108797931D01*
X110390936Y-108806266D01*
X110401961Y-108825813D01*
X110406120Y-108835055D01*
X110406124Y-108835060D01*
X110443215Y-108882403D01*
X110447655Y-108888438D01*
X110481812Y-108937924D01*
X110481816Y-108937929D01*
X110526828Y-108977805D01*
X110532283Y-108982940D01*
X112238181Y-110688838D01*
X112271666Y-110750161D01*
X112274500Y-110776519D01*
X112274500Y-110936424D01*
X112254815Y-111003463D01*
X112202011Y-111049218D01*
X112166684Y-111059363D01*
X112048246Y-111074954D01*
X112048237Y-111074956D01*
X111902160Y-111135463D01*
X111776718Y-111231718D01*
X111680463Y-111357160D01*
X111619956Y-111503237D01*
X111619955Y-111503239D01*
X111604500Y-111620638D01*
X111604500Y-111899363D01*
X111619953Y-112016753D01*
X111619957Y-112016765D01*
X111625060Y-112029084D01*
X111634500Y-112076538D01*
X111634500Y-116016424D01*
X111614815Y-116083463D01*
X111562011Y-116129218D01*
X111526684Y-116139363D01*
X111408246Y-116154954D01*
X111408237Y-116154956D01*
X111262160Y-116215463D01*
X111136716Y-116311719D01*
X111040464Y-116437158D01*
X111040464Y-116437159D01*
X111002723Y-116528272D01*
X110975843Y-116568499D01*
X110592290Y-116952051D01*
X110586838Y-116957183D01*
X110541819Y-116997068D01*
X110507649Y-117046569D01*
X110503213Y-117052597D01*
X110466124Y-117099938D01*
X110466119Y-117099948D01*
X110461960Y-117109188D01*
X110450942Y-117128723D01*
X110445187Y-117137061D01*
X110445179Y-117137076D01*
X110423853Y-117193305D01*
X110420989Y-117200220D01*
X110396305Y-117255068D01*
X110394477Y-117265042D01*
X110388453Y-117286653D01*
X110384860Y-117296127D01*
X110384860Y-117296128D01*
X110377610Y-117355827D01*
X110376483Y-117363227D01*
X110365642Y-117422389D01*
X110365642Y-117422395D01*
X110369274Y-117482432D01*
X110369500Y-117489920D01*
X110369500Y-120545500D01*
X110349815Y-120612539D01*
X110297011Y-120658294D01*
X110245500Y-120669500D01*
X109222129Y-120669500D01*
X109222123Y-120669501D01*
X109162516Y-120675908D01*
X109027671Y-120726202D01*
X109027664Y-120726206D01*
X108912455Y-120812452D01*
X108912452Y-120812455D01*
X108826206Y-120927664D01*
X108826202Y-120927671D01*
X108775908Y-121062517D01*
X108770008Y-121117403D01*
X108769501Y-121122123D01*
X108769500Y-121122135D01*
X108769500Y-122717870D01*
X108769501Y-122717876D01*
X108775908Y-122777483D01*
X108826202Y-122912328D01*
X108826206Y-122912335D01*
X108895358Y-123004709D01*
X108912454Y-123027546D01*
X109019811Y-123107914D01*
X109061682Y-123163847D01*
X109069500Y-123207180D01*
X109069500Y-127525078D01*
X109069274Y-127532566D01*
X109065642Y-127592603D01*
X109065642Y-127592605D01*
X109076483Y-127651770D01*
X109077610Y-127659171D01*
X109084859Y-127718871D01*
X109084860Y-127718874D01*
X109088451Y-127728343D01*
X109094474Y-127749946D01*
X109096304Y-127759930D01*
X109120991Y-127814782D01*
X109123854Y-127821694D01*
X109145182Y-127877930D01*
X109145183Y-127877931D01*
X109150936Y-127886266D01*
X109161961Y-127905813D01*
X109166120Y-127915055D01*
X109166124Y-127915060D01*
X109203215Y-127962403D01*
X109207655Y-127968438D01*
X109241812Y-128017924D01*
X109241816Y-128017929D01*
X109286828Y-128057805D01*
X109292283Y-128062940D01*
X109857162Y-128627819D01*
X109890647Y-128689142D01*
X109885663Y-128758834D01*
X109843791Y-128814767D01*
X109778327Y-128839184D01*
X109769481Y-128839500D01*
X91781519Y-128839500D01*
X91714480Y-128819815D01*
X91693838Y-128803181D01*
X90876819Y-127986162D01*
X90843334Y-127924839D01*
X90840500Y-127898481D01*
X90840500Y-123207180D01*
X90860185Y-123140141D01*
X90890187Y-123107914D01*
X90997546Y-123027546D01*
X91083796Y-122912331D01*
X91134091Y-122777483D01*
X91140500Y-122717873D01*
X91140499Y-121122128D01*
X91134091Y-121062517D01*
X91133455Y-121060813D01*
X91083797Y-120927671D01*
X91083793Y-120927664D01*
X90997547Y-120812455D01*
X90997544Y-120812452D01*
X90882335Y-120726206D01*
X90882328Y-120726202D01*
X90747482Y-120675908D01*
X90747483Y-120675908D01*
X90687883Y-120669501D01*
X90687881Y-120669500D01*
X90687873Y-120669500D01*
X90687865Y-120669500D01*
X89664500Y-120669500D01*
X89597461Y-120649815D01*
X89551706Y-120597011D01*
X89540500Y-120545500D01*
X89540500Y-117664499D01*
X89560185Y-117597460D01*
X89612989Y-117551705D01*
X89664500Y-117540499D01*
X89674363Y-117540499D01*
X89791753Y-117525046D01*
X89791757Y-117525044D01*
X89791762Y-117525044D01*
X89937841Y-117464536D01*
X90063282Y-117368282D01*
X90159536Y-117242841D01*
X90220044Y-117096762D01*
X90235500Y-116979361D01*
X90235499Y-116700640D01*
X90235499Y-116700638D01*
X90235499Y-116700636D01*
X90220045Y-116583241D01*
X90220044Y-116583238D01*
X90214939Y-116570913D01*
X90205500Y-116523460D01*
X90205500Y-112076538D01*
X90214940Y-112029084D01*
X90217135Y-112023785D01*
X90220044Y-112016762D01*
X90235500Y-111899361D01*
X90235499Y-111620640D01*
X90235499Y-111620638D01*
X90235499Y-111620636D01*
X90220046Y-111503246D01*
X90220044Y-111503239D01*
X90220044Y-111503238D01*
X90159536Y-111357159D01*
X90063282Y-111231718D01*
X89937841Y-111135464D01*
X89929939Y-111132191D01*
X89887418Y-111114578D01*
X89791762Y-111074956D01*
X89738483Y-111067941D01*
X89673314Y-111059362D01*
X89609418Y-111031095D01*
X89570947Y-110972771D01*
X89565500Y-110936423D01*
X89565500Y-110251518D01*
X89585185Y-110184479D01*
X89601814Y-110163841D01*
X90617731Y-109147924D01*
X90623151Y-109142822D01*
X90668183Y-109102929D01*
X90702358Y-109053416D01*
X90706779Y-109047407D01*
X90743877Y-109000057D01*
X90748029Y-108990828D01*
X90759062Y-108971268D01*
X90759419Y-108970750D01*
X90764818Y-108962930D01*
X90786154Y-108906668D01*
X90789014Y-108899766D01*
X90798595Y-108878480D01*
X90813694Y-108844932D01*
X90815520Y-108834965D01*
X90821548Y-108813340D01*
X90825140Y-108803872D01*
X90832389Y-108744169D01*
X90833516Y-108736762D01*
X90833879Y-108734782D01*
X90844357Y-108677606D01*
X90840726Y-108617577D01*
X90840500Y-108610090D01*
X90840500Y-107967180D01*
X90860185Y-107900141D01*
X90890187Y-107867914D01*
X90997546Y-107787546D01*
X91083796Y-107672331D01*
X91134091Y-107537483D01*
X91140500Y-107477873D01*
X91140499Y-105882128D01*
X91134091Y-105822517D01*
X91083796Y-105687669D01*
X91083795Y-105687668D01*
X91083793Y-105687664D01*
X90997547Y-105572455D01*
X90997544Y-105572452D01*
X90882335Y-105486206D01*
X90882328Y-105486202D01*
X90747482Y-105435908D01*
X90747483Y-105435908D01*
X90687883Y-105429501D01*
X90687881Y-105429500D01*
X90687873Y-105429500D01*
X90687864Y-105429500D01*
X89592129Y-105429500D01*
X89592123Y-105429501D01*
X89532520Y-105435908D01*
X89524974Y-105437692D01*
X89524628Y-105436230D01*
X89463622Y-105440584D01*
X89448600Y-105436172D01*
X89447482Y-105435908D01*
X89387883Y-105429501D01*
X89387881Y-105429500D01*
X89387873Y-105429500D01*
X89387865Y-105429500D01*
X88631519Y-105429500D01*
X88564480Y-105409815D01*
X88543838Y-105393181D01*
X86162838Y-103012181D01*
X86129353Y-102950858D01*
X86134337Y-102881166D01*
X86176209Y-102825233D01*
X86241673Y-102800816D01*
X86250519Y-102800500D01*
X86411241Y-102800500D01*
X86411243Y-102800500D01*
X86629940Y-102759618D01*
X86837401Y-102679247D01*
X87026562Y-102562124D01*
X87190981Y-102412236D01*
X87325058Y-102234689D01*
X87424229Y-102035528D01*
X87485115Y-101821536D01*
X87505643Y-101600000D01*
X87485115Y-101378464D01*
X87424229Y-101164472D01*
X87424224Y-101164461D01*
X87325061Y-100965316D01*
X87325056Y-100965308D01*
X87190979Y-100787761D01*
X87026562Y-100637876D01*
X87026560Y-100637874D01*
X86837404Y-100520754D01*
X86837398Y-100520752D01*
X86629940Y-100440382D01*
X86411243Y-100399500D01*
X86188757Y-100399500D01*
X85970060Y-100440382D01*
X85970057Y-100440383D01*
X85970053Y-100440384D01*
X85902074Y-100466719D01*
X85832451Y-100472580D01*
X85770711Y-100439870D01*
X85736457Y-100378973D01*
X85733508Y-100358577D01*
X85730726Y-100312575D01*
X85730500Y-100305090D01*
X85730500Y-97810049D01*
X85750185Y-97743010D01*
X85802989Y-97697255D01*
X85872147Y-97687311D01*
X85901950Y-97695487D01*
X85905652Y-97697020D01*
X85905655Y-97697020D01*
X85905659Y-97697023D01*
X86098967Y-97755662D01*
X86300000Y-97775462D01*
X86501033Y-97755662D01*
X86694341Y-97697023D01*
X86872494Y-97601798D01*
X87028647Y-97473647D01*
X87156798Y-97317494D01*
X87252023Y-97139341D01*
X87310662Y-96946033D01*
X87325500Y-96795380D01*
X87325500Y-96244620D01*
X87310662Y-96093967D01*
X87252023Y-95900659D01*
X87252021Y-95900656D01*
X87252021Y-95900654D01*
X87156801Y-95722511D01*
X87156797Y-95722504D01*
X87028647Y-95566353D01*
X87001334Y-95502043D01*
X87000500Y-95487688D01*
X87000500Y-89940634D01*
X87020185Y-89873595D01*
X87040962Y-89848997D01*
X87190979Y-89712238D01*
X87213523Y-89682386D01*
X87325058Y-89534689D01*
X87424229Y-89335528D01*
X87450734Y-89242371D01*
X87488013Y-89183278D01*
X87551323Y-89153721D01*
X87620562Y-89163083D01*
X87673749Y-89208393D01*
X87689266Y-89242372D01*
X87715769Y-89335523D01*
X87715775Y-89335538D01*
X87814938Y-89534683D01*
X87814943Y-89534691D01*
X87949020Y-89712238D01*
X88113437Y-89862123D01*
X88113439Y-89862125D01*
X88302595Y-89979245D01*
X88302596Y-89979245D01*
X88302599Y-89979247D01*
X88510060Y-90059618D01*
X88728757Y-90100500D01*
X88728759Y-90100500D01*
X88951241Y-90100500D01*
X88951243Y-90100500D01*
X89169940Y-90059618D01*
X89377401Y-89979247D01*
X89566562Y-89862124D01*
X89730981Y-89712236D01*
X89865058Y-89534689D01*
X89964229Y-89335528D01*
X90025115Y-89121536D01*
X90045643Y-88900000D01*
X90025115Y-88678464D01*
X89964229Y-88464472D01*
X89917474Y-88370575D01*
X89865061Y-88265316D01*
X89865056Y-88265308D01*
X89730979Y-88087761D01*
X89566562Y-87937876D01*
X89566560Y-87937874D01*
X89377404Y-87820754D01*
X89377398Y-87820752D01*
X89169940Y-87740382D01*
X88951243Y-87699500D01*
X88728757Y-87699500D01*
X88510060Y-87740382D01*
X88404132Y-87781419D01*
X88302601Y-87820752D01*
X88302595Y-87820754D01*
X88113439Y-87937874D01*
X88113437Y-87937876D01*
X87949020Y-88087761D01*
X87814943Y-88265308D01*
X87814938Y-88265316D01*
X87715775Y-88464461D01*
X87715769Y-88464476D01*
X87689266Y-88557627D01*
X87651987Y-88616721D01*
X87588677Y-88646278D01*
X87519438Y-88636916D01*
X87466251Y-88591606D01*
X87450734Y-88557627D01*
X87424230Y-88464476D01*
X87424229Y-88464472D01*
X87377474Y-88370575D01*
X87325061Y-88265316D01*
X87325056Y-88265308D01*
X87190981Y-88087764D01*
X87040961Y-87951002D01*
X87004680Y-87891290D01*
X87000500Y-87859365D01*
X87000500Y-87031624D01*
X87020185Y-86964585D01*
X87054061Y-86929574D01*
X87069697Y-86918781D01*
X87077807Y-86913183D01*
X87117700Y-86868151D01*
X87122802Y-86862731D01*
X89352731Y-84632802D01*
X89358151Y-84627700D01*
X89403183Y-84587807D01*
X89437358Y-84538294D01*
X89441779Y-84532285D01*
X89478877Y-84484935D01*
X89483029Y-84475706D01*
X89494062Y-84456146D01*
X89494419Y-84455628D01*
X89499818Y-84447808D01*
X89521154Y-84391546D01*
X89524014Y-84384644D01*
X89540381Y-84348281D01*
X89548694Y-84329810D01*
X89550520Y-84319843D01*
X89556548Y-84298218D01*
X89560140Y-84288750D01*
X89567389Y-84229047D01*
X89568516Y-84221640D01*
X89579357Y-84162484D01*
X89577920Y-84138729D01*
X89587134Y-84083787D01*
X89590044Y-84076762D01*
X89605500Y-83959361D01*
X89605499Y-83680640D01*
X89605499Y-83680638D01*
X89605499Y-83680636D01*
X89590046Y-83563246D01*
X89590044Y-83563240D01*
X89590044Y-83563238D01*
X89529538Y-83417163D01*
X89529538Y-83417162D01*
X89529536Y-83417159D01*
X89508501Y-83389746D01*
X89483308Y-83324578D01*
X89497346Y-83256134D01*
X89519194Y-83226583D01*
X92028959Y-80716819D01*
X92090282Y-80683334D01*
X92116640Y-80680500D01*
X107767791Y-80680500D01*
X107834830Y-80700185D01*
X107880585Y-80752989D01*
X107890529Y-80822147D01*
X107887996Y-80834941D01*
X107833868Y-81048682D01*
X107833864Y-81048702D01*
X107814700Y-81279993D01*
X107814700Y-81280006D01*
X107833864Y-81511297D01*
X107833866Y-81511308D01*
X107890842Y-81736300D01*
X107984075Y-81948848D01*
X108111016Y-82143147D01*
X108111019Y-82143151D01*
X108111021Y-82143153D01*
X108268216Y-82313913D01*
X108268219Y-82313915D01*
X108268222Y-82313918D01*
X108451365Y-82456464D01*
X108451371Y-82456468D01*
X108451374Y-82456470D01*
X108655497Y-82566936D01*
X108737772Y-82595181D01*
X108875015Y-82642297D01*
X108875017Y-82642297D01*
X108875019Y-82642298D01*
X109103951Y-82680500D01*
X109103952Y-82680500D01*
X109336048Y-82680500D01*
X109336049Y-82680500D01*
X109564981Y-82642298D01*
X109784503Y-82566936D01*
X109988626Y-82456470D01*
X110171784Y-82313913D01*
X110180130Y-82304846D01*
X110240010Y-82268854D01*
X110309849Y-82270949D01*
X110367468Y-82310469D01*
X110387544Y-82345491D01*
X110416203Y-82422330D01*
X110416206Y-82422335D01*
X110502452Y-82537544D01*
X110502455Y-82537547D01*
X110617664Y-82623793D01*
X110617671Y-82623797D01*
X110752517Y-82674091D01*
X110752516Y-82674091D01*
X110759444Y-82674835D01*
X110812127Y-82680500D01*
X112707872Y-82680499D01*
X112767483Y-82674091D01*
X112902331Y-82623796D01*
X113017546Y-82537546D01*
X113103796Y-82422331D01*
X113154091Y-82287483D01*
X113160500Y-82227873D01*
X113160499Y-80332128D01*
X113154091Y-80272517D01*
X113144233Y-80246087D01*
X113103797Y-80137671D01*
X113103793Y-80137664D01*
X113017547Y-80022455D01*
X113017544Y-80022452D01*
X112902335Y-79936206D01*
X112902328Y-79936202D01*
X112767482Y-79885908D01*
X112767483Y-79885908D01*
X112707883Y-79879501D01*
X112707881Y-79879500D01*
X112707873Y-79879500D01*
X112707865Y-79879500D01*
X111401519Y-79879500D01*
X111334480Y-79859815D01*
X111313838Y-79843181D01*
X110972940Y-79502283D01*
X110967805Y-79496828D01*
X110927929Y-79451816D01*
X110927924Y-79451812D01*
X110878438Y-79417655D01*
X110872403Y-79413215D01*
X110825060Y-79376124D01*
X110825055Y-79376120D01*
X110815813Y-79371961D01*
X110796266Y-79360936D01*
X110787931Y-79355183D01*
X110787932Y-79355183D01*
X110787930Y-79355182D01*
X110731694Y-79333854D01*
X110724790Y-79330994D01*
X110669932Y-79306305D01*
X110669930Y-79306304D01*
X110659946Y-79304474D01*
X110638343Y-79298451D01*
X110628874Y-79294860D01*
X110628871Y-79294859D01*
X110569171Y-79287610D01*
X110561770Y-79286483D01*
X110502609Y-79275642D01*
X110502603Y-79275642D01*
X110442567Y-79279274D01*
X110435079Y-79279500D01*
X91800043Y-79279500D01*
X91792555Y-79279274D01*
X91732518Y-79275642D01*
X91732510Y-79275642D01*
X91673349Y-79286483D01*
X91665949Y-79287610D01*
X91606250Y-79294860D01*
X91606243Y-79294861D01*
X91596769Y-79298454D01*
X91575171Y-79304475D01*
X91565191Y-79306304D01*
X91510349Y-79330987D01*
X91503431Y-79333852D01*
X91447194Y-79355181D01*
X91447185Y-79355185D01*
X91438843Y-79360943D01*
X91419311Y-79371960D01*
X91410068Y-79376120D01*
X91362731Y-79413206D01*
X91356701Y-79417643D01*
X91307194Y-79451816D01*
X91307186Y-79451823D01*
X91267298Y-79496846D01*
X91262166Y-79502298D01*
X87757290Y-83007173D01*
X87751838Y-83012305D01*
X87706819Y-83052190D01*
X87672649Y-83101691D01*
X87668213Y-83107719D01*
X87631124Y-83155060D01*
X87631119Y-83155070D01*
X87626960Y-83164310D01*
X87615942Y-83183845D01*
X87610187Y-83192183D01*
X87610179Y-83192198D01*
X87588853Y-83248427D01*
X87585989Y-83255342D01*
X87561305Y-83310190D01*
X87559477Y-83320164D01*
X87553453Y-83341775D01*
X87549860Y-83351249D01*
X87549860Y-83351250D01*
X87542610Y-83410949D01*
X87541483Y-83418349D01*
X87530642Y-83477511D01*
X87530642Y-83477517D01*
X87532079Y-83501272D01*
X87522868Y-83556206D01*
X87520656Y-83561547D01*
X87519955Y-83563240D01*
X87504500Y-83680638D01*
X87504500Y-83959363D01*
X87519953Y-84076753D01*
X87519957Y-84076765D01*
X87580461Y-84222836D01*
X87580464Y-84222841D01*
X87601496Y-84250251D01*
X87626690Y-84315421D01*
X87612651Y-84383865D01*
X87590801Y-84413418D01*
X86356040Y-85648181D01*
X86294717Y-85681666D01*
X86268359Y-85684500D01*
X86214944Y-85684500D01*
X86191962Y-85690164D01*
X86180780Y-85692920D01*
X86166058Y-85695618D01*
X86131126Y-85699860D01*
X86098226Y-85712336D01*
X86083941Y-85716788D01*
X86049774Y-85725210D01*
X86049771Y-85725211D01*
X86018611Y-85741564D01*
X86004966Y-85747704D01*
X85972072Y-85760180D01*
X85972069Y-85760181D01*
X85943109Y-85780171D01*
X85930301Y-85787914D01*
X85899149Y-85804264D01*
X85872808Y-85827599D01*
X85861029Y-85836827D01*
X85832072Y-85856815D01*
X85832071Y-85856816D01*
X85808737Y-85883154D01*
X85798154Y-85893737D01*
X85771816Y-85917071D01*
X85771815Y-85917072D01*
X85751827Y-85946029D01*
X85742599Y-85957808D01*
X85719264Y-85984149D01*
X85702914Y-86015301D01*
X85695171Y-86028109D01*
X85675181Y-86057069D01*
X85675180Y-86057072D01*
X85662704Y-86089966D01*
X85656564Y-86103611D01*
X85640211Y-86134771D01*
X85640210Y-86134774D01*
X85631788Y-86168941D01*
X85627336Y-86183226D01*
X85614860Y-86216126D01*
X85610618Y-86251058D01*
X85607920Y-86265780D01*
X85599500Y-86299945D01*
X85599500Y-87859365D01*
X85579815Y-87926404D01*
X85559039Y-87951002D01*
X85409018Y-88087764D01*
X85274943Y-88265308D01*
X85274938Y-88265316D01*
X85175775Y-88464461D01*
X85175769Y-88464476D01*
X85114885Y-88678462D01*
X85114884Y-88678464D01*
X85094357Y-88899999D01*
X85094357Y-88900000D01*
X85114884Y-89121535D01*
X85114885Y-89121537D01*
X85175769Y-89335523D01*
X85175775Y-89335538D01*
X85274938Y-89534683D01*
X85274943Y-89534691D01*
X85409020Y-89712238D01*
X85559038Y-89848997D01*
X85595320Y-89908708D01*
X85599500Y-89940634D01*
X85599500Y-95229950D01*
X85579815Y-95296989D01*
X85527011Y-95342744D01*
X85457853Y-95352688D01*
X85428061Y-95344517D01*
X85424348Y-95342979D01*
X85231031Y-95284337D01*
X85030000Y-95264538D01*
X84828968Y-95284337D01*
X84691371Y-95326076D01*
X84635659Y-95342977D01*
X84635657Y-95342977D01*
X84633982Y-95343486D01*
X84564115Y-95344109D01*
X84535414Y-95329902D01*
X84534872Y-95330897D01*
X84527086Y-95326645D01*
X84392379Y-95276403D01*
X84392372Y-95276401D01*
X84332844Y-95270000D01*
X84010000Y-95270000D01*
X84010000Y-96182684D01*
X84009403Y-96194837D01*
X84005370Y-96235779D01*
X83940948Y-96185637D01*
X83822576Y-96145000D01*
X83728927Y-96145000D01*
X83636554Y-96160414D01*
X83526486Y-96219981D01*
X83510000Y-96237889D01*
X83510000Y-95270000D01*
X83187155Y-95270000D01*
X83127627Y-95276401D01*
X83127620Y-95276403D01*
X82992913Y-95326645D01*
X82992906Y-95326649D01*
X82877812Y-95412809D01*
X82877809Y-95412812D01*
X82791649Y-95527906D01*
X82791645Y-95527913D01*
X82741403Y-95662620D01*
X82741401Y-95662627D01*
X82735000Y-95722155D01*
X82735000Y-96270000D01*
X83480440Y-96270000D01*
X83441722Y-96312059D01*
X83391449Y-96426670D01*
X83381114Y-96551395D01*
X83411837Y-96672719D01*
X83475394Y-96770000D01*
X82735000Y-96770000D01*
X82735000Y-97317844D01*
X82741401Y-97377372D01*
X82741403Y-97377379D01*
X82791645Y-97512086D01*
X82791649Y-97512093D01*
X82877809Y-97627187D01*
X82877812Y-97627190D01*
X82992906Y-97713350D01*
X82992913Y-97713354D01*
X83127620Y-97763596D01*
X83127627Y-97763598D01*
X83187155Y-97769999D01*
X83187172Y-97770000D01*
X83510000Y-97770000D01*
X83510000Y-96800617D01*
X83579052Y-96854363D01*
X83697424Y-96895000D01*
X83791073Y-96895000D01*
X83883446Y-96879586D01*
X83993514Y-96820019D01*
X84005630Y-96806856D01*
X84009403Y-96845160D01*
X84010000Y-96857314D01*
X84010000Y-97770000D01*
X84205500Y-97770000D01*
X84272539Y-97789685D01*
X84318294Y-97842489D01*
X84329500Y-97894000D01*
X84329500Y-99988480D01*
X84309815Y-100055519D01*
X84293181Y-100076161D01*
X84000531Y-100368810D01*
X83939208Y-100402295D01*
X83890070Y-100403019D01*
X83882968Y-100401691D01*
X83871243Y-100399500D01*
X83648757Y-100399500D01*
X83430060Y-100440382D01*
X83362077Y-100466719D01*
X83222601Y-100520752D01*
X83222595Y-100520754D01*
X83033439Y-100637874D01*
X83033437Y-100637876D01*
X82869020Y-100787761D01*
X82734943Y-100965308D01*
X82734938Y-100965316D01*
X82635775Y-101164461D01*
X82635769Y-101164476D01*
X82574885Y-101378462D01*
X82574884Y-101378464D01*
X82554357Y-101599999D01*
X82554357Y-101600000D01*
X76200500Y-101600000D01*
X76200500Y-73784500D01*
X76220185Y-73717461D01*
X76272989Y-73671706D01*
X76324500Y-73660500D01*
X208155500Y-73660500D01*
X208222539Y-73680185D01*
G37*
%TD.AperFunction*%
%TD*%
M02*
