%TF.GenerationSoftware,KiCad,Pcbnew,7.0.10*%
%TF.CreationDate,2024-03-24T23:27:10+02:00*%
%TF.ProjectId,Sensing_Subsystem_Group_8,53656e73-696e-4675-9f53-756273797374,rev?*%
%TF.SameCoordinates,Original*%
%TF.FileFunction,Paste,Top*%
%TF.FilePolarity,Positive*%
%FSLAX46Y46*%
G04 Gerber Fmt 4.6, Leading zero omitted, Abs format (unit mm)*
G04 Created by KiCad (PCBNEW 7.0.10) date 2024-03-24 23:27:10*
%MOMM*%
%LPD*%
G01*
G04 APERTURE LIST*
G04 Aperture macros list*
%AMRoundRect*
0 Rectangle with rounded corners*
0 $1 Rounding radius*
0 $2 $3 $4 $5 $6 $7 $8 $9 X,Y pos of 4 corners*
0 Add a 4 corners polygon primitive as box body*
4,1,4,$2,$3,$4,$5,$6,$7,$8,$9,$2,$3,0*
0 Add four circle primitives for the rounded corners*
1,1,$1+$1,$2,$3*
1,1,$1+$1,$4,$5*
1,1,$1+$1,$6,$7*
1,1,$1+$1,$8,$9*
0 Add four rect primitives between the rounded corners*
20,1,$1+$1,$2,$3,$4,$5,0*
20,1,$1+$1,$4,$5,$6,$7,0*
20,1,$1+$1,$6,$7,$8,$9,0*
20,1,$1+$1,$8,$9,$2,$3,0*%
G04 Aperture macros list end*
%ADD10R,1.410008X1.350013*%
%ADD11RoundRect,0.079500X-0.079500X-0.100500X0.079500X-0.100500X0.079500X0.100500X-0.079500X0.100500X0*%
%ADD12RoundRect,0.079500X0.079500X0.100500X-0.079500X0.100500X-0.079500X-0.100500X0.079500X-0.100500X0*%
G04 APERTURE END LIST*
D10*
%TO.C,C1*%
X150400000Y-88900000D03*
X152400000Y-88900000D03*
%TD*%
D11*
%TO.C,R28*%
X195555000Y-83820000D03*
X196245000Y-83820000D03*
%TD*%
%TO.C,R27*%
X200635000Y-111760000D03*
X201325000Y-111760000D03*
%TD*%
%TO.C,R26*%
X195555000Y-111760000D03*
X196245000Y-111760000D03*
%TD*%
%TO.C,R25*%
X200635000Y-116840000D03*
X201325000Y-116840000D03*
%TD*%
%TO.C,R24*%
X195580000Y-116840000D03*
X196270000Y-116840000D03*
%TD*%
%TO.C,R22*%
X151100000Y-106680000D03*
X151790000Y-106680000D03*
%TD*%
%TO.C,R21*%
X143480000Y-106680000D03*
X144170000Y-106680000D03*
%TD*%
%TO.C,R20*%
X130780000Y-106680000D03*
X131470000Y-106680000D03*
%TD*%
%TO.C,R19*%
X135860000Y-106680000D03*
X136550000Y-106680000D03*
%TD*%
%TO.C,R17*%
X170155000Y-83820000D03*
X170845000Y-83820000D03*
%TD*%
%TO.C,R16*%
X177775000Y-111760000D03*
X178465000Y-111760000D03*
%TD*%
%TO.C,R15*%
X172695000Y-111760000D03*
X173385000Y-111760000D03*
%TD*%
%TO.C,R14*%
X177775000Y-116840000D03*
X178465000Y-116840000D03*
%TD*%
%TO.C,R13*%
X172695000Y-116840000D03*
X173385000Y-116840000D03*
%TD*%
%TO.C,R11*%
X114300000Y-83820000D03*
X114990000Y-83820000D03*
%TD*%
%TO.C,R10*%
X116725000Y-111760000D03*
X117415000Y-111760000D03*
%TD*%
%TO.C,R9*%
X112310000Y-111760000D03*
X113000000Y-111760000D03*
%TD*%
%TO.C,R8*%
X117390000Y-116840000D03*
X118080000Y-116840000D03*
%TD*%
%TO.C,R7*%
X111670000Y-116840000D03*
X112360000Y-116840000D03*
%TD*%
D12*
%TO.C,R6*%
X89530000Y-111760000D03*
X88840000Y-111760000D03*
%TD*%
D11*
%TO.C,R5*%
X88840000Y-116840000D03*
X89530000Y-116840000D03*
%TD*%
%TO.C,R4*%
X83760000Y-111760000D03*
X84450000Y-111760000D03*
%TD*%
D12*
%TO.C,R3*%
X84450000Y-116840000D03*
X83760000Y-116840000D03*
%TD*%
D11*
%TO.C,R1*%
X88210000Y-83820000D03*
X88900000Y-83820000D03*
%TD*%
M02*
