M48
; DRILL file {KiCad 7.0.10} date Sun Mar 24 23:27:10 2024
; FORMAT={-:-/ absolute / inch / decimal}
; #@! TF.CreationDate,2024-03-24T23:27:10+02:00
; #@! TF.GenerationSoftware,Kicad,Pcbnew,7.0.10
; #@! TF.FileFunction,Plated,1,2,PTH
FMAT,2
INCH
; #@! TA.AperFunction,Plated,PTH,ComponentDrill
T1C0.0295
; #@! TA.AperFunction,Plated,PTH,ComponentDrill
T2C0.0315
; #@! TA.AperFunction,Plated,PTH,ComponentDrill
T3C0.0354
; #@! TA.AperFunction,Plated,PTH,ComponentDrill
T4C0.0354
; #@! TA.AperFunction,Plated,PTH,ComponentDrill
T5C0.0394
%
G90
G05
T1
X3.2976Y-3.8
X3.3476Y-3.8
X3.3976Y-3.8
X4.4217Y-3.8
X4.4717Y-3.8
X4.5217Y-3.8
X6.9Y-3.8
X6.95Y-3.8
X7.0Y-3.8
X7.8Y-3.8
X7.85Y-3.8
X7.9Y-3.8
T2
X3.2976Y-4.0
X3.3976Y-3.5
X3.3976Y-4.0
X3.4976Y-3.5
X4.4217Y-4.0
X4.5217Y-3.5
X4.5217Y-4.0
X4.6217Y-3.5
X5.4488Y-3.4
X5.5488Y-3.4
X6.1Y-3.1
X6.2Y-3.1
X6.9Y-4.0
X7.0Y-3.5
X7.0Y-4.0
X7.1Y-3.5
X7.8Y-4.0
X7.9Y-3.4
X7.9Y-4.0
X8.0Y-3.4
T3
X4.3Y-3.2
X4.4Y-3.2
X4.9Y-3.2
X5.0Y-3.2
X6.9Y-3.2
X7.0Y-3.2
X7.4Y-3.2
X7.5Y-3.2
T4
X5.85Y-3.1
X5.95Y-3.1
T5
X5.1Y-5.1
X5.1Y-5.2
X5.2Y-5.1
X5.2Y-5.2
X5.3Y-5.1
X5.3Y-5.2
X5.4Y-5.1
X5.4Y-5.2
X5.5Y-5.1
X5.5Y-5.2
X5.6Y-5.1
X5.6Y-5.2
X5.7Y-5.1
X5.7Y-5.2
X5.8Y-5.1
X5.8Y-5.2
X5.9Y-5.1
X5.9Y-5.2
X6.0Y-5.1
X6.0Y-5.2
X6.1Y-5.1
X6.1Y-5.2
X6.2Y-5.1
X6.2Y-5.2
X6.3Y-5.1
X6.3Y-5.2
X6.4Y-5.1
X6.4Y-5.2
M30
