%TF.GenerationSoftware,KiCad,Pcbnew,7.0.10*%
%TF.CreationDate,2024-03-24T23:27:10+02:00*%
%TF.ProjectId,Sensing_Subsystem_Group_8,53656e73-696e-4675-9f53-756273797374,rev?*%
%TF.SameCoordinates,Original*%
%TF.FileFunction,Legend,Top*%
%TF.FilePolarity,Positive*%
%FSLAX46Y46*%
G04 Gerber Fmt 4.6, Leading zero omitted, Abs format (unit mm)*
G04 Created by KiCad (PCBNEW 7.0.10) date 2024-03-24 23:27:10*
%MOMM*%
%LPD*%
G01*
G04 APERTURE LIST*
G04 Aperture macros list*
%AMRoundRect*
0 Rectangle with rounded corners*
0 $1 Rounding radius*
0 $2 $3 $4 $5 $6 $7 $8 $9 X,Y pos of 4 corners*
0 Add a 4 corners polygon primitive as box body*
4,1,4,$2,$3,$4,$5,$6,$7,$8,$9,$2,$3,0*
0 Add four circle primitives for the rounded corners*
1,1,$1+$1,$2,$3*
1,1,$1+$1,$4,$5*
1,1,$1+$1,$6,$7*
1,1,$1+$1,$8,$9*
0 Add four rect primitives between the rounded corners*
20,1,$1+$1,$2,$3,$4,$5,0*
20,1,$1+$1,$4,$5,$6,$7,0*
20,1,$1+$1,$6,$7,$8,$9,0*
20,1,$1+$1,$8,$9,$2,$3,0*%
G04 Aperture macros list end*
%ADD10C,0.150000*%
%ADD11C,0.254001*%
%ADD12C,0.059995*%
%ADD13C,0.152400*%
%ADD14C,0.120000*%
%ADD15C,1.651003*%
%ADD16R,1.410008X1.350013*%
%ADD17C,1.400000*%
%ADD18RoundRect,0.100000X-0.130000X-0.100000X0.130000X-0.100000X0.130000X0.100000X-0.130000X0.100000X0*%
%ADD19R,1.050000X1.500000*%
%ADD20O,1.050000X1.500000*%
%ADD21R,1.000000X1.500000*%
%ADD22R,1.800000X1.800000*%
%ADD23C,1.800000*%
%ADD24RoundRect,0.100000X0.130000X0.100000X-0.130000X0.100000X-0.130000X-0.100000X0.130000X-0.100000X0*%
%ADD25R,1.700000X1.700000*%
%ADD26O,1.700000X1.700000*%
G04 APERTURE END LIST*
D10*
X148855951Y-75871908D02*
X148379761Y-75871908D01*
X148379761Y-75871908D02*
X148379761Y-74871908D01*
X149189285Y-75348098D02*
X149522618Y-75348098D01*
X149665475Y-75871908D02*
X149189285Y-75871908D01*
X149189285Y-75871908D02*
X149189285Y-74871908D01*
X149189285Y-74871908D02*
X149665475Y-74871908D01*
X150094047Y-75871908D02*
X150094047Y-74871908D01*
X150094047Y-74871908D02*
X150332142Y-74871908D01*
X150332142Y-74871908D02*
X150474999Y-74919527D01*
X150474999Y-74919527D02*
X150570237Y-75014765D01*
X150570237Y-75014765D02*
X150617856Y-75110003D01*
X150617856Y-75110003D02*
X150665475Y-75300479D01*
X150665475Y-75300479D02*
X150665475Y-75443336D01*
X150665475Y-75443336D02*
X150617856Y-75633812D01*
X150617856Y-75633812D02*
X150570237Y-75729050D01*
X150570237Y-75729050D02*
X150474999Y-75824289D01*
X150474999Y-75824289D02*
X150332142Y-75871908D01*
X150332142Y-75871908D02*
X150094047Y-75871908D01*
X151617856Y-75871908D02*
X151046428Y-75871908D01*
X151332142Y-75871908D02*
X151332142Y-74871908D01*
X151332142Y-74871908D02*
X151236904Y-75014765D01*
X151236904Y-75014765D02*
X151141666Y-75110003D01*
X151141666Y-75110003D02*
X151046428Y-75157622D01*
X151233333Y-92163187D02*
X151185714Y-92210807D01*
X151185714Y-92210807D02*
X151042857Y-92258426D01*
X151042857Y-92258426D02*
X150947619Y-92258426D01*
X150947619Y-92258426D02*
X150804762Y-92210807D01*
X150804762Y-92210807D02*
X150709524Y-92115568D01*
X150709524Y-92115568D02*
X150661905Y-92020330D01*
X150661905Y-92020330D02*
X150614286Y-91829854D01*
X150614286Y-91829854D02*
X150614286Y-91686997D01*
X150614286Y-91686997D02*
X150661905Y-91496521D01*
X150661905Y-91496521D02*
X150709524Y-91401283D01*
X150709524Y-91401283D02*
X150804762Y-91306045D01*
X150804762Y-91306045D02*
X150947619Y-91258426D01*
X150947619Y-91258426D02*
X151042857Y-91258426D01*
X151042857Y-91258426D02*
X151185714Y-91306045D01*
X151185714Y-91306045D02*
X151233333Y-91353664D01*
X152185714Y-92258426D02*
X151614286Y-92258426D01*
X151900000Y-92258426D02*
X151900000Y-91258426D01*
X151900000Y-91258426D02*
X151804762Y-91401283D01*
X151804762Y-91401283D02*
X151709524Y-91496521D01*
X151709524Y-91496521D02*
X151614286Y-91544140D01*
X154501905Y-76194819D02*
X155073333Y-76194819D01*
X154787619Y-77194819D02*
X154787619Y-76194819D01*
X155406667Y-77194819D02*
X155406667Y-76194819D01*
X155406667Y-76194819D02*
X155787619Y-76194819D01*
X155787619Y-76194819D02*
X155882857Y-76242438D01*
X155882857Y-76242438D02*
X155930476Y-76290057D01*
X155930476Y-76290057D02*
X155978095Y-76385295D01*
X155978095Y-76385295D02*
X155978095Y-76528152D01*
X155978095Y-76528152D02*
X155930476Y-76623390D01*
X155930476Y-76623390D02*
X155882857Y-76671009D01*
X155882857Y-76671009D02*
X155787619Y-76718628D01*
X155787619Y-76718628D02*
X155406667Y-76718628D01*
X156930476Y-77194819D02*
X156359048Y-77194819D01*
X156644762Y-77194819D02*
X156644762Y-76194819D01*
X156644762Y-76194819D02*
X156549524Y-76337676D01*
X156549524Y-76337676D02*
X156454286Y-76432914D01*
X156454286Y-76432914D02*
X156359048Y-76480533D01*
X157549524Y-76194819D02*
X157644762Y-76194819D01*
X157644762Y-76194819D02*
X157740000Y-76242438D01*
X157740000Y-76242438D02*
X157787619Y-76290057D01*
X157787619Y-76290057D02*
X157835238Y-76385295D01*
X157835238Y-76385295D02*
X157882857Y-76575771D01*
X157882857Y-76575771D02*
X157882857Y-76813866D01*
X157882857Y-76813866D02*
X157835238Y-77004342D01*
X157835238Y-77004342D02*
X157787619Y-77099580D01*
X157787619Y-77099580D02*
X157740000Y-77147200D01*
X157740000Y-77147200D02*
X157644762Y-77194819D01*
X157644762Y-77194819D02*
X157549524Y-77194819D01*
X157549524Y-77194819D02*
X157454286Y-77147200D01*
X157454286Y-77147200D02*
X157406667Y-77099580D01*
X157406667Y-77099580D02*
X157359048Y-77004342D01*
X157359048Y-77004342D02*
X157311429Y-76813866D01*
X157311429Y-76813866D02*
X157311429Y-76575771D01*
X157311429Y-76575771D02*
X157359048Y-76385295D01*
X157359048Y-76385295D02*
X157406667Y-76290057D01*
X157406667Y-76290057D02*
X157454286Y-76242438D01*
X157454286Y-76242438D02*
X157549524Y-76194819D01*
X200668095Y-83274819D02*
X201239523Y-83274819D01*
X200953809Y-84274819D02*
X200953809Y-83274819D01*
X201572857Y-84274819D02*
X201572857Y-83274819D01*
X201572857Y-83274819D02*
X201953809Y-83274819D01*
X201953809Y-83274819D02*
X202049047Y-83322438D01*
X202049047Y-83322438D02*
X202096666Y-83370057D01*
X202096666Y-83370057D02*
X202144285Y-83465295D01*
X202144285Y-83465295D02*
X202144285Y-83608152D01*
X202144285Y-83608152D02*
X202096666Y-83703390D01*
X202096666Y-83703390D02*
X202049047Y-83751009D01*
X202049047Y-83751009D02*
X201953809Y-83798628D01*
X201953809Y-83798628D02*
X201572857Y-83798628D01*
X202620476Y-84274819D02*
X202810952Y-84274819D01*
X202810952Y-84274819D02*
X202906190Y-84227200D01*
X202906190Y-84227200D02*
X202953809Y-84179580D01*
X202953809Y-84179580D02*
X203049047Y-84036723D01*
X203049047Y-84036723D02*
X203096666Y-83846247D01*
X203096666Y-83846247D02*
X203096666Y-83465295D01*
X203096666Y-83465295D02*
X203049047Y-83370057D01*
X203049047Y-83370057D02*
X203001428Y-83322438D01*
X203001428Y-83322438D02*
X202906190Y-83274819D01*
X202906190Y-83274819D02*
X202715714Y-83274819D01*
X202715714Y-83274819D02*
X202620476Y-83322438D01*
X202620476Y-83322438D02*
X202572857Y-83370057D01*
X202572857Y-83370057D02*
X202525238Y-83465295D01*
X202525238Y-83465295D02*
X202525238Y-83703390D01*
X202525238Y-83703390D02*
X202572857Y-83798628D01*
X202572857Y-83798628D02*
X202620476Y-83846247D01*
X202620476Y-83846247D02*
X202715714Y-83893866D01*
X202715714Y-83893866D02*
X202906190Y-83893866D01*
X202906190Y-83893866D02*
X203001428Y-83846247D01*
X203001428Y-83846247D02*
X203049047Y-83798628D01*
X203049047Y-83798628D02*
X203096666Y-83703390D01*
X198158095Y-99054819D02*
X198729523Y-99054819D01*
X198443809Y-100054819D02*
X198443809Y-99054819D01*
X199062857Y-100054819D02*
X199062857Y-99054819D01*
X199062857Y-99054819D02*
X199443809Y-99054819D01*
X199443809Y-99054819D02*
X199539047Y-99102438D01*
X199539047Y-99102438D02*
X199586666Y-99150057D01*
X199586666Y-99150057D02*
X199634285Y-99245295D01*
X199634285Y-99245295D02*
X199634285Y-99388152D01*
X199634285Y-99388152D02*
X199586666Y-99483390D01*
X199586666Y-99483390D02*
X199539047Y-99531009D01*
X199539047Y-99531009D02*
X199443809Y-99578628D01*
X199443809Y-99578628D02*
X199062857Y-99578628D01*
X200205714Y-99483390D02*
X200110476Y-99435771D01*
X200110476Y-99435771D02*
X200062857Y-99388152D01*
X200062857Y-99388152D02*
X200015238Y-99292914D01*
X200015238Y-99292914D02*
X200015238Y-99245295D01*
X200015238Y-99245295D02*
X200062857Y-99150057D01*
X200062857Y-99150057D02*
X200110476Y-99102438D01*
X200110476Y-99102438D02*
X200205714Y-99054819D01*
X200205714Y-99054819D02*
X200396190Y-99054819D01*
X200396190Y-99054819D02*
X200491428Y-99102438D01*
X200491428Y-99102438D02*
X200539047Y-99150057D01*
X200539047Y-99150057D02*
X200586666Y-99245295D01*
X200586666Y-99245295D02*
X200586666Y-99292914D01*
X200586666Y-99292914D02*
X200539047Y-99388152D01*
X200539047Y-99388152D02*
X200491428Y-99435771D01*
X200491428Y-99435771D02*
X200396190Y-99483390D01*
X200396190Y-99483390D02*
X200205714Y-99483390D01*
X200205714Y-99483390D02*
X200110476Y-99531009D01*
X200110476Y-99531009D02*
X200062857Y-99578628D01*
X200062857Y-99578628D02*
X200015238Y-99673866D01*
X200015238Y-99673866D02*
X200015238Y-99864342D01*
X200015238Y-99864342D02*
X200062857Y-99959580D01*
X200062857Y-99959580D02*
X200110476Y-100007200D01*
X200110476Y-100007200D02*
X200205714Y-100054819D01*
X200205714Y-100054819D02*
X200396190Y-100054819D01*
X200396190Y-100054819D02*
X200491428Y-100007200D01*
X200491428Y-100007200D02*
X200539047Y-99959580D01*
X200539047Y-99959580D02*
X200586666Y-99864342D01*
X200586666Y-99864342D02*
X200586666Y-99673866D01*
X200586666Y-99673866D02*
X200539047Y-99578628D01*
X200539047Y-99578628D02*
X200491428Y-99531009D01*
X200491428Y-99531009D02*
X200396190Y-99483390D01*
X195257142Y-83224819D02*
X194923809Y-82748628D01*
X194685714Y-83224819D02*
X194685714Y-82224819D01*
X194685714Y-82224819D02*
X195066666Y-82224819D01*
X195066666Y-82224819D02*
X195161904Y-82272438D01*
X195161904Y-82272438D02*
X195209523Y-82320057D01*
X195209523Y-82320057D02*
X195257142Y-82415295D01*
X195257142Y-82415295D02*
X195257142Y-82558152D01*
X195257142Y-82558152D02*
X195209523Y-82653390D01*
X195209523Y-82653390D02*
X195161904Y-82701009D01*
X195161904Y-82701009D02*
X195066666Y-82748628D01*
X195066666Y-82748628D02*
X194685714Y-82748628D01*
X195638095Y-82320057D02*
X195685714Y-82272438D01*
X195685714Y-82272438D02*
X195780952Y-82224819D01*
X195780952Y-82224819D02*
X196019047Y-82224819D01*
X196019047Y-82224819D02*
X196114285Y-82272438D01*
X196114285Y-82272438D02*
X196161904Y-82320057D01*
X196161904Y-82320057D02*
X196209523Y-82415295D01*
X196209523Y-82415295D02*
X196209523Y-82510533D01*
X196209523Y-82510533D02*
X196161904Y-82653390D01*
X196161904Y-82653390D02*
X195590476Y-83224819D01*
X195590476Y-83224819D02*
X196209523Y-83224819D01*
X196780952Y-82653390D02*
X196685714Y-82605771D01*
X196685714Y-82605771D02*
X196638095Y-82558152D01*
X196638095Y-82558152D02*
X196590476Y-82462914D01*
X196590476Y-82462914D02*
X196590476Y-82415295D01*
X196590476Y-82415295D02*
X196638095Y-82320057D01*
X196638095Y-82320057D02*
X196685714Y-82272438D01*
X196685714Y-82272438D02*
X196780952Y-82224819D01*
X196780952Y-82224819D02*
X196971428Y-82224819D01*
X196971428Y-82224819D02*
X197066666Y-82272438D01*
X197066666Y-82272438D02*
X197114285Y-82320057D01*
X197114285Y-82320057D02*
X197161904Y-82415295D01*
X197161904Y-82415295D02*
X197161904Y-82462914D01*
X197161904Y-82462914D02*
X197114285Y-82558152D01*
X197114285Y-82558152D02*
X197066666Y-82605771D01*
X197066666Y-82605771D02*
X196971428Y-82653390D01*
X196971428Y-82653390D02*
X196780952Y-82653390D01*
X196780952Y-82653390D02*
X196685714Y-82701009D01*
X196685714Y-82701009D02*
X196638095Y-82748628D01*
X196638095Y-82748628D02*
X196590476Y-82843866D01*
X196590476Y-82843866D02*
X196590476Y-83034342D01*
X196590476Y-83034342D02*
X196638095Y-83129580D01*
X196638095Y-83129580D02*
X196685714Y-83177200D01*
X196685714Y-83177200D02*
X196780952Y-83224819D01*
X196780952Y-83224819D02*
X196971428Y-83224819D01*
X196971428Y-83224819D02*
X197066666Y-83177200D01*
X197066666Y-83177200D02*
X197114285Y-83129580D01*
X197114285Y-83129580D02*
X197161904Y-83034342D01*
X197161904Y-83034342D02*
X197161904Y-82843866D01*
X197161904Y-82843866D02*
X197114285Y-82748628D01*
X197114285Y-82748628D02*
X197066666Y-82701009D01*
X197066666Y-82701009D02*
X196971428Y-82653390D01*
X200337142Y-111164819D02*
X200003809Y-110688628D01*
X199765714Y-111164819D02*
X199765714Y-110164819D01*
X199765714Y-110164819D02*
X200146666Y-110164819D01*
X200146666Y-110164819D02*
X200241904Y-110212438D01*
X200241904Y-110212438D02*
X200289523Y-110260057D01*
X200289523Y-110260057D02*
X200337142Y-110355295D01*
X200337142Y-110355295D02*
X200337142Y-110498152D01*
X200337142Y-110498152D02*
X200289523Y-110593390D01*
X200289523Y-110593390D02*
X200241904Y-110641009D01*
X200241904Y-110641009D02*
X200146666Y-110688628D01*
X200146666Y-110688628D02*
X199765714Y-110688628D01*
X200718095Y-110260057D02*
X200765714Y-110212438D01*
X200765714Y-110212438D02*
X200860952Y-110164819D01*
X200860952Y-110164819D02*
X201099047Y-110164819D01*
X201099047Y-110164819D02*
X201194285Y-110212438D01*
X201194285Y-110212438D02*
X201241904Y-110260057D01*
X201241904Y-110260057D02*
X201289523Y-110355295D01*
X201289523Y-110355295D02*
X201289523Y-110450533D01*
X201289523Y-110450533D02*
X201241904Y-110593390D01*
X201241904Y-110593390D02*
X200670476Y-111164819D01*
X200670476Y-111164819D02*
X201289523Y-111164819D01*
X201622857Y-110164819D02*
X202289523Y-110164819D01*
X202289523Y-110164819D02*
X201860952Y-111164819D01*
X195257142Y-111164819D02*
X194923809Y-110688628D01*
X194685714Y-111164819D02*
X194685714Y-110164819D01*
X194685714Y-110164819D02*
X195066666Y-110164819D01*
X195066666Y-110164819D02*
X195161904Y-110212438D01*
X195161904Y-110212438D02*
X195209523Y-110260057D01*
X195209523Y-110260057D02*
X195257142Y-110355295D01*
X195257142Y-110355295D02*
X195257142Y-110498152D01*
X195257142Y-110498152D02*
X195209523Y-110593390D01*
X195209523Y-110593390D02*
X195161904Y-110641009D01*
X195161904Y-110641009D02*
X195066666Y-110688628D01*
X195066666Y-110688628D02*
X194685714Y-110688628D01*
X195638095Y-110260057D02*
X195685714Y-110212438D01*
X195685714Y-110212438D02*
X195780952Y-110164819D01*
X195780952Y-110164819D02*
X196019047Y-110164819D01*
X196019047Y-110164819D02*
X196114285Y-110212438D01*
X196114285Y-110212438D02*
X196161904Y-110260057D01*
X196161904Y-110260057D02*
X196209523Y-110355295D01*
X196209523Y-110355295D02*
X196209523Y-110450533D01*
X196209523Y-110450533D02*
X196161904Y-110593390D01*
X196161904Y-110593390D02*
X195590476Y-111164819D01*
X195590476Y-111164819D02*
X196209523Y-111164819D01*
X197066666Y-110164819D02*
X196876190Y-110164819D01*
X196876190Y-110164819D02*
X196780952Y-110212438D01*
X196780952Y-110212438D02*
X196733333Y-110260057D01*
X196733333Y-110260057D02*
X196638095Y-110402914D01*
X196638095Y-110402914D02*
X196590476Y-110593390D01*
X196590476Y-110593390D02*
X196590476Y-110974342D01*
X196590476Y-110974342D02*
X196638095Y-111069580D01*
X196638095Y-111069580D02*
X196685714Y-111117200D01*
X196685714Y-111117200D02*
X196780952Y-111164819D01*
X196780952Y-111164819D02*
X196971428Y-111164819D01*
X196971428Y-111164819D02*
X197066666Y-111117200D01*
X197066666Y-111117200D02*
X197114285Y-111069580D01*
X197114285Y-111069580D02*
X197161904Y-110974342D01*
X197161904Y-110974342D02*
X197161904Y-110736247D01*
X197161904Y-110736247D02*
X197114285Y-110641009D01*
X197114285Y-110641009D02*
X197066666Y-110593390D01*
X197066666Y-110593390D02*
X196971428Y-110545771D01*
X196971428Y-110545771D02*
X196780952Y-110545771D01*
X196780952Y-110545771D02*
X196685714Y-110593390D01*
X196685714Y-110593390D02*
X196638095Y-110641009D01*
X196638095Y-110641009D02*
X196590476Y-110736247D01*
X200337142Y-116244819D02*
X200003809Y-115768628D01*
X199765714Y-116244819D02*
X199765714Y-115244819D01*
X199765714Y-115244819D02*
X200146666Y-115244819D01*
X200146666Y-115244819D02*
X200241904Y-115292438D01*
X200241904Y-115292438D02*
X200289523Y-115340057D01*
X200289523Y-115340057D02*
X200337142Y-115435295D01*
X200337142Y-115435295D02*
X200337142Y-115578152D01*
X200337142Y-115578152D02*
X200289523Y-115673390D01*
X200289523Y-115673390D02*
X200241904Y-115721009D01*
X200241904Y-115721009D02*
X200146666Y-115768628D01*
X200146666Y-115768628D02*
X199765714Y-115768628D01*
X200718095Y-115340057D02*
X200765714Y-115292438D01*
X200765714Y-115292438D02*
X200860952Y-115244819D01*
X200860952Y-115244819D02*
X201099047Y-115244819D01*
X201099047Y-115244819D02*
X201194285Y-115292438D01*
X201194285Y-115292438D02*
X201241904Y-115340057D01*
X201241904Y-115340057D02*
X201289523Y-115435295D01*
X201289523Y-115435295D02*
X201289523Y-115530533D01*
X201289523Y-115530533D02*
X201241904Y-115673390D01*
X201241904Y-115673390D02*
X200670476Y-116244819D01*
X200670476Y-116244819D02*
X201289523Y-116244819D01*
X202194285Y-115244819D02*
X201718095Y-115244819D01*
X201718095Y-115244819D02*
X201670476Y-115721009D01*
X201670476Y-115721009D02*
X201718095Y-115673390D01*
X201718095Y-115673390D02*
X201813333Y-115625771D01*
X201813333Y-115625771D02*
X202051428Y-115625771D01*
X202051428Y-115625771D02*
X202146666Y-115673390D01*
X202146666Y-115673390D02*
X202194285Y-115721009D01*
X202194285Y-115721009D02*
X202241904Y-115816247D01*
X202241904Y-115816247D02*
X202241904Y-116054342D01*
X202241904Y-116054342D02*
X202194285Y-116149580D01*
X202194285Y-116149580D02*
X202146666Y-116197200D01*
X202146666Y-116197200D02*
X202051428Y-116244819D01*
X202051428Y-116244819D02*
X201813333Y-116244819D01*
X201813333Y-116244819D02*
X201718095Y-116197200D01*
X201718095Y-116197200D02*
X201670476Y-116149580D01*
X195282142Y-116244819D02*
X194948809Y-115768628D01*
X194710714Y-116244819D02*
X194710714Y-115244819D01*
X194710714Y-115244819D02*
X195091666Y-115244819D01*
X195091666Y-115244819D02*
X195186904Y-115292438D01*
X195186904Y-115292438D02*
X195234523Y-115340057D01*
X195234523Y-115340057D02*
X195282142Y-115435295D01*
X195282142Y-115435295D02*
X195282142Y-115578152D01*
X195282142Y-115578152D02*
X195234523Y-115673390D01*
X195234523Y-115673390D02*
X195186904Y-115721009D01*
X195186904Y-115721009D02*
X195091666Y-115768628D01*
X195091666Y-115768628D02*
X194710714Y-115768628D01*
X195663095Y-115340057D02*
X195710714Y-115292438D01*
X195710714Y-115292438D02*
X195805952Y-115244819D01*
X195805952Y-115244819D02*
X196044047Y-115244819D01*
X196044047Y-115244819D02*
X196139285Y-115292438D01*
X196139285Y-115292438D02*
X196186904Y-115340057D01*
X196186904Y-115340057D02*
X196234523Y-115435295D01*
X196234523Y-115435295D02*
X196234523Y-115530533D01*
X196234523Y-115530533D02*
X196186904Y-115673390D01*
X196186904Y-115673390D02*
X195615476Y-116244819D01*
X195615476Y-116244819D02*
X196234523Y-116244819D01*
X197091666Y-115578152D02*
X197091666Y-116244819D01*
X196853571Y-115197200D02*
X196615476Y-115911485D01*
X196615476Y-115911485D02*
X197234523Y-115911485D01*
X199294761Y-93510057D02*
X199199523Y-93462438D01*
X199199523Y-93462438D02*
X199104285Y-93367200D01*
X199104285Y-93367200D02*
X198961428Y-93224342D01*
X198961428Y-93224342D02*
X198866190Y-93176723D01*
X198866190Y-93176723D02*
X198770952Y-93176723D01*
X198818571Y-93414819D02*
X198723333Y-93367200D01*
X198723333Y-93367200D02*
X198628095Y-93271961D01*
X198628095Y-93271961D02*
X198580476Y-93081485D01*
X198580476Y-93081485D02*
X198580476Y-92748152D01*
X198580476Y-92748152D02*
X198628095Y-92557676D01*
X198628095Y-92557676D02*
X198723333Y-92462438D01*
X198723333Y-92462438D02*
X198818571Y-92414819D01*
X198818571Y-92414819D02*
X199009047Y-92414819D01*
X199009047Y-92414819D02*
X199104285Y-92462438D01*
X199104285Y-92462438D02*
X199199523Y-92557676D01*
X199199523Y-92557676D02*
X199247142Y-92748152D01*
X199247142Y-92748152D02*
X199247142Y-93081485D01*
X199247142Y-93081485D02*
X199199523Y-93271961D01*
X199199523Y-93271961D02*
X199104285Y-93367200D01*
X199104285Y-93367200D02*
X199009047Y-93414819D01*
X199009047Y-93414819D02*
X198818571Y-93414819D01*
X200151904Y-92414819D02*
X199675714Y-92414819D01*
X199675714Y-92414819D02*
X199628095Y-92891009D01*
X199628095Y-92891009D02*
X199675714Y-92843390D01*
X199675714Y-92843390D02*
X199770952Y-92795771D01*
X199770952Y-92795771D02*
X200009047Y-92795771D01*
X200009047Y-92795771D02*
X200104285Y-92843390D01*
X200104285Y-92843390D02*
X200151904Y-92891009D01*
X200151904Y-92891009D02*
X200199523Y-92986247D01*
X200199523Y-92986247D02*
X200199523Y-93224342D01*
X200199523Y-93224342D02*
X200151904Y-93319580D01*
X200151904Y-93319580D02*
X200104285Y-93367200D01*
X200104285Y-93367200D02*
X200009047Y-93414819D01*
X200009047Y-93414819D02*
X199770952Y-93414819D01*
X199770952Y-93414819D02*
X199675714Y-93367200D01*
X199675714Y-93367200D02*
X199628095Y-93319580D01*
X201240476Y-104334819D02*
X201240476Y-105049104D01*
X201240476Y-105049104D02*
X201192857Y-105191961D01*
X201192857Y-105191961D02*
X201097619Y-105287200D01*
X201097619Y-105287200D02*
X200954762Y-105334819D01*
X200954762Y-105334819D02*
X200859524Y-105334819D01*
X201716667Y-105334819D02*
X201716667Y-104334819D01*
X201716667Y-104334819D02*
X202097619Y-104334819D01*
X202097619Y-104334819D02*
X202192857Y-104382438D01*
X202192857Y-104382438D02*
X202240476Y-104430057D01*
X202240476Y-104430057D02*
X202288095Y-104525295D01*
X202288095Y-104525295D02*
X202288095Y-104668152D01*
X202288095Y-104668152D02*
X202240476Y-104763390D01*
X202240476Y-104763390D02*
X202192857Y-104811009D01*
X202192857Y-104811009D02*
X202097619Y-104858628D01*
X202097619Y-104858628D02*
X201716667Y-104858628D01*
X202669048Y-104430057D02*
X202716667Y-104382438D01*
X202716667Y-104382438D02*
X202811905Y-104334819D01*
X202811905Y-104334819D02*
X203050000Y-104334819D01*
X203050000Y-104334819D02*
X203145238Y-104382438D01*
X203145238Y-104382438D02*
X203192857Y-104430057D01*
X203192857Y-104430057D02*
X203240476Y-104525295D01*
X203240476Y-104525295D02*
X203240476Y-104620533D01*
X203240476Y-104620533D02*
X203192857Y-104763390D01*
X203192857Y-104763390D02*
X202621429Y-105334819D01*
X202621429Y-105334819D02*
X203240476Y-105334819D01*
X204192857Y-105334819D02*
X203621429Y-105334819D01*
X203907143Y-105334819D02*
X203907143Y-104334819D01*
X203907143Y-104334819D02*
X203811905Y-104477676D01*
X203811905Y-104477676D02*
X203716667Y-104572914D01*
X203716667Y-104572914D02*
X203621429Y-104620533D01*
X192380476Y-104334819D02*
X192380476Y-105049104D01*
X192380476Y-105049104D02*
X192332857Y-105191961D01*
X192332857Y-105191961D02*
X192237619Y-105287200D01*
X192237619Y-105287200D02*
X192094762Y-105334819D01*
X192094762Y-105334819D02*
X191999524Y-105334819D01*
X192856667Y-105334819D02*
X192856667Y-104334819D01*
X192856667Y-104334819D02*
X193237619Y-104334819D01*
X193237619Y-104334819D02*
X193332857Y-104382438D01*
X193332857Y-104382438D02*
X193380476Y-104430057D01*
X193380476Y-104430057D02*
X193428095Y-104525295D01*
X193428095Y-104525295D02*
X193428095Y-104668152D01*
X193428095Y-104668152D02*
X193380476Y-104763390D01*
X193380476Y-104763390D02*
X193332857Y-104811009D01*
X193332857Y-104811009D02*
X193237619Y-104858628D01*
X193237619Y-104858628D02*
X192856667Y-104858628D01*
X193809048Y-104430057D02*
X193856667Y-104382438D01*
X193856667Y-104382438D02*
X193951905Y-104334819D01*
X193951905Y-104334819D02*
X194190000Y-104334819D01*
X194190000Y-104334819D02*
X194285238Y-104382438D01*
X194285238Y-104382438D02*
X194332857Y-104430057D01*
X194332857Y-104430057D02*
X194380476Y-104525295D01*
X194380476Y-104525295D02*
X194380476Y-104620533D01*
X194380476Y-104620533D02*
X194332857Y-104763390D01*
X194332857Y-104763390D02*
X193761429Y-105334819D01*
X193761429Y-105334819D02*
X194380476Y-105334819D01*
X194999524Y-104334819D02*
X195094762Y-104334819D01*
X195094762Y-104334819D02*
X195190000Y-104382438D01*
X195190000Y-104382438D02*
X195237619Y-104430057D01*
X195237619Y-104430057D02*
X195285238Y-104525295D01*
X195285238Y-104525295D02*
X195332857Y-104715771D01*
X195332857Y-104715771D02*
X195332857Y-104953866D01*
X195332857Y-104953866D02*
X195285238Y-105144342D01*
X195285238Y-105144342D02*
X195237619Y-105239580D01*
X195237619Y-105239580D02*
X195190000Y-105287200D01*
X195190000Y-105287200D02*
X195094762Y-105334819D01*
X195094762Y-105334819D02*
X194999524Y-105334819D01*
X194999524Y-105334819D02*
X194904286Y-105287200D01*
X194904286Y-105287200D02*
X194856667Y-105239580D01*
X194856667Y-105239580D02*
X194809048Y-105144342D01*
X194809048Y-105144342D02*
X194761429Y-104953866D01*
X194761429Y-104953866D02*
X194761429Y-104715771D01*
X194761429Y-104715771D02*
X194809048Y-104525295D01*
X194809048Y-104525295D02*
X194856667Y-104430057D01*
X194856667Y-104430057D02*
X194904286Y-104382438D01*
X194904286Y-104382438D02*
X194999524Y-104334819D01*
X201240476Y-119574819D02*
X201240476Y-120289104D01*
X201240476Y-120289104D02*
X201192857Y-120431961D01*
X201192857Y-120431961D02*
X201097619Y-120527200D01*
X201097619Y-120527200D02*
X200954762Y-120574819D01*
X200954762Y-120574819D02*
X200859524Y-120574819D01*
X201716667Y-120574819D02*
X201716667Y-119574819D01*
X201716667Y-119574819D02*
X202097619Y-119574819D01*
X202097619Y-119574819D02*
X202192857Y-119622438D01*
X202192857Y-119622438D02*
X202240476Y-119670057D01*
X202240476Y-119670057D02*
X202288095Y-119765295D01*
X202288095Y-119765295D02*
X202288095Y-119908152D01*
X202288095Y-119908152D02*
X202240476Y-120003390D01*
X202240476Y-120003390D02*
X202192857Y-120051009D01*
X202192857Y-120051009D02*
X202097619Y-120098628D01*
X202097619Y-120098628D02*
X201716667Y-120098628D01*
X203240476Y-120574819D02*
X202669048Y-120574819D01*
X202954762Y-120574819D02*
X202954762Y-119574819D01*
X202954762Y-119574819D02*
X202859524Y-119717676D01*
X202859524Y-119717676D02*
X202764286Y-119812914D01*
X202764286Y-119812914D02*
X202669048Y-119860533D01*
X203716667Y-120574819D02*
X203907143Y-120574819D01*
X203907143Y-120574819D02*
X204002381Y-120527200D01*
X204002381Y-120527200D02*
X204050000Y-120479580D01*
X204050000Y-120479580D02*
X204145238Y-120336723D01*
X204145238Y-120336723D02*
X204192857Y-120146247D01*
X204192857Y-120146247D02*
X204192857Y-119765295D01*
X204192857Y-119765295D02*
X204145238Y-119670057D01*
X204145238Y-119670057D02*
X204097619Y-119622438D01*
X204097619Y-119622438D02*
X204002381Y-119574819D01*
X204002381Y-119574819D02*
X203811905Y-119574819D01*
X203811905Y-119574819D02*
X203716667Y-119622438D01*
X203716667Y-119622438D02*
X203669048Y-119670057D01*
X203669048Y-119670057D02*
X203621429Y-119765295D01*
X203621429Y-119765295D02*
X203621429Y-120003390D01*
X203621429Y-120003390D02*
X203669048Y-120098628D01*
X203669048Y-120098628D02*
X203716667Y-120146247D01*
X203716667Y-120146247D02*
X203811905Y-120193866D01*
X203811905Y-120193866D02*
X204002381Y-120193866D01*
X204002381Y-120193866D02*
X204097619Y-120146247D01*
X204097619Y-120146247D02*
X204145238Y-120098628D01*
X204145238Y-120098628D02*
X204192857Y-120003390D01*
X193620476Y-119574819D02*
X193620476Y-120289104D01*
X193620476Y-120289104D02*
X193572857Y-120431961D01*
X193572857Y-120431961D02*
X193477619Y-120527200D01*
X193477619Y-120527200D02*
X193334762Y-120574819D01*
X193334762Y-120574819D02*
X193239524Y-120574819D01*
X194096667Y-120574819D02*
X194096667Y-119574819D01*
X194096667Y-119574819D02*
X194477619Y-119574819D01*
X194477619Y-119574819D02*
X194572857Y-119622438D01*
X194572857Y-119622438D02*
X194620476Y-119670057D01*
X194620476Y-119670057D02*
X194668095Y-119765295D01*
X194668095Y-119765295D02*
X194668095Y-119908152D01*
X194668095Y-119908152D02*
X194620476Y-120003390D01*
X194620476Y-120003390D02*
X194572857Y-120051009D01*
X194572857Y-120051009D02*
X194477619Y-120098628D01*
X194477619Y-120098628D02*
X194096667Y-120098628D01*
X195620476Y-120574819D02*
X195049048Y-120574819D01*
X195334762Y-120574819D02*
X195334762Y-119574819D01*
X195334762Y-119574819D02*
X195239524Y-119717676D01*
X195239524Y-119717676D02*
X195144286Y-119812914D01*
X195144286Y-119812914D02*
X195049048Y-119860533D01*
X196191905Y-120003390D02*
X196096667Y-119955771D01*
X196096667Y-119955771D02*
X196049048Y-119908152D01*
X196049048Y-119908152D02*
X196001429Y-119812914D01*
X196001429Y-119812914D02*
X196001429Y-119765295D01*
X196001429Y-119765295D02*
X196049048Y-119670057D01*
X196049048Y-119670057D02*
X196096667Y-119622438D01*
X196096667Y-119622438D02*
X196191905Y-119574819D01*
X196191905Y-119574819D02*
X196382381Y-119574819D01*
X196382381Y-119574819D02*
X196477619Y-119622438D01*
X196477619Y-119622438D02*
X196525238Y-119670057D01*
X196525238Y-119670057D02*
X196572857Y-119765295D01*
X196572857Y-119765295D02*
X196572857Y-119812914D01*
X196572857Y-119812914D02*
X196525238Y-119908152D01*
X196525238Y-119908152D02*
X196477619Y-119955771D01*
X196477619Y-119955771D02*
X196382381Y-120003390D01*
X196382381Y-120003390D02*
X196191905Y-120003390D01*
X196191905Y-120003390D02*
X196096667Y-120051009D01*
X196096667Y-120051009D02*
X196049048Y-120098628D01*
X196049048Y-120098628D02*
X196001429Y-120193866D01*
X196001429Y-120193866D02*
X196001429Y-120384342D01*
X196001429Y-120384342D02*
X196049048Y-120479580D01*
X196049048Y-120479580D02*
X196096667Y-120527200D01*
X196096667Y-120527200D02*
X196191905Y-120574819D01*
X196191905Y-120574819D02*
X196382381Y-120574819D01*
X196382381Y-120574819D02*
X196477619Y-120527200D01*
X196477619Y-120527200D02*
X196525238Y-120479580D01*
X196525238Y-120479580D02*
X196572857Y-120384342D01*
X196572857Y-120384342D02*
X196572857Y-120193866D01*
X196572857Y-120193866D02*
X196525238Y-120098628D01*
X196525238Y-120098628D02*
X196477619Y-120051009D01*
X196477619Y-120051009D02*
X196382381Y-120003390D01*
X188491905Y-84694819D02*
X188491905Y-83694819D01*
X188491905Y-83694819D02*
X188730000Y-83694819D01*
X188730000Y-83694819D02*
X188872857Y-83742438D01*
X188872857Y-83742438D02*
X188968095Y-83837676D01*
X188968095Y-83837676D02*
X189015714Y-83932914D01*
X189015714Y-83932914D02*
X189063333Y-84123390D01*
X189063333Y-84123390D02*
X189063333Y-84266247D01*
X189063333Y-84266247D02*
X189015714Y-84456723D01*
X189015714Y-84456723D02*
X188968095Y-84551961D01*
X188968095Y-84551961D02*
X188872857Y-84647200D01*
X188872857Y-84647200D02*
X188730000Y-84694819D01*
X188730000Y-84694819D02*
X188491905Y-84694819D01*
X189444286Y-83790057D02*
X189491905Y-83742438D01*
X189491905Y-83742438D02*
X189587143Y-83694819D01*
X189587143Y-83694819D02*
X189825238Y-83694819D01*
X189825238Y-83694819D02*
X189920476Y-83742438D01*
X189920476Y-83742438D02*
X189968095Y-83790057D01*
X189968095Y-83790057D02*
X190015714Y-83885295D01*
X190015714Y-83885295D02*
X190015714Y-83980533D01*
X190015714Y-83980533D02*
X189968095Y-84123390D01*
X189968095Y-84123390D02*
X189396667Y-84694819D01*
X189396667Y-84694819D02*
X190015714Y-84694819D01*
X138438095Y-83814819D02*
X139009523Y-83814819D01*
X138723809Y-84814819D02*
X138723809Y-83814819D01*
X139342857Y-84814819D02*
X139342857Y-83814819D01*
X139342857Y-83814819D02*
X139723809Y-83814819D01*
X139723809Y-83814819D02*
X139819047Y-83862438D01*
X139819047Y-83862438D02*
X139866666Y-83910057D01*
X139866666Y-83910057D02*
X139914285Y-84005295D01*
X139914285Y-84005295D02*
X139914285Y-84148152D01*
X139914285Y-84148152D02*
X139866666Y-84243390D01*
X139866666Y-84243390D02*
X139819047Y-84291009D01*
X139819047Y-84291009D02*
X139723809Y-84338628D01*
X139723809Y-84338628D02*
X139342857Y-84338628D01*
X140247619Y-83814819D02*
X140914285Y-83814819D01*
X140914285Y-83814819D02*
X140485714Y-84814819D01*
X177838095Y-86354819D02*
X178409523Y-86354819D01*
X178123809Y-87354819D02*
X178123809Y-86354819D01*
X178742857Y-87354819D02*
X178742857Y-86354819D01*
X178742857Y-86354819D02*
X179123809Y-86354819D01*
X179123809Y-86354819D02*
X179219047Y-86402438D01*
X179219047Y-86402438D02*
X179266666Y-86450057D01*
X179266666Y-86450057D02*
X179314285Y-86545295D01*
X179314285Y-86545295D02*
X179314285Y-86688152D01*
X179314285Y-86688152D02*
X179266666Y-86783390D01*
X179266666Y-86783390D02*
X179219047Y-86831009D01*
X179219047Y-86831009D02*
X179123809Y-86878628D01*
X179123809Y-86878628D02*
X178742857Y-86878628D01*
X180171428Y-86354819D02*
X179980952Y-86354819D01*
X179980952Y-86354819D02*
X179885714Y-86402438D01*
X179885714Y-86402438D02*
X179838095Y-86450057D01*
X179838095Y-86450057D02*
X179742857Y-86592914D01*
X179742857Y-86592914D02*
X179695238Y-86783390D01*
X179695238Y-86783390D02*
X179695238Y-87164342D01*
X179695238Y-87164342D02*
X179742857Y-87259580D01*
X179742857Y-87259580D02*
X179790476Y-87307200D01*
X179790476Y-87307200D02*
X179885714Y-87354819D01*
X179885714Y-87354819D02*
X180076190Y-87354819D01*
X180076190Y-87354819D02*
X180171428Y-87307200D01*
X180171428Y-87307200D02*
X180219047Y-87259580D01*
X180219047Y-87259580D02*
X180266666Y-87164342D01*
X180266666Y-87164342D02*
X180266666Y-86926247D01*
X180266666Y-86926247D02*
X180219047Y-86831009D01*
X180219047Y-86831009D02*
X180171428Y-86783390D01*
X180171428Y-86783390D02*
X180076190Y-86735771D01*
X180076190Y-86735771D02*
X179885714Y-86735771D01*
X179885714Y-86735771D02*
X179790476Y-86783390D01*
X179790476Y-86783390D02*
X179742857Y-86831009D01*
X179742857Y-86831009D02*
X179695238Y-86926247D01*
X114888095Y-86354819D02*
X115459523Y-86354819D01*
X115173809Y-87354819D02*
X115173809Y-86354819D01*
X115792857Y-87354819D02*
X115792857Y-86354819D01*
X115792857Y-86354819D02*
X116173809Y-86354819D01*
X116173809Y-86354819D02*
X116269047Y-86402438D01*
X116269047Y-86402438D02*
X116316666Y-86450057D01*
X116316666Y-86450057D02*
X116364285Y-86545295D01*
X116364285Y-86545295D02*
X116364285Y-86688152D01*
X116364285Y-86688152D02*
X116316666Y-86783390D01*
X116316666Y-86783390D02*
X116269047Y-86831009D01*
X116269047Y-86831009D02*
X116173809Y-86878628D01*
X116173809Y-86878628D02*
X115792857Y-86878628D01*
X117269047Y-86354819D02*
X116792857Y-86354819D01*
X116792857Y-86354819D02*
X116745238Y-86831009D01*
X116745238Y-86831009D02*
X116792857Y-86783390D01*
X116792857Y-86783390D02*
X116888095Y-86735771D01*
X116888095Y-86735771D02*
X117126190Y-86735771D01*
X117126190Y-86735771D02*
X117221428Y-86783390D01*
X117221428Y-86783390D02*
X117269047Y-86831009D01*
X117269047Y-86831009D02*
X117316666Y-86926247D01*
X117316666Y-86926247D02*
X117316666Y-87164342D01*
X117316666Y-87164342D02*
X117269047Y-87259580D01*
X117269047Y-87259580D02*
X117221428Y-87307200D01*
X117221428Y-87307200D02*
X117126190Y-87354819D01*
X117126190Y-87354819D02*
X116888095Y-87354819D01*
X116888095Y-87354819D02*
X116792857Y-87307200D01*
X116792857Y-87307200D02*
X116745238Y-87259580D01*
X86338095Y-86354819D02*
X86909523Y-86354819D01*
X86623809Y-87354819D02*
X86623809Y-86354819D01*
X87242857Y-87354819D02*
X87242857Y-86354819D01*
X87242857Y-86354819D02*
X87623809Y-86354819D01*
X87623809Y-86354819D02*
X87719047Y-86402438D01*
X87719047Y-86402438D02*
X87766666Y-86450057D01*
X87766666Y-86450057D02*
X87814285Y-86545295D01*
X87814285Y-86545295D02*
X87814285Y-86688152D01*
X87814285Y-86688152D02*
X87766666Y-86783390D01*
X87766666Y-86783390D02*
X87719047Y-86831009D01*
X87719047Y-86831009D02*
X87623809Y-86878628D01*
X87623809Y-86878628D02*
X87242857Y-86878628D01*
X88671428Y-86688152D02*
X88671428Y-87354819D01*
X88433333Y-86307200D02*
X88195238Y-87021485D01*
X88195238Y-87021485D02*
X88814285Y-87021485D01*
X175298095Y-99054819D02*
X175869523Y-99054819D01*
X175583809Y-100054819D02*
X175583809Y-99054819D01*
X176202857Y-100054819D02*
X176202857Y-99054819D01*
X176202857Y-99054819D02*
X176583809Y-99054819D01*
X176583809Y-99054819D02*
X176679047Y-99102438D01*
X176679047Y-99102438D02*
X176726666Y-99150057D01*
X176726666Y-99150057D02*
X176774285Y-99245295D01*
X176774285Y-99245295D02*
X176774285Y-99388152D01*
X176774285Y-99388152D02*
X176726666Y-99483390D01*
X176726666Y-99483390D02*
X176679047Y-99531009D01*
X176679047Y-99531009D02*
X176583809Y-99578628D01*
X176583809Y-99578628D02*
X176202857Y-99578628D01*
X177107619Y-99054819D02*
X177726666Y-99054819D01*
X177726666Y-99054819D02*
X177393333Y-99435771D01*
X177393333Y-99435771D02*
X177536190Y-99435771D01*
X177536190Y-99435771D02*
X177631428Y-99483390D01*
X177631428Y-99483390D02*
X177679047Y-99531009D01*
X177679047Y-99531009D02*
X177726666Y-99626247D01*
X177726666Y-99626247D02*
X177726666Y-99864342D01*
X177726666Y-99864342D02*
X177679047Y-99959580D01*
X177679047Y-99959580D02*
X177631428Y-100007200D01*
X177631428Y-100007200D02*
X177536190Y-100054819D01*
X177536190Y-100054819D02*
X177250476Y-100054819D01*
X177250476Y-100054819D02*
X177155238Y-100007200D01*
X177155238Y-100007200D02*
X177107619Y-99959580D01*
X112348095Y-99054819D02*
X112919523Y-99054819D01*
X112633809Y-100054819D02*
X112633809Y-99054819D01*
X113252857Y-100054819D02*
X113252857Y-99054819D01*
X113252857Y-99054819D02*
X113633809Y-99054819D01*
X113633809Y-99054819D02*
X113729047Y-99102438D01*
X113729047Y-99102438D02*
X113776666Y-99150057D01*
X113776666Y-99150057D02*
X113824285Y-99245295D01*
X113824285Y-99245295D02*
X113824285Y-99388152D01*
X113824285Y-99388152D02*
X113776666Y-99483390D01*
X113776666Y-99483390D02*
X113729047Y-99531009D01*
X113729047Y-99531009D02*
X113633809Y-99578628D01*
X113633809Y-99578628D02*
X113252857Y-99578628D01*
X114205238Y-99150057D02*
X114252857Y-99102438D01*
X114252857Y-99102438D02*
X114348095Y-99054819D01*
X114348095Y-99054819D02*
X114586190Y-99054819D01*
X114586190Y-99054819D02*
X114681428Y-99102438D01*
X114681428Y-99102438D02*
X114729047Y-99150057D01*
X114729047Y-99150057D02*
X114776666Y-99245295D01*
X114776666Y-99245295D02*
X114776666Y-99340533D01*
X114776666Y-99340533D02*
X114729047Y-99483390D01*
X114729047Y-99483390D02*
X114157619Y-100054819D01*
X114157619Y-100054819D02*
X114776666Y-100054819D01*
X83798095Y-99054819D02*
X84369523Y-99054819D01*
X84083809Y-100054819D02*
X84083809Y-99054819D01*
X84702857Y-100054819D02*
X84702857Y-99054819D01*
X84702857Y-99054819D02*
X85083809Y-99054819D01*
X85083809Y-99054819D02*
X85179047Y-99102438D01*
X85179047Y-99102438D02*
X85226666Y-99150057D01*
X85226666Y-99150057D02*
X85274285Y-99245295D01*
X85274285Y-99245295D02*
X85274285Y-99388152D01*
X85274285Y-99388152D02*
X85226666Y-99483390D01*
X85226666Y-99483390D02*
X85179047Y-99531009D01*
X85179047Y-99531009D02*
X85083809Y-99578628D01*
X85083809Y-99578628D02*
X84702857Y-99578628D01*
X86226666Y-100054819D02*
X85655238Y-100054819D01*
X85940952Y-100054819D02*
X85940952Y-99054819D01*
X85940952Y-99054819D02*
X85845714Y-99197676D01*
X85845714Y-99197676D02*
X85750476Y-99292914D01*
X85750476Y-99292914D02*
X85655238Y-99340533D01*
X150802142Y-106084819D02*
X150468809Y-105608628D01*
X150230714Y-106084819D02*
X150230714Y-105084819D01*
X150230714Y-105084819D02*
X150611666Y-105084819D01*
X150611666Y-105084819D02*
X150706904Y-105132438D01*
X150706904Y-105132438D02*
X150754523Y-105180057D01*
X150754523Y-105180057D02*
X150802142Y-105275295D01*
X150802142Y-105275295D02*
X150802142Y-105418152D01*
X150802142Y-105418152D02*
X150754523Y-105513390D01*
X150754523Y-105513390D02*
X150706904Y-105561009D01*
X150706904Y-105561009D02*
X150611666Y-105608628D01*
X150611666Y-105608628D02*
X150230714Y-105608628D01*
X151183095Y-105180057D02*
X151230714Y-105132438D01*
X151230714Y-105132438D02*
X151325952Y-105084819D01*
X151325952Y-105084819D02*
X151564047Y-105084819D01*
X151564047Y-105084819D02*
X151659285Y-105132438D01*
X151659285Y-105132438D02*
X151706904Y-105180057D01*
X151706904Y-105180057D02*
X151754523Y-105275295D01*
X151754523Y-105275295D02*
X151754523Y-105370533D01*
X151754523Y-105370533D02*
X151706904Y-105513390D01*
X151706904Y-105513390D02*
X151135476Y-106084819D01*
X151135476Y-106084819D02*
X151754523Y-106084819D01*
X152135476Y-105180057D02*
X152183095Y-105132438D01*
X152183095Y-105132438D02*
X152278333Y-105084819D01*
X152278333Y-105084819D02*
X152516428Y-105084819D01*
X152516428Y-105084819D02*
X152611666Y-105132438D01*
X152611666Y-105132438D02*
X152659285Y-105180057D01*
X152659285Y-105180057D02*
X152706904Y-105275295D01*
X152706904Y-105275295D02*
X152706904Y-105370533D01*
X152706904Y-105370533D02*
X152659285Y-105513390D01*
X152659285Y-105513390D02*
X152087857Y-106084819D01*
X152087857Y-106084819D02*
X152706904Y-106084819D01*
X143182142Y-106084819D02*
X142848809Y-105608628D01*
X142610714Y-106084819D02*
X142610714Y-105084819D01*
X142610714Y-105084819D02*
X142991666Y-105084819D01*
X142991666Y-105084819D02*
X143086904Y-105132438D01*
X143086904Y-105132438D02*
X143134523Y-105180057D01*
X143134523Y-105180057D02*
X143182142Y-105275295D01*
X143182142Y-105275295D02*
X143182142Y-105418152D01*
X143182142Y-105418152D02*
X143134523Y-105513390D01*
X143134523Y-105513390D02*
X143086904Y-105561009D01*
X143086904Y-105561009D02*
X142991666Y-105608628D01*
X142991666Y-105608628D02*
X142610714Y-105608628D01*
X143563095Y-105180057D02*
X143610714Y-105132438D01*
X143610714Y-105132438D02*
X143705952Y-105084819D01*
X143705952Y-105084819D02*
X143944047Y-105084819D01*
X143944047Y-105084819D02*
X144039285Y-105132438D01*
X144039285Y-105132438D02*
X144086904Y-105180057D01*
X144086904Y-105180057D02*
X144134523Y-105275295D01*
X144134523Y-105275295D02*
X144134523Y-105370533D01*
X144134523Y-105370533D02*
X144086904Y-105513390D01*
X144086904Y-105513390D02*
X143515476Y-106084819D01*
X143515476Y-106084819D02*
X144134523Y-106084819D01*
X145086904Y-106084819D02*
X144515476Y-106084819D01*
X144801190Y-106084819D02*
X144801190Y-105084819D01*
X144801190Y-105084819D02*
X144705952Y-105227676D01*
X144705952Y-105227676D02*
X144610714Y-105322914D01*
X144610714Y-105322914D02*
X144515476Y-105370533D01*
X130482142Y-106084819D02*
X130148809Y-105608628D01*
X129910714Y-106084819D02*
X129910714Y-105084819D01*
X129910714Y-105084819D02*
X130291666Y-105084819D01*
X130291666Y-105084819D02*
X130386904Y-105132438D01*
X130386904Y-105132438D02*
X130434523Y-105180057D01*
X130434523Y-105180057D02*
X130482142Y-105275295D01*
X130482142Y-105275295D02*
X130482142Y-105418152D01*
X130482142Y-105418152D02*
X130434523Y-105513390D01*
X130434523Y-105513390D02*
X130386904Y-105561009D01*
X130386904Y-105561009D02*
X130291666Y-105608628D01*
X130291666Y-105608628D02*
X129910714Y-105608628D01*
X130863095Y-105180057D02*
X130910714Y-105132438D01*
X130910714Y-105132438D02*
X131005952Y-105084819D01*
X131005952Y-105084819D02*
X131244047Y-105084819D01*
X131244047Y-105084819D02*
X131339285Y-105132438D01*
X131339285Y-105132438D02*
X131386904Y-105180057D01*
X131386904Y-105180057D02*
X131434523Y-105275295D01*
X131434523Y-105275295D02*
X131434523Y-105370533D01*
X131434523Y-105370533D02*
X131386904Y-105513390D01*
X131386904Y-105513390D02*
X130815476Y-106084819D01*
X130815476Y-106084819D02*
X131434523Y-106084819D01*
X132053571Y-105084819D02*
X132148809Y-105084819D01*
X132148809Y-105084819D02*
X132244047Y-105132438D01*
X132244047Y-105132438D02*
X132291666Y-105180057D01*
X132291666Y-105180057D02*
X132339285Y-105275295D01*
X132339285Y-105275295D02*
X132386904Y-105465771D01*
X132386904Y-105465771D02*
X132386904Y-105703866D01*
X132386904Y-105703866D02*
X132339285Y-105894342D01*
X132339285Y-105894342D02*
X132291666Y-105989580D01*
X132291666Y-105989580D02*
X132244047Y-106037200D01*
X132244047Y-106037200D02*
X132148809Y-106084819D01*
X132148809Y-106084819D02*
X132053571Y-106084819D01*
X132053571Y-106084819D02*
X131958333Y-106037200D01*
X131958333Y-106037200D02*
X131910714Y-105989580D01*
X131910714Y-105989580D02*
X131863095Y-105894342D01*
X131863095Y-105894342D02*
X131815476Y-105703866D01*
X131815476Y-105703866D02*
X131815476Y-105465771D01*
X131815476Y-105465771D02*
X131863095Y-105275295D01*
X131863095Y-105275295D02*
X131910714Y-105180057D01*
X131910714Y-105180057D02*
X131958333Y-105132438D01*
X131958333Y-105132438D02*
X132053571Y-105084819D01*
X135562142Y-106084819D02*
X135228809Y-105608628D01*
X134990714Y-106084819D02*
X134990714Y-105084819D01*
X134990714Y-105084819D02*
X135371666Y-105084819D01*
X135371666Y-105084819D02*
X135466904Y-105132438D01*
X135466904Y-105132438D02*
X135514523Y-105180057D01*
X135514523Y-105180057D02*
X135562142Y-105275295D01*
X135562142Y-105275295D02*
X135562142Y-105418152D01*
X135562142Y-105418152D02*
X135514523Y-105513390D01*
X135514523Y-105513390D02*
X135466904Y-105561009D01*
X135466904Y-105561009D02*
X135371666Y-105608628D01*
X135371666Y-105608628D02*
X134990714Y-105608628D01*
X136514523Y-106084819D02*
X135943095Y-106084819D01*
X136228809Y-106084819D02*
X136228809Y-105084819D01*
X136228809Y-105084819D02*
X136133571Y-105227676D01*
X136133571Y-105227676D02*
X136038333Y-105322914D01*
X136038333Y-105322914D02*
X135943095Y-105370533D01*
X136990714Y-106084819D02*
X137181190Y-106084819D01*
X137181190Y-106084819D02*
X137276428Y-106037200D01*
X137276428Y-106037200D02*
X137324047Y-105989580D01*
X137324047Y-105989580D02*
X137419285Y-105846723D01*
X137419285Y-105846723D02*
X137466904Y-105656247D01*
X137466904Y-105656247D02*
X137466904Y-105275295D01*
X137466904Y-105275295D02*
X137419285Y-105180057D01*
X137419285Y-105180057D02*
X137371666Y-105132438D01*
X137371666Y-105132438D02*
X137276428Y-105084819D01*
X137276428Y-105084819D02*
X137085952Y-105084819D01*
X137085952Y-105084819D02*
X136990714Y-105132438D01*
X136990714Y-105132438D02*
X136943095Y-105180057D01*
X136943095Y-105180057D02*
X136895476Y-105275295D01*
X136895476Y-105275295D02*
X136895476Y-105513390D01*
X136895476Y-105513390D02*
X136943095Y-105608628D01*
X136943095Y-105608628D02*
X136990714Y-105656247D01*
X136990714Y-105656247D02*
X137085952Y-105703866D01*
X137085952Y-105703866D02*
X137276428Y-105703866D01*
X137276428Y-105703866D02*
X137371666Y-105656247D01*
X137371666Y-105656247D02*
X137419285Y-105608628D01*
X137419285Y-105608628D02*
X137466904Y-105513390D01*
X169857142Y-83224819D02*
X169523809Y-82748628D01*
X169285714Y-83224819D02*
X169285714Y-82224819D01*
X169285714Y-82224819D02*
X169666666Y-82224819D01*
X169666666Y-82224819D02*
X169761904Y-82272438D01*
X169761904Y-82272438D02*
X169809523Y-82320057D01*
X169809523Y-82320057D02*
X169857142Y-82415295D01*
X169857142Y-82415295D02*
X169857142Y-82558152D01*
X169857142Y-82558152D02*
X169809523Y-82653390D01*
X169809523Y-82653390D02*
X169761904Y-82701009D01*
X169761904Y-82701009D02*
X169666666Y-82748628D01*
X169666666Y-82748628D02*
X169285714Y-82748628D01*
X170809523Y-83224819D02*
X170238095Y-83224819D01*
X170523809Y-83224819D02*
X170523809Y-82224819D01*
X170523809Y-82224819D02*
X170428571Y-82367676D01*
X170428571Y-82367676D02*
X170333333Y-82462914D01*
X170333333Y-82462914D02*
X170238095Y-82510533D01*
X171142857Y-82224819D02*
X171809523Y-82224819D01*
X171809523Y-82224819D02*
X171380952Y-83224819D01*
X177477142Y-111164819D02*
X177143809Y-110688628D01*
X176905714Y-111164819D02*
X176905714Y-110164819D01*
X176905714Y-110164819D02*
X177286666Y-110164819D01*
X177286666Y-110164819D02*
X177381904Y-110212438D01*
X177381904Y-110212438D02*
X177429523Y-110260057D01*
X177429523Y-110260057D02*
X177477142Y-110355295D01*
X177477142Y-110355295D02*
X177477142Y-110498152D01*
X177477142Y-110498152D02*
X177429523Y-110593390D01*
X177429523Y-110593390D02*
X177381904Y-110641009D01*
X177381904Y-110641009D02*
X177286666Y-110688628D01*
X177286666Y-110688628D02*
X176905714Y-110688628D01*
X178429523Y-111164819D02*
X177858095Y-111164819D01*
X178143809Y-111164819D02*
X178143809Y-110164819D01*
X178143809Y-110164819D02*
X178048571Y-110307676D01*
X178048571Y-110307676D02*
X177953333Y-110402914D01*
X177953333Y-110402914D02*
X177858095Y-110450533D01*
X179286666Y-110164819D02*
X179096190Y-110164819D01*
X179096190Y-110164819D02*
X179000952Y-110212438D01*
X179000952Y-110212438D02*
X178953333Y-110260057D01*
X178953333Y-110260057D02*
X178858095Y-110402914D01*
X178858095Y-110402914D02*
X178810476Y-110593390D01*
X178810476Y-110593390D02*
X178810476Y-110974342D01*
X178810476Y-110974342D02*
X178858095Y-111069580D01*
X178858095Y-111069580D02*
X178905714Y-111117200D01*
X178905714Y-111117200D02*
X179000952Y-111164819D01*
X179000952Y-111164819D02*
X179191428Y-111164819D01*
X179191428Y-111164819D02*
X179286666Y-111117200D01*
X179286666Y-111117200D02*
X179334285Y-111069580D01*
X179334285Y-111069580D02*
X179381904Y-110974342D01*
X179381904Y-110974342D02*
X179381904Y-110736247D01*
X179381904Y-110736247D02*
X179334285Y-110641009D01*
X179334285Y-110641009D02*
X179286666Y-110593390D01*
X179286666Y-110593390D02*
X179191428Y-110545771D01*
X179191428Y-110545771D02*
X179000952Y-110545771D01*
X179000952Y-110545771D02*
X178905714Y-110593390D01*
X178905714Y-110593390D02*
X178858095Y-110641009D01*
X178858095Y-110641009D02*
X178810476Y-110736247D01*
X172397142Y-111164819D02*
X172063809Y-110688628D01*
X171825714Y-111164819D02*
X171825714Y-110164819D01*
X171825714Y-110164819D02*
X172206666Y-110164819D01*
X172206666Y-110164819D02*
X172301904Y-110212438D01*
X172301904Y-110212438D02*
X172349523Y-110260057D01*
X172349523Y-110260057D02*
X172397142Y-110355295D01*
X172397142Y-110355295D02*
X172397142Y-110498152D01*
X172397142Y-110498152D02*
X172349523Y-110593390D01*
X172349523Y-110593390D02*
X172301904Y-110641009D01*
X172301904Y-110641009D02*
X172206666Y-110688628D01*
X172206666Y-110688628D02*
X171825714Y-110688628D01*
X173349523Y-111164819D02*
X172778095Y-111164819D01*
X173063809Y-111164819D02*
X173063809Y-110164819D01*
X173063809Y-110164819D02*
X172968571Y-110307676D01*
X172968571Y-110307676D02*
X172873333Y-110402914D01*
X172873333Y-110402914D02*
X172778095Y-110450533D01*
X174254285Y-110164819D02*
X173778095Y-110164819D01*
X173778095Y-110164819D02*
X173730476Y-110641009D01*
X173730476Y-110641009D02*
X173778095Y-110593390D01*
X173778095Y-110593390D02*
X173873333Y-110545771D01*
X173873333Y-110545771D02*
X174111428Y-110545771D01*
X174111428Y-110545771D02*
X174206666Y-110593390D01*
X174206666Y-110593390D02*
X174254285Y-110641009D01*
X174254285Y-110641009D02*
X174301904Y-110736247D01*
X174301904Y-110736247D02*
X174301904Y-110974342D01*
X174301904Y-110974342D02*
X174254285Y-111069580D01*
X174254285Y-111069580D02*
X174206666Y-111117200D01*
X174206666Y-111117200D02*
X174111428Y-111164819D01*
X174111428Y-111164819D02*
X173873333Y-111164819D01*
X173873333Y-111164819D02*
X173778095Y-111117200D01*
X173778095Y-111117200D02*
X173730476Y-111069580D01*
X177477142Y-116244819D02*
X177143809Y-115768628D01*
X176905714Y-116244819D02*
X176905714Y-115244819D01*
X176905714Y-115244819D02*
X177286666Y-115244819D01*
X177286666Y-115244819D02*
X177381904Y-115292438D01*
X177381904Y-115292438D02*
X177429523Y-115340057D01*
X177429523Y-115340057D02*
X177477142Y-115435295D01*
X177477142Y-115435295D02*
X177477142Y-115578152D01*
X177477142Y-115578152D02*
X177429523Y-115673390D01*
X177429523Y-115673390D02*
X177381904Y-115721009D01*
X177381904Y-115721009D02*
X177286666Y-115768628D01*
X177286666Y-115768628D02*
X176905714Y-115768628D01*
X178429523Y-116244819D02*
X177858095Y-116244819D01*
X178143809Y-116244819D02*
X178143809Y-115244819D01*
X178143809Y-115244819D02*
X178048571Y-115387676D01*
X178048571Y-115387676D02*
X177953333Y-115482914D01*
X177953333Y-115482914D02*
X177858095Y-115530533D01*
X179286666Y-115578152D02*
X179286666Y-116244819D01*
X179048571Y-115197200D02*
X178810476Y-115911485D01*
X178810476Y-115911485D02*
X179429523Y-115911485D01*
X172397142Y-116244819D02*
X172063809Y-115768628D01*
X171825714Y-116244819D02*
X171825714Y-115244819D01*
X171825714Y-115244819D02*
X172206666Y-115244819D01*
X172206666Y-115244819D02*
X172301904Y-115292438D01*
X172301904Y-115292438D02*
X172349523Y-115340057D01*
X172349523Y-115340057D02*
X172397142Y-115435295D01*
X172397142Y-115435295D02*
X172397142Y-115578152D01*
X172397142Y-115578152D02*
X172349523Y-115673390D01*
X172349523Y-115673390D02*
X172301904Y-115721009D01*
X172301904Y-115721009D02*
X172206666Y-115768628D01*
X172206666Y-115768628D02*
X171825714Y-115768628D01*
X173349523Y-116244819D02*
X172778095Y-116244819D01*
X173063809Y-116244819D02*
X173063809Y-115244819D01*
X173063809Y-115244819D02*
X172968571Y-115387676D01*
X172968571Y-115387676D02*
X172873333Y-115482914D01*
X172873333Y-115482914D02*
X172778095Y-115530533D01*
X173682857Y-115244819D02*
X174301904Y-115244819D01*
X174301904Y-115244819D02*
X173968571Y-115625771D01*
X173968571Y-115625771D02*
X174111428Y-115625771D01*
X174111428Y-115625771D02*
X174206666Y-115673390D01*
X174206666Y-115673390D02*
X174254285Y-115721009D01*
X174254285Y-115721009D02*
X174301904Y-115816247D01*
X174301904Y-115816247D02*
X174301904Y-116054342D01*
X174301904Y-116054342D02*
X174254285Y-116149580D01*
X174254285Y-116149580D02*
X174206666Y-116197200D01*
X174206666Y-116197200D02*
X174111428Y-116244819D01*
X174111428Y-116244819D02*
X173825714Y-116244819D01*
X173825714Y-116244819D02*
X173730476Y-116197200D01*
X173730476Y-116197200D02*
X173682857Y-116149580D01*
X114002142Y-83224819D02*
X113668809Y-82748628D01*
X113430714Y-83224819D02*
X113430714Y-82224819D01*
X113430714Y-82224819D02*
X113811666Y-82224819D01*
X113811666Y-82224819D02*
X113906904Y-82272438D01*
X113906904Y-82272438D02*
X113954523Y-82320057D01*
X113954523Y-82320057D02*
X114002142Y-82415295D01*
X114002142Y-82415295D02*
X114002142Y-82558152D01*
X114002142Y-82558152D02*
X113954523Y-82653390D01*
X113954523Y-82653390D02*
X113906904Y-82701009D01*
X113906904Y-82701009D02*
X113811666Y-82748628D01*
X113811666Y-82748628D02*
X113430714Y-82748628D01*
X114954523Y-83224819D02*
X114383095Y-83224819D01*
X114668809Y-83224819D02*
X114668809Y-82224819D01*
X114668809Y-82224819D02*
X114573571Y-82367676D01*
X114573571Y-82367676D02*
X114478333Y-82462914D01*
X114478333Y-82462914D02*
X114383095Y-82510533D01*
X115906904Y-83224819D02*
X115335476Y-83224819D01*
X115621190Y-83224819D02*
X115621190Y-82224819D01*
X115621190Y-82224819D02*
X115525952Y-82367676D01*
X115525952Y-82367676D02*
X115430714Y-82462914D01*
X115430714Y-82462914D02*
X115335476Y-82510533D01*
X116427142Y-111164819D02*
X116093809Y-110688628D01*
X115855714Y-111164819D02*
X115855714Y-110164819D01*
X115855714Y-110164819D02*
X116236666Y-110164819D01*
X116236666Y-110164819D02*
X116331904Y-110212438D01*
X116331904Y-110212438D02*
X116379523Y-110260057D01*
X116379523Y-110260057D02*
X116427142Y-110355295D01*
X116427142Y-110355295D02*
X116427142Y-110498152D01*
X116427142Y-110498152D02*
X116379523Y-110593390D01*
X116379523Y-110593390D02*
X116331904Y-110641009D01*
X116331904Y-110641009D02*
X116236666Y-110688628D01*
X116236666Y-110688628D02*
X115855714Y-110688628D01*
X117379523Y-111164819D02*
X116808095Y-111164819D01*
X117093809Y-111164819D02*
X117093809Y-110164819D01*
X117093809Y-110164819D02*
X116998571Y-110307676D01*
X116998571Y-110307676D02*
X116903333Y-110402914D01*
X116903333Y-110402914D02*
X116808095Y-110450533D01*
X117998571Y-110164819D02*
X118093809Y-110164819D01*
X118093809Y-110164819D02*
X118189047Y-110212438D01*
X118189047Y-110212438D02*
X118236666Y-110260057D01*
X118236666Y-110260057D02*
X118284285Y-110355295D01*
X118284285Y-110355295D02*
X118331904Y-110545771D01*
X118331904Y-110545771D02*
X118331904Y-110783866D01*
X118331904Y-110783866D02*
X118284285Y-110974342D01*
X118284285Y-110974342D02*
X118236666Y-111069580D01*
X118236666Y-111069580D02*
X118189047Y-111117200D01*
X118189047Y-111117200D02*
X118093809Y-111164819D01*
X118093809Y-111164819D02*
X117998571Y-111164819D01*
X117998571Y-111164819D02*
X117903333Y-111117200D01*
X117903333Y-111117200D02*
X117855714Y-111069580D01*
X117855714Y-111069580D02*
X117808095Y-110974342D01*
X117808095Y-110974342D02*
X117760476Y-110783866D01*
X117760476Y-110783866D02*
X117760476Y-110545771D01*
X117760476Y-110545771D02*
X117808095Y-110355295D01*
X117808095Y-110355295D02*
X117855714Y-110260057D01*
X117855714Y-110260057D02*
X117903333Y-110212438D01*
X117903333Y-110212438D02*
X117998571Y-110164819D01*
X112488333Y-111164819D02*
X112155000Y-110688628D01*
X111916905Y-111164819D02*
X111916905Y-110164819D01*
X111916905Y-110164819D02*
X112297857Y-110164819D01*
X112297857Y-110164819D02*
X112393095Y-110212438D01*
X112393095Y-110212438D02*
X112440714Y-110260057D01*
X112440714Y-110260057D02*
X112488333Y-110355295D01*
X112488333Y-110355295D02*
X112488333Y-110498152D01*
X112488333Y-110498152D02*
X112440714Y-110593390D01*
X112440714Y-110593390D02*
X112393095Y-110641009D01*
X112393095Y-110641009D02*
X112297857Y-110688628D01*
X112297857Y-110688628D02*
X111916905Y-110688628D01*
X112964524Y-111164819D02*
X113155000Y-111164819D01*
X113155000Y-111164819D02*
X113250238Y-111117200D01*
X113250238Y-111117200D02*
X113297857Y-111069580D01*
X113297857Y-111069580D02*
X113393095Y-110926723D01*
X113393095Y-110926723D02*
X113440714Y-110736247D01*
X113440714Y-110736247D02*
X113440714Y-110355295D01*
X113440714Y-110355295D02*
X113393095Y-110260057D01*
X113393095Y-110260057D02*
X113345476Y-110212438D01*
X113345476Y-110212438D02*
X113250238Y-110164819D01*
X113250238Y-110164819D02*
X113059762Y-110164819D01*
X113059762Y-110164819D02*
X112964524Y-110212438D01*
X112964524Y-110212438D02*
X112916905Y-110260057D01*
X112916905Y-110260057D02*
X112869286Y-110355295D01*
X112869286Y-110355295D02*
X112869286Y-110593390D01*
X112869286Y-110593390D02*
X112916905Y-110688628D01*
X112916905Y-110688628D02*
X112964524Y-110736247D01*
X112964524Y-110736247D02*
X113059762Y-110783866D01*
X113059762Y-110783866D02*
X113250238Y-110783866D01*
X113250238Y-110783866D02*
X113345476Y-110736247D01*
X113345476Y-110736247D02*
X113393095Y-110688628D01*
X113393095Y-110688628D02*
X113440714Y-110593390D01*
X117568333Y-116244819D02*
X117235000Y-115768628D01*
X116996905Y-116244819D02*
X116996905Y-115244819D01*
X116996905Y-115244819D02*
X117377857Y-115244819D01*
X117377857Y-115244819D02*
X117473095Y-115292438D01*
X117473095Y-115292438D02*
X117520714Y-115340057D01*
X117520714Y-115340057D02*
X117568333Y-115435295D01*
X117568333Y-115435295D02*
X117568333Y-115578152D01*
X117568333Y-115578152D02*
X117520714Y-115673390D01*
X117520714Y-115673390D02*
X117473095Y-115721009D01*
X117473095Y-115721009D02*
X117377857Y-115768628D01*
X117377857Y-115768628D02*
X116996905Y-115768628D01*
X118139762Y-115673390D02*
X118044524Y-115625771D01*
X118044524Y-115625771D02*
X117996905Y-115578152D01*
X117996905Y-115578152D02*
X117949286Y-115482914D01*
X117949286Y-115482914D02*
X117949286Y-115435295D01*
X117949286Y-115435295D02*
X117996905Y-115340057D01*
X117996905Y-115340057D02*
X118044524Y-115292438D01*
X118044524Y-115292438D02*
X118139762Y-115244819D01*
X118139762Y-115244819D02*
X118330238Y-115244819D01*
X118330238Y-115244819D02*
X118425476Y-115292438D01*
X118425476Y-115292438D02*
X118473095Y-115340057D01*
X118473095Y-115340057D02*
X118520714Y-115435295D01*
X118520714Y-115435295D02*
X118520714Y-115482914D01*
X118520714Y-115482914D02*
X118473095Y-115578152D01*
X118473095Y-115578152D02*
X118425476Y-115625771D01*
X118425476Y-115625771D02*
X118330238Y-115673390D01*
X118330238Y-115673390D02*
X118139762Y-115673390D01*
X118139762Y-115673390D02*
X118044524Y-115721009D01*
X118044524Y-115721009D02*
X117996905Y-115768628D01*
X117996905Y-115768628D02*
X117949286Y-115863866D01*
X117949286Y-115863866D02*
X117949286Y-116054342D01*
X117949286Y-116054342D02*
X117996905Y-116149580D01*
X117996905Y-116149580D02*
X118044524Y-116197200D01*
X118044524Y-116197200D02*
X118139762Y-116244819D01*
X118139762Y-116244819D02*
X118330238Y-116244819D01*
X118330238Y-116244819D02*
X118425476Y-116197200D01*
X118425476Y-116197200D02*
X118473095Y-116149580D01*
X118473095Y-116149580D02*
X118520714Y-116054342D01*
X118520714Y-116054342D02*
X118520714Y-115863866D01*
X118520714Y-115863866D02*
X118473095Y-115768628D01*
X118473095Y-115768628D02*
X118425476Y-115721009D01*
X118425476Y-115721009D02*
X118330238Y-115673390D01*
X111848333Y-116244819D02*
X111515000Y-115768628D01*
X111276905Y-116244819D02*
X111276905Y-115244819D01*
X111276905Y-115244819D02*
X111657857Y-115244819D01*
X111657857Y-115244819D02*
X111753095Y-115292438D01*
X111753095Y-115292438D02*
X111800714Y-115340057D01*
X111800714Y-115340057D02*
X111848333Y-115435295D01*
X111848333Y-115435295D02*
X111848333Y-115578152D01*
X111848333Y-115578152D02*
X111800714Y-115673390D01*
X111800714Y-115673390D02*
X111753095Y-115721009D01*
X111753095Y-115721009D02*
X111657857Y-115768628D01*
X111657857Y-115768628D02*
X111276905Y-115768628D01*
X112181667Y-115244819D02*
X112848333Y-115244819D01*
X112848333Y-115244819D02*
X112419762Y-116244819D01*
X89018333Y-113264819D02*
X88685000Y-112788628D01*
X88446905Y-113264819D02*
X88446905Y-112264819D01*
X88446905Y-112264819D02*
X88827857Y-112264819D01*
X88827857Y-112264819D02*
X88923095Y-112312438D01*
X88923095Y-112312438D02*
X88970714Y-112360057D01*
X88970714Y-112360057D02*
X89018333Y-112455295D01*
X89018333Y-112455295D02*
X89018333Y-112598152D01*
X89018333Y-112598152D02*
X88970714Y-112693390D01*
X88970714Y-112693390D02*
X88923095Y-112741009D01*
X88923095Y-112741009D02*
X88827857Y-112788628D01*
X88827857Y-112788628D02*
X88446905Y-112788628D01*
X89875476Y-112264819D02*
X89685000Y-112264819D01*
X89685000Y-112264819D02*
X89589762Y-112312438D01*
X89589762Y-112312438D02*
X89542143Y-112360057D01*
X89542143Y-112360057D02*
X89446905Y-112502914D01*
X89446905Y-112502914D02*
X89399286Y-112693390D01*
X89399286Y-112693390D02*
X89399286Y-113074342D01*
X89399286Y-113074342D02*
X89446905Y-113169580D01*
X89446905Y-113169580D02*
X89494524Y-113217200D01*
X89494524Y-113217200D02*
X89589762Y-113264819D01*
X89589762Y-113264819D02*
X89780238Y-113264819D01*
X89780238Y-113264819D02*
X89875476Y-113217200D01*
X89875476Y-113217200D02*
X89923095Y-113169580D01*
X89923095Y-113169580D02*
X89970714Y-113074342D01*
X89970714Y-113074342D02*
X89970714Y-112836247D01*
X89970714Y-112836247D02*
X89923095Y-112741009D01*
X89923095Y-112741009D02*
X89875476Y-112693390D01*
X89875476Y-112693390D02*
X89780238Y-112645771D01*
X89780238Y-112645771D02*
X89589762Y-112645771D01*
X89589762Y-112645771D02*
X89494524Y-112693390D01*
X89494524Y-112693390D02*
X89446905Y-112741009D01*
X89446905Y-112741009D02*
X89399286Y-112836247D01*
X89018333Y-116244819D02*
X88685000Y-115768628D01*
X88446905Y-116244819D02*
X88446905Y-115244819D01*
X88446905Y-115244819D02*
X88827857Y-115244819D01*
X88827857Y-115244819D02*
X88923095Y-115292438D01*
X88923095Y-115292438D02*
X88970714Y-115340057D01*
X88970714Y-115340057D02*
X89018333Y-115435295D01*
X89018333Y-115435295D02*
X89018333Y-115578152D01*
X89018333Y-115578152D02*
X88970714Y-115673390D01*
X88970714Y-115673390D02*
X88923095Y-115721009D01*
X88923095Y-115721009D02*
X88827857Y-115768628D01*
X88827857Y-115768628D02*
X88446905Y-115768628D01*
X89923095Y-115244819D02*
X89446905Y-115244819D01*
X89446905Y-115244819D02*
X89399286Y-115721009D01*
X89399286Y-115721009D02*
X89446905Y-115673390D01*
X89446905Y-115673390D02*
X89542143Y-115625771D01*
X89542143Y-115625771D02*
X89780238Y-115625771D01*
X89780238Y-115625771D02*
X89875476Y-115673390D01*
X89875476Y-115673390D02*
X89923095Y-115721009D01*
X89923095Y-115721009D02*
X89970714Y-115816247D01*
X89970714Y-115816247D02*
X89970714Y-116054342D01*
X89970714Y-116054342D02*
X89923095Y-116149580D01*
X89923095Y-116149580D02*
X89875476Y-116197200D01*
X89875476Y-116197200D02*
X89780238Y-116244819D01*
X89780238Y-116244819D02*
X89542143Y-116244819D01*
X89542143Y-116244819D02*
X89446905Y-116197200D01*
X89446905Y-116197200D02*
X89399286Y-116149580D01*
X83938333Y-111164819D02*
X83605000Y-110688628D01*
X83366905Y-111164819D02*
X83366905Y-110164819D01*
X83366905Y-110164819D02*
X83747857Y-110164819D01*
X83747857Y-110164819D02*
X83843095Y-110212438D01*
X83843095Y-110212438D02*
X83890714Y-110260057D01*
X83890714Y-110260057D02*
X83938333Y-110355295D01*
X83938333Y-110355295D02*
X83938333Y-110498152D01*
X83938333Y-110498152D02*
X83890714Y-110593390D01*
X83890714Y-110593390D02*
X83843095Y-110641009D01*
X83843095Y-110641009D02*
X83747857Y-110688628D01*
X83747857Y-110688628D02*
X83366905Y-110688628D01*
X84795476Y-110498152D02*
X84795476Y-111164819D01*
X84557381Y-110117200D02*
X84319286Y-110831485D01*
X84319286Y-110831485D02*
X84938333Y-110831485D01*
X83938333Y-118344819D02*
X83605000Y-117868628D01*
X83366905Y-118344819D02*
X83366905Y-117344819D01*
X83366905Y-117344819D02*
X83747857Y-117344819D01*
X83747857Y-117344819D02*
X83843095Y-117392438D01*
X83843095Y-117392438D02*
X83890714Y-117440057D01*
X83890714Y-117440057D02*
X83938333Y-117535295D01*
X83938333Y-117535295D02*
X83938333Y-117678152D01*
X83938333Y-117678152D02*
X83890714Y-117773390D01*
X83890714Y-117773390D02*
X83843095Y-117821009D01*
X83843095Y-117821009D02*
X83747857Y-117868628D01*
X83747857Y-117868628D02*
X83366905Y-117868628D01*
X84271667Y-117344819D02*
X84890714Y-117344819D01*
X84890714Y-117344819D02*
X84557381Y-117725771D01*
X84557381Y-117725771D02*
X84700238Y-117725771D01*
X84700238Y-117725771D02*
X84795476Y-117773390D01*
X84795476Y-117773390D02*
X84843095Y-117821009D01*
X84843095Y-117821009D02*
X84890714Y-117916247D01*
X84890714Y-117916247D02*
X84890714Y-118154342D01*
X84890714Y-118154342D02*
X84843095Y-118249580D01*
X84843095Y-118249580D02*
X84795476Y-118297200D01*
X84795476Y-118297200D02*
X84700238Y-118344819D01*
X84700238Y-118344819D02*
X84414524Y-118344819D01*
X84414524Y-118344819D02*
X84319286Y-118297200D01*
X84319286Y-118297200D02*
X84271667Y-118249580D01*
X88388333Y-83224819D02*
X88055000Y-82748628D01*
X87816905Y-83224819D02*
X87816905Y-82224819D01*
X87816905Y-82224819D02*
X88197857Y-82224819D01*
X88197857Y-82224819D02*
X88293095Y-82272438D01*
X88293095Y-82272438D02*
X88340714Y-82320057D01*
X88340714Y-82320057D02*
X88388333Y-82415295D01*
X88388333Y-82415295D02*
X88388333Y-82558152D01*
X88388333Y-82558152D02*
X88340714Y-82653390D01*
X88340714Y-82653390D02*
X88293095Y-82701009D01*
X88293095Y-82701009D02*
X88197857Y-82748628D01*
X88197857Y-82748628D02*
X87816905Y-82748628D01*
X89340714Y-83224819D02*
X88769286Y-83224819D01*
X89055000Y-83224819D02*
X89055000Y-82224819D01*
X89055000Y-82224819D02*
X88959762Y-82367676D01*
X88959762Y-82367676D02*
X88864524Y-82462914D01*
X88864524Y-82462914D02*
X88769286Y-82510533D01*
X176434761Y-93510057D02*
X176339523Y-93462438D01*
X176339523Y-93462438D02*
X176244285Y-93367200D01*
X176244285Y-93367200D02*
X176101428Y-93224342D01*
X176101428Y-93224342D02*
X176006190Y-93176723D01*
X176006190Y-93176723D02*
X175910952Y-93176723D01*
X175958571Y-93414819D02*
X175863333Y-93367200D01*
X175863333Y-93367200D02*
X175768095Y-93271961D01*
X175768095Y-93271961D02*
X175720476Y-93081485D01*
X175720476Y-93081485D02*
X175720476Y-92748152D01*
X175720476Y-92748152D02*
X175768095Y-92557676D01*
X175768095Y-92557676D02*
X175863333Y-92462438D01*
X175863333Y-92462438D02*
X175958571Y-92414819D01*
X175958571Y-92414819D02*
X176149047Y-92414819D01*
X176149047Y-92414819D02*
X176244285Y-92462438D01*
X176244285Y-92462438D02*
X176339523Y-92557676D01*
X176339523Y-92557676D02*
X176387142Y-92748152D01*
X176387142Y-92748152D02*
X176387142Y-93081485D01*
X176387142Y-93081485D02*
X176339523Y-93271961D01*
X176339523Y-93271961D02*
X176244285Y-93367200D01*
X176244285Y-93367200D02*
X176149047Y-93414819D01*
X176149047Y-93414819D02*
X175958571Y-93414819D01*
X176720476Y-92414819D02*
X177339523Y-92414819D01*
X177339523Y-92414819D02*
X177006190Y-92795771D01*
X177006190Y-92795771D02*
X177149047Y-92795771D01*
X177149047Y-92795771D02*
X177244285Y-92843390D01*
X177244285Y-92843390D02*
X177291904Y-92891009D01*
X177291904Y-92891009D02*
X177339523Y-92986247D01*
X177339523Y-92986247D02*
X177339523Y-93224342D01*
X177339523Y-93224342D02*
X177291904Y-93319580D01*
X177291904Y-93319580D02*
X177244285Y-93367200D01*
X177244285Y-93367200D02*
X177149047Y-93414819D01*
X177149047Y-93414819D02*
X176863333Y-93414819D01*
X176863333Y-93414819D02*
X176768095Y-93367200D01*
X176768095Y-93367200D02*
X176720476Y-93319580D01*
X84934761Y-93510057D02*
X84839523Y-93462438D01*
X84839523Y-93462438D02*
X84744285Y-93367200D01*
X84744285Y-93367200D02*
X84601428Y-93224342D01*
X84601428Y-93224342D02*
X84506190Y-93176723D01*
X84506190Y-93176723D02*
X84410952Y-93176723D01*
X84458571Y-93414819D02*
X84363333Y-93367200D01*
X84363333Y-93367200D02*
X84268095Y-93271961D01*
X84268095Y-93271961D02*
X84220476Y-93081485D01*
X84220476Y-93081485D02*
X84220476Y-92748152D01*
X84220476Y-92748152D02*
X84268095Y-92557676D01*
X84268095Y-92557676D02*
X84363333Y-92462438D01*
X84363333Y-92462438D02*
X84458571Y-92414819D01*
X84458571Y-92414819D02*
X84649047Y-92414819D01*
X84649047Y-92414819D02*
X84744285Y-92462438D01*
X84744285Y-92462438D02*
X84839523Y-92557676D01*
X84839523Y-92557676D02*
X84887142Y-92748152D01*
X84887142Y-92748152D02*
X84887142Y-93081485D01*
X84887142Y-93081485D02*
X84839523Y-93271961D01*
X84839523Y-93271961D02*
X84744285Y-93367200D01*
X84744285Y-93367200D02*
X84649047Y-93414819D01*
X84649047Y-93414819D02*
X84458571Y-93414819D01*
X85268095Y-92510057D02*
X85315714Y-92462438D01*
X85315714Y-92462438D02*
X85410952Y-92414819D01*
X85410952Y-92414819D02*
X85649047Y-92414819D01*
X85649047Y-92414819D02*
X85744285Y-92462438D01*
X85744285Y-92462438D02*
X85791904Y-92510057D01*
X85791904Y-92510057D02*
X85839523Y-92605295D01*
X85839523Y-92605295D02*
X85839523Y-92700533D01*
X85839523Y-92700533D02*
X85791904Y-92843390D01*
X85791904Y-92843390D02*
X85220476Y-93414819D01*
X85220476Y-93414819D02*
X85839523Y-93414819D01*
X113484761Y-93510057D02*
X113389523Y-93462438D01*
X113389523Y-93462438D02*
X113294285Y-93367200D01*
X113294285Y-93367200D02*
X113151428Y-93224342D01*
X113151428Y-93224342D02*
X113056190Y-93176723D01*
X113056190Y-93176723D02*
X112960952Y-93176723D01*
X113008571Y-93414819D02*
X112913333Y-93367200D01*
X112913333Y-93367200D02*
X112818095Y-93271961D01*
X112818095Y-93271961D02*
X112770476Y-93081485D01*
X112770476Y-93081485D02*
X112770476Y-92748152D01*
X112770476Y-92748152D02*
X112818095Y-92557676D01*
X112818095Y-92557676D02*
X112913333Y-92462438D01*
X112913333Y-92462438D02*
X113008571Y-92414819D01*
X113008571Y-92414819D02*
X113199047Y-92414819D01*
X113199047Y-92414819D02*
X113294285Y-92462438D01*
X113294285Y-92462438D02*
X113389523Y-92557676D01*
X113389523Y-92557676D02*
X113437142Y-92748152D01*
X113437142Y-92748152D02*
X113437142Y-93081485D01*
X113437142Y-93081485D02*
X113389523Y-93271961D01*
X113389523Y-93271961D02*
X113294285Y-93367200D01*
X113294285Y-93367200D02*
X113199047Y-93414819D01*
X113199047Y-93414819D02*
X113008571Y-93414819D01*
X114389523Y-93414819D02*
X113818095Y-93414819D01*
X114103809Y-93414819D02*
X114103809Y-92414819D01*
X114103809Y-92414819D02*
X114008571Y-92557676D01*
X114008571Y-92557676D02*
X113913333Y-92652914D01*
X113913333Y-92652914D02*
X113818095Y-92700533D01*
X135200476Y-96714819D02*
X135200476Y-97429104D01*
X135200476Y-97429104D02*
X135152857Y-97571961D01*
X135152857Y-97571961D02*
X135057619Y-97667200D01*
X135057619Y-97667200D02*
X134914762Y-97714819D01*
X134914762Y-97714819D02*
X134819524Y-97714819D01*
X135676667Y-97714819D02*
X135676667Y-96714819D01*
X135676667Y-96714819D02*
X136057619Y-96714819D01*
X136057619Y-96714819D02*
X136152857Y-96762438D01*
X136152857Y-96762438D02*
X136200476Y-96810057D01*
X136200476Y-96810057D02*
X136248095Y-96905295D01*
X136248095Y-96905295D02*
X136248095Y-97048152D01*
X136248095Y-97048152D02*
X136200476Y-97143390D01*
X136200476Y-97143390D02*
X136152857Y-97191009D01*
X136152857Y-97191009D02*
X136057619Y-97238628D01*
X136057619Y-97238628D02*
X135676667Y-97238628D01*
X137200476Y-97714819D02*
X136629048Y-97714819D01*
X136914762Y-97714819D02*
X136914762Y-96714819D01*
X136914762Y-96714819D02*
X136819524Y-96857676D01*
X136819524Y-96857676D02*
X136724286Y-96952914D01*
X136724286Y-96952914D02*
X136629048Y-97000533D01*
X137533810Y-96714819D02*
X138200476Y-96714819D01*
X138200476Y-96714819D02*
X137771905Y-97714819D01*
X127580476Y-96714819D02*
X127580476Y-97429104D01*
X127580476Y-97429104D02*
X127532857Y-97571961D01*
X127532857Y-97571961D02*
X127437619Y-97667200D01*
X127437619Y-97667200D02*
X127294762Y-97714819D01*
X127294762Y-97714819D02*
X127199524Y-97714819D01*
X128056667Y-97714819D02*
X128056667Y-96714819D01*
X128056667Y-96714819D02*
X128437619Y-96714819D01*
X128437619Y-96714819D02*
X128532857Y-96762438D01*
X128532857Y-96762438D02*
X128580476Y-96810057D01*
X128580476Y-96810057D02*
X128628095Y-96905295D01*
X128628095Y-96905295D02*
X128628095Y-97048152D01*
X128628095Y-97048152D02*
X128580476Y-97143390D01*
X128580476Y-97143390D02*
X128532857Y-97191009D01*
X128532857Y-97191009D02*
X128437619Y-97238628D01*
X128437619Y-97238628D02*
X128056667Y-97238628D01*
X129580476Y-97714819D02*
X129009048Y-97714819D01*
X129294762Y-97714819D02*
X129294762Y-96714819D01*
X129294762Y-96714819D02*
X129199524Y-96857676D01*
X129199524Y-96857676D02*
X129104286Y-96952914D01*
X129104286Y-96952914D02*
X129009048Y-97000533D01*
X130437619Y-96714819D02*
X130247143Y-96714819D01*
X130247143Y-96714819D02*
X130151905Y-96762438D01*
X130151905Y-96762438D02*
X130104286Y-96810057D01*
X130104286Y-96810057D02*
X130009048Y-96952914D01*
X130009048Y-96952914D02*
X129961429Y-97143390D01*
X129961429Y-97143390D02*
X129961429Y-97524342D01*
X129961429Y-97524342D02*
X130009048Y-97619580D01*
X130009048Y-97619580D02*
X130056667Y-97667200D01*
X130056667Y-97667200D02*
X130151905Y-97714819D01*
X130151905Y-97714819D02*
X130342381Y-97714819D01*
X130342381Y-97714819D02*
X130437619Y-97667200D01*
X130437619Y-97667200D02*
X130485238Y-97619580D01*
X130485238Y-97619580D02*
X130532857Y-97524342D01*
X130532857Y-97524342D02*
X130532857Y-97286247D01*
X130532857Y-97286247D02*
X130485238Y-97191009D01*
X130485238Y-97191009D02*
X130437619Y-97143390D01*
X130437619Y-97143390D02*
X130342381Y-97095771D01*
X130342381Y-97095771D02*
X130151905Y-97095771D01*
X130151905Y-97095771D02*
X130056667Y-97143390D01*
X130056667Y-97143390D02*
X130009048Y-97191009D01*
X130009048Y-97191009D02*
X129961429Y-97286247D01*
X150440476Y-96714819D02*
X150440476Y-97429104D01*
X150440476Y-97429104D02*
X150392857Y-97571961D01*
X150392857Y-97571961D02*
X150297619Y-97667200D01*
X150297619Y-97667200D02*
X150154762Y-97714819D01*
X150154762Y-97714819D02*
X150059524Y-97714819D01*
X150916667Y-97714819D02*
X150916667Y-96714819D01*
X150916667Y-96714819D02*
X151297619Y-96714819D01*
X151297619Y-96714819D02*
X151392857Y-96762438D01*
X151392857Y-96762438D02*
X151440476Y-96810057D01*
X151440476Y-96810057D02*
X151488095Y-96905295D01*
X151488095Y-96905295D02*
X151488095Y-97048152D01*
X151488095Y-97048152D02*
X151440476Y-97143390D01*
X151440476Y-97143390D02*
X151392857Y-97191009D01*
X151392857Y-97191009D02*
X151297619Y-97238628D01*
X151297619Y-97238628D02*
X150916667Y-97238628D01*
X152440476Y-97714819D02*
X151869048Y-97714819D01*
X152154762Y-97714819D02*
X152154762Y-96714819D01*
X152154762Y-96714819D02*
X152059524Y-96857676D01*
X152059524Y-96857676D02*
X151964286Y-96952914D01*
X151964286Y-96952914D02*
X151869048Y-97000533D01*
X153297619Y-97048152D02*
X153297619Y-97714819D01*
X153059524Y-96667200D02*
X152821429Y-97381485D01*
X152821429Y-97381485D02*
X153440476Y-97381485D01*
X142820476Y-96714819D02*
X142820476Y-97429104D01*
X142820476Y-97429104D02*
X142772857Y-97571961D01*
X142772857Y-97571961D02*
X142677619Y-97667200D01*
X142677619Y-97667200D02*
X142534762Y-97714819D01*
X142534762Y-97714819D02*
X142439524Y-97714819D01*
X143296667Y-97714819D02*
X143296667Y-96714819D01*
X143296667Y-96714819D02*
X143677619Y-96714819D01*
X143677619Y-96714819D02*
X143772857Y-96762438D01*
X143772857Y-96762438D02*
X143820476Y-96810057D01*
X143820476Y-96810057D02*
X143868095Y-96905295D01*
X143868095Y-96905295D02*
X143868095Y-97048152D01*
X143868095Y-97048152D02*
X143820476Y-97143390D01*
X143820476Y-97143390D02*
X143772857Y-97191009D01*
X143772857Y-97191009D02*
X143677619Y-97238628D01*
X143677619Y-97238628D02*
X143296667Y-97238628D01*
X144820476Y-97714819D02*
X144249048Y-97714819D01*
X144534762Y-97714819D02*
X144534762Y-96714819D01*
X144534762Y-96714819D02*
X144439524Y-96857676D01*
X144439524Y-96857676D02*
X144344286Y-96952914D01*
X144344286Y-96952914D02*
X144249048Y-97000533D01*
X145153810Y-96714819D02*
X145772857Y-96714819D01*
X145772857Y-96714819D02*
X145439524Y-97095771D01*
X145439524Y-97095771D02*
X145582381Y-97095771D01*
X145582381Y-97095771D02*
X145677619Y-97143390D01*
X145677619Y-97143390D02*
X145725238Y-97191009D01*
X145725238Y-97191009D02*
X145772857Y-97286247D01*
X145772857Y-97286247D02*
X145772857Y-97524342D01*
X145772857Y-97524342D02*
X145725238Y-97619580D01*
X145725238Y-97619580D02*
X145677619Y-97667200D01*
X145677619Y-97667200D02*
X145582381Y-97714819D01*
X145582381Y-97714819D02*
X145296667Y-97714819D01*
X145296667Y-97714819D02*
X145201429Y-97667200D01*
X145201429Y-97667200D02*
X145153810Y-97619580D01*
X178380476Y-104334819D02*
X178380476Y-105049104D01*
X178380476Y-105049104D02*
X178332857Y-105191961D01*
X178332857Y-105191961D02*
X178237619Y-105287200D01*
X178237619Y-105287200D02*
X178094762Y-105334819D01*
X178094762Y-105334819D02*
X177999524Y-105334819D01*
X178856667Y-105334819D02*
X178856667Y-104334819D01*
X178856667Y-104334819D02*
X179237619Y-104334819D01*
X179237619Y-104334819D02*
X179332857Y-104382438D01*
X179332857Y-104382438D02*
X179380476Y-104430057D01*
X179380476Y-104430057D02*
X179428095Y-104525295D01*
X179428095Y-104525295D02*
X179428095Y-104668152D01*
X179428095Y-104668152D02*
X179380476Y-104763390D01*
X179380476Y-104763390D02*
X179332857Y-104811009D01*
X179332857Y-104811009D02*
X179237619Y-104858628D01*
X179237619Y-104858628D02*
X178856667Y-104858628D01*
X180380476Y-105334819D02*
X179809048Y-105334819D01*
X180094762Y-105334819D02*
X180094762Y-104334819D01*
X180094762Y-104334819D02*
X179999524Y-104477676D01*
X179999524Y-104477676D02*
X179904286Y-104572914D01*
X179904286Y-104572914D02*
X179809048Y-104620533D01*
X180761429Y-104430057D02*
X180809048Y-104382438D01*
X180809048Y-104382438D02*
X180904286Y-104334819D01*
X180904286Y-104334819D02*
X181142381Y-104334819D01*
X181142381Y-104334819D02*
X181237619Y-104382438D01*
X181237619Y-104382438D02*
X181285238Y-104430057D01*
X181285238Y-104430057D02*
X181332857Y-104525295D01*
X181332857Y-104525295D02*
X181332857Y-104620533D01*
X181332857Y-104620533D02*
X181285238Y-104763390D01*
X181285238Y-104763390D02*
X180713810Y-105334819D01*
X180713810Y-105334819D02*
X181332857Y-105334819D01*
X170760476Y-104334819D02*
X170760476Y-105049104D01*
X170760476Y-105049104D02*
X170712857Y-105191961D01*
X170712857Y-105191961D02*
X170617619Y-105287200D01*
X170617619Y-105287200D02*
X170474762Y-105334819D01*
X170474762Y-105334819D02*
X170379524Y-105334819D01*
X171236667Y-105334819D02*
X171236667Y-104334819D01*
X171236667Y-104334819D02*
X171617619Y-104334819D01*
X171617619Y-104334819D02*
X171712857Y-104382438D01*
X171712857Y-104382438D02*
X171760476Y-104430057D01*
X171760476Y-104430057D02*
X171808095Y-104525295D01*
X171808095Y-104525295D02*
X171808095Y-104668152D01*
X171808095Y-104668152D02*
X171760476Y-104763390D01*
X171760476Y-104763390D02*
X171712857Y-104811009D01*
X171712857Y-104811009D02*
X171617619Y-104858628D01*
X171617619Y-104858628D02*
X171236667Y-104858628D01*
X172760476Y-105334819D02*
X172189048Y-105334819D01*
X172474762Y-105334819D02*
X172474762Y-104334819D01*
X172474762Y-104334819D02*
X172379524Y-104477676D01*
X172379524Y-104477676D02*
X172284286Y-104572914D01*
X172284286Y-104572914D02*
X172189048Y-104620533D01*
X173712857Y-105334819D02*
X173141429Y-105334819D01*
X173427143Y-105334819D02*
X173427143Y-104334819D01*
X173427143Y-104334819D02*
X173331905Y-104477676D01*
X173331905Y-104477676D02*
X173236667Y-104572914D01*
X173236667Y-104572914D02*
X173141429Y-104620533D01*
X178380476Y-119574819D02*
X178380476Y-120289104D01*
X178380476Y-120289104D02*
X178332857Y-120431961D01*
X178332857Y-120431961D02*
X178237619Y-120527200D01*
X178237619Y-120527200D02*
X178094762Y-120574819D01*
X178094762Y-120574819D02*
X177999524Y-120574819D01*
X178856667Y-120574819D02*
X178856667Y-119574819D01*
X178856667Y-119574819D02*
X179237619Y-119574819D01*
X179237619Y-119574819D02*
X179332857Y-119622438D01*
X179332857Y-119622438D02*
X179380476Y-119670057D01*
X179380476Y-119670057D02*
X179428095Y-119765295D01*
X179428095Y-119765295D02*
X179428095Y-119908152D01*
X179428095Y-119908152D02*
X179380476Y-120003390D01*
X179380476Y-120003390D02*
X179332857Y-120051009D01*
X179332857Y-120051009D02*
X179237619Y-120098628D01*
X179237619Y-120098628D02*
X178856667Y-120098628D01*
X180380476Y-120574819D02*
X179809048Y-120574819D01*
X180094762Y-120574819D02*
X180094762Y-119574819D01*
X180094762Y-119574819D02*
X179999524Y-119717676D01*
X179999524Y-119717676D02*
X179904286Y-119812914D01*
X179904286Y-119812914D02*
X179809048Y-119860533D01*
X180999524Y-119574819D02*
X181094762Y-119574819D01*
X181094762Y-119574819D02*
X181190000Y-119622438D01*
X181190000Y-119622438D02*
X181237619Y-119670057D01*
X181237619Y-119670057D02*
X181285238Y-119765295D01*
X181285238Y-119765295D02*
X181332857Y-119955771D01*
X181332857Y-119955771D02*
X181332857Y-120193866D01*
X181332857Y-120193866D02*
X181285238Y-120384342D01*
X181285238Y-120384342D02*
X181237619Y-120479580D01*
X181237619Y-120479580D02*
X181190000Y-120527200D01*
X181190000Y-120527200D02*
X181094762Y-120574819D01*
X181094762Y-120574819D02*
X180999524Y-120574819D01*
X180999524Y-120574819D02*
X180904286Y-120527200D01*
X180904286Y-120527200D02*
X180856667Y-120479580D01*
X180856667Y-120479580D02*
X180809048Y-120384342D01*
X180809048Y-120384342D02*
X180761429Y-120193866D01*
X180761429Y-120193866D02*
X180761429Y-119955771D01*
X180761429Y-119955771D02*
X180809048Y-119765295D01*
X180809048Y-119765295D02*
X180856667Y-119670057D01*
X180856667Y-119670057D02*
X180904286Y-119622438D01*
X180904286Y-119622438D02*
X180999524Y-119574819D01*
X169996666Y-119574819D02*
X169996666Y-120289104D01*
X169996666Y-120289104D02*
X169949047Y-120431961D01*
X169949047Y-120431961D02*
X169853809Y-120527200D01*
X169853809Y-120527200D02*
X169710952Y-120574819D01*
X169710952Y-120574819D02*
X169615714Y-120574819D01*
X170472857Y-120574819D02*
X170472857Y-119574819D01*
X170472857Y-119574819D02*
X170853809Y-119574819D01*
X170853809Y-119574819D02*
X170949047Y-119622438D01*
X170949047Y-119622438D02*
X170996666Y-119670057D01*
X170996666Y-119670057D02*
X171044285Y-119765295D01*
X171044285Y-119765295D02*
X171044285Y-119908152D01*
X171044285Y-119908152D02*
X170996666Y-120003390D01*
X170996666Y-120003390D02*
X170949047Y-120051009D01*
X170949047Y-120051009D02*
X170853809Y-120098628D01*
X170853809Y-120098628D02*
X170472857Y-120098628D01*
X171520476Y-120574819D02*
X171710952Y-120574819D01*
X171710952Y-120574819D02*
X171806190Y-120527200D01*
X171806190Y-120527200D02*
X171853809Y-120479580D01*
X171853809Y-120479580D02*
X171949047Y-120336723D01*
X171949047Y-120336723D02*
X171996666Y-120146247D01*
X171996666Y-120146247D02*
X171996666Y-119765295D01*
X171996666Y-119765295D02*
X171949047Y-119670057D01*
X171949047Y-119670057D02*
X171901428Y-119622438D01*
X171901428Y-119622438D02*
X171806190Y-119574819D01*
X171806190Y-119574819D02*
X171615714Y-119574819D01*
X171615714Y-119574819D02*
X171520476Y-119622438D01*
X171520476Y-119622438D02*
X171472857Y-119670057D01*
X171472857Y-119670057D02*
X171425238Y-119765295D01*
X171425238Y-119765295D02*
X171425238Y-120003390D01*
X171425238Y-120003390D02*
X171472857Y-120098628D01*
X171472857Y-120098628D02*
X171520476Y-120146247D01*
X171520476Y-120146247D02*
X171615714Y-120193866D01*
X171615714Y-120193866D02*
X171806190Y-120193866D01*
X171806190Y-120193866D02*
X171901428Y-120146247D01*
X171901428Y-120146247D02*
X171949047Y-120098628D01*
X171949047Y-120098628D02*
X171996666Y-120003390D01*
X117231666Y-104334819D02*
X117231666Y-105049104D01*
X117231666Y-105049104D02*
X117184047Y-105191961D01*
X117184047Y-105191961D02*
X117088809Y-105287200D01*
X117088809Y-105287200D02*
X116945952Y-105334819D01*
X116945952Y-105334819D02*
X116850714Y-105334819D01*
X117707857Y-105334819D02*
X117707857Y-104334819D01*
X117707857Y-104334819D02*
X118088809Y-104334819D01*
X118088809Y-104334819D02*
X118184047Y-104382438D01*
X118184047Y-104382438D02*
X118231666Y-104430057D01*
X118231666Y-104430057D02*
X118279285Y-104525295D01*
X118279285Y-104525295D02*
X118279285Y-104668152D01*
X118279285Y-104668152D02*
X118231666Y-104763390D01*
X118231666Y-104763390D02*
X118184047Y-104811009D01*
X118184047Y-104811009D02*
X118088809Y-104858628D01*
X118088809Y-104858628D02*
X117707857Y-104858628D01*
X118850714Y-104763390D02*
X118755476Y-104715771D01*
X118755476Y-104715771D02*
X118707857Y-104668152D01*
X118707857Y-104668152D02*
X118660238Y-104572914D01*
X118660238Y-104572914D02*
X118660238Y-104525295D01*
X118660238Y-104525295D02*
X118707857Y-104430057D01*
X118707857Y-104430057D02*
X118755476Y-104382438D01*
X118755476Y-104382438D02*
X118850714Y-104334819D01*
X118850714Y-104334819D02*
X119041190Y-104334819D01*
X119041190Y-104334819D02*
X119136428Y-104382438D01*
X119136428Y-104382438D02*
X119184047Y-104430057D01*
X119184047Y-104430057D02*
X119231666Y-104525295D01*
X119231666Y-104525295D02*
X119231666Y-104572914D01*
X119231666Y-104572914D02*
X119184047Y-104668152D01*
X119184047Y-104668152D02*
X119136428Y-104715771D01*
X119136428Y-104715771D02*
X119041190Y-104763390D01*
X119041190Y-104763390D02*
X118850714Y-104763390D01*
X118850714Y-104763390D02*
X118755476Y-104811009D01*
X118755476Y-104811009D02*
X118707857Y-104858628D01*
X118707857Y-104858628D02*
X118660238Y-104953866D01*
X118660238Y-104953866D02*
X118660238Y-105144342D01*
X118660238Y-105144342D02*
X118707857Y-105239580D01*
X118707857Y-105239580D02*
X118755476Y-105287200D01*
X118755476Y-105287200D02*
X118850714Y-105334819D01*
X118850714Y-105334819D02*
X119041190Y-105334819D01*
X119041190Y-105334819D02*
X119136428Y-105287200D01*
X119136428Y-105287200D02*
X119184047Y-105239580D01*
X119184047Y-105239580D02*
X119231666Y-105144342D01*
X119231666Y-105144342D02*
X119231666Y-104953866D01*
X119231666Y-104953866D02*
X119184047Y-104858628D01*
X119184047Y-104858628D02*
X119136428Y-104811009D01*
X119136428Y-104811009D02*
X119041190Y-104763390D01*
X110826666Y-104334819D02*
X110826666Y-105049104D01*
X110826666Y-105049104D02*
X110779047Y-105191961D01*
X110779047Y-105191961D02*
X110683809Y-105287200D01*
X110683809Y-105287200D02*
X110540952Y-105334819D01*
X110540952Y-105334819D02*
X110445714Y-105334819D01*
X111302857Y-105334819D02*
X111302857Y-104334819D01*
X111302857Y-104334819D02*
X111683809Y-104334819D01*
X111683809Y-104334819D02*
X111779047Y-104382438D01*
X111779047Y-104382438D02*
X111826666Y-104430057D01*
X111826666Y-104430057D02*
X111874285Y-104525295D01*
X111874285Y-104525295D02*
X111874285Y-104668152D01*
X111874285Y-104668152D02*
X111826666Y-104763390D01*
X111826666Y-104763390D02*
X111779047Y-104811009D01*
X111779047Y-104811009D02*
X111683809Y-104858628D01*
X111683809Y-104858628D02*
X111302857Y-104858628D01*
X112207619Y-104334819D02*
X112874285Y-104334819D01*
X112874285Y-104334819D02*
X112445714Y-105334819D01*
X118446666Y-119574819D02*
X118446666Y-120289104D01*
X118446666Y-120289104D02*
X118399047Y-120431961D01*
X118399047Y-120431961D02*
X118303809Y-120527200D01*
X118303809Y-120527200D02*
X118160952Y-120574819D01*
X118160952Y-120574819D02*
X118065714Y-120574819D01*
X118922857Y-120574819D02*
X118922857Y-119574819D01*
X118922857Y-119574819D02*
X119303809Y-119574819D01*
X119303809Y-119574819D02*
X119399047Y-119622438D01*
X119399047Y-119622438D02*
X119446666Y-119670057D01*
X119446666Y-119670057D02*
X119494285Y-119765295D01*
X119494285Y-119765295D02*
X119494285Y-119908152D01*
X119494285Y-119908152D02*
X119446666Y-120003390D01*
X119446666Y-120003390D02*
X119399047Y-120051009D01*
X119399047Y-120051009D02*
X119303809Y-120098628D01*
X119303809Y-120098628D02*
X118922857Y-120098628D01*
X120351428Y-119574819D02*
X120160952Y-119574819D01*
X120160952Y-119574819D02*
X120065714Y-119622438D01*
X120065714Y-119622438D02*
X120018095Y-119670057D01*
X120018095Y-119670057D02*
X119922857Y-119812914D01*
X119922857Y-119812914D02*
X119875238Y-120003390D01*
X119875238Y-120003390D02*
X119875238Y-120384342D01*
X119875238Y-120384342D02*
X119922857Y-120479580D01*
X119922857Y-120479580D02*
X119970476Y-120527200D01*
X119970476Y-120527200D02*
X120065714Y-120574819D01*
X120065714Y-120574819D02*
X120256190Y-120574819D01*
X120256190Y-120574819D02*
X120351428Y-120527200D01*
X120351428Y-120527200D02*
X120399047Y-120479580D01*
X120399047Y-120479580D02*
X120446666Y-120384342D01*
X120446666Y-120384342D02*
X120446666Y-120146247D01*
X120446666Y-120146247D02*
X120399047Y-120051009D01*
X120399047Y-120051009D02*
X120351428Y-120003390D01*
X120351428Y-120003390D02*
X120256190Y-119955771D01*
X120256190Y-119955771D02*
X120065714Y-119955771D01*
X120065714Y-119955771D02*
X119970476Y-120003390D01*
X119970476Y-120003390D02*
X119922857Y-120051009D01*
X119922857Y-120051009D02*
X119875238Y-120146247D01*
X109586666Y-119574819D02*
X109586666Y-120289104D01*
X109586666Y-120289104D02*
X109539047Y-120431961D01*
X109539047Y-120431961D02*
X109443809Y-120527200D01*
X109443809Y-120527200D02*
X109300952Y-120574819D01*
X109300952Y-120574819D02*
X109205714Y-120574819D01*
X110062857Y-120574819D02*
X110062857Y-119574819D01*
X110062857Y-119574819D02*
X110443809Y-119574819D01*
X110443809Y-119574819D02*
X110539047Y-119622438D01*
X110539047Y-119622438D02*
X110586666Y-119670057D01*
X110586666Y-119670057D02*
X110634285Y-119765295D01*
X110634285Y-119765295D02*
X110634285Y-119908152D01*
X110634285Y-119908152D02*
X110586666Y-120003390D01*
X110586666Y-120003390D02*
X110539047Y-120051009D01*
X110539047Y-120051009D02*
X110443809Y-120098628D01*
X110443809Y-120098628D02*
X110062857Y-120098628D01*
X111539047Y-119574819D02*
X111062857Y-119574819D01*
X111062857Y-119574819D02*
X111015238Y-120051009D01*
X111015238Y-120051009D02*
X111062857Y-120003390D01*
X111062857Y-120003390D02*
X111158095Y-119955771D01*
X111158095Y-119955771D02*
X111396190Y-119955771D01*
X111396190Y-119955771D02*
X111491428Y-120003390D01*
X111491428Y-120003390D02*
X111539047Y-120051009D01*
X111539047Y-120051009D02*
X111586666Y-120146247D01*
X111586666Y-120146247D02*
X111586666Y-120384342D01*
X111586666Y-120384342D02*
X111539047Y-120479580D01*
X111539047Y-120479580D02*
X111491428Y-120527200D01*
X111491428Y-120527200D02*
X111396190Y-120574819D01*
X111396190Y-120574819D02*
X111158095Y-120574819D01*
X111158095Y-120574819D02*
X111062857Y-120527200D01*
X111062857Y-120527200D02*
X111015238Y-120479580D01*
X88656666Y-104334819D02*
X88656666Y-105049104D01*
X88656666Y-105049104D02*
X88609047Y-105191961D01*
X88609047Y-105191961D02*
X88513809Y-105287200D01*
X88513809Y-105287200D02*
X88370952Y-105334819D01*
X88370952Y-105334819D02*
X88275714Y-105334819D01*
X89132857Y-105334819D02*
X89132857Y-104334819D01*
X89132857Y-104334819D02*
X89513809Y-104334819D01*
X89513809Y-104334819D02*
X89609047Y-104382438D01*
X89609047Y-104382438D02*
X89656666Y-104430057D01*
X89656666Y-104430057D02*
X89704285Y-104525295D01*
X89704285Y-104525295D02*
X89704285Y-104668152D01*
X89704285Y-104668152D02*
X89656666Y-104763390D01*
X89656666Y-104763390D02*
X89609047Y-104811009D01*
X89609047Y-104811009D02*
X89513809Y-104858628D01*
X89513809Y-104858628D02*
X89132857Y-104858628D01*
X90561428Y-104668152D02*
X90561428Y-105334819D01*
X90323333Y-104287200D02*
X90085238Y-105001485D01*
X90085238Y-105001485D02*
X90704285Y-105001485D01*
X83576666Y-104334819D02*
X83576666Y-105049104D01*
X83576666Y-105049104D02*
X83529047Y-105191961D01*
X83529047Y-105191961D02*
X83433809Y-105287200D01*
X83433809Y-105287200D02*
X83290952Y-105334819D01*
X83290952Y-105334819D02*
X83195714Y-105334819D01*
X84052857Y-105334819D02*
X84052857Y-104334819D01*
X84052857Y-104334819D02*
X84433809Y-104334819D01*
X84433809Y-104334819D02*
X84529047Y-104382438D01*
X84529047Y-104382438D02*
X84576666Y-104430057D01*
X84576666Y-104430057D02*
X84624285Y-104525295D01*
X84624285Y-104525295D02*
X84624285Y-104668152D01*
X84624285Y-104668152D02*
X84576666Y-104763390D01*
X84576666Y-104763390D02*
X84529047Y-104811009D01*
X84529047Y-104811009D02*
X84433809Y-104858628D01*
X84433809Y-104858628D02*
X84052857Y-104858628D01*
X84957619Y-104334819D02*
X85576666Y-104334819D01*
X85576666Y-104334819D02*
X85243333Y-104715771D01*
X85243333Y-104715771D02*
X85386190Y-104715771D01*
X85386190Y-104715771D02*
X85481428Y-104763390D01*
X85481428Y-104763390D02*
X85529047Y-104811009D01*
X85529047Y-104811009D02*
X85576666Y-104906247D01*
X85576666Y-104906247D02*
X85576666Y-105144342D01*
X85576666Y-105144342D02*
X85529047Y-105239580D01*
X85529047Y-105239580D02*
X85481428Y-105287200D01*
X85481428Y-105287200D02*
X85386190Y-105334819D01*
X85386190Y-105334819D02*
X85100476Y-105334819D01*
X85100476Y-105334819D02*
X85005238Y-105287200D01*
X85005238Y-105287200D02*
X84957619Y-105239580D01*
X88656666Y-119574819D02*
X88656666Y-120289104D01*
X88656666Y-120289104D02*
X88609047Y-120431961D01*
X88609047Y-120431961D02*
X88513809Y-120527200D01*
X88513809Y-120527200D02*
X88370952Y-120574819D01*
X88370952Y-120574819D02*
X88275714Y-120574819D01*
X89132857Y-120574819D02*
X89132857Y-119574819D01*
X89132857Y-119574819D02*
X89513809Y-119574819D01*
X89513809Y-119574819D02*
X89609047Y-119622438D01*
X89609047Y-119622438D02*
X89656666Y-119670057D01*
X89656666Y-119670057D02*
X89704285Y-119765295D01*
X89704285Y-119765295D02*
X89704285Y-119908152D01*
X89704285Y-119908152D02*
X89656666Y-120003390D01*
X89656666Y-120003390D02*
X89609047Y-120051009D01*
X89609047Y-120051009D02*
X89513809Y-120098628D01*
X89513809Y-120098628D02*
X89132857Y-120098628D01*
X90085238Y-119670057D02*
X90132857Y-119622438D01*
X90132857Y-119622438D02*
X90228095Y-119574819D01*
X90228095Y-119574819D02*
X90466190Y-119574819D01*
X90466190Y-119574819D02*
X90561428Y-119622438D01*
X90561428Y-119622438D02*
X90609047Y-119670057D01*
X90609047Y-119670057D02*
X90656666Y-119765295D01*
X90656666Y-119765295D02*
X90656666Y-119860533D01*
X90656666Y-119860533D02*
X90609047Y-120003390D01*
X90609047Y-120003390D02*
X90037619Y-120574819D01*
X90037619Y-120574819D02*
X90656666Y-120574819D01*
X83576666Y-119574819D02*
X83576666Y-120289104D01*
X83576666Y-120289104D02*
X83529047Y-120431961D01*
X83529047Y-120431961D02*
X83433809Y-120527200D01*
X83433809Y-120527200D02*
X83290952Y-120574819D01*
X83290952Y-120574819D02*
X83195714Y-120574819D01*
X84052857Y-120574819D02*
X84052857Y-119574819D01*
X84052857Y-119574819D02*
X84433809Y-119574819D01*
X84433809Y-119574819D02*
X84529047Y-119622438D01*
X84529047Y-119622438D02*
X84576666Y-119670057D01*
X84576666Y-119670057D02*
X84624285Y-119765295D01*
X84624285Y-119765295D02*
X84624285Y-119908152D01*
X84624285Y-119908152D02*
X84576666Y-120003390D01*
X84576666Y-120003390D02*
X84529047Y-120051009D01*
X84529047Y-120051009D02*
X84433809Y-120098628D01*
X84433809Y-120098628D02*
X84052857Y-120098628D01*
X85576666Y-120574819D02*
X85005238Y-120574819D01*
X85290952Y-120574819D02*
X85290952Y-119574819D01*
X85290952Y-119574819D02*
X85195714Y-119717676D01*
X85195714Y-119717676D02*
X85100476Y-119812914D01*
X85100476Y-119812914D02*
X85005238Y-119860533D01*
X175791905Y-84694819D02*
X175791905Y-83694819D01*
X175791905Y-83694819D02*
X176030000Y-83694819D01*
X176030000Y-83694819D02*
X176172857Y-83742438D01*
X176172857Y-83742438D02*
X176268095Y-83837676D01*
X176268095Y-83837676D02*
X176315714Y-83932914D01*
X176315714Y-83932914D02*
X176363333Y-84123390D01*
X176363333Y-84123390D02*
X176363333Y-84266247D01*
X176363333Y-84266247D02*
X176315714Y-84456723D01*
X176315714Y-84456723D02*
X176268095Y-84551961D01*
X176268095Y-84551961D02*
X176172857Y-84647200D01*
X176172857Y-84647200D02*
X176030000Y-84694819D01*
X176030000Y-84694819D02*
X175791905Y-84694819D01*
X177220476Y-84028152D02*
X177220476Y-84694819D01*
X176982381Y-83647200D02*
X176744286Y-84361485D01*
X176744286Y-84361485D02*
X177363333Y-84361485D01*
X124991905Y-84694819D02*
X124991905Y-83694819D01*
X124991905Y-83694819D02*
X125230000Y-83694819D01*
X125230000Y-83694819D02*
X125372857Y-83742438D01*
X125372857Y-83742438D02*
X125468095Y-83837676D01*
X125468095Y-83837676D02*
X125515714Y-83932914D01*
X125515714Y-83932914D02*
X125563333Y-84123390D01*
X125563333Y-84123390D02*
X125563333Y-84266247D01*
X125563333Y-84266247D02*
X125515714Y-84456723D01*
X125515714Y-84456723D02*
X125468095Y-84551961D01*
X125468095Y-84551961D02*
X125372857Y-84647200D01*
X125372857Y-84647200D02*
X125230000Y-84694819D01*
X125230000Y-84694819D02*
X124991905Y-84694819D01*
X125896667Y-83694819D02*
X126515714Y-83694819D01*
X126515714Y-83694819D02*
X126182381Y-84075771D01*
X126182381Y-84075771D02*
X126325238Y-84075771D01*
X126325238Y-84075771D02*
X126420476Y-84123390D01*
X126420476Y-84123390D02*
X126468095Y-84171009D01*
X126468095Y-84171009D02*
X126515714Y-84266247D01*
X126515714Y-84266247D02*
X126515714Y-84504342D01*
X126515714Y-84504342D02*
X126468095Y-84599580D01*
X126468095Y-84599580D02*
X126420476Y-84647200D01*
X126420476Y-84647200D02*
X126325238Y-84694819D01*
X126325238Y-84694819D02*
X126039524Y-84694819D01*
X126039524Y-84694819D02*
X125944286Y-84647200D01*
X125944286Y-84647200D02*
X125896667Y-84599580D01*
X109751905Y-84694819D02*
X109751905Y-83694819D01*
X109751905Y-83694819D02*
X109990000Y-83694819D01*
X109990000Y-83694819D02*
X110132857Y-83742438D01*
X110132857Y-83742438D02*
X110228095Y-83837676D01*
X110228095Y-83837676D02*
X110275714Y-83932914D01*
X110275714Y-83932914D02*
X110323333Y-84123390D01*
X110323333Y-84123390D02*
X110323333Y-84266247D01*
X110323333Y-84266247D02*
X110275714Y-84456723D01*
X110275714Y-84456723D02*
X110228095Y-84551961D01*
X110228095Y-84551961D02*
X110132857Y-84647200D01*
X110132857Y-84647200D02*
X109990000Y-84694819D01*
X109990000Y-84694819D02*
X109751905Y-84694819D01*
X111275714Y-84694819D02*
X110704286Y-84694819D01*
X110990000Y-84694819D02*
X110990000Y-83694819D01*
X110990000Y-83694819D02*
X110894762Y-83837676D01*
X110894762Y-83837676D02*
X110799524Y-83932914D01*
X110799524Y-83932914D02*
X110704286Y-83980533D01*
D11*
%TO.C,LED1*%
X151360000Y-77689352D02*
X151360000Y-77417089D01*
X151360000Y-80062911D02*
X151360000Y-79790648D01*
D12*
X147794468Y-80740000D02*
G75*
G03*
X147734524Y-80740000I-29972J0D01*
G01*
X147734524Y-80740000D02*
G75*
G03*
X147794468Y-80740000I29972J0D01*
G01*
D11*
X151360000Y-77417114D02*
G75*
G03*
X148105593Y-77779776I-1499992J-1322885D01*
G01*
X148105594Y-79700224D02*
G75*
G03*
X151360000Y-80062885I1754414J960223D01*
G01*
D13*
%TO.C,C1*%
X149588799Y-87996392D02*
G75*
G03*
X149436398Y-88148793I0J-152401D01*
G01*
X149436399Y-89651207D02*
G75*
G03*
X149588799Y-89803607I152400J0D01*
G01*
X153363601Y-88148793D02*
G75*
G03*
X153211201Y-87996393I-152400J0D01*
G01*
X153211201Y-89803608D02*
G75*
G03*
X153363602Y-89651207I0J152401D01*
G01*
D12*
X152429972Y-88274905D02*
G75*
G03*
X152370028Y-88274905I-29972J0D01*
G01*
X152370028Y-88274905D02*
G75*
G03*
X152429972Y-88274905I29972J0D01*
G01*
D13*
X149588799Y-89803607D02*
X150998806Y-89803607D01*
X150998806Y-87996393D02*
X149588799Y-87996393D01*
X149436398Y-88148793D02*
X149436398Y-89651207D01*
X153211201Y-89803607D02*
X151801194Y-89803607D01*
X151801194Y-87996393D02*
X153211201Y-87996393D01*
X153363602Y-88148793D02*
X153363602Y-89651207D01*
D10*
%TO.C,TP10*%
X153910000Y-78340000D02*
X154410000Y-77840000D01*
X158510000Y-79140000D02*
X158010000Y-79640000D01*
X158010000Y-77840000D02*
X158510000Y-78340000D01*
X154410000Y-77840000D02*
X158010000Y-77840000D01*
X154410000Y-79640000D02*
X153910000Y-79140000D01*
X153910000Y-79140000D02*
X153910000Y-78340000D01*
X158510000Y-78340000D02*
X158510000Y-79140000D01*
X158010000Y-79640000D02*
X154410000Y-79640000D01*
%TO.C,TP9*%
X199630000Y-85960000D02*
X200130000Y-85460000D01*
X204230000Y-86760000D02*
X203730000Y-87260000D01*
X203730000Y-85460000D02*
X204230000Y-85960000D01*
X200130000Y-85460000D02*
X203730000Y-85460000D01*
X200130000Y-87260000D02*
X199630000Y-86760000D01*
X199630000Y-86760000D02*
X199630000Y-85960000D01*
X204230000Y-85960000D02*
X204230000Y-86760000D01*
X203730000Y-87260000D02*
X200130000Y-87260000D01*
%TO.C,TP8*%
X197090000Y-101200000D02*
X197590000Y-100700000D01*
X201690000Y-102000000D02*
X201190000Y-102500000D01*
X201190000Y-100700000D02*
X201690000Y-101200000D01*
X197590000Y-100700000D02*
X201190000Y-100700000D01*
X197590000Y-102500000D02*
X197090000Y-102000000D01*
X197090000Y-102000000D02*
X197090000Y-101200000D01*
X201690000Y-101200000D02*
X201690000Y-102000000D01*
X201190000Y-102500000D02*
X197590000Y-102500000D01*
D14*
%TO.C,Q5*%
X197590000Y-98370000D02*
X201190000Y-98370000D01*
X201228478Y-98358478D02*
G75*
G03*
X199390000Y-93920000I-1838478J1838478D01*
G01*
X199390000Y-93920000D02*
G75*
G03*
X197551522Y-98358478I0J-2600000D01*
G01*
%TO.C,JP21*%
X201150000Y-105680000D02*
X203950000Y-105680000D01*
X201150000Y-107680000D02*
X201150000Y-105680000D01*
X203950000Y-107680000D02*
X201150000Y-107680000D01*
X203950000Y-105680000D02*
X203950000Y-107680000D01*
%TO.C,JP20*%
X192290000Y-105680000D02*
X195090000Y-105680000D01*
X192290000Y-107680000D02*
X192290000Y-105680000D01*
X195090000Y-107680000D02*
X192290000Y-107680000D01*
X195090000Y-105680000D02*
X195090000Y-107680000D01*
%TO.C,JP19*%
X201150000Y-120920000D02*
X203950000Y-120920000D01*
X201150000Y-122920000D02*
X201150000Y-120920000D01*
X203950000Y-122920000D02*
X201150000Y-122920000D01*
X203950000Y-120920000D02*
X203950000Y-122920000D01*
%TO.C,JP18*%
X193530000Y-120920000D02*
X196330000Y-120920000D01*
X193530000Y-122920000D02*
X193530000Y-120920000D01*
X196330000Y-122920000D02*
X193530000Y-122920000D01*
X196330000Y-120920000D02*
X196330000Y-122920000D01*
%TO.C,D2*%
X190790000Y-80200000D02*
X190790000Y-80044000D01*
X190790000Y-82516000D02*
X190790000Y-82360000D01*
X188188871Y-82359836D02*
G75*
G03*
X190270960Y-82359999I1041129J1079836D01*
G01*
X187557666Y-82358608D02*
G75*
G03*
X190789999Y-82515515I1672334J1078608D01*
G01*
X190270960Y-80200001D02*
G75*
G03*
X188188871Y-80200164I-1040960J-1079999D01*
G01*
X190789999Y-80044485D02*
G75*
G03*
X187557666Y-80201392I-1559999J-1235515D01*
G01*
D10*
%TO.C,TP7*%
X137370000Y-85960000D02*
X137870000Y-85460000D01*
X141970000Y-86760000D02*
X141470000Y-87260000D01*
X141470000Y-85460000D02*
X141970000Y-85960000D01*
X137870000Y-85460000D02*
X141470000Y-85460000D01*
X137870000Y-87260000D02*
X137370000Y-86760000D01*
X137370000Y-86760000D02*
X137370000Y-85960000D01*
X141970000Y-85960000D02*
X141970000Y-86760000D01*
X141470000Y-87260000D02*
X137870000Y-87260000D01*
%TO.C,TP6*%
X176770000Y-88500000D02*
X177270000Y-88000000D01*
X181370000Y-89300000D02*
X180870000Y-89800000D01*
X180870000Y-88000000D02*
X181370000Y-88500000D01*
X177270000Y-88000000D02*
X180870000Y-88000000D01*
X177270000Y-89800000D02*
X176770000Y-89300000D01*
X176770000Y-89300000D02*
X176770000Y-88500000D01*
X181370000Y-88500000D02*
X181370000Y-89300000D01*
X180870000Y-89800000D02*
X177270000Y-89800000D01*
%TO.C,TP5*%
X113820000Y-88500000D02*
X114320000Y-88000000D01*
X118420000Y-89300000D02*
X117920000Y-89800000D01*
X117920000Y-88000000D02*
X118420000Y-88500000D01*
X114320000Y-88000000D02*
X117920000Y-88000000D01*
X114320000Y-89800000D02*
X113820000Y-89300000D01*
X113820000Y-89300000D02*
X113820000Y-88500000D01*
X118420000Y-88500000D02*
X118420000Y-89300000D01*
X117920000Y-89800000D02*
X114320000Y-89800000D01*
%TO.C,TP4*%
X85270000Y-88500000D02*
X85770000Y-88000000D01*
X89870000Y-89300000D02*
X89370000Y-89800000D01*
X89370000Y-88000000D02*
X89870000Y-88500000D01*
X85770000Y-88000000D02*
X89370000Y-88000000D01*
X85770000Y-89800000D02*
X85270000Y-89300000D01*
X85270000Y-89300000D02*
X85270000Y-88500000D01*
X89870000Y-88500000D02*
X89870000Y-89300000D01*
X89370000Y-89800000D02*
X85770000Y-89800000D01*
%TO.C,TP3*%
X174230000Y-101200000D02*
X174730000Y-100700000D01*
X178830000Y-102000000D02*
X178330000Y-102500000D01*
X178330000Y-100700000D02*
X178830000Y-101200000D01*
X174730000Y-100700000D02*
X178330000Y-100700000D01*
X174730000Y-102500000D02*
X174230000Y-102000000D01*
X174230000Y-102000000D02*
X174230000Y-101200000D01*
X178830000Y-101200000D02*
X178830000Y-102000000D01*
X178330000Y-102500000D02*
X174730000Y-102500000D01*
%TO.C,TP2*%
X111280000Y-101200000D02*
X111780000Y-100700000D01*
X115880000Y-102000000D02*
X115380000Y-102500000D01*
X115380000Y-100700000D02*
X115880000Y-101200000D01*
X111780000Y-100700000D02*
X115380000Y-100700000D01*
X111780000Y-102500000D02*
X111280000Y-102000000D01*
X111280000Y-102000000D02*
X111280000Y-101200000D01*
X115880000Y-101200000D02*
X115880000Y-102000000D01*
X115380000Y-102500000D02*
X111780000Y-102500000D01*
%TO.C,TP1*%
X82730000Y-101200000D02*
X83230000Y-100700000D01*
X87330000Y-102000000D02*
X86830000Y-102500000D01*
X86830000Y-100700000D02*
X87330000Y-101200000D01*
X83230000Y-100700000D02*
X86830000Y-100700000D01*
X83230000Y-102500000D02*
X82730000Y-102000000D01*
X82730000Y-102000000D02*
X82730000Y-101200000D01*
X87330000Y-101200000D02*
X87330000Y-102000000D01*
X86830000Y-102500000D02*
X83230000Y-102500000D01*
D14*
%TO.C,Q3*%
X174730000Y-98370000D02*
X178330000Y-98370000D01*
X178368478Y-98358478D02*
G75*
G03*
X176530000Y-93920000I-1838478J1838478D01*
G01*
X176530000Y-93920000D02*
G75*
G03*
X174691522Y-98358478I0J-2600000D01*
G01*
%TO.C,Q2*%
X83230000Y-98370000D02*
X86830000Y-98370000D01*
X86868478Y-98358478D02*
G75*
G03*
X85030000Y-93920000I-1838478J1838478D01*
G01*
X85030000Y-93920000D02*
G75*
G03*
X83191522Y-98358478I0J-2600000D01*
G01*
%TO.C,Q1*%
X111780000Y-98370000D02*
X115380000Y-98370000D01*
X115418478Y-98358478D02*
G75*
G03*
X113580000Y-93920000I-1838478J1838478D01*
G01*
X113580000Y-93920000D02*
G75*
G03*
X111741522Y-98358478I0J-2600000D01*
G01*
%TO.C,JP17*%
X135110000Y-98060000D02*
X137910000Y-98060000D01*
X135110000Y-100060000D02*
X135110000Y-98060000D01*
X137910000Y-100060000D02*
X135110000Y-100060000D01*
X137910000Y-98060000D02*
X137910000Y-100060000D01*
%TO.C,JP16*%
X127490000Y-98060000D02*
X130290000Y-98060000D01*
X127490000Y-100060000D02*
X127490000Y-98060000D01*
X130290000Y-100060000D02*
X127490000Y-100060000D01*
X130290000Y-98060000D02*
X130290000Y-100060000D01*
%TO.C,JP14*%
X150350000Y-98060000D02*
X153150000Y-98060000D01*
X150350000Y-100060000D02*
X150350000Y-98060000D01*
X153150000Y-100060000D02*
X150350000Y-100060000D01*
X153150000Y-98060000D02*
X153150000Y-100060000D01*
%TO.C,JP13*%
X142730000Y-98060000D02*
X145530000Y-98060000D01*
X142730000Y-100060000D02*
X142730000Y-98060000D01*
X145530000Y-100060000D02*
X142730000Y-100060000D01*
X145530000Y-98060000D02*
X145530000Y-100060000D01*
%TO.C,JP12*%
X178290000Y-105680000D02*
X181090000Y-105680000D01*
X178290000Y-107680000D02*
X178290000Y-105680000D01*
X181090000Y-107680000D02*
X178290000Y-107680000D01*
X181090000Y-105680000D02*
X181090000Y-107680000D01*
%TO.C,JP11*%
X170670000Y-105680000D02*
X173470000Y-105680000D01*
X170670000Y-107680000D02*
X170670000Y-105680000D01*
X173470000Y-107680000D02*
X170670000Y-107680000D01*
X173470000Y-105680000D02*
X173470000Y-107680000D01*
%TO.C,JP10*%
X178290000Y-120920000D02*
X181090000Y-120920000D01*
X178290000Y-122920000D02*
X178290000Y-120920000D01*
X181090000Y-122920000D02*
X178290000Y-122920000D01*
X181090000Y-120920000D02*
X181090000Y-122920000D01*
%TO.C,JP9*%
X169430000Y-120920000D02*
X172230000Y-120920000D01*
X169430000Y-122920000D02*
X169430000Y-120920000D01*
X172230000Y-122920000D02*
X169430000Y-122920000D01*
X172230000Y-120920000D02*
X172230000Y-122920000D01*
%TO.C,JP8*%
X116665000Y-105680000D02*
X119465000Y-105680000D01*
X116665000Y-107680000D02*
X116665000Y-105680000D01*
X119465000Y-107680000D02*
X116665000Y-107680000D01*
X119465000Y-105680000D02*
X119465000Y-107680000D01*
%TO.C,JP7*%
X110260000Y-105680000D02*
X113060000Y-105680000D01*
X110260000Y-107680000D02*
X110260000Y-105680000D01*
X113060000Y-107680000D02*
X110260000Y-107680000D01*
X113060000Y-105680000D02*
X113060000Y-107680000D01*
%TO.C,JP6*%
X117880000Y-120920000D02*
X120680000Y-120920000D01*
X117880000Y-122920000D02*
X117880000Y-120920000D01*
X120680000Y-122920000D02*
X117880000Y-122920000D01*
X120680000Y-120920000D02*
X120680000Y-122920000D01*
%TO.C,JP5*%
X111820000Y-120920000D02*
X111820000Y-122920000D01*
X111820000Y-122920000D02*
X109020000Y-122920000D01*
X109020000Y-122920000D02*
X109020000Y-120920000D01*
X109020000Y-120920000D02*
X111820000Y-120920000D01*
%TO.C,JP4*%
X88090000Y-105680000D02*
X90890000Y-105680000D01*
X88090000Y-107680000D02*
X88090000Y-105680000D01*
X90890000Y-107680000D02*
X88090000Y-107680000D01*
X90890000Y-105680000D02*
X90890000Y-107680000D01*
%TO.C,JP3*%
X83010000Y-105680000D02*
X85810000Y-105680000D01*
X83010000Y-107680000D02*
X83010000Y-105680000D01*
X85810000Y-107680000D02*
X83010000Y-107680000D01*
X85810000Y-105680000D02*
X85810000Y-107680000D01*
%TO.C,JP2*%
X88090000Y-120920000D02*
X90890000Y-120920000D01*
X88090000Y-122920000D02*
X88090000Y-120920000D01*
X90890000Y-122920000D02*
X88090000Y-122920000D01*
X90890000Y-120920000D02*
X90890000Y-122920000D01*
%TO.C,JP1*%
X83010000Y-120920000D02*
X85810000Y-120920000D01*
X83010000Y-122920000D02*
X83010000Y-120920000D01*
X85810000Y-122920000D02*
X83010000Y-122920000D01*
X85810000Y-120920000D02*
X85810000Y-122920000D01*
%TO.C,D4*%
X178090000Y-80200000D02*
X178090000Y-80044000D01*
X178090000Y-82516000D02*
X178090000Y-82360000D01*
X175488871Y-82359836D02*
G75*
G03*
X177570960Y-82359999I1041129J1079836D01*
G01*
X174857666Y-82358608D02*
G75*
G03*
X178089999Y-82515515I1672334J1078608D01*
G01*
X177570960Y-80200001D02*
G75*
G03*
X175488871Y-80200164I-1040960J-1079999D01*
G01*
X178089999Y-80044485D02*
G75*
G03*
X174857666Y-80201392I-1559999J-1235515D01*
G01*
%TO.C,D3*%
X127290000Y-80200000D02*
X127290000Y-80044000D01*
X127290000Y-82516000D02*
X127290000Y-82360000D01*
X124688871Y-82359836D02*
G75*
G03*
X126770960Y-82359999I1041129J1079836D01*
G01*
X124057666Y-82358608D02*
G75*
G03*
X127289999Y-82515515I1672334J1078608D01*
G01*
X126770960Y-80200001D02*
G75*
G03*
X124688871Y-80200164I-1040960J-1079999D01*
G01*
X127289999Y-80044485D02*
G75*
G03*
X124057666Y-80201392I-1559999J-1235515D01*
G01*
%TO.C,D1*%
X112050000Y-80200000D02*
X112050000Y-80044000D01*
X112050000Y-82516000D02*
X112050000Y-82360000D01*
X109448871Y-82359836D02*
G75*
G03*
X111530960Y-82359999I1041129J1079836D01*
G01*
X108817666Y-82358608D02*
G75*
G03*
X112049999Y-82515515I1672334J1078608D01*
G01*
X111530960Y-80200001D02*
G75*
G03*
X109448871Y-80200164I-1040960J-1079999D01*
G01*
X112049999Y-80044485D02*
G75*
G03*
X108817666Y-80201392I-1559999J-1235515D01*
G01*
%TD*%
%LPC*%
D15*
%TO.C,LED1*%
X151130003Y-78740000D03*
X148589997Y-78740000D03*
%TD*%
D16*
%TO.C,C1*%
X150400000Y-88900000D03*
X152400000Y-88900000D03*
%TD*%
D17*
%TO.C,TP10*%
X154940000Y-78740000D03*
X157480000Y-78740000D03*
%TD*%
%TO.C,TP9*%
X200660000Y-86360000D03*
X203200000Y-86360000D03*
%TD*%
%TO.C,TP8*%
X198120000Y-101600000D03*
X200660000Y-101600000D03*
%TD*%
D18*
%TO.C,R28*%
X195580000Y-83820000D03*
X196220000Y-83820000D03*
%TD*%
%TO.C,R27*%
X200660000Y-111760000D03*
X201300000Y-111760000D03*
%TD*%
%TO.C,R26*%
X195580000Y-111760000D03*
X196220000Y-111760000D03*
%TD*%
%TO.C,R25*%
X200660000Y-116840000D03*
X201300000Y-116840000D03*
%TD*%
%TO.C,R24*%
X195605000Y-116840000D03*
X196245000Y-116840000D03*
%TD*%
D19*
%TO.C,Q5*%
X198120000Y-96520000D03*
D20*
X199390000Y-96520000D03*
X200660000Y-96520000D03*
%TD*%
D21*
%TO.C,JP21*%
X201900000Y-106680000D03*
X203200000Y-106680000D03*
%TD*%
%TO.C,JP20*%
X193040000Y-106680000D03*
X194340000Y-106680000D03*
%TD*%
%TO.C,JP19*%
X201900000Y-121920000D03*
X203200000Y-121920000D03*
%TD*%
%TO.C,JP18*%
X194280000Y-121920000D03*
X195580000Y-121920000D03*
%TD*%
D22*
%TO.C,D2*%
X190500000Y-81280000D03*
D23*
X187960000Y-81280000D03*
%TD*%
D17*
%TO.C,TP7*%
X138400000Y-86360000D03*
X140940000Y-86360000D03*
%TD*%
%TO.C,TP6*%
X177800000Y-88900000D03*
X180340000Y-88900000D03*
%TD*%
%TO.C,TP5*%
X114850000Y-88900000D03*
X117390000Y-88900000D03*
%TD*%
%TO.C,TP4*%
X86300000Y-88900000D03*
X88840000Y-88900000D03*
%TD*%
%TO.C,TP3*%
X175260000Y-101600000D03*
X177800000Y-101600000D03*
%TD*%
%TO.C,TP2*%
X112310000Y-101600000D03*
X114850000Y-101600000D03*
%TD*%
%TO.C,TP1*%
X83760000Y-101600000D03*
X86300000Y-101600000D03*
%TD*%
D18*
%TO.C,R22*%
X151125000Y-106680000D03*
X151765000Y-106680000D03*
%TD*%
%TO.C,R21*%
X143505000Y-106680000D03*
X144145000Y-106680000D03*
%TD*%
%TO.C,R20*%
X130805000Y-106680000D03*
X131445000Y-106680000D03*
%TD*%
%TO.C,R19*%
X135885000Y-106680000D03*
X136525000Y-106680000D03*
%TD*%
%TO.C,R17*%
X170180000Y-83820000D03*
X170820000Y-83820000D03*
%TD*%
%TO.C,R16*%
X177800000Y-111760000D03*
X178440000Y-111760000D03*
%TD*%
%TO.C,R15*%
X172720000Y-111760000D03*
X173360000Y-111760000D03*
%TD*%
%TO.C,R14*%
X177800000Y-116840000D03*
X178440000Y-116840000D03*
%TD*%
%TO.C,R13*%
X172720000Y-116840000D03*
X173360000Y-116840000D03*
%TD*%
%TO.C,R11*%
X114325000Y-83820000D03*
X114965000Y-83820000D03*
%TD*%
%TO.C,R10*%
X116750000Y-111760000D03*
X117390000Y-111760000D03*
%TD*%
%TO.C,R9*%
X112335000Y-111760000D03*
X112975000Y-111760000D03*
%TD*%
%TO.C,R8*%
X117415000Y-116840000D03*
X118055000Y-116840000D03*
%TD*%
%TO.C,R7*%
X111695000Y-116840000D03*
X112335000Y-116840000D03*
%TD*%
D24*
%TO.C,R6*%
X89505000Y-111760000D03*
X88865000Y-111760000D03*
%TD*%
D18*
%TO.C,R5*%
X88865000Y-116840000D03*
X89505000Y-116840000D03*
%TD*%
%TO.C,R4*%
X83785000Y-111760000D03*
X84425000Y-111760000D03*
%TD*%
D24*
%TO.C,R3*%
X84425000Y-116840000D03*
X83785000Y-116840000D03*
%TD*%
D18*
%TO.C,R1*%
X88235000Y-83820000D03*
X88875000Y-83820000D03*
%TD*%
D19*
%TO.C,Q3*%
X175260000Y-96520000D03*
D20*
X176530000Y-96520000D03*
X177800000Y-96520000D03*
%TD*%
D19*
%TO.C,Q2*%
X83760000Y-96520000D03*
D20*
X85030000Y-96520000D03*
X86300000Y-96520000D03*
%TD*%
D19*
%TO.C,Q1*%
X112310000Y-96520000D03*
D20*
X113580000Y-96520000D03*
X114850000Y-96520000D03*
%TD*%
D21*
%TO.C,JP17*%
X135860000Y-99060000D03*
X137160000Y-99060000D03*
%TD*%
%TO.C,JP16*%
X128240000Y-99060000D03*
X129540000Y-99060000D03*
%TD*%
%TO.C,JP14*%
X151100000Y-99060000D03*
X152400000Y-99060000D03*
%TD*%
%TO.C,JP13*%
X143480000Y-99060000D03*
X144780000Y-99060000D03*
%TD*%
%TO.C,JP12*%
X179040000Y-106680000D03*
X180340000Y-106680000D03*
%TD*%
%TO.C,JP11*%
X171420000Y-106680000D03*
X172720000Y-106680000D03*
%TD*%
%TO.C,JP10*%
X179040000Y-121920000D03*
X180340000Y-121920000D03*
%TD*%
%TO.C,JP9*%
X170180000Y-121920000D03*
X171480000Y-121920000D03*
%TD*%
%TO.C,JP8*%
X117415000Y-106680000D03*
X118715000Y-106680000D03*
%TD*%
%TO.C,JP7*%
X111010000Y-106680000D03*
X112310000Y-106680000D03*
%TD*%
%TO.C,JP6*%
X118630000Y-121920000D03*
X119930000Y-121920000D03*
%TD*%
%TO.C,JP5*%
X111070000Y-121920000D03*
X109770000Y-121920000D03*
%TD*%
%TO.C,JP4*%
X88840000Y-106680000D03*
X90140000Y-106680000D03*
%TD*%
%TO.C,JP3*%
X83760000Y-106680000D03*
X85060000Y-106680000D03*
%TD*%
%TO.C,JP2*%
X88840000Y-121920000D03*
X90140000Y-121920000D03*
%TD*%
%TO.C,JP1*%
X83760000Y-121920000D03*
X85060000Y-121920000D03*
%TD*%
D25*
%TO.C,J1*%
X162560000Y-132080000D03*
D26*
X162560000Y-129540000D03*
X160020000Y-132080000D03*
X160020000Y-129540000D03*
X157480000Y-132080000D03*
X157480000Y-129540000D03*
X154940000Y-132080000D03*
X154940000Y-129540000D03*
X152400000Y-132080000D03*
X152400000Y-129540000D03*
X149860000Y-132080000D03*
X149860000Y-129540000D03*
X147320000Y-132080000D03*
X147320000Y-129540000D03*
X144780000Y-132080000D03*
X144780000Y-129540000D03*
X142240000Y-132080000D03*
X142240000Y-129540000D03*
X139700000Y-132080000D03*
X139700000Y-129540000D03*
X137160000Y-132080000D03*
X137160000Y-129540000D03*
X134620000Y-132080000D03*
X134620000Y-129540000D03*
X132080000Y-132080000D03*
X132080000Y-129540000D03*
X129540000Y-132080000D03*
X129540000Y-129540000D03*
%TD*%
D22*
%TO.C,D4*%
X177800000Y-81280000D03*
D23*
X175260000Y-81280000D03*
%TD*%
D22*
%TO.C,D3*%
X127000000Y-81280000D03*
D23*
X124460000Y-81280000D03*
%TD*%
D22*
%TO.C,D1*%
X111760000Y-81280000D03*
D23*
X109220000Y-81280000D03*
%TD*%
%LPD*%
M02*
