%TF.GenerationSoftware,KiCad,Pcbnew,7.0.10*%
%TF.CreationDate,2024-03-24T23:27:10+02:00*%
%TF.ProjectId,Sensing_Subsystem_Group_8,53656e73-696e-4675-9f53-756273797374,rev?*%
%TF.SameCoordinates,Original*%
%TF.FileFunction,Legend,Bot*%
%TF.FilePolarity,Positive*%
%FSLAX46Y46*%
G04 Gerber Fmt 4.6, Leading zero omitted, Abs format (unit mm)*
G04 Created by KiCad (PCBNEW 7.0.10) date 2024-03-24 23:27:10*
%MOMM*%
%LPD*%
G01*
G04 APERTURE LIST*
%ADD10C,0.150000*%
%ADD11C,0.120000*%
%ADD12C,1.651003*%
%ADD13C,1.400000*%
%ADD14R,1.050000X1.500000*%
%ADD15O,1.050000X1.500000*%
%ADD16R,1.800000X1.800000*%
%ADD17C,1.800000*%
%ADD18R,1.700000X1.700000*%
%ADD19O,1.700000X1.700000*%
G04 APERTURE END LIST*
D10*
X164344819Y-130476666D02*
X165059104Y-130476666D01*
X165059104Y-130476666D02*
X165201961Y-130429047D01*
X165201961Y-130429047D02*
X165297200Y-130333809D01*
X165297200Y-130333809D02*
X165344819Y-130190952D01*
X165344819Y-130190952D02*
X165344819Y-130095714D01*
X165344819Y-131476666D02*
X165344819Y-130905238D01*
X165344819Y-131190952D02*
X164344819Y-131190952D01*
X164344819Y-131190952D02*
X164487676Y-131095714D01*
X164487676Y-131095714D02*
X164582914Y-131000476D01*
X164582914Y-131000476D02*
X164630533Y-130905238D01*
D11*
%TO.C,J1*%
X128210000Y-133410000D02*
X128210000Y-128210000D01*
X163890000Y-128210000D02*
X128210000Y-128210000D01*
X161290000Y-133410000D02*
X128210000Y-133410000D01*
X163890000Y-133410000D02*
X163890000Y-132080000D01*
X161290000Y-133410000D02*
X161290000Y-130810000D01*
X161290000Y-130810000D02*
X163890000Y-130810000D01*
X162560000Y-133410000D02*
X163890000Y-133410000D01*
X163890000Y-130810000D02*
X163890000Y-128210000D01*
%TD*%
%LPC*%
D12*
%TO.C,LED1*%
X151130003Y-78740000D03*
X148589997Y-78740000D03*
%TD*%
D13*
%TO.C,TP10*%
X154940000Y-78740000D03*
X157480000Y-78740000D03*
%TD*%
%TO.C,TP9*%
X200660000Y-86360000D03*
X203200000Y-86360000D03*
%TD*%
%TO.C,TP8*%
X198120000Y-101600000D03*
X200660000Y-101600000D03*
%TD*%
D14*
%TO.C,Q5*%
X198120000Y-96520000D03*
D15*
X199390000Y-96520000D03*
X200660000Y-96520000D03*
%TD*%
D16*
%TO.C,D2*%
X190500000Y-81280000D03*
D17*
X187960000Y-81280000D03*
%TD*%
D13*
%TO.C,TP7*%
X138400000Y-86360000D03*
X140940000Y-86360000D03*
%TD*%
%TO.C,TP6*%
X177800000Y-88900000D03*
X180340000Y-88900000D03*
%TD*%
%TO.C,TP5*%
X114850000Y-88900000D03*
X117390000Y-88900000D03*
%TD*%
%TO.C,TP4*%
X86300000Y-88900000D03*
X88840000Y-88900000D03*
%TD*%
%TO.C,TP3*%
X175260000Y-101600000D03*
X177800000Y-101600000D03*
%TD*%
%TO.C,TP2*%
X112310000Y-101600000D03*
X114850000Y-101600000D03*
%TD*%
%TO.C,TP1*%
X83760000Y-101600000D03*
X86300000Y-101600000D03*
%TD*%
D14*
%TO.C,Q3*%
X175260000Y-96520000D03*
D15*
X176530000Y-96520000D03*
X177800000Y-96520000D03*
%TD*%
D14*
%TO.C,Q2*%
X83760000Y-96520000D03*
D15*
X85030000Y-96520000D03*
X86300000Y-96520000D03*
%TD*%
D14*
%TO.C,Q1*%
X112310000Y-96520000D03*
D15*
X113580000Y-96520000D03*
X114850000Y-96520000D03*
%TD*%
D18*
%TO.C,J1*%
X162560000Y-132080000D03*
D19*
X162560000Y-129540000D03*
X160020000Y-132080000D03*
X160020000Y-129540000D03*
X157480000Y-132080000D03*
X157480000Y-129540000D03*
X154940000Y-132080000D03*
X154940000Y-129540000D03*
X152400000Y-132080000D03*
X152400000Y-129540000D03*
X149860000Y-132080000D03*
X149860000Y-129540000D03*
X147320000Y-132080000D03*
X147320000Y-129540000D03*
X144780000Y-132080000D03*
X144780000Y-129540000D03*
X142240000Y-132080000D03*
X142240000Y-129540000D03*
X139700000Y-132080000D03*
X139700000Y-129540000D03*
X137160000Y-132080000D03*
X137160000Y-129540000D03*
X134620000Y-132080000D03*
X134620000Y-129540000D03*
X132080000Y-132080000D03*
X132080000Y-129540000D03*
X129540000Y-132080000D03*
X129540000Y-129540000D03*
%TD*%
D16*
%TO.C,D4*%
X177800000Y-81280000D03*
D17*
X175260000Y-81280000D03*
%TD*%
D16*
%TO.C,D3*%
X127000000Y-81280000D03*
D17*
X124460000Y-81280000D03*
%TD*%
D16*
%TO.C,D1*%
X111760000Y-81280000D03*
D17*
X109220000Y-81280000D03*
%TD*%
%LPD*%
M02*
