%TF.GenerationSoftware,KiCad,Pcbnew,7.0.10*%
%TF.CreationDate,2024-03-24T23:27:10+02:00*%
%TF.ProjectId,Sensing_Subsystem_Group_8,53656e73-696e-4675-9f53-756273797374,rev?*%
%TF.SameCoordinates,Original*%
%TF.FileFunction,Copper,L2,Bot*%
%TF.FilePolarity,Positive*%
%FSLAX46Y46*%
G04 Gerber Fmt 4.6, Leading zero omitted, Abs format (unit mm)*
G04 Created by KiCad (PCBNEW 7.0.10) date 2024-03-24 23:27:10*
%MOMM*%
%LPD*%
G01*
G04 APERTURE LIST*
%TA.AperFunction,ComponentPad*%
%ADD10C,1.651003*%
%TD*%
%TA.AperFunction,ComponentPad*%
%ADD11C,1.400000*%
%TD*%
%TA.AperFunction,ComponentPad*%
%ADD12R,1.050000X1.500000*%
%TD*%
%TA.AperFunction,ComponentPad*%
%ADD13O,1.050000X1.500000*%
%TD*%
%TA.AperFunction,ComponentPad*%
%ADD14R,1.800000X1.800000*%
%TD*%
%TA.AperFunction,ComponentPad*%
%ADD15C,1.800000*%
%TD*%
%TA.AperFunction,ComponentPad*%
%ADD16R,1.700000X1.700000*%
%TD*%
%TA.AperFunction,ComponentPad*%
%ADD17O,1.700000X1.700000*%
%TD*%
%TA.AperFunction,Conductor*%
%ADD18C,0.600000*%
%TD*%
%TA.AperFunction,Conductor*%
%ADD19C,0.400000*%
%TD*%
G04 APERTURE END LIST*
D10*
%TO.P,LED1,2,C*%
%TO.N,BATT*%
X151130003Y-78740000D03*
%TO.P,LED1,1,E*%
%TO.N,PA3*%
X148589997Y-78740000D03*
%TD*%
D11*
%TO.P,TP10,1,1*%
%TO.N,PA3*%
X154940000Y-78740000D03*
%TO.P,TP10,2*%
%TO.N,N/C*%
X157480000Y-78740000D03*
%TD*%
%TO.P,TP9,1,1*%
%TO.N,Net-(Q5-C)*%
X200660000Y-86360000D03*
%TO.P,TP9,2*%
%TO.N,N/C*%
X203200000Y-86360000D03*
%TD*%
%TO.P,TP8,1,1*%
%TO.N,Net-(JP20-B)*%
X198120000Y-101600000D03*
%TO.P,TP8,2*%
%TO.N,N/C*%
X200660000Y-101600000D03*
%TD*%
D12*
%TO.P,Q5,1,E*%
%TO.N,GND*%
X198120000Y-96520000D03*
D13*
%TO.P,Q5,2,B*%
%TO.N,Net-(JP20-B)*%
X199390000Y-96520000D03*
%TO.P,Q5,3,C*%
%TO.N,Net-(Q5-C)*%
X200660000Y-96520000D03*
%TD*%
D14*
%TO.P,D2,1,K*%
%TO.N,Net-(D2-K)*%
X190500000Y-81280000D03*
D15*
%TO.P,D2,2,A*%
%TO.N,BATT*%
X187960000Y-81280000D03*
%TD*%
D11*
%TO.P,TP7,1,1*%
%TO.N,PA3*%
X138400000Y-86360000D03*
%TO.P,TP7,2*%
%TO.N,N/C*%
X140940000Y-86360000D03*
%TD*%
%TO.P,TP6,1,1*%
%TO.N,Net-(Q3-C)*%
X177800000Y-88900000D03*
%TO.P,TP6,2*%
%TO.N,N/C*%
X180340000Y-88900000D03*
%TD*%
%TO.P,TP5,1,1*%
%TO.N,Net-(Q1-C)*%
X114850000Y-88900000D03*
%TO.P,TP5,2*%
%TO.N,N/C*%
X117390000Y-88900000D03*
%TD*%
%TO.P,TP4,1,1*%
%TO.N,Net-(Q2-C)*%
X86300000Y-88900000D03*
%TO.P,TP4,2*%
%TO.N,N/C*%
X88840000Y-88900000D03*
%TD*%
%TO.P,TP3,1,1*%
%TO.N,Net-(JP11-B)*%
X175260000Y-101600000D03*
%TO.P,TP3,2*%
%TO.N,N/C*%
X177800000Y-101600000D03*
%TD*%
%TO.P,TP2,1,1*%
%TO.N,Net-(JP7-B)*%
X112310000Y-101600000D03*
%TO.P,TP2,2*%
%TO.N,N/C*%
X114850000Y-101600000D03*
%TD*%
%TO.P,TP1,1,1*%
%TO.N,Net-(JP3-B)*%
X83760000Y-101600000D03*
%TO.P,TP1,2*%
%TO.N,N/C*%
X86300000Y-101600000D03*
%TD*%
D12*
%TO.P,Q3,1,E*%
%TO.N,GND*%
X175260000Y-96520000D03*
D13*
%TO.P,Q3,2,B*%
%TO.N,Net-(JP11-B)*%
X176530000Y-96520000D03*
%TO.P,Q3,3,C*%
%TO.N,Net-(Q3-C)*%
X177800000Y-96520000D03*
%TD*%
D12*
%TO.P,Q2,1,E*%
%TO.N,GND*%
X83760000Y-96520000D03*
D13*
%TO.P,Q2,2,B*%
%TO.N,Net-(JP3-B)*%
X85030000Y-96520000D03*
%TO.P,Q2,3,C*%
%TO.N,Net-(Q2-C)*%
X86300000Y-96520000D03*
%TD*%
D12*
%TO.P,Q1,1,E*%
%TO.N,GND*%
X112310000Y-96520000D03*
D13*
%TO.P,Q1,2,B*%
%TO.N,Net-(JP7-B)*%
X113580000Y-96520000D03*
%TO.P,Q1,3,C*%
%TO.N,Net-(Q1-C)*%
X114850000Y-96520000D03*
%TD*%
D16*
%TO.P,J1,1,Pin_1*%
%TO.N,RESV3*%
X162560000Y-132080000D03*
D17*
%TO.P,J1,2,Pin_2*%
%TO.N,3V3*%
X162560000Y-129540000D03*
%TO.P,J1,3,Pin_3*%
%TO.N,GND*%
X160020000Y-132080000D03*
%TO.P,J1,4,Pin_4*%
%TO.N,BATT*%
X160020000Y-129540000D03*
%TO.P,J1,5,Pin_5*%
%TO.N,PA3*%
X157480000Y-132080000D03*
%TO.P,J1,6,Pin_6*%
%TO.N,RESV2*%
X157480000Y-129540000D03*
%TO.P,J1,7,Pin_7*%
%TO.N,PA4*%
X154940000Y-132080000D03*
%TO.P,J1,8,Pin_8*%
%TO.N,PE15*%
X154940000Y-129540000D03*
%TO.P,J1,9,Pin_9*%
%TO.N,GND*%
X152400000Y-132080000D03*
%TO.P,J1,10,Pin_10*%
%TO.N,PE14*%
X152400000Y-129540000D03*
%TO.P,J1,11,Pin_11*%
%TO.N,PA5*%
X149860000Y-132080000D03*
%TO.P,J1,12,Pin_12*%
%TO.N,PE13*%
X149860000Y-129540000D03*
%TO.P,J1,13,Pin_13*%
%TO.N,PA6*%
X147320000Y-132080000D03*
%TO.P,J1,14,Pin_14*%
%TO.N,PE12*%
X147320000Y-129540000D03*
%TO.P,J1,15,Pin_15*%
%TO.N,GND*%
X144780000Y-132080000D03*
%TO.P,J1,16,Pin_16*%
%TO.N,PE11*%
X144780000Y-129540000D03*
%TO.P,J1,17,Pin_17*%
%TO.N,PA7*%
X142240000Y-132080000D03*
%TO.P,J1,18,Pin_18*%
%TO.N,PE10*%
X142240000Y-129540000D03*
%TO.P,J1,19,Pin_19*%
%TO.N,PC4*%
X139700000Y-132080000D03*
%TO.P,J1,20,Pin_20*%
%TO.N,PE9*%
X139700000Y-129540000D03*
%TO.P,J1,21,Pin_21*%
%TO.N,GND*%
X137160000Y-132080000D03*
%TO.P,J1,22,Pin_22*%
%TO.N,PE8*%
X137160000Y-129540000D03*
%TO.P,J1,23,Pin_23*%
%TO.N,PC5*%
X134620000Y-132080000D03*
%TO.P,J1,24,Pin_24*%
%TO.N,RESV1*%
X134620000Y-129540000D03*
%TO.P,J1,25,Pin_25*%
%TO.N,AB0*%
X132080000Y-132080000D03*
%TO.P,J1,26,Pin_26*%
%TO.N,BATT*%
X132080000Y-129540000D03*
%TO.P,J1,27,Pin_27*%
%TO.N,GND*%
X129540000Y-132080000D03*
%TO.P,J1,28,Pin_28*%
%TO.N,3V3*%
X129540000Y-129540000D03*
%TD*%
D14*
%TO.P,D4,1,K*%
%TO.N,Net-(D4-K)*%
X177800000Y-81280000D03*
D15*
%TO.P,D4,2,A*%
%TO.N,BATT*%
X175260000Y-81280000D03*
%TD*%
D14*
%TO.P,D3,1,K*%
%TO.N,Net-(D3-K)*%
X127000000Y-81280000D03*
D15*
%TO.P,D3,2,A*%
%TO.N,BATT*%
X124460000Y-81280000D03*
%TD*%
D14*
%TO.P,D1,1,K*%
%TO.N,Net-(D1-K)*%
X111760000Y-81280000D03*
D15*
%TO.P,D1,2,A*%
%TO.N,BATT*%
X109220000Y-81280000D03*
%TD*%
D18*
%TO.N,BATT*%
X175260000Y-78740000D02*
X185420000Y-78740000D01*
X185420000Y-78740000D02*
X187960000Y-81280000D01*
X175260000Y-78740000D02*
X175260000Y-81280000D01*
X151130003Y-78740000D02*
X151130003Y-80010003D01*
X152400000Y-81280000D02*
X172720000Y-81280000D01*
X151130003Y-80010003D02*
X152400000Y-81280000D01*
X147320000Y-81280000D02*
X152400000Y-81280000D01*
X106680000Y-81280000D02*
X109220000Y-81280000D01*
X109220000Y-78740000D02*
X106680000Y-81280000D01*
X119380000Y-81280000D02*
X124460000Y-81280000D01*
X119380000Y-81280000D02*
X117390000Y-81280000D01*
X144780000Y-81280000D02*
X119380000Y-81280000D01*
X109220000Y-78740000D02*
X109770000Y-78740000D01*
X114850000Y-78740000D02*
X109220000Y-78740000D01*
X147320000Y-81280000D02*
X147320000Y-81279994D01*
X144780000Y-81280000D02*
X147320000Y-81280000D01*
X172720000Y-81280000D02*
X175260000Y-78740000D01*
%TO.N,PA3*%
X205740000Y-76200000D02*
X205740000Y-129540000D01*
X157480000Y-76200000D02*
X205740000Y-76200000D01*
X200660000Y-134620000D02*
X160020000Y-134620000D01*
X205740000Y-129540000D02*
X200660000Y-134620000D01*
X154940000Y-78740000D02*
X157480000Y-76200000D01*
X160020000Y-134620000D02*
X157480000Y-132080000D01*
%TO.N,BATT*%
X117390000Y-81280000D02*
X114850000Y-78740000D01*
X114850000Y-78740000D02*
X132080000Y-95970000D01*
X132080000Y-95970000D02*
X132080000Y-129540000D01*
X160020000Y-93980000D02*
X160020000Y-129540000D01*
X175260000Y-78740000D02*
X160020000Y-93980000D01*
D19*
%TO.N,GND*%
X161270000Y-133330000D02*
X160020000Y-132080000D01*
X186710000Y-133330000D02*
X161270000Y-133330000D01*
X187960000Y-132080000D02*
X186710000Y-133330000D01*
X187960000Y-106680000D02*
X187960000Y-132080000D01*
X198120000Y-96520000D02*
X187960000Y-106680000D01*
X167640000Y-132080000D02*
X166390000Y-133330000D01*
X167640000Y-104140000D02*
X167640000Y-132080000D01*
X166390000Y-133330000D02*
X161270000Y-133330000D01*
X175260000Y-96520000D02*
X167640000Y-104140000D01*
X106680000Y-132080000D02*
X129540000Y-132080000D01*
X106680000Y-102150000D02*
X106680000Y-132080000D01*
X112310000Y-96520000D02*
X106680000Y-102150000D01*
%TD*%
%TA.AperFunction,Conductor*%
%TO.N,GND*%
G36*
X208222539Y-73680185D02*
G01*
X208268294Y-73732989D01*
X208279500Y-73784500D01*
X208279500Y-137035500D01*
X208259815Y-137102539D01*
X208207011Y-137148294D01*
X208155500Y-137159500D01*
X76324500Y-137159500D01*
X76257461Y-137139815D01*
X76211706Y-137087011D01*
X76200500Y-137035500D01*
X76200500Y-101600000D01*
X82554357Y-101600000D01*
X82574884Y-101821535D01*
X82574885Y-101821537D01*
X82635769Y-102035523D01*
X82635775Y-102035538D01*
X82734938Y-102234683D01*
X82734943Y-102234691D01*
X82869020Y-102412238D01*
X83033437Y-102562123D01*
X83033439Y-102562125D01*
X83222595Y-102679245D01*
X83222596Y-102679245D01*
X83222599Y-102679247D01*
X83430060Y-102759618D01*
X83648757Y-102800500D01*
X83648759Y-102800500D01*
X83871241Y-102800500D01*
X83871243Y-102800500D01*
X84089940Y-102759618D01*
X84297401Y-102679247D01*
X84486562Y-102562124D01*
X84650981Y-102412236D01*
X84785058Y-102234689D01*
X84884229Y-102035528D01*
X84910734Y-101942371D01*
X84948013Y-101883278D01*
X85011323Y-101853721D01*
X85080562Y-101863083D01*
X85133749Y-101908393D01*
X85149266Y-101942372D01*
X85175769Y-102035523D01*
X85175775Y-102035538D01*
X85274938Y-102234683D01*
X85274943Y-102234691D01*
X85409020Y-102412238D01*
X85573437Y-102562123D01*
X85573439Y-102562125D01*
X85762595Y-102679245D01*
X85762596Y-102679245D01*
X85762599Y-102679247D01*
X85970060Y-102759618D01*
X86188757Y-102800500D01*
X86188759Y-102800500D01*
X86411241Y-102800500D01*
X86411243Y-102800500D01*
X86629940Y-102759618D01*
X86837401Y-102679247D01*
X87026562Y-102562124D01*
X87190981Y-102412236D01*
X87325058Y-102234689D01*
X87424229Y-102035528D01*
X87485115Y-101821536D01*
X87505643Y-101600000D01*
X111104357Y-101600000D01*
X111124884Y-101821535D01*
X111124885Y-101821537D01*
X111185769Y-102035523D01*
X111185775Y-102035538D01*
X111284938Y-102234683D01*
X111284943Y-102234691D01*
X111419020Y-102412238D01*
X111583437Y-102562123D01*
X111583439Y-102562125D01*
X111772595Y-102679245D01*
X111772596Y-102679245D01*
X111772599Y-102679247D01*
X111980060Y-102759618D01*
X112198757Y-102800500D01*
X112198759Y-102800500D01*
X112421241Y-102800500D01*
X112421243Y-102800500D01*
X112639940Y-102759618D01*
X112847401Y-102679247D01*
X113036562Y-102562124D01*
X113200981Y-102412236D01*
X113335058Y-102234689D01*
X113434229Y-102035528D01*
X113460734Y-101942371D01*
X113498013Y-101883278D01*
X113561323Y-101853721D01*
X113630562Y-101863083D01*
X113683749Y-101908393D01*
X113699266Y-101942372D01*
X113725769Y-102035523D01*
X113725775Y-102035538D01*
X113824938Y-102234683D01*
X113824943Y-102234691D01*
X113959020Y-102412238D01*
X114123437Y-102562123D01*
X114123439Y-102562125D01*
X114312595Y-102679245D01*
X114312596Y-102679245D01*
X114312599Y-102679247D01*
X114520060Y-102759618D01*
X114738757Y-102800500D01*
X114738759Y-102800500D01*
X114961241Y-102800500D01*
X114961243Y-102800500D01*
X115179940Y-102759618D01*
X115387401Y-102679247D01*
X115576562Y-102562124D01*
X115740981Y-102412236D01*
X115875058Y-102234689D01*
X115974229Y-102035528D01*
X116035115Y-101821536D01*
X116055643Y-101600000D01*
X116035115Y-101378464D01*
X115974229Y-101164472D01*
X115974224Y-101164461D01*
X115875061Y-100965316D01*
X115875056Y-100965308D01*
X115740979Y-100787761D01*
X115576562Y-100637876D01*
X115576560Y-100637874D01*
X115387404Y-100520754D01*
X115387398Y-100520752D01*
X115179940Y-100440382D01*
X114961243Y-100399500D01*
X114738757Y-100399500D01*
X114520060Y-100440382D01*
X114388864Y-100491207D01*
X114312601Y-100520752D01*
X114312595Y-100520754D01*
X114123439Y-100637874D01*
X114123437Y-100637876D01*
X113959020Y-100787761D01*
X113824943Y-100965308D01*
X113824938Y-100965316D01*
X113725775Y-101164461D01*
X113725769Y-101164476D01*
X113699266Y-101257627D01*
X113661987Y-101316721D01*
X113598677Y-101346278D01*
X113529438Y-101336916D01*
X113476251Y-101291606D01*
X113460734Y-101257627D01*
X113434230Y-101164476D01*
X113434229Y-101164472D01*
X113434224Y-101164461D01*
X113335061Y-100965316D01*
X113335056Y-100965308D01*
X113200979Y-100787761D01*
X113036562Y-100637876D01*
X113036560Y-100637874D01*
X112847404Y-100520754D01*
X112847398Y-100520752D01*
X112639940Y-100440382D01*
X112421243Y-100399500D01*
X112198757Y-100399500D01*
X111980060Y-100440382D01*
X111848864Y-100491207D01*
X111772601Y-100520752D01*
X111772595Y-100520754D01*
X111583439Y-100637874D01*
X111583437Y-100637876D01*
X111419020Y-100787761D01*
X111284943Y-100965308D01*
X111284938Y-100965316D01*
X111185775Y-101164461D01*
X111185769Y-101164476D01*
X111124885Y-101378462D01*
X111124884Y-101378464D01*
X111104357Y-101599999D01*
X111104357Y-101600000D01*
X87505643Y-101600000D01*
X87485115Y-101378464D01*
X87424229Y-101164472D01*
X87424224Y-101164461D01*
X87325061Y-100965316D01*
X87325056Y-100965308D01*
X87190979Y-100787761D01*
X87026562Y-100637876D01*
X87026560Y-100637874D01*
X86837404Y-100520754D01*
X86837398Y-100520752D01*
X86629940Y-100440382D01*
X86411243Y-100399500D01*
X86188757Y-100399500D01*
X85970060Y-100440382D01*
X85838864Y-100491207D01*
X85762601Y-100520752D01*
X85762595Y-100520754D01*
X85573439Y-100637874D01*
X85573437Y-100637876D01*
X85409020Y-100787761D01*
X85274943Y-100965308D01*
X85274938Y-100965316D01*
X85175775Y-101164461D01*
X85175769Y-101164476D01*
X85149266Y-101257627D01*
X85111987Y-101316721D01*
X85048677Y-101346278D01*
X84979438Y-101336916D01*
X84926251Y-101291606D01*
X84910734Y-101257627D01*
X84884230Y-101164476D01*
X84884229Y-101164472D01*
X84884224Y-101164461D01*
X84785061Y-100965316D01*
X84785056Y-100965308D01*
X84650979Y-100787761D01*
X84486562Y-100637876D01*
X84486560Y-100637874D01*
X84297404Y-100520754D01*
X84297398Y-100520752D01*
X84089940Y-100440382D01*
X83871243Y-100399500D01*
X83648757Y-100399500D01*
X83430060Y-100440382D01*
X83298864Y-100491207D01*
X83222601Y-100520752D01*
X83222595Y-100520754D01*
X83033439Y-100637874D01*
X83033437Y-100637876D01*
X82869020Y-100787761D01*
X82734943Y-100965308D01*
X82734938Y-100965316D01*
X82635775Y-101164461D01*
X82635769Y-101164476D01*
X82574885Y-101378462D01*
X82574884Y-101378464D01*
X82554357Y-101599999D01*
X82554357Y-101600000D01*
X76200500Y-101600000D01*
X76200500Y-97317844D01*
X82735000Y-97317844D01*
X82741401Y-97377372D01*
X82741403Y-97377379D01*
X82791645Y-97512086D01*
X82791649Y-97512093D01*
X82877809Y-97627187D01*
X82877812Y-97627190D01*
X82992906Y-97713350D01*
X82992913Y-97713354D01*
X83127620Y-97763596D01*
X83127627Y-97763598D01*
X83187155Y-97769999D01*
X83187172Y-97770000D01*
X83510000Y-97770000D01*
X83510000Y-96800617D01*
X83579052Y-96854363D01*
X83697424Y-96895000D01*
X83791073Y-96895000D01*
X83883446Y-96879586D01*
X83993514Y-96820019D01*
X84005630Y-96806856D01*
X84009403Y-96845160D01*
X84010000Y-96857314D01*
X84010000Y-97770000D01*
X84332828Y-97770000D01*
X84332844Y-97769999D01*
X84392372Y-97763598D01*
X84392376Y-97763597D01*
X84527093Y-97713350D01*
X84534876Y-97709101D01*
X84536071Y-97711289D01*
X84589109Y-97691492D01*
X84633982Y-97696513D01*
X84635653Y-97697020D01*
X84635659Y-97697023D01*
X84828967Y-97755662D01*
X85030000Y-97775462D01*
X85231033Y-97755662D01*
X85424341Y-97697023D01*
X85602494Y-97601798D01*
X85602498Y-97601794D01*
X85606546Y-97599631D01*
X85674949Y-97585389D01*
X85723454Y-97599631D01*
X85727502Y-97601794D01*
X85727506Y-97601798D01*
X85905659Y-97697023D01*
X86098967Y-97755662D01*
X86300000Y-97775462D01*
X86501033Y-97755662D01*
X86694341Y-97697023D01*
X86872494Y-97601798D01*
X87028647Y-97473647D01*
X87156511Y-97317844D01*
X111285000Y-97317844D01*
X111291401Y-97377372D01*
X111291403Y-97377379D01*
X111341645Y-97512086D01*
X111341649Y-97512093D01*
X111427809Y-97627187D01*
X111427812Y-97627190D01*
X111542906Y-97713350D01*
X111542913Y-97713354D01*
X111677620Y-97763596D01*
X111677627Y-97763598D01*
X111737155Y-97769999D01*
X111737172Y-97770000D01*
X112060000Y-97770000D01*
X112060000Y-96800617D01*
X112129052Y-96854363D01*
X112247424Y-96895000D01*
X112341073Y-96895000D01*
X112433446Y-96879586D01*
X112543514Y-96820019D01*
X112555630Y-96806856D01*
X112559403Y-96845160D01*
X112560000Y-96857314D01*
X112560000Y-97770000D01*
X112882828Y-97770000D01*
X112882844Y-97769999D01*
X112942372Y-97763598D01*
X112942376Y-97763597D01*
X113077093Y-97713350D01*
X113084876Y-97709101D01*
X113086071Y-97711289D01*
X113139109Y-97691492D01*
X113183982Y-97696513D01*
X113185653Y-97697020D01*
X113185659Y-97697023D01*
X113378967Y-97755662D01*
X113580000Y-97775462D01*
X113781033Y-97755662D01*
X113974341Y-97697023D01*
X114152494Y-97601798D01*
X114152498Y-97601794D01*
X114156546Y-97599631D01*
X114224949Y-97585389D01*
X114273454Y-97599631D01*
X114277502Y-97601794D01*
X114277506Y-97601798D01*
X114455659Y-97697023D01*
X114648967Y-97755662D01*
X114850000Y-97775462D01*
X115051033Y-97755662D01*
X115244341Y-97697023D01*
X115422494Y-97601798D01*
X115578647Y-97473647D01*
X115706798Y-97317494D01*
X115802023Y-97139341D01*
X115860662Y-96946033D01*
X115875500Y-96795380D01*
X115875500Y-96244620D01*
X115860662Y-96093967D01*
X115802023Y-95900659D01*
X115802021Y-95900656D01*
X115802021Y-95900654D01*
X115706801Y-95722511D01*
X115706799Y-95722509D01*
X115706798Y-95722506D01*
X115657651Y-95662620D01*
X115578647Y-95566352D01*
X115422495Y-95438203D01*
X115422488Y-95438198D01*
X115244345Y-95342978D01*
X115051031Y-95284337D01*
X114850000Y-95264538D01*
X114648968Y-95284337D01*
X114455654Y-95342978D01*
X114273453Y-95440367D01*
X114205050Y-95454609D01*
X114156547Y-95440367D01*
X113974345Y-95342978D01*
X113781031Y-95284337D01*
X113580000Y-95264538D01*
X113378968Y-95284337D01*
X113241371Y-95326076D01*
X113185659Y-95342977D01*
X113185657Y-95342977D01*
X113183982Y-95343486D01*
X113114115Y-95344109D01*
X113085414Y-95329902D01*
X113084872Y-95330897D01*
X113077086Y-95326645D01*
X112942379Y-95276403D01*
X112942372Y-95276401D01*
X112882844Y-95270000D01*
X112560000Y-95270000D01*
X112560000Y-96182684D01*
X112559403Y-96194837D01*
X112555370Y-96235779D01*
X112490948Y-96185637D01*
X112372576Y-96145000D01*
X112278927Y-96145000D01*
X112186554Y-96160414D01*
X112076486Y-96219981D01*
X112060000Y-96237889D01*
X112060000Y-95270000D01*
X111737155Y-95270000D01*
X111677627Y-95276401D01*
X111677620Y-95276403D01*
X111542913Y-95326645D01*
X111542906Y-95326649D01*
X111427812Y-95412809D01*
X111427809Y-95412812D01*
X111341649Y-95527906D01*
X111341645Y-95527913D01*
X111291403Y-95662620D01*
X111291401Y-95662627D01*
X111285000Y-95722155D01*
X111285000Y-96270000D01*
X112030440Y-96270000D01*
X111991722Y-96312059D01*
X111941449Y-96426670D01*
X111931114Y-96551395D01*
X111961837Y-96672719D01*
X112025394Y-96770000D01*
X111285000Y-96770000D01*
X111285000Y-97317844D01*
X87156511Y-97317844D01*
X87156798Y-97317494D01*
X87252023Y-97139341D01*
X87310662Y-96946033D01*
X87325500Y-96795380D01*
X87325500Y-96244620D01*
X87310662Y-96093967D01*
X87252023Y-95900659D01*
X87252021Y-95900656D01*
X87252021Y-95900654D01*
X87156801Y-95722511D01*
X87156799Y-95722509D01*
X87156798Y-95722506D01*
X87107651Y-95662620D01*
X87028647Y-95566352D01*
X86872495Y-95438203D01*
X86872488Y-95438198D01*
X86694345Y-95342978D01*
X86501031Y-95284337D01*
X86300000Y-95264538D01*
X86098968Y-95284337D01*
X85905654Y-95342978D01*
X85723453Y-95440367D01*
X85655050Y-95454609D01*
X85606547Y-95440367D01*
X85424345Y-95342978D01*
X85231031Y-95284337D01*
X85030000Y-95264538D01*
X84828968Y-95284337D01*
X84691371Y-95326076D01*
X84635659Y-95342977D01*
X84635657Y-95342977D01*
X84633982Y-95343486D01*
X84564115Y-95344109D01*
X84535414Y-95329902D01*
X84534872Y-95330897D01*
X84527086Y-95326645D01*
X84392379Y-95276403D01*
X84392372Y-95276401D01*
X84332844Y-95270000D01*
X84010000Y-95270000D01*
X84010000Y-96182684D01*
X84009403Y-96194837D01*
X84005370Y-96235779D01*
X83940948Y-96185637D01*
X83822576Y-96145000D01*
X83728927Y-96145000D01*
X83636554Y-96160414D01*
X83526486Y-96219981D01*
X83510000Y-96237889D01*
X83510000Y-95270000D01*
X83187155Y-95270000D01*
X83127627Y-95276401D01*
X83127620Y-95276403D01*
X82992913Y-95326645D01*
X82992906Y-95326649D01*
X82877812Y-95412809D01*
X82877809Y-95412812D01*
X82791649Y-95527906D01*
X82791645Y-95527913D01*
X82741403Y-95662620D01*
X82741401Y-95662627D01*
X82735000Y-95722155D01*
X82735000Y-96270000D01*
X83480440Y-96270000D01*
X83441722Y-96312059D01*
X83391449Y-96426670D01*
X83381114Y-96551395D01*
X83411837Y-96672719D01*
X83475394Y-96770000D01*
X82735000Y-96770000D01*
X82735000Y-97317844D01*
X76200500Y-97317844D01*
X76200500Y-88900000D01*
X85094357Y-88900000D01*
X85114884Y-89121535D01*
X85114885Y-89121537D01*
X85175769Y-89335523D01*
X85175775Y-89335538D01*
X85274938Y-89534683D01*
X85274943Y-89534691D01*
X85409020Y-89712238D01*
X85573437Y-89862123D01*
X85573439Y-89862125D01*
X85762595Y-89979245D01*
X85762596Y-89979245D01*
X85762599Y-89979247D01*
X85970060Y-90059618D01*
X86188757Y-90100500D01*
X86188759Y-90100500D01*
X86411241Y-90100500D01*
X86411243Y-90100500D01*
X86629940Y-90059618D01*
X86837401Y-89979247D01*
X87026562Y-89862124D01*
X87190981Y-89712236D01*
X87325058Y-89534689D01*
X87424229Y-89335528D01*
X87450734Y-89242371D01*
X87488013Y-89183278D01*
X87551323Y-89153721D01*
X87620562Y-89163083D01*
X87673749Y-89208393D01*
X87689266Y-89242372D01*
X87715769Y-89335523D01*
X87715775Y-89335538D01*
X87814938Y-89534683D01*
X87814943Y-89534691D01*
X87949020Y-89712238D01*
X88113437Y-89862123D01*
X88113439Y-89862125D01*
X88302595Y-89979245D01*
X88302596Y-89979245D01*
X88302599Y-89979247D01*
X88510060Y-90059618D01*
X88728757Y-90100500D01*
X88728759Y-90100500D01*
X88951241Y-90100500D01*
X88951243Y-90100500D01*
X89169940Y-90059618D01*
X89377401Y-89979247D01*
X89566562Y-89862124D01*
X89730981Y-89712236D01*
X89865058Y-89534689D01*
X89964229Y-89335528D01*
X90025115Y-89121536D01*
X90045643Y-88900000D01*
X113644357Y-88900000D01*
X113664884Y-89121535D01*
X113664885Y-89121537D01*
X113725769Y-89335523D01*
X113725775Y-89335538D01*
X113824938Y-89534683D01*
X113824943Y-89534691D01*
X113959020Y-89712238D01*
X114123437Y-89862123D01*
X114123439Y-89862125D01*
X114312595Y-89979245D01*
X114312596Y-89979245D01*
X114312599Y-89979247D01*
X114520060Y-90059618D01*
X114738757Y-90100500D01*
X114738759Y-90100500D01*
X114961241Y-90100500D01*
X114961243Y-90100500D01*
X115179940Y-90059618D01*
X115387401Y-89979247D01*
X115576562Y-89862124D01*
X115740981Y-89712236D01*
X115875058Y-89534689D01*
X115974229Y-89335528D01*
X116000734Y-89242371D01*
X116038013Y-89183278D01*
X116101323Y-89153721D01*
X116170562Y-89163083D01*
X116223749Y-89208393D01*
X116239266Y-89242372D01*
X116265769Y-89335523D01*
X116265775Y-89335538D01*
X116364938Y-89534683D01*
X116364943Y-89534691D01*
X116499020Y-89712238D01*
X116663437Y-89862123D01*
X116663439Y-89862125D01*
X116852595Y-89979245D01*
X116852596Y-89979245D01*
X116852599Y-89979247D01*
X117060060Y-90059618D01*
X117278757Y-90100500D01*
X117278759Y-90100500D01*
X117501241Y-90100500D01*
X117501243Y-90100500D01*
X117719940Y-90059618D01*
X117927401Y-89979247D01*
X118116562Y-89862124D01*
X118280981Y-89712236D01*
X118415058Y-89534689D01*
X118514229Y-89335528D01*
X118575115Y-89121536D01*
X118595643Y-88900000D01*
X118575115Y-88678464D01*
X118514229Y-88464472D01*
X118514224Y-88464461D01*
X118415061Y-88265316D01*
X118415056Y-88265308D01*
X118280979Y-88087761D01*
X118116562Y-87937876D01*
X118116560Y-87937874D01*
X117927404Y-87820754D01*
X117927398Y-87820752D01*
X117719940Y-87740382D01*
X117501243Y-87699500D01*
X117278757Y-87699500D01*
X117060060Y-87740382D01*
X116928864Y-87791207D01*
X116852601Y-87820752D01*
X116852595Y-87820754D01*
X116663439Y-87937874D01*
X116663437Y-87937876D01*
X116499020Y-88087761D01*
X116364943Y-88265308D01*
X116364938Y-88265316D01*
X116265775Y-88464461D01*
X116265769Y-88464476D01*
X116239266Y-88557627D01*
X116201987Y-88616721D01*
X116138677Y-88646278D01*
X116069438Y-88636916D01*
X116016251Y-88591606D01*
X116000734Y-88557627D01*
X115974230Y-88464476D01*
X115974229Y-88464472D01*
X115974224Y-88464461D01*
X115875061Y-88265316D01*
X115875056Y-88265308D01*
X115740979Y-88087761D01*
X115576562Y-87937876D01*
X115576560Y-87937874D01*
X115387404Y-87820754D01*
X115387398Y-87820752D01*
X115179940Y-87740382D01*
X114961243Y-87699500D01*
X114738757Y-87699500D01*
X114520060Y-87740382D01*
X114388864Y-87791207D01*
X114312601Y-87820752D01*
X114312595Y-87820754D01*
X114123439Y-87937874D01*
X114123437Y-87937876D01*
X113959020Y-88087761D01*
X113824943Y-88265308D01*
X113824938Y-88265316D01*
X113725775Y-88464461D01*
X113725769Y-88464476D01*
X113664885Y-88678462D01*
X113664884Y-88678464D01*
X113644357Y-88899999D01*
X113644357Y-88900000D01*
X90045643Y-88900000D01*
X90025115Y-88678464D01*
X89964229Y-88464472D01*
X89964224Y-88464461D01*
X89865061Y-88265316D01*
X89865056Y-88265308D01*
X89730979Y-88087761D01*
X89566562Y-87937876D01*
X89566560Y-87937874D01*
X89377404Y-87820754D01*
X89377398Y-87820752D01*
X89169940Y-87740382D01*
X88951243Y-87699500D01*
X88728757Y-87699500D01*
X88510060Y-87740382D01*
X88378864Y-87791207D01*
X88302601Y-87820752D01*
X88302595Y-87820754D01*
X88113439Y-87937874D01*
X88113437Y-87937876D01*
X87949020Y-88087761D01*
X87814943Y-88265308D01*
X87814938Y-88265316D01*
X87715775Y-88464461D01*
X87715769Y-88464476D01*
X87689266Y-88557627D01*
X87651987Y-88616721D01*
X87588677Y-88646278D01*
X87519438Y-88636916D01*
X87466251Y-88591606D01*
X87450734Y-88557627D01*
X87424230Y-88464476D01*
X87424229Y-88464472D01*
X87424224Y-88464461D01*
X87325061Y-88265316D01*
X87325056Y-88265308D01*
X87190979Y-88087761D01*
X87026562Y-87937876D01*
X87026560Y-87937874D01*
X86837404Y-87820754D01*
X86837398Y-87820752D01*
X86629940Y-87740382D01*
X86411243Y-87699500D01*
X86188757Y-87699500D01*
X85970060Y-87740382D01*
X85838864Y-87791207D01*
X85762601Y-87820752D01*
X85762595Y-87820754D01*
X85573439Y-87937874D01*
X85573437Y-87937876D01*
X85409020Y-88087761D01*
X85274943Y-88265308D01*
X85274938Y-88265316D01*
X85175775Y-88464461D01*
X85175769Y-88464476D01*
X85114885Y-88678462D01*
X85114884Y-88678464D01*
X85094357Y-88899999D01*
X85094357Y-88900000D01*
X76200500Y-88900000D01*
X76200500Y-81280001D01*
X105874435Y-81280001D01*
X105878720Y-81318029D01*
X105879500Y-81331914D01*
X105879500Y-81370191D01*
X105879501Y-81370200D01*
X105888017Y-81407518D01*
X105890345Y-81421217D01*
X105894633Y-81459260D01*
X105907271Y-81495380D01*
X105911119Y-81508735D01*
X105919639Y-81546061D01*
X105936250Y-81580554D01*
X105941570Y-81593397D01*
X105954212Y-81629525D01*
X105954213Y-81629526D01*
X105974571Y-81661925D01*
X105981297Y-81674094D01*
X105997908Y-81708585D01*
X105997909Y-81708587D01*
X106019041Y-81735085D01*
X106021769Y-81738506D01*
X106029815Y-81749846D01*
X106050182Y-81782259D01*
X106050184Y-81782262D01*
X106077250Y-81809328D01*
X106086516Y-81819696D01*
X106110376Y-81849616D01*
X106110379Y-81849619D01*
X106140301Y-81873481D01*
X106150661Y-81882739D01*
X106177738Y-81909816D01*
X106210156Y-81930185D01*
X106221483Y-81938222D01*
X106251413Y-81962091D01*
X106251415Y-81962092D01*
X106251414Y-81962092D01*
X106285894Y-81978696D01*
X106298067Y-81985424D01*
X106330478Y-82005789D01*
X106355506Y-82014546D01*
X106366606Y-82018431D01*
X106379450Y-82023750D01*
X106410514Y-82038710D01*
X106413941Y-82040361D01*
X106451249Y-82048876D01*
X106464612Y-82052725D01*
X106500742Y-82065367D01*
X106500745Y-82065368D01*
X106538790Y-82069654D01*
X106552479Y-82071980D01*
X106589806Y-82080500D01*
X106635046Y-82080500D01*
X108002982Y-82080500D01*
X108070021Y-82100185D01*
X108106791Y-82136679D01*
X108111021Y-82143153D01*
X108268216Y-82313913D01*
X108268219Y-82313915D01*
X108268222Y-82313918D01*
X108451365Y-82456464D01*
X108451371Y-82456468D01*
X108451374Y-82456470D01*
X108655497Y-82566936D01*
X108769487Y-82606068D01*
X108875015Y-82642297D01*
X108875017Y-82642297D01*
X108875019Y-82642298D01*
X109103951Y-82680500D01*
X109103952Y-82680500D01*
X109336048Y-82680500D01*
X109336049Y-82680500D01*
X109564981Y-82642298D01*
X109784503Y-82566936D01*
X109988626Y-82456470D01*
X110171784Y-82313913D01*
X110180130Y-82304846D01*
X110240010Y-82268854D01*
X110309849Y-82270949D01*
X110367468Y-82310469D01*
X110387544Y-82345491D01*
X110416203Y-82422330D01*
X110416206Y-82422335D01*
X110502452Y-82537544D01*
X110502455Y-82537547D01*
X110617664Y-82623793D01*
X110617671Y-82623797D01*
X110752517Y-82674091D01*
X110752516Y-82674091D01*
X110759444Y-82674835D01*
X110812127Y-82680500D01*
X112707872Y-82680499D01*
X112767483Y-82674091D01*
X112902331Y-82623796D01*
X113017546Y-82537546D01*
X113103796Y-82422331D01*
X113154091Y-82287483D01*
X113160500Y-82227873D01*
X113160499Y-80332128D01*
X113154091Y-80272517D01*
X113144233Y-80246087D01*
X113103797Y-80137671D01*
X113103793Y-80137664D01*
X113017547Y-80022455D01*
X113017544Y-80022452D01*
X112902335Y-79936206D01*
X112902328Y-79936202D01*
X112767482Y-79885908D01*
X112767483Y-79885908D01*
X112707883Y-79879501D01*
X112707881Y-79879500D01*
X112707873Y-79879500D01*
X112707864Y-79879500D01*
X110812129Y-79879500D01*
X110812123Y-79879501D01*
X110752516Y-79885908D01*
X110617671Y-79936202D01*
X110617664Y-79936206D01*
X110502455Y-80022452D01*
X110502452Y-80022455D01*
X110416206Y-80137664D01*
X110416203Y-80137670D01*
X110387544Y-80214508D01*
X110345672Y-80270441D01*
X110280208Y-80294858D01*
X110211935Y-80280006D01*
X110180135Y-80255158D01*
X110171784Y-80246087D01*
X110171778Y-80246082D01*
X110171777Y-80246081D01*
X109988634Y-80103535D01*
X109988628Y-80103531D01*
X109784504Y-79993064D01*
X109784495Y-79993061D01*
X109564984Y-79917702D01*
X109488359Y-79904916D01*
X109467844Y-79901492D01*
X109404960Y-79871043D01*
X109368521Y-79811428D01*
X109370096Y-79741576D01*
X109400570Y-79691507D01*
X109515261Y-79576816D01*
X109576582Y-79543334D01*
X109602940Y-79540500D01*
X114467060Y-79540500D01*
X114534099Y-79560185D01*
X114554741Y-79576819D01*
X131243181Y-96265258D01*
X131276666Y-96326581D01*
X131279500Y-96352939D01*
X131279500Y-128387309D01*
X131259815Y-128454348D01*
X131226625Y-128488883D01*
X131208601Y-128501503D01*
X131208595Y-128501508D01*
X131041505Y-128668597D01*
X130911575Y-128854158D01*
X130856998Y-128897783D01*
X130787500Y-128904977D01*
X130725145Y-128873454D01*
X130708425Y-128854158D01*
X130578494Y-128668597D01*
X130411402Y-128501506D01*
X130411395Y-128501501D01*
X130217834Y-128365967D01*
X130217830Y-128365965D01*
X130217828Y-128365964D01*
X130003663Y-128266097D01*
X130003659Y-128266096D01*
X130003655Y-128266094D01*
X129775413Y-128204938D01*
X129775403Y-128204936D01*
X129540001Y-128184341D01*
X129539999Y-128184341D01*
X129304596Y-128204936D01*
X129304586Y-128204938D01*
X129076344Y-128266094D01*
X129076335Y-128266098D01*
X128862171Y-128365964D01*
X128862169Y-128365965D01*
X128668597Y-128501505D01*
X128501505Y-128668597D01*
X128365965Y-128862169D01*
X128365964Y-128862171D01*
X128266098Y-129076335D01*
X128266094Y-129076344D01*
X128204938Y-129304586D01*
X128204936Y-129304596D01*
X128184341Y-129539999D01*
X128184341Y-129540000D01*
X128204936Y-129775403D01*
X128204938Y-129775413D01*
X128266094Y-130003655D01*
X128266096Y-130003659D01*
X128266097Y-130003663D01*
X128346004Y-130175023D01*
X128365965Y-130217830D01*
X128365967Y-130217834D01*
X128474281Y-130372521D01*
X128501505Y-130411401D01*
X128668599Y-130578495D01*
X128835439Y-130695318D01*
X128854594Y-130708730D01*
X128898219Y-130763307D01*
X128905413Y-130832805D01*
X128873890Y-130895160D01*
X128854595Y-130911880D01*
X128668922Y-131041890D01*
X128668920Y-131041891D01*
X128501891Y-131208920D01*
X128501886Y-131208926D01*
X128366400Y-131402420D01*
X128366399Y-131402422D01*
X128266570Y-131616507D01*
X128266567Y-131616513D01*
X128209364Y-131829999D01*
X128209364Y-131830000D01*
X129106314Y-131830000D01*
X129080507Y-131870156D01*
X129040000Y-132008111D01*
X129040000Y-132151889D01*
X129080507Y-132289844D01*
X129106314Y-132330000D01*
X128209364Y-132330000D01*
X128266567Y-132543486D01*
X128266570Y-132543492D01*
X128366399Y-132757578D01*
X128501894Y-132951082D01*
X128668917Y-133118105D01*
X128862421Y-133253600D01*
X129076507Y-133353429D01*
X129076516Y-133353433D01*
X129290000Y-133410634D01*
X129290000Y-132515501D01*
X129397685Y-132564680D01*
X129504237Y-132580000D01*
X129575763Y-132580000D01*
X129682315Y-132564680D01*
X129790000Y-132515501D01*
X129790000Y-133410633D01*
X130003483Y-133353433D01*
X130003492Y-133353429D01*
X130217578Y-133253600D01*
X130411082Y-133118105D01*
X130578105Y-132951082D01*
X130708119Y-132765405D01*
X130762696Y-132721781D01*
X130832195Y-132714588D01*
X130894549Y-132746110D01*
X130911269Y-132765405D01*
X131041505Y-132951401D01*
X131208599Y-133118495D01*
X131305384Y-133186265D01*
X131402165Y-133254032D01*
X131402167Y-133254033D01*
X131402170Y-133254035D01*
X131616337Y-133353903D01*
X131844592Y-133415063D01*
X132021034Y-133430500D01*
X132079999Y-133435659D01*
X132080000Y-133435659D01*
X132080001Y-133435659D01*
X132138966Y-133430500D01*
X132315408Y-133415063D01*
X132543663Y-133353903D01*
X132757830Y-133254035D01*
X132951401Y-133118495D01*
X133118495Y-132951401D01*
X133248425Y-132765842D01*
X133303002Y-132722217D01*
X133372500Y-132715023D01*
X133434855Y-132746546D01*
X133451575Y-132765842D01*
X133581281Y-132951082D01*
X133581505Y-132951401D01*
X133748599Y-133118495D01*
X133845384Y-133186265D01*
X133942165Y-133254032D01*
X133942167Y-133254033D01*
X133942170Y-133254035D01*
X134156337Y-133353903D01*
X134384592Y-133415063D01*
X134561034Y-133430500D01*
X134619999Y-133435659D01*
X134620000Y-133435659D01*
X134620001Y-133435659D01*
X134678966Y-133430500D01*
X134855408Y-133415063D01*
X135083663Y-133353903D01*
X135297830Y-133254035D01*
X135491401Y-133118495D01*
X135658495Y-132951401D01*
X135788730Y-132765405D01*
X135843307Y-132721781D01*
X135912805Y-132714587D01*
X135975160Y-132746110D01*
X135991879Y-132765405D01*
X136121890Y-132951078D01*
X136288917Y-133118105D01*
X136482421Y-133253600D01*
X136696507Y-133353429D01*
X136696516Y-133353433D01*
X136910000Y-133410634D01*
X136910000Y-132515501D01*
X137017685Y-132564680D01*
X137124237Y-132580000D01*
X137195763Y-132580000D01*
X137302315Y-132564680D01*
X137410000Y-132515501D01*
X137410000Y-133410633D01*
X137623483Y-133353433D01*
X137623492Y-133353429D01*
X137837578Y-133253600D01*
X138031082Y-133118105D01*
X138198105Y-132951082D01*
X138328119Y-132765405D01*
X138382696Y-132721781D01*
X138452195Y-132714588D01*
X138514549Y-132746110D01*
X138531269Y-132765405D01*
X138661505Y-132951401D01*
X138828599Y-133118495D01*
X138925384Y-133186265D01*
X139022165Y-133254032D01*
X139022167Y-133254033D01*
X139022170Y-133254035D01*
X139236337Y-133353903D01*
X139464592Y-133415063D01*
X139641034Y-133430500D01*
X139699999Y-133435659D01*
X139700000Y-133435659D01*
X139700001Y-133435659D01*
X139758966Y-133430500D01*
X139935408Y-133415063D01*
X140163663Y-133353903D01*
X140377830Y-133254035D01*
X140571401Y-133118495D01*
X140738495Y-132951401D01*
X140868425Y-132765842D01*
X140923002Y-132722217D01*
X140992500Y-132715023D01*
X141054855Y-132746546D01*
X141071575Y-132765842D01*
X141201281Y-132951082D01*
X141201505Y-132951401D01*
X141368599Y-133118495D01*
X141465384Y-133186265D01*
X141562165Y-133254032D01*
X141562167Y-133254033D01*
X141562170Y-133254035D01*
X141776337Y-133353903D01*
X142004592Y-133415063D01*
X142181034Y-133430500D01*
X142239999Y-133435659D01*
X142240000Y-133435659D01*
X142240001Y-133435659D01*
X142298966Y-133430500D01*
X142475408Y-133415063D01*
X142703663Y-133353903D01*
X142917830Y-133254035D01*
X143111401Y-133118495D01*
X143278495Y-132951401D01*
X143408730Y-132765405D01*
X143463307Y-132721781D01*
X143532805Y-132714587D01*
X143595160Y-132746110D01*
X143611879Y-132765405D01*
X143741890Y-132951078D01*
X143908917Y-133118105D01*
X144102421Y-133253600D01*
X144316507Y-133353429D01*
X144316516Y-133353433D01*
X144530000Y-133410634D01*
X144530000Y-132515501D01*
X144637685Y-132564680D01*
X144744237Y-132580000D01*
X144815763Y-132580000D01*
X144922315Y-132564680D01*
X145030000Y-132515501D01*
X145030000Y-133410633D01*
X145243483Y-133353433D01*
X145243492Y-133353429D01*
X145457578Y-133253600D01*
X145651082Y-133118105D01*
X145818105Y-132951082D01*
X145948119Y-132765405D01*
X146002696Y-132721781D01*
X146072195Y-132714588D01*
X146134549Y-132746110D01*
X146151269Y-132765405D01*
X146281505Y-132951401D01*
X146448599Y-133118495D01*
X146545384Y-133186265D01*
X146642165Y-133254032D01*
X146642167Y-133254033D01*
X146642170Y-133254035D01*
X146856337Y-133353903D01*
X147084592Y-133415063D01*
X147261034Y-133430500D01*
X147319999Y-133435659D01*
X147320000Y-133435659D01*
X147320001Y-133435659D01*
X147378966Y-133430500D01*
X147555408Y-133415063D01*
X147783663Y-133353903D01*
X147997830Y-133254035D01*
X148191401Y-133118495D01*
X148358495Y-132951401D01*
X148488425Y-132765842D01*
X148543002Y-132722217D01*
X148612500Y-132715023D01*
X148674855Y-132746546D01*
X148691575Y-132765842D01*
X148821281Y-132951082D01*
X148821505Y-132951401D01*
X148988599Y-133118495D01*
X149085384Y-133186265D01*
X149182165Y-133254032D01*
X149182167Y-133254033D01*
X149182170Y-133254035D01*
X149396337Y-133353903D01*
X149624592Y-133415063D01*
X149801034Y-133430500D01*
X149859999Y-133435659D01*
X149860000Y-133435659D01*
X149860001Y-133435659D01*
X149918966Y-133430500D01*
X150095408Y-133415063D01*
X150323663Y-133353903D01*
X150537830Y-133254035D01*
X150731401Y-133118495D01*
X150898495Y-132951401D01*
X151028730Y-132765405D01*
X151083307Y-132721781D01*
X151152805Y-132714587D01*
X151215160Y-132746110D01*
X151231879Y-132765405D01*
X151361890Y-132951078D01*
X151528917Y-133118105D01*
X151722421Y-133253600D01*
X151936507Y-133353429D01*
X151936516Y-133353433D01*
X152150000Y-133410634D01*
X152150000Y-132515501D01*
X152257685Y-132564680D01*
X152364237Y-132580000D01*
X152435763Y-132580000D01*
X152542315Y-132564680D01*
X152650000Y-132515501D01*
X152650000Y-133410633D01*
X152863483Y-133353433D01*
X152863492Y-133353429D01*
X153077578Y-133253600D01*
X153271082Y-133118105D01*
X153438105Y-132951082D01*
X153568119Y-132765405D01*
X153622696Y-132721781D01*
X153692195Y-132714588D01*
X153754549Y-132746110D01*
X153771269Y-132765405D01*
X153901505Y-132951401D01*
X154068599Y-133118495D01*
X154165384Y-133186265D01*
X154262165Y-133254032D01*
X154262167Y-133254033D01*
X154262170Y-133254035D01*
X154476337Y-133353903D01*
X154704592Y-133415063D01*
X154881034Y-133430500D01*
X154939999Y-133435659D01*
X154940000Y-133435659D01*
X154940001Y-133435659D01*
X154998966Y-133430500D01*
X155175408Y-133415063D01*
X155403663Y-133353903D01*
X155617830Y-133254035D01*
X155811401Y-133118495D01*
X155978495Y-132951401D01*
X156108425Y-132765842D01*
X156163002Y-132722217D01*
X156232500Y-132715023D01*
X156294855Y-132746546D01*
X156311575Y-132765842D01*
X156441281Y-132951082D01*
X156441505Y-132951401D01*
X156608599Y-133118495D01*
X156705384Y-133186265D01*
X156802165Y-133254032D01*
X156802167Y-133254033D01*
X156802170Y-133254035D01*
X157016337Y-133353903D01*
X157244592Y-133415063D01*
X157421034Y-133430500D01*
X157479999Y-133435659D01*
X157479999Y-133435658D01*
X157480000Y-133435659D01*
X157627992Y-133422710D01*
X157696490Y-133436476D01*
X157726479Y-133458557D01*
X159390184Y-135122262D01*
X159517738Y-135249816D01*
X159550148Y-135270180D01*
X159561479Y-135278219D01*
X159591413Y-135302091D01*
X159625905Y-135318701D01*
X159638057Y-135325417D01*
X159670478Y-135345789D01*
X159706613Y-135358433D01*
X159719458Y-135363754D01*
X159732784Y-135370171D01*
X159753936Y-135380358D01*
X159753937Y-135380358D01*
X159753939Y-135380359D01*
X159791255Y-135388876D01*
X159804606Y-135392722D01*
X159840745Y-135405368D01*
X159878797Y-135409655D01*
X159892475Y-135411979D01*
X159929805Y-135420500D01*
X200750194Y-135420500D01*
X200787517Y-135411981D01*
X200801211Y-135409654D01*
X200839255Y-135405368D01*
X200875392Y-135392722D01*
X200888726Y-135388881D01*
X200926061Y-135380360D01*
X200960561Y-135363745D01*
X200973398Y-135358429D01*
X201009519Y-135345790D01*
X201009518Y-135345790D01*
X201009522Y-135345789D01*
X201041939Y-135325419D01*
X201054103Y-135318697D01*
X201088587Y-135302091D01*
X201118515Y-135278222D01*
X201129847Y-135270182D01*
X201162262Y-135249816D01*
X201289816Y-135122262D01*
X206337826Y-130074252D01*
X206369816Y-130042262D01*
X206390186Y-130009841D01*
X206398211Y-129998530D01*
X206422092Y-129968587D01*
X206438699Y-129934101D01*
X206445427Y-129921928D01*
X206455914Y-129905236D01*
X206465789Y-129889522D01*
X206478432Y-129853385D01*
X206483751Y-129840548D01*
X206500360Y-129806061D01*
X206508879Y-129768733D01*
X206512728Y-129755376D01*
X206525368Y-129719255D01*
X206529654Y-129681211D01*
X206531982Y-129667512D01*
X206540500Y-129630194D01*
X206540500Y-129449806D01*
X206540500Y-76251914D01*
X206541280Y-76238029D01*
X206545565Y-76200001D01*
X206545565Y-76199996D01*
X206525369Y-76020750D01*
X206525368Y-76020745D01*
X206465788Y-75850476D01*
X206369815Y-75697737D01*
X206242262Y-75570184D01*
X206089523Y-75474211D01*
X205919254Y-75414631D01*
X205919249Y-75414630D01*
X205784954Y-75399500D01*
X205769969Y-75397811D01*
X205740002Y-75394435D01*
X205739998Y-75394435D01*
X205701969Y-75398720D01*
X205688085Y-75399500D01*
X157570194Y-75399500D01*
X157389805Y-75399500D01*
X157389803Y-75399500D01*
X157389797Y-75399501D01*
X157352489Y-75408016D01*
X157338786Y-75410345D01*
X157300743Y-75414632D01*
X157264610Y-75427275D01*
X157251256Y-75431122D01*
X157213940Y-75439640D01*
X157179458Y-75456245D01*
X157166620Y-75461563D01*
X157144546Y-75469287D01*
X157130478Y-75474211D01*
X157130476Y-75474212D01*
X157130474Y-75474213D01*
X157098061Y-75494578D01*
X157085900Y-75501299D01*
X157051413Y-75517908D01*
X157051411Y-75517910D01*
X157021488Y-75541772D01*
X157010152Y-75549816D01*
X156977739Y-75570183D01*
X156977735Y-75570186D01*
X155044741Y-77503181D01*
X154983418Y-77536666D01*
X154957060Y-77539500D01*
X154828757Y-77539500D01*
X154610060Y-77580382D01*
X154478864Y-77631207D01*
X154402601Y-77660752D01*
X154402595Y-77660754D01*
X154213439Y-77777874D01*
X154213437Y-77777876D01*
X154049020Y-77927761D01*
X153914943Y-78105308D01*
X153914938Y-78105316D01*
X153815775Y-78304461D01*
X153815769Y-78304476D01*
X153754885Y-78518462D01*
X153754884Y-78518464D01*
X153734357Y-78739999D01*
X153734357Y-78740000D01*
X153754884Y-78961535D01*
X153754885Y-78961537D01*
X153815769Y-79175523D01*
X153815775Y-79175538D01*
X153914938Y-79374683D01*
X153914943Y-79374691D01*
X154049020Y-79552238D01*
X154213437Y-79702123D01*
X154213439Y-79702125D01*
X154402595Y-79819245D01*
X154402596Y-79819245D01*
X154402599Y-79819247D01*
X154610060Y-79899618D01*
X154828757Y-79940500D01*
X154828759Y-79940500D01*
X155051241Y-79940500D01*
X155051243Y-79940500D01*
X155269940Y-79899618D01*
X155477401Y-79819247D01*
X155666562Y-79702124D01*
X155806282Y-79574751D01*
X155830979Y-79552238D01*
X155839844Y-79540500D01*
X155965058Y-79374689D01*
X156064229Y-79175528D01*
X156090734Y-79082371D01*
X156128013Y-79023278D01*
X156191323Y-78993721D01*
X156260562Y-79003083D01*
X156313749Y-79048393D01*
X156329266Y-79082372D01*
X156355769Y-79175523D01*
X156355775Y-79175538D01*
X156454938Y-79374683D01*
X156454943Y-79374691D01*
X156589020Y-79552238D01*
X156753437Y-79702123D01*
X156753439Y-79702125D01*
X156942595Y-79819245D01*
X156942596Y-79819245D01*
X156942599Y-79819247D01*
X157150060Y-79899618D01*
X157368757Y-79940500D01*
X157368759Y-79940500D01*
X157591241Y-79940500D01*
X157591243Y-79940500D01*
X157809940Y-79899618D01*
X158017401Y-79819247D01*
X158206562Y-79702124D01*
X158346282Y-79574751D01*
X158370979Y-79552238D01*
X158379844Y-79540500D01*
X158505058Y-79374689D01*
X158604229Y-79175528D01*
X158665115Y-78961536D01*
X158685643Y-78740000D01*
X158665115Y-78518464D01*
X158604229Y-78304472D01*
X158594412Y-78284756D01*
X158505061Y-78105316D01*
X158505056Y-78105308D01*
X158370979Y-77927761D01*
X158206562Y-77777876D01*
X158206560Y-77777874D01*
X158017404Y-77660754D01*
X158017398Y-77660752D01*
X157809940Y-77580382D01*
X157591243Y-77539500D01*
X157571939Y-77539500D01*
X157504900Y-77519815D01*
X157459145Y-77467011D01*
X157449201Y-77397853D01*
X157478226Y-77334297D01*
X157484258Y-77327819D01*
X157775259Y-77036819D01*
X157836582Y-77003334D01*
X157862940Y-77000500D01*
X204815500Y-77000500D01*
X204882539Y-77020185D01*
X204928294Y-77072989D01*
X204939500Y-77124500D01*
X204939500Y-129157060D01*
X204919815Y-129224099D01*
X204903181Y-129244741D01*
X200364741Y-133783181D01*
X200303418Y-133816666D01*
X200277060Y-133819500D01*
X160402940Y-133819500D01*
X160335901Y-133799815D01*
X160315259Y-133783181D01*
X160159512Y-133627434D01*
X160126027Y-133566111D01*
X160131011Y-133496419D01*
X160172883Y-133440486D01*
X160236388Y-133416225D01*
X160255314Y-133414569D01*
X160255326Y-133414567D01*
X160483483Y-133353433D01*
X160483492Y-133353429D01*
X160697578Y-133253600D01*
X160891078Y-133118108D01*
X161013133Y-132996053D01*
X161074456Y-132962568D01*
X161144148Y-132967552D01*
X161200082Y-133009423D01*
X161216997Y-133040401D01*
X161266202Y-133172328D01*
X161266206Y-133172335D01*
X161352452Y-133287544D01*
X161352455Y-133287547D01*
X161467664Y-133373793D01*
X161467671Y-133373797D01*
X161602517Y-133424091D01*
X161602516Y-133424091D01*
X161609444Y-133424835D01*
X161662127Y-133430500D01*
X163457872Y-133430499D01*
X163517483Y-133424091D01*
X163652331Y-133373796D01*
X163767546Y-133287546D01*
X163853796Y-133172331D01*
X163904091Y-133037483D01*
X163910500Y-132977873D01*
X163910499Y-131182128D01*
X163904091Y-131122517D01*
X163903002Y-131119598D01*
X163853797Y-130987671D01*
X163853793Y-130987664D01*
X163767547Y-130872455D01*
X163767544Y-130872452D01*
X163652335Y-130786206D01*
X163652328Y-130786202D01*
X163520917Y-130737189D01*
X163464983Y-130695318D01*
X163440566Y-130629853D01*
X163455418Y-130561580D01*
X163476563Y-130533332D01*
X163598495Y-130411401D01*
X163734035Y-130217830D01*
X163833903Y-130003663D01*
X163895063Y-129775408D01*
X163915659Y-129540000D01*
X163895063Y-129304592D01*
X163833903Y-129076337D01*
X163734035Y-128862171D01*
X163728425Y-128854158D01*
X163598494Y-128668597D01*
X163431402Y-128501506D01*
X163431395Y-128501501D01*
X163237834Y-128365967D01*
X163237830Y-128365965D01*
X163237828Y-128365964D01*
X163023663Y-128266097D01*
X163023659Y-128266096D01*
X163023655Y-128266094D01*
X162795413Y-128204938D01*
X162795403Y-128204936D01*
X162560001Y-128184341D01*
X162559999Y-128184341D01*
X162324596Y-128204936D01*
X162324586Y-128204938D01*
X162096344Y-128266094D01*
X162096335Y-128266098D01*
X161882171Y-128365964D01*
X161882169Y-128365965D01*
X161688597Y-128501505D01*
X161521505Y-128668597D01*
X161391575Y-128854158D01*
X161336998Y-128897783D01*
X161267500Y-128904977D01*
X161205145Y-128873454D01*
X161188425Y-128854158D01*
X161058494Y-128668597D01*
X160891404Y-128501508D01*
X160891402Y-128501506D01*
X160891401Y-128501505D01*
X160873374Y-128488882D01*
X160829751Y-128434306D01*
X160820500Y-128387309D01*
X160820500Y-101600000D01*
X174054357Y-101600000D01*
X174074884Y-101821535D01*
X174074885Y-101821537D01*
X174135769Y-102035523D01*
X174135775Y-102035538D01*
X174234938Y-102234683D01*
X174234943Y-102234691D01*
X174369020Y-102412238D01*
X174533437Y-102562123D01*
X174533439Y-102562125D01*
X174722595Y-102679245D01*
X174722596Y-102679245D01*
X174722599Y-102679247D01*
X174930060Y-102759618D01*
X175148757Y-102800500D01*
X175148759Y-102800500D01*
X175371241Y-102800500D01*
X175371243Y-102800500D01*
X175589940Y-102759618D01*
X175797401Y-102679247D01*
X175986562Y-102562124D01*
X176150981Y-102412236D01*
X176285058Y-102234689D01*
X176384229Y-102035528D01*
X176410734Y-101942371D01*
X176448013Y-101883278D01*
X176511323Y-101853721D01*
X176580562Y-101863083D01*
X176633749Y-101908393D01*
X176649266Y-101942372D01*
X176675769Y-102035523D01*
X176675775Y-102035538D01*
X176774938Y-102234683D01*
X176774943Y-102234691D01*
X176909020Y-102412238D01*
X177073437Y-102562123D01*
X177073439Y-102562125D01*
X177262595Y-102679245D01*
X177262596Y-102679245D01*
X177262599Y-102679247D01*
X177470060Y-102759618D01*
X177688757Y-102800500D01*
X177688759Y-102800500D01*
X177911241Y-102800500D01*
X177911243Y-102800500D01*
X178129940Y-102759618D01*
X178337401Y-102679247D01*
X178526562Y-102562124D01*
X178690981Y-102412236D01*
X178825058Y-102234689D01*
X178924229Y-102035528D01*
X178985115Y-101821536D01*
X179005643Y-101600000D01*
X196914357Y-101600000D01*
X196934884Y-101821535D01*
X196934885Y-101821537D01*
X196995769Y-102035523D01*
X196995775Y-102035538D01*
X197094938Y-102234683D01*
X197094943Y-102234691D01*
X197229020Y-102412238D01*
X197393437Y-102562123D01*
X197393439Y-102562125D01*
X197582595Y-102679245D01*
X197582596Y-102679245D01*
X197582599Y-102679247D01*
X197790060Y-102759618D01*
X198008757Y-102800500D01*
X198008759Y-102800500D01*
X198231241Y-102800500D01*
X198231243Y-102800500D01*
X198449940Y-102759618D01*
X198657401Y-102679247D01*
X198846562Y-102562124D01*
X199010981Y-102412236D01*
X199145058Y-102234689D01*
X199244229Y-102035528D01*
X199270734Y-101942371D01*
X199308013Y-101883278D01*
X199371323Y-101853721D01*
X199440562Y-101863083D01*
X199493749Y-101908393D01*
X199509266Y-101942372D01*
X199535769Y-102035523D01*
X199535775Y-102035538D01*
X199634938Y-102234683D01*
X199634943Y-102234691D01*
X199769020Y-102412238D01*
X199933437Y-102562123D01*
X199933439Y-102562125D01*
X200122595Y-102679245D01*
X200122596Y-102679245D01*
X200122599Y-102679247D01*
X200330060Y-102759618D01*
X200548757Y-102800500D01*
X200548759Y-102800500D01*
X200771241Y-102800500D01*
X200771243Y-102800500D01*
X200989940Y-102759618D01*
X201197401Y-102679247D01*
X201386562Y-102562124D01*
X201550981Y-102412236D01*
X201685058Y-102234689D01*
X201784229Y-102035528D01*
X201845115Y-101821536D01*
X201865643Y-101600000D01*
X201845115Y-101378464D01*
X201784229Y-101164472D01*
X201784224Y-101164461D01*
X201685061Y-100965316D01*
X201685056Y-100965308D01*
X201550979Y-100787761D01*
X201386562Y-100637876D01*
X201386560Y-100637874D01*
X201197404Y-100520754D01*
X201197398Y-100520752D01*
X200989940Y-100440382D01*
X200771243Y-100399500D01*
X200548757Y-100399500D01*
X200330060Y-100440382D01*
X200198864Y-100491207D01*
X200122601Y-100520752D01*
X200122595Y-100520754D01*
X199933439Y-100637874D01*
X199933437Y-100637876D01*
X199769020Y-100787761D01*
X199634943Y-100965308D01*
X199634938Y-100965316D01*
X199535775Y-101164461D01*
X199535769Y-101164476D01*
X199509266Y-101257627D01*
X199471987Y-101316721D01*
X199408677Y-101346278D01*
X199339438Y-101336916D01*
X199286251Y-101291606D01*
X199270734Y-101257627D01*
X199244230Y-101164476D01*
X199244229Y-101164472D01*
X199244224Y-101164461D01*
X199145061Y-100965316D01*
X199145056Y-100965308D01*
X199010979Y-100787761D01*
X198846562Y-100637876D01*
X198846560Y-100637874D01*
X198657404Y-100520754D01*
X198657398Y-100520752D01*
X198449940Y-100440382D01*
X198231243Y-100399500D01*
X198008757Y-100399500D01*
X197790060Y-100440382D01*
X197658864Y-100491207D01*
X197582601Y-100520752D01*
X197582595Y-100520754D01*
X197393439Y-100637874D01*
X197393437Y-100637876D01*
X197229020Y-100787761D01*
X197094943Y-100965308D01*
X197094938Y-100965316D01*
X196995775Y-101164461D01*
X196995769Y-101164476D01*
X196934885Y-101378462D01*
X196934884Y-101378464D01*
X196914357Y-101599999D01*
X196914357Y-101600000D01*
X179005643Y-101600000D01*
X178985115Y-101378464D01*
X178924229Y-101164472D01*
X178924224Y-101164461D01*
X178825061Y-100965316D01*
X178825056Y-100965308D01*
X178690979Y-100787761D01*
X178526562Y-100637876D01*
X178526560Y-100637874D01*
X178337404Y-100520754D01*
X178337398Y-100520752D01*
X178129940Y-100440382D01*
X177911243Y-100399500D01*
X177688757Y-100399500D01*
X177470060Y-100440382D01*
X177338864Y-100491207D01*
X177262601Y-100520752D01*
X177262595Y-100520754D01*
X177073439Y-100637874D01*
X177073437Y-100637876D01*
X176909020Y-100787761D01*
X176774943Y-100965308D01*
X176774938Y-100965316D01*
X176675775Y-101164461D01*
X176675769Y-101164476D01*
X176649266Y-101257627D01*
X176611987Y-101316721D01*
X176548677Y-101346278D01*
X176479438Y-101336916D01*
X176426251Y-101291606D01*
X176410734Y-101257627D01*
X176384230Y-101164476D01*
X176384229Y-101164472D01*
X176384224Y-101164461D01*
X176285061Y-100965316D01*
X176285056Y-100965308D01*
X176150979Y-100787761D01*
X175986562Y-100637876D01*
X175986560Y-100637874D01*
X175797404Y-100520754D01*
X175797398Y-100520752D01*
X175589940Y-100440382D01*
X175371243Y-100399500D01*
X175148757Y-100399500D01*
X174930060Y-100440382D01*
X174798864Y-100491207D01*
X174722601Y-100520752D01*
X174722595Y-100520754D01*
X174533439Y-100637874D01*
X174533437Y-100637876D01*
X174369020Y-100787761D01*
X174234943Y-100965308D01*
X174234938Y-100965316D01*
X174135775Y-101164461D01*
X174135769Y-101164476D01*
X174074885Y-101378462D01*
X174074884Y-101378464D01*
X174054357Y-101599999D01*
X174054357Y-101600000D01*
X160820500Y-101600000D01*
X160820500Y-97317844D01*
X174235000Y-97317844D01*
X174241401Y-97377372D01*
X174241403Y-97377379D01*
X174291645Y-97512086D01*
X174291649Y-97512093D01*
X174377809Y-97627187D01*
X174377812Y-97627190D01*
X174492906Y-97713350D01*
X174492913Y-97713354D01*
X174627620Y-97763596D01*
X174627627Y-97763598D01*
X174687155Y-97769999D01*
X174687172Y-97770000D01*
X175010000Y-97770000D01*
X175010000Y-96800617D01*
X175079052Y-96854363D01*
X175197424Y-96895000D01*
X175291073Y-96895000D01*
X175383446Y-96879586D01*
X175493514Y-96820019D01*
X175505630Y-96806856D01*
X175509403Y-96845160D01*
X175510000Y-96857314D01*
X175510000Y-97770000D01*
X175832828Y-97770000D01*
X175832844Y-97769999D01*
X175892372Y-97763598D01*
X175892376Y-97763597D01*
X176027093Y-97713350D01*
X176034876Y-97709101D01*
X176036071Y-97711289D01*
X176089109Y-97691492D01*
X176133982Y-97696513D01*
X176135653Y-97697020D01*
X176135659Y-97697023D01*
X176328967Y-97755662D01*
X176530000Y-97775462D01*
X176731033Y-97755662D01*
X176924341Y-97697023D01*
X177102494Y-97601798D01*
X177102498Y-97601794D01*
X177106546Y-97599631D01*
X177174949Y-97585389D01*
X177223454Y-97599631D01*
X177227502Y-97601794D01*
X177227506Y-97601798D01*
X177405659Y-97697023D01*
X177598967Y-97755662D01*
X177800000Y-97775462D01*
X178001033Y-97755662D01*
X178194341Y-97697023D01*
X178372494Y-97601798D01*
X178528647Y-97473647D01*
X178656511Y-97317844D01*
X197095000Y-97317844D01*
X197101401Y-97377372D01*
X197101403Y-97377379D01*
X197151645Y-97512086D01*
X197151649Y-97512093D01*
X197237809Y-97627187D01*
X197237812Y-97627190D01*
X197352906Y-97713350D01*
X197352913Y-97713354D01*
X197487620Y-97763596D01*
X197487627Y-97763598D01*
X197547155Y-97769999D01*
X197547172Y-97770000D01*
X197870000Y-97770000D01*
X197870000Y-96800617D01*
X197939052Y-96854363D01*
X198057424Y-96895000D01*
X198151073Y-96895000D01*
X198243446Y-96879586D01*
X198353514Y-96820019D01*
X198365630Y-96806856D01*
X198369403Y-96845160D01*
X198370000Y-96857314D01*
X198370000Y-97770000D01*
X198692828Y-97770000D01*
X198692844Y-97769999D01*
X198752372Y-97763598D01*
X198752376Y-97763597D01*
X198887093Y-97713350D01*
X198894876Y-97709101D01*
X198896071Y-97711289D01*
X198949109Y-97691492D01*
X198993982Y-97696513D01*
X198995653Y-97697020D01*
X198995659Y-97697023D01*
X199188967Y-97755662D01*
X199390000Y-97775462D01*
X199591033Y-97755662D01*
X199784341Y-97697023D01*
X199962494Y-97601798D01*
X199962498Y-97601794D01*
X199966546Y-97599631D01*
X200034949Y-97585389D01*
X200083454Y-97599631D01*
X200087502Y-97601794D01*
X200087506Y-97601798D01*
X200265659Y-97697023D01*
X200458967Y-97755662D01*
X200660000Y-97775462D01*
X200861033Y-97755662D01*
X201054341Y-97697023D01*
X201232494Y-97601798D01*
X201388647Y-97473647D01*
X201516798Y-97317494D01*
X201612023Y-97139341D01*
X201670662Y-96946033D01*
X201685500Y-96795380D01*
X201685500Y-96244620D01*
X201670662Y-96093967D01*
X201612023Y-95900659D01*
X201612021Y-95900656D01*
X201612021Y-95900654D01*
X201516801Y-95722511D01*
X201516799Y-95722509D01*
X201516798Y-95722506D01*
X201467651Y-95662620D01*
X201388647Y-95566352D01*
X201232495Y-95438203D01*
X201232488Y-95438198D01*
X201054345Y-95342978D01*
X200861031Y-95284337D01*
X200660000Y-95264538D01*
X200458968Y-95284337D01*
X200265654Y-95342978D01*
X200083453Y-95440367D01*
X200015050Y-95454609D01*
X199966547Y-95440367D01*
X199784345Y-95342978D01*
X199591031Y-95284337D01*
X199390000Y-95264538D01*
X199188968Y-95284337D01*
X199051371Y-95326076D01*
X198995659Y-95342977D01*
X198995657Y-95342977D01*
X198993982Y-95343486D01*
X198924115Y-95344109D01*
X198895414Y-95329902D01*
X198894872Y-95330897D01*
X198887086Y-95326645D01*
X198752379Y-95276403D01*
X198752372Y-95276401D01*
X198692844Y-95270000D01*
X198370000Y-95270000D01*
X198370000Y-96182684D01*
X198369403Y-96194837D01*
X198365370Y-96235779D01*
X198300948Y-96185637D01*
X198182576Y-96145000D01*
X198088927Y-96145000D01*
X197996554Y-96160414D01*
X197886486Y-96219981D01*
X197870000Y-96237889D01*
X197870000Y-95270000D01*
X197547155Y-95270000D01*
X197487627Y-95276401D01*
X197487620Y-95276403D01*
X197352913Y-95326645D01*
X197352906Y-95326649D01*
X197237812Y-95412809D01*
X197237809Y-95412812D01*
X197151649Y-95527906D01*
X197151645Y-95527913D01*
X197101403Y-95662620D01*
X197101401Y-95662627D01*
X197095000Y-95722155D01*
X197095000Y-96270000D01*
X197840440Y-96270000D01*
X197801722Y-96312059D01*
X197751449Y-96426670D01*
X197741114Y-96551395D01*
X197771837Y-96672719D01*
X197835394Y-96770000D01*
X197095000Y-96770000D01*
X197095000Y-97317844D01*
X178656511Y-97317844D01*
X178656798Y-97317494D01*
X178752023Y-97139341D01*
X178810662Y-96946033D01*
X178825500Y-96795380D01*
X178825500Y-96244620D01*
X178810662Y-96093967D01*
X178752023Y-95900659D01*
X178752021Y-95900656D01*
X178752021Y-95900654D01*
X178656801Y-95722511D01*
X178656799Y-95722509D01*
X178656798Y-95722506D01*
X178607651Y-95662620D01*
X178528647Y-95566352D01*
X178372495Y-95438203D01*
X178372488Y-95438198D01*
X178194345Y-95342978D01*
X178001031Y-95284337D01*
X177800000Y-95264538D01*
X177598968Y-95284337D01*
X177405654Y-95342978D01*
X177223453Y-95440367D01*
X177155050Y-95454609D01*
X177106547Y-95440367D01*
X176924345Y-95342978D01*
X176731031Y-95284337D01*
X176530000Y-95264538D01*
X176328968Y-95284337D01*
X176191371Y-95326076D01*
X176135659Y-95342977D01*
X176135657Y-95342977D01*
X176133982Y-95343486D01*
X176064115Y-95344109D01*
X176035414Y-95329902D01*
X176034872Y-95330897D01*
X176027086Y-95326645D01*
X175892379Y-95276403D01*
X175892372Y-95276401D01*
X175832844Y-95270000D01*
X175510000Y-95270000D01*
X175510000Y-96182684D01*
X175509403Y-96194837D01*
X175505370Y-96235779D01*
X175440948Y-96185637D01*
X175322576Y-96145000D01*
X175228927Y-96145000D01*
X175136554Y-96160414D01*
X175026486Y-96219981D01*
X175010000Y-96237889D01*
X175010000Y-95270000D01*
X174687155Y-95270000D01*
X174627627Y-95276401D01*
X174627620Y-95276403D01*
X174492913Y-95326645D01*
X174492906Y-95326649D01*
X174377812Y-95412809D01*
X174377809Y-95412812D01*
X174291649Y-95527906D01*
X174291645Y-95527913D01*
X174241403Y-95662620D01*
X174241401Y-95662627D01*
X174235000Y-95722155D01*
X174235000Y-96270000D01*
X174980440Y-96270000D01*
X174941722Y-96312059D01*
X174891449Y-96426670D01*
X174881114Y-96551395D01*
X174911837Y-96672719D01*
X174975394Y-96770000D01*
X174235000Y-96770000D01*
X174235000Y-97317844D01*
X160820500Y-97317844D01*
X160820500Y-94362938D01*
X160840185Y-94295899D01*
X160856814Y-94275262D01*
X166232076Y-88900000D01*
X176594357Y-88900000D01*
X176614884Y-89121535D01*
X176614885Y-89121537D01*
X176675769Y-89335523D01*
X176675775Y-89335538D01*
X176774938Y-89534683D01*
X176774943Y-89534691D01*
X176909020Y-89712238D01*
X177073437Y-89862123D01*
X177073439Y-89862125D01*
X177262595Y-89979245D01*
X177262596Y-89979245D01*
X177262599Y-89979247D01*
X177470060Y-90059618D01*
X177688757Y-90100500D01*
X177688759Y-90100500D01*
X177911241Y-90100500D01*
X177911243Y-90100500D01*
X178129940Y-90059618D01*
X178337401Y-89979247D01*
X178526562Y-89862124D01*
X178690981Y-89712236D01*
X178825058Y-89534689D01*
X178924229Y-89335528D01*
X178950734Y-89242371D01*
X178988013Y-89183278D01*
X179051323Y-89153721D01*
X179120562Y-89163083D01*
X179173749Y-89208393D01*
X179189266Y-89242372D01*
X179215769Y-89335523D01*
X179215775Y-89335538D01*
X179314938Y-89534683D01*
X179314943Y-89534691D01*
X179449020Y-89712238D01*
X179613437Y-89862123D01*
X179613439Y-89862125D01*
X179802595Y-89979245D01*
X179802596Y-89979245D01*
X179802599Y-89979247D01*
X180010060Y-90059618D01*
X180228757Y-90100500D01*
X180228759Y-90100500D01*
X180451241Y-90100500D01*
X180451243Y-90100500D01*
X180669940Y-90059618D01*
X180877401Y-89979247D01*
X181066562Y-89862124D01*
X181230981Y-89712236D01*
X181365058Y-89534689D01*
X181464229Y-89335528D01*
X181525115Y-89121536D01*
X181545643Y-88900000D01*
X181525115Y-88678464D01*
X181464229Y-88464472D01*
X181464224Y-88464461D01*
X181365061Y-88265316D01*
X181365056Y-88265308D01*
X181230979Y-88087761D01*
X181066562Y-87937876D01*
X181066560Y-87937874D01*
X180877404Y-87820754D01*
X180877398Y-87820752D01*
X180669940Y-87740382D01*
X180451243Y-87699500D01*
X180228757Y-87699500D01*
X180010060Y-87740382D01*
X179878864Y-87791207D01*
X179802601Y-87820752D01*
X179802595Y-87820754D01*
X179613439Y-87937874D01*
X179613437Y-87937876D01*
X179449020Y-88087761D01*
X179314943Y-88265308D01*
X179314938Y-88265316D01*
X179215775Y-88464461D01*
X179215769Y-88464476D01*
X179189266Y-88557627D01*
X179151987Y-88616721D01*
X179088677Y-88646278D01*
X179019438Y-88636916D01*
X178966251Y-88591606D01*
X178950734Y-88557627D01*
X178924230Y-88464476D01*
X178924229Y-88464472D01*
X178924224Y-88464461D01*
X178825061Y-88265316D01*
X178825056Y-88265308D01*
X178690979Y-88087761D01*
X178526562Y-87937876D01*
X178526560Y-87937874D01*
X178337404Y-87820754D01*
X178337398Y-87820752D01*
X178129940Y-87740382D01*
X177911243Y-87699500D01*
X177688757Y-87699500D01*
X177470060Y-87740382D01*
X177338864Y-87791207D01*
X177262601Y-87820752D01*
X177262595Y-87820754D01*
X177073439Y-87937874D01*
X177073437Y-87937876D01*
X176909020Y-88087761D01*
X176774943Y-88265308D01*
X176774938Y-88265316D01*
X176675775Y-88464461D01*
X176675769Y-88464476D01*
X176614885Y-88678462D01*
X176614884Y-88678464D01*
X176594357Y-88899999D01*
X176594357Y-88900000D01*
X166232076Y-88900000D01*
X168772076Y-86360000D01*
X199454357Y-86360000D01*
X199474884Y-86581535D01*
X199474885Y-86581537D01*
X199535769Y-86795523D01*
X199535775Y-86795538D01*
X199634938Y-86994683D01*
X199634943Y-86994691D01*
X199769020Y-87172238D01*
X199933437Y-87322123D01*
X199933439Y-87322125D01*
X200122595Y-87439245D01*
X200122596Y-87439245D01*
X200122599Y-87439247D01*
X200330060Y-87519618D01*
X200548757Y-87560500D01*
X200548759Y-87560500D01*
X200771241Y-87560500D01*
X200771243Y-87560500D01*
X200989940Y-87519618D01*
X201197401Y-87439247D01*
X201386562Y-87322124D01*
X201550981Y-87172236D01*
X201685058Y-86994689D01*
X201784229Y-86795528D01*
X201810734Y-86702371D01*
X201848013Y-86643278D01*
X201911323Y-86613721D01*
X201980562Y-86623083D01*
X202033749Y-86668393D01*
X202049266Y-86702372D01*
X202075769Y-86795523D01*
X202075775Y-86795538D01*
X202174938Y-86994683D01*
X202174943Y-86994691D01*
X202309020Y-87172238D01*
X202473437Y-87322123D01*
X202473439Y-87322125D01*
X202662595Y-87439245D01*
X202662596Y-87439245D01*
X202662599Y-87439247D01*
X202870060Y-87519618D01*
X203088757Y-87560500D01*
X203088759Y-87560500D01*
X203311241Y-87560500D01*
X203311243Y-87560500D01*
X203529940Y-87519618D01*
X203737401Y-87439247D01*
X203926562Y-87322124D01*
X204090981Y-87172236D01*
X204225058Y-86994689D01*
X204324229Y-86795528D01*
X204385115Y-86581536D01*
X204405643Y-86360000D01*
X204385115Y-86138464D01*
X204324229Y-85924472D01*
X204324224Y-85924461D01*
X204225061Y-85725316D01*
X204225056Y-85725308D01*
X204090979Y-85547761D01*
X203926562Y-85397876D01*
X203926560Y-85397874D01*
X203737404Y-85280754D01*
X203737398Y-85280752D01*
X203529940Y-85200382D01*
X203311243Y-85159500D01*
X203088757Y-85159500D01*
X202870060Y-85200382D01*
X202738864Y-85251207D01*
X202662601Y-85280752D01*
X202662595Y-85280754D01*
X202473439Y-85397874D01*
X202473437Y-85397876D01*
X202309020Y-85547761D01*
X202174943Y-85725308D01*
X202174938Y-85725316D01*
X202075775Y-85924461D01*
X202075769Y-85924476D01*
X202049266Y-86017627D01*
X202011987Y-86076721D01*
X201948677Y-86106278D01*
X201879438Y-86096916D01*
X201826251Y-86051606D01*
X201810734Y-86017627D01*
X201784230Y-85924476D01*
X201784229Y-85924472D01*
X201784224Y-85924461D01*
X201685061Y-85725316D01*
X201685056Y-85725308D01*
X201550979Y-85547761D01*
X201386562Y-85397876D01*
X201386560Y-85397874D01*
X201197404Y-85280754D01*
X201197398Y-85280752D01*
X200989940Y-85200382D01*
X200771243Y-85159500D01*
X200548757Y-85159500D01*
X200330060Y-85200382D01*
X200198864Y-85251207D01*
X200122601Y-85280752D01*
X200122595Y-85280754D01*
X199933439Y-85397874D01*
X199933437Y-85397876D01*
X199769020Y-85547761D01*
X199634943Y-85725308D01*
X199634938Y-85725316D01*
X199535775Y-85924461D01*
X199535769Y-85924476D01*
X199474885Y-86138462D01*
X199474884Y-86138464D01*
X199454357Y-86359999D01*
X199454357Y-86360000D01*
X168772076Y-86360000D01*
X173212052Y-81920023D01*
X173212057Y-81920020D01*
X173222260Y-81909816D01*
X173222262Y-81909816D01*
X173349816Y-81782262D01*
X173668414Y-81463663D01*
X173729733Y-81430181D01*
X173799424Y-81435165D01*
X173855358Y-81477036D01*
X173876297Y-81520906D01*
X173930843Y-81736301D01*
X174024075Y-81948848D01*
X174151016Y-82143147D01*
X174151019Y-82143150D01*
X174151021Y-82143153D01*
X174308216Y-82313913D01*
X174308219Y-82313915D01*
X174308222Y-82313918D01*
X174491365Y-82456464D01*
X174491371Y-82456468D01*
X174491374Y-82456470D01*
X174695497Y-82566936D01*
X174809487Y-82606068D01*
X174915015Y-82642297D01*
X174915017Y-82642297D01*
X174915019Y-82642298D01*
X175143951Y-82680500D01*
X175143952Y-82680500D01*
X175376048Y-82680500D01*
X175376049Y-82680500D01*
X175604981Y-82642298D01*
X175824503Y-82566936D01*
X176028626Y-82456470D01*
X176211784Y-82313913D01*
X176220130Y-82304846D01*
X176280010Y-82268854D01*
X176349849Y-82270949D01*
X176407468Y-82310469D01*
X176427544Y-82345491D01*
X176456203Y-82422330D01*
X176456206Y-82422335D01*
X176542452Y-82537544D01*
X176542455Y-82537547D01*
X176657664Y-82623793D01*
X176657671Y-82623797D01*
X176792517Y-82674091D01*
X176792516Y-82674091D01*
X176799444Y-82674835D01*
X176852127Y-82680500D01*
X178747872Y-82680499D01*
X178807483Y-82674091D01*
X178942331Y-82623796D01*
X179057546Y-82537546D01*
X179143796Y-82422331D01*
X179194091Y-82287483D01*
X179200500Y-82227873D01*
X179200499Y-80332128D01*
X179194091Y-80272517D01*
X179184233Y-80246087D01*
X179143797Y-80137671D01*
X179143793Y-80137664D01*
X179057547Y-80022455D01*
X179057544Y-80022452D01*
X178942335Y-79936206D01*
X178942328Y-79936202D01*
X178807482Y-79885908D01*
X178807483Y-79885908D01*
X178747883Y-79879501D01*
X178747881Y-79879500D01*
X178747873Y-79879500D01*
X178747864Y-79879500D01*
X176852129Y-79879500D01*
X176852123Y-79879501D01*
X176792516Y-79885908D01*
X176657671Y-79936202D01*
X176657664Y-79936206D01*
X176542455Y-80022452D01*
X176542452Y-80022455D01*
X176456206Y-80137664D01*
X176456203Y-80137670D01*
X176427544Y-80214508D01*
X176385672Y-80270441D01*
X176320208Y-80294858D01*
X176251935Y-80280006D01*
X176220135Y-80255158D01*
X176211784Y-80246087D01*
X176211778Y-80246082D01*
X176211777Y-80246081D01*
X176108338Y-80165571D01*
X176067525Y-80108861D01*
X176060500Y-80067718D01*
X176060500Y-79664500D01*
X176080185Y-79597461D01*
X176132989Y-79551706D01*
X176184500Y-79540500D01*
X185037060Y-79540500D01*
X185104099Y-79560185D01*
X185124741Y-79576819D01*
X186534965Y-80987043D01*
X186568450Y-81048366D01*
X186570860Y-81084961D01*
X186557852Y-81241969D01*
X186554700Y-81280004D01*
X186554700Y-81280006D01*
X186573864Y-81511297D01*
X186573866Y-81511308D01*
X186630842Y-81736300D01*
X186724075Y-81948848D01*
X186851016Y-82143147D01*
X186851019Y-82143150D01*
X186851021Y-82143153D01*
X187008216Y-82313913D01*
X187008219Y-82313915D01*
X187008222Y-82313918D01*
X187191365Y-82456464D01*
X187191371Y-82456468D01*
X187191374Y-82456470D01*
X187395497Y-82566936D01*
X187509487Y-82606068D01*
X187615015Y-82642297D01*
X187615017Y-82642297D01*
X187615019Y-82642298D01*
X187843951Y-82680500D01*
X187843952Y-82680500D01*
X188076048Y-82680500D01*
X188076049Y-82680500D01*
X188304981Y-82642298D01*
X188524503Y-82566936D01*
X188728626Y-82456470D01*
X188911784Y-82313913D01*
X188920130Y-82304846D01*
X188980010Y-82268854D01*
X189049849Y-82270949D01*
X189107468Y-82310469D01*
X189127544Y-82345491D01*
X189156203Y-82422330D01*
X189156206Y-82422335D01*
X189242452Y-82537544D01*
X189242455Y-82537547D01*
X189357664Y-82623793D01*
X189357671Y-82623797D01*
X189492517Y-82674091D01*
X189492516Y-82674091D01*
X189499444Y-82674835D01*
X189552127Y-82680500D01*
X191447872Y-82680499D01*
X191507483Y-82674091D01*
X191642331Y-82623796D01*
X191757546Y-82537546D01*
X191843796Y-82422331D01*
X191894091Y-82287483D01*
X191900500Y-82227873D01*
X191900499Y-80332128D01*
X191894091Y-80272517D01*
X191884233Y-80246087D01*
X191843797Y-80137671D01*
X191843793Y-80137664D01*
X191757547Y-80022455D01*
X191757544Y-80022452D01*
X191642335Y-79936206D01*
X191642328Y-79936202D01*
X191507482Y-79885908D01*
X191507483Y-79885908D01*
X191447883Y-79879501D01*
X191447881Y-79879500D01*
X191447873Y-79879500D01*
X191447864Y-79879500D01*
X189552129Y-79879500D01*
X189552123Y-79879501D01*
X189492516Y-79885908D01*
X189357671Y-79936202D01*
X189357664Y-79936206D01*
X189242455Y-80022452D01*
X189242452Y-80022455D01*
X189156206Y-80137664D01*
X189156203Y-80137670D01*
X189127544Y-80214508D01*
X189085672Y-80270441D01*
X189020208Y-80294858D01*
X188951935Y-80280006D01*
X188920135Y-80255158D01*
X188911784Y-80246087D01*
X188911778Y-80246082D01*
X188911777Y-80246081D01*
X188728634Y-80103535D01*
X188728628Y-80103531D01*
X188524504Y-79993064D01*
X188524495Y-79993061D01*
X188304984Y-79917702D01*
X188114450Y-79885908D01*
X188076049Y-79879500D01*
X187843951Y-79879500D01*
X187843950Y-79879500D01*
X187776323Y-79890784D01*
X187706958Y-79882401D01*
X187668234Y-79856156D01*
X185922262Y-78110184D01*
X185922259Y-78110182D01*
X185889849Y-78089817D01*
X185878510Y-78081771D01*
X185848589Y-78057910D01*
X185814093Y-78041296D01*
X185801927Y-78034572D01*
X185769524Y-78014212D01*
X185769525Y-78014212D01*
X185762652Y-78011807D01*
X185733393Y-78001568D01*
X185720554Y-77996250D01*
X185686061Y-77979639D01*
X185648735Y-77971119D01*
X185635380Y-77967271D01*
X185599260Y-77954633D01*
X185599256Y-77954632D01*
X185599255Y-77954632D01*
X185581139Y-77952590D01*
X185561217Y-77950345D01*
X185547518Y-77948017D01*
X185510200Y-77939501D01*
X185510196Y-77939500D01*
X185510194Y-77939500D01*
X185510191Y-77939500D01*
X175311915Y-77939500D01*
X175298031Y-77938720D01*
X175260002Y-77934435D01*
X175259998Y-77934435D01*
X175221969Y-77938720D01*
X175208085Y-77939500D01*
X175169805Y-77939500D01*
X175169804Y-77939500D01*
X175169797Y-77939501D01*
X175137129Y-77946957D01*
X175137101Y-77946964D01*
X175132456Y-77948023D01*
X175118782Y-77950345D01*
X175080743Y-77954632D01*
X175044621Y-77967271D01*
X175031269Y-77971118D01*
X174997099Y-77978918D01*
X174993944Y-77979639D01*
X174993935Y-77979641D01*
X174959440Y-77996251D01*
X174946605Y-78001568D01*
X174910480Y-78014210D01*
X174910476Y-78014212D01*
X174878067Y-78034575D01*
X174865903Y-78041298D01*
X174831412Y-78057908D01*
X174828566Y-78059928D01*
X174825963Y-78062255D01*
X174801487Y-78081773D01*
X174790152Y-78089816D01*
X174757739Y-78110183D01*
X174757735Y-78110186D01*
X172424741Y-80443181D01*
X172363418Y-80476666D01*
X172337060Y-80479500D01*
X152782940Y-80479500D01*
X152715901Y-80459815D01*
X152695259Y-80443181D01*
X152086346Y-79834268D01*
X152052861Y-79772945D01*
X152057845Y-79703253D01*
X152086344Y-79658907D01*
X152149659Y-79595593D01*
X152282740Y-79405533D01*
X152380796Y-79195251D01*
X152440847Y-78971137D01*
X152461069Y-78740000D01*
X152440847Y-78508863D01*
X152380796Y-78284749D01*
X152282740Y-78074467D01*
X152149659Y-77884407D01*
X152149657Y-77884404D01*
X151985598Y-77720345D01*
X151795536Y-77587263D01*
X151795534Y-77587262D01*
X151740527Y-77561612D01*
X151585254Y-77489207D01*
X151585250Y-77489206D01*
X151585246Y-77489204D01*
X151361145Y-77429157D01*
X151361135Y-77429155D01*
X151130004Y-77408934D01*
X151130002Y-77408934D01*
X150898870Y-77429155D01*
X150898860Y-77429157D01*
X150674759Y-77489204D01*
X150674750Y-77489208D01*
X150464471Y-77587262D01*
X150464469Y-77587263D01*
X150274407Y-77720345D01*
X150110348Y-77884404D01*
X149977267Y-78074465D01*
X149977266Y-78074467D01*
X149972380Y-78084943D01*
X149926209Y-78137381D01*
X149859015Y-78156532D01*
X149792134Y-78136316D01*
X149747619Y-78084943D01*
X149742734Y-78074467D01*
X149609653Y-77884407D01*
X149609651Y-77884404D01*
X149445592Y-77720345D01*
X149255530Y-77587263D01*
X149255528Y-77587262D01*
X149200521Y-77561612D01*
X149045248Y-77489207D01*
X149045244Y-77489206D01*
X149045240Y-77489204D01*
X148821139Y-77429157D01*
X148821129Y-77429155D01*
X148589998Y-77408934D01*
X148589996Y-77408934D01*
X148358864Y-77429155D01*
X148358854Y-77429157D01*
X148134753Y-77489204D01*
X148134744Y-77489208D01*
X147924465Y-77587262D01*
X147924463Y-77587263D01*
X147734401Y-77720345D01*
X147570342Y-77884404D01*
X147437260Y-78074466D01*
X147437259Y-78074468D01*
X147339205Y-78284747D01*
X147339201Y-78284756D01*
X147279154Y-78508857D01*
X147279152Y-78508867D01*
X147258931Y-78739999D01*
X147258931Y-78740000D01*
X147279152Y-78971132D01*
X147279154Y-78971142D01*
X147339201Y-79195243D01*
X147339203Y-79195247D01*
X147339204Y-79195251D01*
X147422874Y-79374683D01*
X147437259Y-79405531D01*
X147437260Y-79405533D01*
X147570342Y-79595595D01*
X147734401Y-79759654D01*
X147739714Y-79763374D01*
X147924464Y-79892737D01*
X148134746Y-79990793D01*
X148134752Y-79990794D01*
X148134753Y-79990795D01*
X148188693Y-80005248D01*
X148358860Y-80050844D01*
X148543769Y-80067021D01*
X148589996Y-80071066D01*
X148589997Y-80071066D01*
X148589998Y-80071066D01*
X148628519Y-80067695D01*
X148821134Y-80050844D01*
X149045248Y-79990793D01*
X149255530Y-79892737D01*
X149445590Y-79759656D01*
X149609653Y-79595593D01*
X149742734Y-79405533D01*
X149747618Y-79395058D01*
X149793789Y-79342620D01*
X149860982Y-79323467D01*
X149927863Y-79343682D01*
X149972381Y-79395058D01*
X149977265Y-79405531D01*
X149977266Y-79405533D01*
X150110348Y-79595595D01*
X150274404Y-79759651D01*
X150274407Y-79759653D01*
X150274410Y-79759656D01*
X150276616Y-79761201D01*
X150277363Y-79762135D01*
X150278555Y-79763135D01*
X150278354Y-79763374D01*
X150320246Y-79815772D01*
X150329503Y-79862782D01*
X150329503Y-80100194D01*
X150329504Y-80100203D01*
X150338020Y-80137521D01*
X150340348Y-80151220D01*
X150344636Y-80189263D01*
X150357274Y-80225383D01*
X150361122Y-80238738D01*
X150369642Y-80276064D01*
X150381988Y-80301700D01*
X150393339Y-80370641D01*
X150365616Y-80434776D01*
X150307620Y-80473740D01*
X150270267Y-80479500D01*
X147371968Y-80479500D01*
X147358084Y-80478720D01*
X147320002Y-80474429D01*
X147319998Y-80474429D01*
X147281916Y-80478720D01*
X147268032Y-80479500D01*
X128524499Y-80479500D01*
X128457460Y-80459815D01*
X128411705Y-80407011D01*
X128400499Y-80355500D01*
X128400499Y-80332129D01*
X128400498Y-80332123D01*
X128396492Y-80294858D01*
X128394091Y-80272517D01*
X128384233Y-80246087D01*
X128343797Y-80137671D01*
X128343793Y-80137664D01*
X128257547Y-80022455D01*
X128257544Y-80022452D01*
X128142335Y-79936206D01*
X128142328Y-79936202D01*
X128007482Y-79885908D01*
X128007483Y-79885908D01*
X127947883Y-79879501D01*
X127947881Y-79879500D01*
X127947873Y-79879500D01*
X127947864Y-79879500D01*
X126052129Y-79879500D01*
X126052123Y-79879501D01*
X125992516Y-79885908D01*
X125857671Y-79936202D01*
X125857664Y-79936206D01*
X125742455Y-80022452D01*
X125742452Y-80022455D01*
X125656206Y-80137664D01*
X125656203Y-80137670D01*
X125627544Y-80214508D01*
X125585672Y-80270441D01*
X125520208Y-80294858D01*
X125451935Y-80280006D01*
X125420135Y-80255158D01*
X125411784Y-80246087D01*
X125411778Y-80246082D01*
X125411777Y-80246081D01*
X125228634Y-80103535D01*
X125228628Y-80103531D01*
X125024504Y-79993064D01*
X125024495Y-79993061D01*
X124804984Y-79917702D01*
X124614450Y-79885908D01*
X124576049Y-79879500D01*
X124343951Y-79879500D01*
X124305550Y-79885908D01*
X124115015Y-79917702D01*
X123895504Y-79993061D01*
X123895495Y-79993064D01*
X123691371Y-80103531D01*
X123691365Y-80103535D01*
X123508222Y-80246081D01*
X123508219Y-80246084D01*
X123508216Y-80246086D01*
X123508216Y-80246087D01*
X123463319Y-80294858D01*
X123351019Y-80416849D01*
X123346791Y-80423321D01*
X123293645Y-80468678D01*
X123242982Y-80479500D01*
X117772940Y-80479500D01*
X117705901Y-80459815D01*
X117685259Y-80443181D01*
X115352262Y-78110184D01*
X115352259Y-78110182D01*
X115319849Y-78089817D01*
X115308510Y-78081771D01*
X115278589Y-78057910D01*
X115244093Y-78041296D01*
X115231927Y-78034572D01*
X115199524Y-78014212D01*
X115199525Y-78014212D01*
X115192652Y-78011807D01*
X115163393Y-78001568D01*
X115150554Y-77996250D01*
X115116061Y-77979639D01*
X115078735Y-77971119D01*
X115065380Y-77967271D01*
X115029260Y-77954633D01*
X115029256Y-77954632D01*
X115029255Y-77954632D01*
X115011139Y-77952590D01*
X114991217Y-77950345D01*
X114977518Y-77948017D01*
X114940200Y-77939501D01*
X114940196Y-77939500D01*
X114940194Y-77939500D01*
X114894954Y-77939500D01*
X109310194Y-77939500D01*
X109129805Y-77939500D01*
X109129803Y-77939500D01*
X109129797Y-77939501D01*
X109092489Y-77948016D01*
X109078786Y-77950345D01*
X109040743Y-77954632D01*
X109004610Y-77967275D01*
X108991256Y-77971122D01*
X108953940Y-77979640D01*
X108919458Y-77996245D01*
X108906620Y-78001563D01*
X108884546Y-78009287D01*
X108870478Y-78014211D01*
X108870476Y-78014212D01*
X108870474Y-78014213D01*
X108838061Y-78034578D01*
X108825900Y-78041299D01*
X108791413Y-78057908D01*
X108791411Y-78057910D01*
X108761488Y-78081772D01*
X108750152Y-78089816D01*
X108717739Y-78110183D01*
X108717735Y-78110186D01*
X106050186Y-80777735D01*
X106050183Y-80777739D01*
X106029816Y-80810152D01*
X106021772Y-80821488D01*
X105997910Y-80851410D01*
X105981300Y-80885900D01*
X105974577Y-80898064D01*
X105954212Y-80930476D01*
X105954208Y-80930483D01*
X105941565Y-80966613D01*
X105936247Y-80979452D01*
X105919639Y-81013939D01*
X105911118Y-81051269D01*
X105907271Y-81064622D01*
X105894632Y-81100743D01*
X105890345Y-81138781D01*
X105888018Y-81152478D01*
X105879500Y-81189807D01*
X105879500Y-81228085D01*
X105878720Y-81241969D01*
X105874435Y-81279998D01*
X105874435Y-81280001D01*
X76200500Y-81280001D01*
X76200500Y-73784500D01*
X76220185Y-73717461D01*
X76272989Y-73671706D01*
X76324500Y-73660500D01*
X208155500Y-73660500D01*
X208222539Y-73680185D01*
G37*
%TD.AperFunction*%
%TD*%
M02*
